<?xml version="1.0" encoding="utf-8"?>
<!-- Generator: Adobe Illustrator 16.0.4, SVG Export Plug-In . SVG Version: 6.00 Build 0)  -->
<!DOCTYPE svg PUBLIC "-//W3C//DTD SVG 1.1//EN" "http://www.w3.org/Graphics/SVG/1.1/DTD/svg11.dtd">
<svg version="1.1" id="background_1_" xmlns="http://www.w3.org/2000/svg" xmlns:xlink="http://www.w3.org/1999/xlink" x="0px"
	 y="0px" width="1280px" height="426.666px" viewBox="0 0 1280 426.666" enable-background="new 0 0 1280 426.666"
	 xml:space="preserve">
<path fill="#E3F6FA" d="M905.35,89.59c0,27.372,22.192,49.567,49.562,49.567c6.459,0,12.608-1.274,18.259-3.516
	c7.346,34.052,37.611,59.588,73.866,59.588c41.747,0,75.592-33.848,75.592-75.598c0-0.131-0.015-0.255-0.015-0.385
	c4.146,1.208,8.512,1.885,13.039,1.885c5.548,0,10.858-1.023,15.795-2.807c6.447,17.968,23.589,30.842,43.783,30.842
	c21.051,0,38.824-13.981,44.58-33.159c2.983,1.033,6.162,1.618,9.489,1.618c13.919,0,26.292-9.791,29.122-22.86l0,0L1280,53.118V0
	H905.35C905.35,0,905.35,87.131,905.35,89.59z"/>
<path fill="#E3F6FA" d="M464.408,187.559h7.031c3.73,0,6.75-3.024,6.75-6.749c0-3.727-3.02-6.747-6.75-6.747h-14.324h-28.474
	c-3.728,0-6.749-3.023-6.749-6.75c0-3.726,3.021-6.749,6.749-6.749h30.615c-3.728,0-6.747-3.021-6.747-6.745
	c0-3.727,3.02-6.749,6.747-6.749h7.285c3.725,0,6.749-3.022,6.749-6.747c0-3.728-3.024-6.75-6.749-6.75h-0.017h-9.41H431.71
	c0,3.727-3.021,6.75-6.746,6.75H374.32c-3.726,0-6.748-3.023-6.748-6.75H97.974h-9.427c-3.725,0-6.747,3.022-6.747,6.75
	c0,3.725,3.022,6.747,6.747,6.747h9.427v13.464h-1.878c-3.715,0-6.723,3.009-6.723,6.726c0,3.715,3.008,6.726,6.723,6.726H81.748
	c-3.729,0-6.749,3.021-6.749,6.747s3.02,6.749,6.749,6.749h16.227v13.496h-1.878c-3.715,0-6.723,3.01-6.723,6.724
	c0,3.717,3.008,6.726,6.723,6.726h1.878v-0.887c0,4.216,3.419,7.636,7.636,7.636h207.528c0,0.02-0.006,0.041-0.006,0.058
	c0,3.695,2.995,6.689,6.688,6.689h73.468v-0.128c-3.124-0.589-5.489-3.324-5.489-6.619c0-3.728,3.022-6.749,6.749-6.749h62.568
	v0.121h9.427c0.408,0,0.807-0.05,1.198-0.121c3.151-0.566,5.55-3.307,5.55-6.624c0-3.731-3.024-6.746-6.749-6.746h-2.134
	c-3.728,0-6.749-3.022-6.749-6.75C457.66,190.581,460.681,187.559,464.408,187.559z M134.554,153.818
	c0-3.727,3.023-6.749,6.749-6.749c3.729,0,6.749,3.022,6.749,6.749c0,3.725-3.019,6.745-6.749,6.745
	C137.578,160.563,134.554,157.543,134.554,153.818z M171.408,187.48h-18.586c-3.727,0-6.747-3.023-6.747-6.749
	s3.021-6.747,6.747-6.747h18.586c3.725,0,6.747,3.021,6.747,6.747S175.133,187.48,171.408,187.48z M341.384,188.056h34.214
	c3.727,0,6.748,3.021,6.748,6.747s-3.021,6.748-6.748,6.748h-34.214c-3.727,0-6.747-3.021-6.747-6.748
	S337.657,188.056,341.384,188.056z M424.964,201.551h-14.221c-3.731,0-6.75-3.021-6.75-6.748s3.019-6.747,6.75-6.747h14.221
	c3.725,0,6.746,3.021,6.746,6.747S428.689,201.551,424.964,201.551z"/>
<path fill="#E3F6FA" d="M1233.821,229.711h7.034c3.728,0,6.75-3.022,6.75-6.747c0-3.726-3.022-6.748-6.75-6.748h-14.327h-28.47
	c-3.73,0-6.751-3.021-6.751-6.749c0-3.726,3.021-6.749,6.751-6.749h30.614c-3.729,0-6.751-3.02-6.751-6.745
	c0-3.727,3.022-6.749,6.751-6.749h7.282c3.726,0,6.751-3.021,6.751-6.747c0-3.728-3.025-6.75-6.751-6.75h-0.016h-9.411h-25.403
	c0,3.728-3.02,6.75-6.748,6.75h-50.641c-3.728,0-6.747-3.022-6.747-6.75H867.393h-9.43c-3.724,0-6.749,3.022-6.749,6.75
	c0,3.727,3.025,6.747,6.749,6.747h9.43v13.464h-1.879c-3.719,0-6.728,3.009-6.728,6.725s3.009,6.727,6.728,6.727H851.16
	c-3.724,0-6.743,3.022-6.743,6.747s3.02,6.747,6.743,6.747h16.232v13.498h-1.879c-3.719,0-6.728,3.011-6.728,6.724
	c0,3.718,3.009,6.726,6.728,6.726h1.879v-0.886c0,4.217,3.413,7.634,7.633,7.634h207.527c0,0.021-0.008,0.041-0.008,0.061
	c0,3.694,2.997,6.688,6.688,6.688h73.469v-0.127c-3.121-0.592-5.485-3.328-5.485-6.622c0-3.726,3.02-6.748,6.75-6.748h62.562v0.12
	h9.427c0.414,0,0.812-0.051,1.2-0.12c3.153-0.566,5.551-3.309,5.551-6.625c0-3.728-3.025-6.744-6.751-6.744h-2.134
	c-3.727,0-6.749-3.022-6.749-6.751C1227.072,232.733,1230.095,229.711,1233.821,229.711z M903.972,195.973
	c0-3.727,3.022-6.749,6.745-6.749c3.73,0,6.75,3.022,6.75,6.749c0,3.726-3.02,6.745-6.75,6.745
	C906.994,202.718,903.972,199.698,903.972,195.973z M940.822,229.633h-18.584c-3.725,0-6.749-3.022-6.749-6.747
	s3.024-6.747,6.749-6.747h18.584c3.728,0,6.747,3.022,6.747,6.747S944.55,229.633,940.822,229.633z M1110.8,230.211h34.214
	c3.725,0,6.75,3.019,6.75,6.747c0,3.726-3.025,6.748-6.75,6.748H1110.8c-3.73,0-6.744-3.022-6.744-6.748
	C1104.056,233.229,1107.069,230.211,1110.8,230.211z M1194.377,243.706h-14.219c-3.73,0-6.75-3.022-6.75-6.748
	c0-3.729,3.02-6.747,6.75-6.747h14.219c3.729,0,6.748,3.019,6.748,6.747C1201.125,240.684,1198.105,243.706,1194.377,243.706z"/>
<path fill="#C6F4FF" d="M659.444,73.697c0.069-0.728,0.111-1.461,0.111-2.21c0-13.159-10.681-23.829-23.838-23.829
	c-11.239,0-20.639,7.789-23.151,18.259c-5.01-5.952-12.254-9.956-20.447-10.716c0.025-0.488,0.033-0.981,0.033-1.472
	c0-16.812-13.636-30.442-30.439-30.442c-11,0-20.64,5.838-25.989,14.58c-2.557-0.7-5.257-1.081-8.037-1.081
	c-13.139,0-24.328,8.316-28.598,19.97c-2.34-2.345-5.582-3.801-9.16-3.801c-5.667,0-10.475,3.654-12.233,8.732
	c-0.09-0.004-0.177-0.013-0.282-0.013c-7.14,0-12.933,5.792-12.933,12.932c0,0.617,0.056,1.215,0.14,1.811v0.088h0.013
	c0.914,6.241,6.283,11.037,12.78,11.037c5.672,0,10.484-3.651,12.229-8.731c0.09,0.003,0.188,0.016,0.286,0.016
	c2.746,0,5.287-0.861,7.381-2.321h1.374h42.844c3.439,3.051,7.573,5.338,12.143,6.584c1.676,0.46,3.41,0.776,5.189,0.941
	c0.943,0.086,1.89,0.138,2.853,0.138c7.744,0,14.807-2.9,20.184-7.663h30.533h5.931h40.642h0.786v-2.808H659.444z"/>
<path fill="#EDEDED" d="M0,75.604c3.288,1.137,6.815,1.753,10.489,1.753c1.604,0,3.171-0.12,4.707-0.349
	c2.857,3.558,7.236,5.842,12.147,5.842c8.592,0,15.561-6.967,15.561-15.559c0-3.416-1.12-6.562-2.977-9.127
	c1.742-3.968,2.724-8.352,2.724-12.964c0-0.626-0.025-1.243-0.06-1.861c2.377,0.853,4.924,1.319,7.586,1.319
	c0.797,0,1.584-0.043,2.358-0.122c2.881,9.049,11.35,15.602,21.357,15.602c11.655,0,21.233-8.897,22.322-20.271
	c0.386-0.027,0.767-0.07,1.142-0.124c-0.538,2.186-0.824,4.472-0.824,6.823c0,15.763,12.779,28.537,28.543,28.537
	c8.581,0,16.269-3.792,21.5-9.784c2.919,1.507,6.235,2.364,9.748,2.364c5.773,0,11.01-2.305,14.84-6.043
	c6.153,9.475,16.819,15.748,28.961,15.748c19.071,0,34.533-15.461,34.533-34.53c0-0.588-0.015-1.17-0.044-1.752
	c3.21,2.355,7.171,3.749,11.456,3.749c3.353,0,6.507-0.85,9.256-2.342c4.91,4.761,11.532,7.77,18.848,8.025
	c0.897,6.619,6.553,11.724,13.421,11.724c7.489,0,13.556-6.068,13.556-13.556c0-3.497-1.339-6.675-3.513-9.079
	c2.743-3.496,4.686-7.647,5.557-12.18c0.093-0.469,0.169-0.941,0.238-1.421V22.82L307.668,0H0V75.604z"/>
<path fill="#EDEDED" d="M877.316,127.856c-0.419-12.1-10.361-21.775-22.551-21.775c-1.13,0-2.225,0.084-3.302,0.244
	c-2.003-2.498-5.086-4.104-8.528-4.104c-6.038,0-10.927,4.894-10.927,10.924c0,2.396,0.791,4.604,2.091,6.407
	c-1.222,2.786-1.908,5.862-1.908,9.1c0,0.439,0.018,0.874,0.042,1.308c-1.675-0.601-3.458-0.927-5.322-0.927
	c-0.563,0-1.116,0.03-1.656,0.083c-2.024-6.349-7.972-10.949-14.994-10.949c-8.187,0-14.908,6.247-15.672,14.229
	c-4.669,0.317-8.464,3.825-9.211,8.377h-0.022v0.181c-0.072,0.474-0.128,0.958-0.128,1.454c0,0.493,0.056,0.979,0.128,1.454
	c0.053,0.379,0.123,0.753,0.226,1.116h13.491h5.908h6.192c0.016,1.598,0.274,3.135,0.732,4.585
	c2.028,6.351,7.98,10.951,15.006,10.951c7.744,0,14.183-5.604,15.489-12.98c0.146-0.83,0.228-1.685,0.235-2.556h21.461h6.242h18.186
	c0.461-1.32,0.723-2.733,0.729-4.205c0-0.012,0-0.02,0-0.029C889.253,133.935,883.994,128.369,877.316,127.856z"/>
<g>
	<path fill="#C6F4FF" d="M639.918,143.737c-79.382,0-143.737-64.354-143.737-143.737h-64.261c0,114.877,93.126,208,207.999,208
		c114.879,0,207.998-93.123,207.998-208h-64.258C783.658,79.383,719.303,143.737,639.918,143.737z"/>
	<path fill="#C6F4FF" d="M496.181,68.199H371.55c-28.708,0-51.981-23.271-51.981-51.979V0h176.611V68.199z"/>
	<rect x="377.273" y="59.779" fill="#C6F4FF" width="66.099" height="282.477"/>
	<rect x="476.947" y="104.944" fill="#C6F4FF" width="32.525" height="237.312"/>
	<rect x="541.996" y="143.061" fill="#C6F4FF" width="32.525" height="199.195"/>
	<rect x="370.979" y="127.154" fill="#ADE2EA" width="76.589" height="12.797"/>
	<rect x="472.4" y="160.378" fill="#ADE2EA" width="41.617" height="12.797"/>
	<rect x="537.451" y="193.033" fill="#ADE2EA" width="41.615" height="12.797"/>
	<rect x="370.979" y="68.199" fill="#ADE2EA" width="76.589" height="12.799"/>
	<rect x="319.569" fill="#ADE2EA" width="176.611" height="12.797"/>
	<path fill="#C6F4FF" d="M783.024,68.199h124.635c28.708,0,51.977-23.271,51.977-51.979V0H783.024V68.199z"/>
	<rect x="835.833" y="59.779" fill="#C6F4FF" width="66.098" height="282.477"/>
	<rect x="769.736" y="104.944" fill="#C6F4FF" width="32.521" height="237.312"/>
	<rect x="704.687" y="143.061" fill="#C6F4FF" width="32.521" height="199.195"/>
	<rect x="831.636" y="127.154" fill="#ADE2EA" width="76.589" height="12.797"/>
	<rect x="765.191" y="160.378" fill="#ADE2EA" width="41.611" height="12.797"/>
	<rect x="700.142" y="193.033" fill="#ADE2EA" width="41.614" height="12.797"/>
	<rect x="831.636" y="68.199" fill="#ADE2EA" width="76.589" height="12.799"/>
	<rect x="783.024" fill="#ADE2EA" width="176.611" height="12.797"/>
</g>
<g>
</g>
<g>
</g>
<g>
</g>
<g>
</g>
<g>
</g>
<g>
</g>
</svg>
