<?xml version="1.0" standalone="no"?>
<!DOCTYPE svg PUBLIC "-//W3C//DTD SVG 1.1//EN" "http://www.w3.org/Graphics/SVG/1.1/DTD/svg11.dtd">
<svg xmlns="http://www.w3.org/2000/svg">
<defs >
<font id="Cinzel" horiz-adv-x="660" ><font-face
    font-family="Cinzel"
    units-per-em="1000"
    panose-1="0 0 0 0 0 0 0 0 0 0"
    ascent="976"
    descent="-372"
    alphabetic="0" />
<glyph unicode=" " horiz-adv-x="250" />
<glyph unicode="!" horiz-adv-x="269" d="M133 -10Q103 -10 82 11T61 62Q61 93 82 114T133 135Q164 135 185 114T206 62Q206 32 185 11T133 -10ZM157 206H111L76 379L58 702H211L193 379L157 206Z" />
<glyph unicode="&quot;" horiz-adv-x="363" d="M62 700L169 714Q170 695 165 664T147 601T111 541T52 500L38 505Q53 549 59 579T65 636T62 700ZM218 700L325 714Q326 695 321 664T304 601T268 541T208 500L195 505Q209 549 215 579T222 636T218 700Z" />
<glyph unicode="#" horiz-adv-x="575" d="M212 700H262L139 0H89L212 700ZM412 700H462L339 0H289L412 700ZM534 497V449H64V497H534ZM490 265V217H20V265H490Z" />
<glyph unicode="$" horiz-adv-x="558" d="M266 714Q288 714 318 712T380 707T435 700T468 692L456 557H446Q446 609 408 640T303 672Q266 672 238 659T192 625T174 576Q172 546 192 524T244 483L435 359Q480 333 503 292T524 193Q520 95 451 41T262 -14Q190 -14
134 3T50 47Q42 69 43 100T52 163T74 216H83Q79 164 101 121T166 53T271 28Q315 29 346 44T393 84T409 140Q409 170 391 195T330 244L155 360Q101 391 78 437T59 539Q64 592 91 631T162 692T266 714ZM469 704L467 683H349V704H469ZM301 788L342 787L274 -102L233
-99L301 788Z" />
<glyph unicode="%" horiz-adv-x="740" d="M224 714Q296 714 331 667T355 537Q344 454 292 408T161 361Q89 361 55 409T33 543Q46 624 97 669T224 714ZM220 682Q192 682 170 644T138 537Q127 469 136 431T173 393Q203 394 225 431T257 536Q267 605 257 643T220
682ZM194 -16L157 0L507 662Q481 647 453 639T395 634Q362 638 336 651T285 676T231 685L223 714Q258 714 281 707T322 690T356 672T396 662Q425 660 450 668T496 689T534 709L566 695L194 -16ZM567 339Q637 339 672 292T698 162Q688 79 636 33T504 -14Q432 -14
397 34T376 168Q389 249 440 294T567 339ZM559 307Q530 307 509 269T477 162Q466 94 475 56T511 18Q541 18 563 56T596 161Q606 230 596 268T559 307Z" />
<glyph unicode="&amp;" horiz-adv-x="807" d="M372 714Q412 714 450 706T521 683T570 643L534 500H525Q525 545 512 584T472 647T398 672Q348 672 317 639T285 555Q285 497 328 445T454 320Q475 302 501 278T554 232T599 194Q653 148 697 110T778 47T848 11V0Q809
-4 758 -5T653 5T548 53Q522 72 492 96T433 144T379 190T339 224Q281 274 234 323T158 424T130 536Q130 582 150 615T204 671T282 703T372 714ZM708 346Q710 292 701 241T670 144T609 64T513 10T375 -10Q330 -10 281 -3T187 19T106 61T48 126T27 216Q27 257 41
287T78 340T129 377T182 399T229 408L248 389Q240 381 229 369T207 339T190 295T185 236Q187 186 207 148T258 84T330 45T413 32Q466 32 505 54T571 113T609 192T619 277T601 353Q589 377 574 388T539 399H524V409H758V399H744Q721 399 715 385T708 346Z" />
<glyph unicode="&apos;" horiz-adv-x="200" d="M56 700L163 714Q164 695 159 664T141 601T105 541T46 500L32 505Q47 549 53 579T59 636T56 700Z" />
<glyph unicode="(" horiz-adv-x="423" d="M394 724Q346 701 311 648T257 515T239 336Q241 228 260 143T314 -1T392 -91L386 -100Q314 -78 259 -35T166 66T110 193T90 334Q90 410 109 477T165 597T259 685T388 732L394 724Z" />
<glyph unicode=")" horiz-adv-x="423" d="M30 724L36 732Q109 720 164 685T258 597T315 477T334 334Q334 262 315 194T258 67T165 -35T38 -100L32 -91Q76 -60 110 -1T163 143T185 336Q187 436 168 515T114 647T30 724Z" />
<glyph unicode="*" horiz-adv-x="388" d="M292 474L248 459L205 538L195 600L201 605L257 576L321 512L292 474ZM98 473L70 511L132 576L188 605L195 600L184 538L143 459L98 473ZM37 658L65 697L145 657L191 613L188 605L125 596L37 611V658ZM195 773L240 759L227
670L199 613H191L163 670L149 759L195 773ZM352 659L353 611L264 596L201 605L199 613L244 657L325 698L352 659ZM198 614L201 612L202 606L201 604L196 600Q195 600 194 600T193 600L188 604V607L189 613L192 614H198Z" />
<glyph unicode="+" horiz-adv-x="481" d="M40 338H442V281H40V338ZM212 109V511H269V109H212Z" />
<glyph unicode="," horiz-adv-x="231" d="M63 116Q80 132 102 133T147 124T179 87Q196 49 192 12T166 -56T114 -102T46 -113L43 -102Q65 -93 77 -76T88 -35T66 10Q53 26 48 45T45 83T63 116Z" />
<glyph unicode="-" horiz-adv-x="380" d="M40 325H340L348 292L340 258H40L32 292L40 325Z" />
<glyph unicode="." horiz-adv-x="222" d="M111 -10Q81 -10 60 11T39 62Q39 93 60 114T111 135Q142 135 163 114T184 62Q184 32 163 11T111 -10Z" />
<glyph unicode="/" horiz-adv-x="426" d="M369 719L418 697L57 -14L9 10L369 719Z" />
<glyph unicode="0" horiz-adv-x="653" d="M327 714Q415 714 477 669T573 543T607 350Q607 239 574 158T478 31T327 -14Q239 -14 176 31T80 157T46 350Q46 461 79 542T176 669T327 714ZM327 672Q265 672 233 591T201 350Q201 191 233 110T327 28Q388 28 420 109T452
350Q452 509 420 590T327 672Z" />
<glyph unicode="1" horiz-adv-x="393" d="M351 0V10H330Q308 10 292 25T275 63V714H265Q242 698 213 687T152 668T91 656T42 650V640H68Q95 640 110 626T126 579V64Q126 42 110 26T71 10H50L49 0H351Z" />
<glyph unicode="2" horiz-adv-x="617" d="M95 487L47 641Q73 664 110 680T191 705T277 714Q352 714 411 690T503 621T536 512Q536 463 515 417T460 329T385 250T306 183T237 129H443Q473 129 495 139T536 170T572 226H582L523 0H45V10Q85 55 130 105T219 209T298
316T355 422T376 523Q376 594 340 635T242 672Q176 668 141 622T105 487H95Z" />
<glyph unicode="3" horiz-adv-x="563" d="M255 712Q327 713 378 693T458 637T486 549Q486 509 470 478T428 427T370 399T311 399Q342 399 376 389T442 356T492 296T511 206Q511 145 484 96T410 13T303 -38T177 -55T47 -32L49 -22Q110 -23 164 -7T261 41T327 118T351
217Q351 277 324 313T252 367T158 384L160 394Q206 393 246 414T311 475T331 565Q329 599 313 623T271 659T209 670Q148 667 120 624T93 499H83L42 641Q75 671 128 691T255 712Z" />
<glyph unicode="4" horiz-adv-x="619" d="M324 544L464 714H474V1H324V544ZM464 714L473 655L139 298H517Q545 298 557 306T578 330H588L561 213H7V223L464 714ZM474 64Q474 42 490 26T529 10H540V0H257L258 10H268Q291 10 307 25T324 64H474Z" />
<glyph unicode="5" horiz-adv-x="554" d="M443 568L164 547L135 435Q218 455 285 448T401 410T473 331T495 218Q492 144 457 91T367 5T250 -42T129 -54T26 -31L28 -21Q53 -22 90 -15T168 10T245 53T305 117T332 204Q337 265 301 301T203 343T62 319L53 324L134
664L392 685Q424 685 442 699T471 735H481L443 568Z" />
<glyph unicode="6" horiz-adv-x="630" d="M497 734L501 727Q408 698 352 656T266 558T226 434T216 285Q216 205 225 149T257 63T323 33Q364 33 387 58T420 125T430 212Q430 266 420 300T392 351T347 372Q321 378 298 369T258 345L251 354Q269 385 300 404T370
430T445 428T513 395T564 328T584 224Q584 160 556 106T470 20T325 -15Q239 -16 177 18T82 123T50 298Q50 394 77 475T160 617T300 708T497 734Z" />
<glyph unicode="7" horiz-adv-x="544" d="M17 512H27Q38 542 55 557T102 572H407L341 414Q328 385 309 344T266 255T220 161T175 72T137 0H268Q275 29 288 71T316 160T348 254T378 340T404 406L524 700L45 698L17 512Z" />
<glyph unicode="8" horiz-adv-x="603" d="M79 522Q79 581 107 624T185 690T299 714Q360 714 410 694T490 635T520 544Q520 499 496 466T431 413T343 388L312 394Q342 408 359 436T384 497T390 558Q389 606 365 638T298 671Q255 672 232 643T209 572Q209 542 221
518T262 472T339 423Q379 402 419 381T492 335T544 276T564 190Q564 126 530 80T434 10T289 -14Q242 -14 197 -4T116 27T59 83T39 168Q39 207 54 236T92 285T143 320T196 342T241 356L280 355Q234 336 203 294T171 182Q170 112 203 72T295 28Q334 26 362 40T407
80T423 136Q423 162 413 181T384 218T336 251T270 287Q239 304 206 324T144 371T97 436T79 522Z" />
<glyph unicode="9" horiz-adv-x="630" d="M133 -38L129 -31Q222 -3 278 39T364 137T404 260T414 408Q414 491 405 548T373 634T307 663Q266 663 243 638T210 573T200 485Q201 431 211 397T239 345T284 324Q310 319 333 327T372 351L379 343Q360 311 329 292T260
266T185 269T116 303T65 370T46 473Q47 541 76 594T163 679T305 711Q436 713 508 635T580 398Q580 303 553 222T470 80T331 -12T133 -38Z" />
<glyph unicode=":" horiz-adv-x="222" d="M111 373Q81 373 60 394T39 445Q39 476 60 497T111 518Q142 518 163 497T184 445Q184 415 163 394T111 373ZM111 -10Q81 -10 60 11T39 62Q39 93 60 114T111 135Q142 135 163 114T184 62Q184 32 163 11T111 -10Z" />
<glyph unicode=";" horiz-adv-x="231" d="M63 116Q80 132 102 133T147 124T179 87Q196 49 192 12T166 -56T114 -102T46 -113L43 -102Q65 -93 77 -76T88 -35T66 10Q53 26 48 45T45 83T63 116ZM111 401Q81 401 60 422T39 473Q39 504 60 525T111 546Q142 546 163
525T184 473Q184 443 163 422T111 401Z" />
<glyph unicode="&lt;" horiz-adv-x="493" d="M442 463L70 286L71 333L442 156V94L40 283V336L442 525V463Z" />
<glyph unicode="=" horiz-adv-x="481" d="M40 415H442V358H40V415ZM40 240H442V183H40V240Z" />
<glyph unicode="&gt;" horiz-adv-x="481" d="M40 463V525L442 336V283L40 94V156L411 333L412 286L40 463Z" />
<glyph unicode="?" horiz-adv-x="462" d="M8 625Q31 665 81 689T200 714Q308 714 366 668T424 540Q424 508 415 484T389 438T352 396T309 355T265 309Q251 294 240 279T226 245T238 203L230 197Q194 213 172 242T152 310Q154 336 165 356T193 394T226 433T253
480T264 545Q263 606 237 639T161 672Q110 672 81 634T52 518H42L8 625ZM208 -10Q178 -10 157 11T135 62Q135 93 156 114T208 135Q238 135 259 114T280 62Q280 32 259 11T208 -10Z" />
<glyph unicode="@" horiz-adv-x="990" d="M625 688Q737 673 811 620T921 488T951 312Q946 222 910 141T808 -2T653 -96T450 -124T202 -63L198 -53Q301 -94 393 -97T562 -71T696 14T789 147T831 316Q839 406 816 476T744 590T622 648Q561 660 499 650T378 608T270
522T184 390Q161 340 149 291T137 202T153 138T199 112Q227 111 253 129T303 176T348 235T389 291L516 464Q516 464 528 479T553 512T571 541H578L564 471L429 280Q381 211 344 166T274 97T199 73Q152 71 115 95T56 164T35 268T64 395Q96 471 152 531T282 630T444
685T625 688ZM546 238L534 207H346L358 238H546ZM645 137Q649 112 659 101T685 90Q684 90 687 90T690 90L688 83H482L483 90H490Q502 90 518 102T531 137H645ZM578 541L653 87H537L501 417L578 541Z" />
<glyph unicode="A" horiz-adv-x="717" d="M354 720L680 6H501L293 527L354 720ZM139 73Q131 53 136 39T153 18T177 10H186V0H-28V10Q-28 10 -24 10T-19 10Q4 10 28 24T69 73H139ZM354 720L358 598L110 3H37L296 589Q299 595 306 611T322 649T338 689T345 720H354ZM459
238V196H165V238H459ZM474 73H649Q666 39 690 25T737 10Q737 10 741 10T745 10V0H427V10H436Q456 10 471 26T474 73Z" />
<glyph unicode="B" horiz-adv-x="674" d="M158 700H331Q404 700 461 683T552 628T585 529Q585 483 568 452T522 403T463 381Q513 377 553 353T617 289T640 195Q640 131 605 88T507 22T359 0H260Q260 0 260 11T261 34T261 45H315Q360 45 394 62T448 115T468 207Q468
251 455 282T419 332T366 361T303 370V379Q326 379 348 386T387 410T415 452T425 516Q425 567 409 598T365 643T297 657H168Q168 658 166 668T161 689T158 700ZM269 700V0H119V700H269ZM122 73V0H42V10Q44 10 49 10T55 10Q81 10 99 28T119 73H122ZM122 627H119Q118
653 100 671T55 690Q54 690 49 690T42 690V700H122V627Z" />
<glyph unicode="C" horiz-adv-x="780" d="M722 292L731 120Q709 83 672 53T580 5T450 -14Q328 -13 237 30T95 155T45 351Q45 463 94 544T234 670T453 714Q533 714 596 698T702 659L704 488H695Q668 587 607 629T464 672Q384 672 327 633T239 523T208 353Q208 254
237 182T321 70T450 28Q527 28 580 53T665 136T714 292H722Z" />
<glyph unicode="D" horiz-adv-x="828" d="M405 700Q523 700 609 658T741 537T788 350Q788 242 742 164T609 43T405 0H167L166 42Q195 42 226 42T287 42T341 42T379 42T393 42Q465 42 517 79T597 186T625 350Q625 445 597 514T517 620T393 658Q393 658 379 658T339
658T283 658T219 658T156 658V700H405ZM269 700V0H119V700H269ZM122 73V0H42V10Q42 10 48 10T55 10Q81 10 99 28T119 73H122ZM122 627H119Q119 653 100 671T55 690Q55 690 49 690T43 690L42 700H122V627Z" />
<glyph unicode="E" horiz-adv-x="632" d="M269 700V0H119V700H269ZM533 43L557 0H266V43H533ZM496 366V324H266V366H496ZM545 700V657H266V700H545ZM606 204L560 0H364L400 43Q450 43 488 62T553 118T596 204H606ZM496 326V230H486V239Q486 275 462 299T401 324V326H496ZM496
460V364H401V366Q438 367 462 391T486 452V460H496ZM545 660V543H535V555Q535 601 508 629T433 658V660H545ZM545 718V689L423 700Q445 700 469 703T515 710T545 718ZM122 73V0H42V10Q42 10 48 10T55 10Q81 10 99 28T119 73H122ZM122 627H119Q118 653 100 671T55
690Q55 690 49 690T42 690V700H122V627Z" />
<glyph unicode="F" horiz-adv-x="596" d="M269 700V0H119V700H269ZM496 366V324H266V366H496ZM545 700V657H266V700H545ZM496 326V230H486V239Q486 275 462 299T401 324V326H496ZM496 460V364H401V366Q438 367 462 391T486 452V460H496ZM545 660V549H535V559Q535
604 509 630T437 657V660H545ZM545 718V689L423 700Q445 700 469 703T515 710T545 718ZM122 73V0H42V10Q42 10 48 10T55 10Q81 10 99 28T119 73H122ZM122 627H119Q118 653 100 671T55 690Q55 690 49 690T42 690V700H122V627ZM266 73H269Q270 47 288 29T333 10Q333
10 339 10T346 10V0H266V73Z" />
<glyph unicode="G" horiz-adv-x="836" d="M755 280V115Q731 85 684 55T570 6T423 -14Q309 -14 224 30T92 157T45 351Q45 463 91 544T224 669T429 714Q484 714 536 707T632 687T705 659L707 488H698Q679 556 643 596T560 654T459 672Q377 672 321 633T237 520T208
345Q208 249 234 178T312 68T436 28Q473 28 507 39T568 73T605 127L606 280Q606 325 555 325H539V335H820V325H805Q753 325 755 280Z" />
<glyph unicode="H" horiz-adv-x="862" d="M743 700V0H593V700H743ZM269 700V0H119V700H269ZM602 369V327H259V369H602ZM122 73V0H42V10Q42 10 48 10T55 10Q81 10 99 28T119 73H122ZM122 627H119Q118 653 100 671T55 690Q55 690 49 690T42 690V700H122V627ZM266
73H269Q270 47 288 29T333 10Q333 10 339 10T346 10V0H266V73ZM266 627V700H346V690Q345 690 339 690T333 690Q307 690 289 672T269 627H266ZM596 73V0H516V10Q517 10 523 10T529 10Q555 10 574 28T593 73H596ZM596 627H593Q593 653 574 671T529 690Q529 690 523
690T516 690V700H596V627ZM740 73H743Q744 47 762 29T807 10Q807 10 813 10T820 10V0H740V73ZM740 627V700H820V690Q820 690 814 690T807 690Q781 690 763 672T743 627H740Z" />
<glyph unicode="I" horiz-adv-x="387" d="M269 700V0H119V700H269ZM122 73V0H42V10Q42 10 48 10T55 10Q81 10 99 28T119 73H122ZM122 627H119Q118 653 100 671T55 690Q55 690 49 690T42 690V700H122V627ZM266 73H269Q270 47 288 29T333 10Q333 10 339 10T346 10V0H266V73ZM266
627V700H346V690Q345 690 339 690T333 690Q307 690 289 672T269 627H266Z" />
<glyph unicode="J" horiz-adv-x="385" d="M272 700V30Q272 -25 250 -69T191 -145T105 -190T5 -200V-191Q47 -173 73 -138T110 -58T122 33V700H272ZM125 627H122Q121 653 103 671T58 690Q58 690 52 690T45 690V700H125V627ZM269 627V700H349V690Q349 690 343 690T336
690Q310 690 292 672T272 627H269Z" />
<glyph unicode="K" horiz-adv-x="757" d="M413 431L675 72Q698 42 722 27T777 10V0H695Q684 0 659 1T601 9T537 33T480 83Q475 90 460 110T425 158T384 215T343 271T313 313T301 330L413 431ZM664 693L363 336L301 330L576 693H664ZM734 700V691H730Q697 691 669
678T620 642L539 644Q551 661 543 676T515 691H505V700H730H734ZM269 700V0H119V700H269ZM122 73V0H42V10Q43 10 48 10T55 10Q81 10 99 28T119 73H122ZM122 627H119Q118 653 100 671T55 690Q54 690 49 690T42 690V700H122V627ZM266 73H269Q270 47 288 29T333 10Q334
10 339 10T346 10V0H266V73ZM266 627V700H346V690Q345 690 340 690T333 690Q307 690 289 672T269 627H266Z" />
<glyph unicode="L" horiz-adv-x="617" d="M269 700V0H119V700H269ZM533 43L557 0H266V43H533ZM606 204L560 0H364L400 43Q450 43 488 62T553 118T596 204H606ZM122 73V0H42V10Q42 10 48 10T55 10Q81 10 99 28T119 73H122ZM122 627H119Q118 653 100 671T55 690Q55
690 49 690T42 690V700H122V627ZM266 627V700H346V690Q345 690 339 690T333 690Q307 690 289 672T269 627H266Z" />
<glyph unicode="M" horiz-adv-x="953" d="M780 714L788 605L491 90Q491 90 481 73T462 30T452 -20H442L403 67L780 714ZM102 73V0H-9V10Q-8 10 -1 10T7 10Q34 10 55 26T80 73H102ZM146 57Q146 56 146 55T146 52Q146 36 157 23T185 9H201V0H139V57H146ZM163 714H172L207
614L140 0H71L163 714ZM172 714L499 177L442 -20L146 477L172 714ZM789 714L884 0H723L673 460L780 714H789ZM853 73H874Q879 43 900 27T947 10Q947 10 955 10T963 10V0H853V73ZM717 57H724V0H663V9H678Q695 9 706 22T717 52Q717 54 717 55T717 57Z" />
<glyph unicode="N" horiz-adv-x="865" d="M108 715L746 107L758 -14L120 593L108 715ZM113 71V0H30V10Q30 10 39 10T49 10Q74 10 92 28T110 71H113ZM253 71Q253 46 271 28T314 10Q315 10 324 10T333 10V0H250V71H253ZM108 715L252 562L253 0H110V590Q110 646 104
680T98 715H108ZM755 700V114Q755 77 758 48T764 2T767 -14H758L613 148V700H755ZM835 700V690Q835 690 826 690T817 690Q792 690 774 673T755 629H752V700H835ZM532 700H615V629H613Q612 655 595 672T551 690Q551 690 542 690T532 690V700Z" />
<glyph unicode="O" horiz-adv-x="879" d="M442 714Q562 714 650 670T787 544T836 350Q836 238 788 157T651 31T442 -14Q322 -14 234 30T97 156T49 350Q49 462 97 543T233 669T442 714ZM442 28Q513 28 564 67T643 179T671 350Q671 449 644 521T565 632T442 672Q372
672 321 633T241 521T213 350Q213 251 241 179T320 68T442 28Z" />
<glyph unicode="P" horiz-adv-x="656" d="M259 700H379Q465 700 518 675T598 607T627 508Q629 457 610 415T558 345T482 305T395 298T306 333V343Q306 343 318 343T350 347T391 362T432 396T461 457Q465 470 466 486T467 517Q466 581 433 619T338 658H269Q269
658 267 668T262 689T259 700ZM272 700V0H122V700H272ZM125 73V0H45V10Q46 10 51 10T58 10Q84 10 102 28T122 73H125ZM125 627H122Q122 653 103 671T58 690Q57 690 52 690T46 690L45 700H125V627ZM269 73H272Q273 47 291 29T336 10Q337 10 342 10T349 10V0H269V73Z"
/>
<glyph unicode="Q" horiz-adv-x="883" d="M435 -14L406 26Q464 22 511 16T600 0T684 -24T776 -56T888 -98Q955 -124 1020 -136T1146 -145T1258 -124T1351 -72L1357 -76Q1354 -123 1327 -164T1252 -234T1139 -273T994 -271T826 -212Q770 -184 720 -152T623 -89T529
-39T435 -14ZM441 714Q561 714 649 670T786 544T834 350Q834 238 786 157T649 31T441 -14Q321 -14 233 30T96 156T48 350Q48 462 96 543T232 669T441 714ZM441 28Q512 28 563 67T642 179T670 350Q670 449 643 521T564 632T441 672Q370 672 319 633T239 521T211
350Q211 251 239 179T319 68T441 28Z" />
<glyph unicode="R" horiz-adv-x="747" d="M259 700H388Q433 700 476 690T552 658T606 600T626 511Q626 469 609 428T555 357T462 321Q494 311 520 285T564 233Q565 231 575 215T601 176T634 128T665 86Q687 59 705 43T743 19T789 10V0H691Q637 0 593 10T515 42T456
104Q448 116 439 134T419 174T400 214T383 250T373 275Q360 307 343 323T305 342V352Q308 352 317 352T336 352Q363 352 388 363T434 399T462 468Q464 477 465 489T466 516Q463 588 430 621T348 656Q334 657 318 657T288 656T269 656Q269 657 267 667T262 689T259
700ZM272 700V0H122V700H272ZM125 73V0H45V10Q46 10 51 10T58 10Q84 10 102 28T122 73H125ZM125 627H122Q121 653 103 671T58 690Q57 690 52 690T45 690V700H125V627ZM269 73H272Q272 47 291 29T336 10Q338 10 343 10T348 10V0H269V73Z" />
<glyph unicode="S" horiz-adv-x="578" d="M277 714Q297 714 326 712T387 707T442 700T475 692L463 557H453Q453 609 415 640T312 672Q254 672 219 644T181 576Q180 546 200 524T251 483L442 359Q488 333 511 291T532 193Q527 95 457 41T267 -14Q223 -14 182 -7T108
14T57 47Q49 69 50 100T59 163T81 216H90Q86 165 108 122T174 53T278 28Q344 29 380 61T416 140Q416 171 398 196T337 244L162 360Q109 390 85 437T67 539Q71 591 97 630T168 692T277 714ZM476 704L474 683H356V704H476Z" />
<glyph unicode="T" horiz-adv-x="667" d="M409 697V0H259V697H409ZM654 701V659H14V701H654ZM654 662V544L644 545V556Q644 603 617 630T542 659V662H654ZM654 719V690L532 701Q554 701 578 704T624 711T654 719ZM262 73V0H182V10Q182 10 188 10T195 10Q221 10
239 28T259 73H262ZM406 73H409Q410 47 428 29T473 10Q473 10 479 10T486 10V0H406V73ZM125 662V659Q79 658 52 631T24 556V545L14 544V662H125ZM14 719Q24 715 44 711T90 704T136 701L14 690V719Z" />
<glyph unicode="U" horiz-adv-x="821" d="M257 700V260Q257 189 280 137T347 57T451 29Q512 29 556 55T625 131T649 247V700H721V253Q721 171 687 111T588 19T432 -14Q326 -14 253 18T144 110T107 252V700H257ZM110 700V640H107Q107 662 92 676T54 690Q54 690
46 690T38 690V700H110ZM326 700V690Q326 690 318 690T310 690Q288 690 273 676T257 640H255V700H326ZM652 700V640H649Q649 662 634 676T596 690Q596 690 588 690T580 690V700H652ZM790 700V690Q790 690 782 690T774 690Q752 690 737 676T721 640H719V700H790Z"
/>
<glyph unicode="V" horiz-adv-x="728" d="M368 -20L37 694H216L429 173L368 -20ZM368 -20L365 102L619 697H691L426 111Q424 105 417 89T400 51T385 11T377 -20H368ZM589 627Q602 657 586 673T551 690H542V700H756V690Q756 690 752 690T747 690Q725 690 701 676T660
627H589ZM244 627H68Q52 661 28 675T-20 690Q-20 690 -24 690T-28 690V700H290V690H281Q262 690 248 674T244 627Z" />
<glyph unicode="W" horiz-adv-x="971" d="M38 694H200L360 242L300 -18L38 694ZM537 716L555 617L333 93Q333 93 327 76T316 34T309 -18H300L272 101L528 716H537ZM537 715L757 229L709 -18L468 515L537 715ZM924 694L736 93Q736 93 731 76T722 33T719 -18H709L681
81L856 694H924ZM837 628Q845 658 832 674T799 690H790V700H999V690Q999 690 995 690T991 690Q968 690 941 676T903 628H837ZM224 628H62Q49 661 23 675T-26 690Q-26 690 -30 690T-34 690V700H271V690H262Q243 690 229 674T224 628Z" />
<glyph unicode="X" horiz-adv-x="729" d="M232 700L685 1H508L57 700H232ZM175 72Q166 58 169 44T185 20T210 10Q210 10 216 10T223 10V0H-24V10H-10Q22 10 48 28T91 69L175 72ZM298 362L347 324L126 0H42L298 362ZM462 72L641 68Q657 45 684 28T742 10H756V0H415V10Q415
10 421 10T428 10Q448 10 461 30T462 72ZM325 700V690Q325 690 319 690T313 690Q300 690 289 681T274 657T279 628L101 631Q85 654 59 672T0 690H-14V700H325ZM656 700L414 341L373 390L571 700H656ZM724 700V690H710Q679 690 653 672T609 631L525 628Q534 642
531 656T516 680T491 690Q491 690 485 690T479 690L478 700H724Z" />
<glyph unicode="Y" horiz-adv-x="702" d="M213 699L418 327L276 313L42 699H213ZM423 322V0H273V322H423ZM584 699H662L412 302L362 312L584 699ZM543 628Q552 642 548 656T533 680T508 690Q508 690 502 690T496 690V700H735V690H721Q690 690 663 672T620 631L543
628ZM252 628L83 631Q69 654 42 672T-17 690H-31V700H300V690Q300 690 294 690T287 690Q265 690 254 670T252 628ZM276 73V0H196V10Q196 10 202 10T209 10Q235 10 253 28T273 73H276ZM420 73H423Q423 47 442 29T487 10Q487 10 493 10T499 10V0H420V73Z" />
<glyph unicode="Z" horiz-adv-x="661" d="M605 714Q605 714 605 710T605 705L210 0H45V9L411 659H59V701H499Q519 701 541 703T581 708T605 714ZM594 42L588 0H115V42H594ZM633 201L597 0H414L427 32L443 42Q509 42 556 85T623 201H633ZM170 659Q123 658 96 631T69
556V544H59V662H170V659ZM59 719Q69 715 89 711T135 704T181 701L59 690V719Z" />
<glyph unicode="[" horiz-adv-x="417" d="M120 722H374V712L270 674V-42L377 -80V-90H120V722Z" />
<glyph unicode="\" horiz-adv-x="426" d="M57 719L418 10L370 -14L9 697L57 719Z" />
<glyph unicode="]" horiz-adv-x="417" d="M297 722V-90H40V-80L147 -42V674L43 712V722H297Z" />
<glyph unicode="^" horiz-adv-x="553" d="M35 176H114L277 329L440 176H518L310 377H245L35 176Z" />
<glyph unicode="_" horiz-adv-x="500" d="M0 -60H500V-102H0V-60Z" />
<glyph unicode="`" horiz-adv-x="537" d="M273 751L266 744Q233 752 197 766T126 797T61 834Q70 862 86 882T129 916Q150 896 177 869T230 812T273 751Z" />
<glyph unicode="a" horiz-adv-x="644" d="M319 627L615 5H446L260 444L319 627ZM131 66Q120 39 134 25T165 10H173V0H-27V10Q-27 10 -23 10T-19 10Q1 10 23 22T59 66H131ZM319 627L321 507L104 3H30L264 506Q266 512 273 527T288 562T303 599T311 627H319ZM406
196V157H151V196H406ZM421 66H586Q601 35 623 23T665 10Q665 10 669 10T673 10V0H379V10H387Q404 10 418 24T421 66Z" />
<glyph unicode="b" horiz-adv-x="604" d="M139 600H305Q344 600 384 594T457 572T510 527T530 451Q530 413 514 386T473 344T420 327Q464 324 499 304T555 250T577 171Q577 124 557 92T502 39T422 9T326 0H236Q236 0 236 10T236 30T236 40H284Q320 40 349 53T397
98T415 180Q415 215 405 241T375 284T330 309T273 317V326Q295 326 315 332T349 352T372 388T381 441Q381 508 350 534T272 561H148Q148 562 146 571T141 590T139 600ZM243 600V0H102V600H243ZM105 63V0H36V10Q37 10 41 10T47 10Q71 10 86 25T102 63H105ZM105 537H102Q102
561 87 575T47 590Q46 590 42 590T36 590V600H105V537Z" />
<glyph unicode="c" horiz-adv-x="683" d="M634 251L645 100Q626 68 592 43T509 2T395 -13Q283 -12 202 25T78 131T34 301Q34 399 77 468T201 575T395 613Q463 613 521 600T619 567L620 408H612Q587 500 533 537T404 574Q332 574 284 540T211 445T186 302Q186 219
210 158T282 63T395 27Q466 27 512 49T586 120T626 251H634Z" />
<glyph unicode="d" horiz-adv-x="748" d="M371 600Q478 600 555 565T673 462T714 300Q714 206 673 139T555 36T371 0H149L147 40Q223 40 269 40T337 40T359 40Q453 40 507 109T562 300Q562 422 508 491T359 561Q359 561 337 561T266 561T137 561V600H371ZM246
600V0H102V600H246ZM105 64V0H33V10Q33 10 39 10T46 10Q69 10 85 26T102 64H105ZM104 537H102Q101 560 85 575T45 590Q45 590 39 590T33 590V600H104V537Z" />
<glyph unicode="e" horiz-adv-x="564" d="M245 600V0H101V600H245ZM479 40L502 0H243V40H479ZM445 317V277H243V317H445ZM490 600V560H243V600H490ZM543 184L505 0H332L363 40Q406 40 439 57T497 107T534 184H543ZM445 279V191H435V199Q435 232 415 254T359 277V279H445ZM445
403V315H359V317Q394 318 414 340T435 396V403H445ZM490 562V456H480V465Q480 509 457 534T389 560V562H490ZM490 615V591L385 600Q414 600 446 605T490 615ZM104 63L108 0H34V10Q34 10 40 10T47 10Q69 10 85 25T101 63H104ZM104 537H101Q101 560 85 575T47 590Q46
590 40 590T34 590V600H108L104 537Z" />
<glyph unicode="f" horiz-adv-x="535" d="M245 600V0H101V600H245ZM446 317V277H243V317H446ZM492 600V560H243V600H492ZM446 279V191H436V199Q436 232 416 254T359 277V279H446ZM446 403V315H359V317Q395 318 415 340T436 396V403H446ZM492 563V455H481V465Q481
508 457 533T389 560V563H492ZM492 615V591L386 600Q405 600 426 602T466 608T492 615ZM104 63L108 0H34V10Q34 10 40 10T47 10Q69 10 85 25T101 63H104ZM104 537H101Q101 560 85 575T47 590Q46 590 40 590T34 590V600H108L104 537ZM243 63H245Q246 41 261 26T300
10Q300 10 306 10T313 10L312 0H239L243 63Z" />
<glyph unicode="g" horiz-adv-x="730" d="M370 613Q416 613 462 608T549 592T618 567V408H610Q594 472 563 508T490 559T401 574Q331 574 283 541T211 446T186 295Q186 212 208 152T273 59T377 26Q409 26 438 36T489 67T520 118L521 238Q521 258 510 268T477 278H463V287H720V278H707Q663
278 664 238V105Q643 78 599 51T495 5T364 -13Q264 -12 190 25T75 133T34 301Q34 399 75 468T191 575T370 613Z" />
<glyph unicode="h" horiz-adv-x="751" d="M651 600V0H508V600H651ZM244 600V0H100V600H244ZM516 319V279H235V319H516ZM103 63V0H34V10Q34 10 39 10T46 10Q68 10 84 25T100 63H103ZM242 63H244Q245 41 261 26T299 10Q299 10 304 10T310 10V0H242V63ZM242 537V600H310V590Q310
590 305 590T299 590Q277 590 261 575T244 537H242ZM103 537H100Q100 560 84 575T46 590Q45 590 40 590T34 590V600H103V537ZM510 63V0H442V10Q442 10 447 10T453 10Q475 10 491 25T507 63H510ZM648 63H651Q652 41 667 26T706 10Q706 10 711 10T717 10V0H648V63ZM649
537V600H717V590Q717 590 712 590T706 590Q683 590 668 575T652 537H649ZM510 537H507Q507 560 491 575T453 590Q453 590 448 590T442 590V600H510V537Z" />
<glyph unicode="i" horiz-adv-x="352" d="M248 600V0H104V600H248ZM107 63V0H34V10Q34 10 40 10T47 10Q70 10 87 25T104 63H107ZM246 63H248Q249 41 265 26T306 10Q306 10 311 10T318 10V0H246V63ZM246 537V600H318L317 590Q317 590 312 590T306 590Q282 590 266
575T248 537H246ZM107 537H104Q104 560 87 575T46 590Q46 590 40 590T34 590V600H107V537Z" />
<glyph unicode="j" horiz-adv-x="341" d="M245 600V31Q245 -18 224 -58T168 -126T89 -166T-3 -174V-165Q36 -148 58 -117T90 -47T100 33V600H245ZM104 600V535H101Q100 558 84 574T42 590H31L30 600H104ZM315 600V590H303Q279 590 263 574T245 535H242V600H315Z" />
<glyph unicode="k" horiz-adv-x="673" d="M382 377L606 67Q625 39 646 25T695 9V0H618Q608 0 585 1T533 8T473 31T420 77Q415 84 403 101T375 141T341 188T308 233T284 267T275 280L382 377ZM594 594L333 286L275 280L512 594H594ZM655 601V591H651Q623 591 598
580T557 550L480 552Q491 566 484 578T460 591H451V601H651H655ZM246 601V0H102V601H246ZM104 63V0H36V10Q36 10 40 10T46 10Q69 10 85 25T102 63H104ZM243 63H246Q246 41 262 26T301 10Q302 10 307 10T312 10V0H243V63ZM243 537V601H312V591Q311 591 307 591T301
591Q278 591 262 576T246 537H243ZM104 537H102Q101 560 85 575T46 591Q46 591 41 591T35 591V601H104V537Z" />
<glyph unicode="l" horiz-adv-x="549" d="M245 600V0H101V600H245ZM478 40L502 0H243V40H478ZM544 184L505 0H332L363 40Q406 40 439 57T497 107T534 184H544ZM104 63L108 0H34V10Q34 10 40 10T47 10Q69 10 85 25T101 63H104ZM243 537V600H312V590Q311 590 306
590T300 590Q278 590 262 575T245 537H243ZM104 537H101Q101 560 85 575T46 590Q45 590 40 590T34 590V600H104V537Z" />
<glyph unicode="m" horiz-adv-x="863" d="M705 613L713 510L444 83Q444 83 435 67T418 27T408 -19H399L360 63L705 613ZM90 64V0H-8V10Q-8 10 -2 10T5 10Q30 10 48 24T71 64H90ZM134 50Q133 39 140 25T168 10H182V0H122L128 50H134ZM149 613H157L191 517L128 0H63L149
613ZM157 613L453 170L399 -19L133 384L157 613ZM714 613L802 0H649L600 365L705 613H714ZM774 64H793Q798 38 816 24T858 10Q858 10 865 10T872 10V0H774V64ZM642 50H648L654 0H594V10H608Q630 10 637 24T642 50Z" />
<glyph unicode="n" horiz-adv-x="779" d="M91 614L678 98L688 -13L102 503L91 614ZM95 61V0H21V10Q21 10 29 10T37 10Q60 10 76 24T92 61H95ZM229 61Q230 39 246 25T284 10Q284 10 292 10T300 10V0H227V61H229ZM91 614L229 464V0H92V500Q92 551 87 582T82 614H91ZM687
600V104Q687 69 689 43T694 2T697 -13H688L550 146V600H687ZM684 539V600H759V590Q759 590 751 590T742 590Q720 590 704 576T687 539H684ZM550 539Q549 561 534 575T495 590Q495 590 487 590T478 590V600H552V539H550Z" />
<glyph unicode="o" horiz-adv-x="777" d="M388 613Q468 613 533 592T645 529T717 430T743 299Q743 227 718 170T645 71T533 9T388 -13Q309 -13 244 8T132 71T60 169T35 299Q35 372 60 430T132 529T244 591T388 613ZM388 26Q449 26 494 59T564 154T589 299Q589
384 565 445T495 540T388 574Q328 574 283 541T213 446T188 299Q188 215 213 154T283 60T388 26Z" />
<glyph unicode="p" horiz-adv-x="586" d="M234 600H330Q411 600 461 578T536 519T563 434Q565 375 540 331T471 264T377 243T276 279V288Q276 288 286 288T313 291T346 305T380 335T405 389Q408 401 409 415T410 441Q409 496 378 528T290 561H243Q243 561 241
570T237 590T234 600ZM245 600V0H101V600H245ZM104 63L107 0H35V10Q36 10 41 10T47 10Q69 10 85 25T101 63H104ZM103 538H101Q101 561 85 575T47 590Q45 590 41 590T34 590V600H107L103 538ZM243 63H245Q246 41 261 26T299 10Q301 10 305 10T311 10V0H238L243 63Z"
/>
<glyph unicode="q" horiz-adv-x="767" d="M380 613Q458 613 521 592T630 529T700 430T725 299Q725 227 701 170T631 71T522 9T380 -13Q302 -13 239 8T130 71T60 169T35 299Q35 372 59 430T129 529T238 591T380 613ZM380 26Q438 26 481 59T548 154T572 299Q572
384 549 445T482 540T380 574Q322 574 279 541T212 446T188 299Q188 215 211 154T278 60T380 26ZM378 -12L348 24Q403 20 446 15T525 1T597 -18T674 -43T768 -79Q827 -101 882 -111T988 -120T1081 -102T1159 -60L1164 -63Q1162 -108 1139 -146T1075 -209T977 -244T852
-240T706 -187Q658 -162 616 -133T534 -78T457 -34T378 -12Z" />
<glyph unicode="r" horiz-adv-x="658" d="M241 600H348Q390 600 429 592T499 565T548 515T567 436Q567 401 553 367T508 307T428 274Q457 265 483 239T524 190Q529 182 539 165T564 125T597 78Q617 51 632 37T663 16T700 10V0H616Q562 0 525 8T460 37T409 96Q400
109 390 127T370 165T353 202T342 232Q329 264 313 278T282 293V302Q282 302 289 302T307 302Q328 302 348 309T386 338T411 402Q413 408 414 419T415 444Q413 481 402 503T373 537T339 553T308 558Q289 559 274 559T250 559Q249 559 247 569T243 590T241 600ZM251
600V0H106V600H251ZM109 63L113 0H41V10Q42 10 46 10T53 10Q75 10 90 25T107 63H109ZM109 538H107Q106 561 91 575T54 590Q51 590 47 590T41 590V600H113L109 538ZM249 63H251Q251 38 268 24T305 10Q305 10 309 10T316 10V0H244L249 63Z" />
<glyph unicode="s" horiz-adv-x="515" d="M238 613Q258 613 286 611T343 607T392 601T422 594L409 472H400Q400 518 368 545T276 572Q228 572 199 551T167 495Q165 477 173 463T197 437T232 415L389 318Q429 298 452 260T472 168Q469 112 440 71T359 9T237 -13Q194
-13 157 -6T94 13T53 40Q45 60 46 88T55 145T75 193H83Q80 148 99 110T156 50T248 27Q306 27 335 54T364 118Q364 144 347 165T289 208L147 298Q97 324 75 367T58 461Q63 509 86 543T149 595T238 613ZM422 604L421 586H314V604H422Z" />
<glyph unicode="t" horiz-adv-x="599" d="M372 597V0H227V597H372ZM589 601V561H10V601H589ZM589 564V458H579V467Q580 510 556 535T488 561V564H589ZM589 616V591L484 601Q503 601 525 603T565 609T589 616ZM229 63V0H162V10Q162 10 167 10T173 10Q195 10 210
25T227 63H229ZM369 63H372Q372 41 388 26T427 10Q427 10 432 10T438 10V0H369V63ZM112 564V561Q68 560 45 535T21 467V458H10V564H112ZM10 616Q19 614 36 610T75 604T115 601L10 591V616Z" />
<glyph unicode="u" horiz-adv-x="705" d="M231 600V223Q231 131 273 79T392 27Q471 27 514 76T559 212V600H625V218Q625 111 560 49T374 -13Q230 -13 159 48T87 217V600H231ZM89 600V548H87Q86 567 73 579T41 591Q41 591 34 591T27 591V600H89ZM290 600V591Q290
591 283 591T276 591Q257 591 244 579T231 548H229V600H290ZM561 600V548H559Q558 567 545 579T514 591Q514 591 507 591T500 591V600H561ZM684 600V591Q684 591 678 591T671 591Q652 591 639 579T625 548H623V600H684Z" />
<glyph unicode="v" horiz-adv-x="637" d="M322 -13L28 595H198L380 171L322 -13ZM322 -13L318 104L535 597H608L377 109Q375 104 368 89T353 54T339 16T331 -13H322ZM507 534Q518 561 505 576T473 591H466V600H665V590Q665 590 661 590T657 590Q637 590 615 578T578
534H507ZM224 534H58Q43 565 22 577T-20 590Q-20 590 -23 590T-27 590V600H266V591H258Q242 591 228 576T224 534Z" />
<glyph unicode="w" horiz-adv-x="870" d="M40 594H195L330 238L274 -11L40 594ZM487 614L505 522L306 90Q306 90 301 75T289 37T283 -11H274L247 100L479 614H487ZM487 614L683 219L636 -11L421 422L487 614ZM825 594L661 90Q661 90 657 74T648 35T645 -11H636L609
79L761 594H825ZM743 535Q751 564 740 577T711 590H703V600H891V590Q891 590 888 590T884 590Q861 590 838 577T806 535H743ZM218 535H63Q52 563 31 576T-15 590Q-15 590 -19 590T-23 590V600H258V590H249Q233 590 221 577T218 535Z" />
<glyph unicode="x" horiz-adv-x="650" d="M220 600L607 1H440L55 600H220ZM160 62Q147 43 159 27T190 10Q190 10 195 10T201 10V0H-19V10H-6Q21 10 43 24T82 59L160 62ZM271 306L313 271L116 1L40 3L271 306ZM401 61L569 58Q583 39 606 25T658 10H670V0H360V10Q360
10 365 10T371 10Q389 10 401 26T401 61ZM300 601V591Q300 591 295 591T289 591Q272 591 260 574T259 540L93 543Q79 562 56 576T4 591H-8V601H300ZM587 600L376 291L343 343L510 600H587ZM649 601V591H636Q609 591 586 577T548 543L471 540Q482 557 471 574T441
591Q441 591 436 591T430 591V601H649Z" />
<glyph unicode="y" horiz-adv-x="636" d="M196 599L384 274L251 259L32 599H196ZM390 272V0H246V270L390 272ZM532 599H605L380 252L333 261L532 599ZM496 538Q507 557 496 573T466 590Q466 590 460 590T454 590V600H669V590H656Q629 590 606 576T568 541L496
538ZM231 538L69 541Q55 562 32 576T-19 590H-31V600H273V590Q273 590 268 590T262 590Q242 590 232 573T231 538ZM249 63V0H178V10Q179 10 184 10T190 10Q213 10 229 25T246 63H249ZM388 63H390Q391 41 407 26T446 10Q446 10 452 10T458 10V0H388V63Z" />
<glyph unicode="z" horiz-adv-x="607" d="M555 613Q555 613 555 609T555 605L207 0H35V8L364 561H49V601H453Q472 601 493 602T532 607T555 613ZM545 39L538 0H101V39H545ZM592 184L549 0H368L402 39Q449 39 484 56T543 106T582 184H592ZM49 564H151V561Q108 561
84 536T59 466V458H49V564ZM49 616Q57 613 75 610T116 604T158 601L49 591V616Z" />
<glyph unicode="{" horiz-adv-x="379" d="M132 340Q137 353 132 382T119 448T112 519Q112 577 136 625T213 703T351 733L353 725Q307 713 288 686T266 618T262 529Q262 469 256 432T238 372T206 337T159 316Q187 309 206 295T238 257T256 198T262 112Q262 74 262
41T266 -19T288 -64T340 -92L338 -100Q254 -100 205 -71T134 7T112 112Q112 148 118 184T130 249T129 292Q125 304 111 308T85 314V324Q99 325 112 327T132 340Z" />
<glyph unicode="|" horiz-adv-x="257" d="M100 700H157V-180H100V700Z" />
<glyph unicode="}" horiz-adv-x="379" d="M30 733Q115 733 167 704T243 626T268 519Q269 485 262 448T249 382T249 340Q254 329 268 327T295 324V314Q283 313 270 309T252 292Q247 278 251 250T262 185T268 112Q268 55 247 7T176 -70T42 -100L40 -92Q75 -83 92
-65T114 -20T119 40T118 112Q118 163 124 198T142 257T174 295T221 316Q194 325 175 337T143 371T124 431T118 529Q118 578 115 618T93 685T28 725L30 733Z" />
<glyph unicode="~" horiz-adv-x="494" d="M92 213H35Q25 263 38 296T80 346T140 364Q167 364 195 350T251 316T303 281T346 265Q366 264 382 275T405 307T399 359H458Q472 307 457 274T412 224T346 208Q319 208 292 222T238 256T187 291T140 307Q114 308 98 287T92 213Z" />
<glyph unicode="&#xa0;" horiz-adv-x="250" />
<glyph unicode="&#xa1;" horiz-adv-x="269" d="M136 712Q166 712 187 691T209 640Q209 610 188 589T136 567Q106 567 85 588T64 640Q64 669 85 690T136 712ZM112 494H159L194 323L212 0H58L77 323L112 494Z" />
<glyph unicode="&#xa2;" horiz-adv-x="587" d="M545 304L556 174Q531 133 479 105T344 77Q247 78 177 110T68 202T29 347Q29 432 67 492T176 585T344 617Q402 617 452 606T534 578V441H528Q513 495 487 525T427 567T353 579Q261 579 216 519T171 349Q171 240 215
179T344 115Q405 115 444 133T506 192T539 304H545ZM358 701L398 700L340 -9L301 -6L358 701Z" />
<glyph unicode="&#xa3;" horiz-adv-x="603" d="M589 195L544 24Q511 9 471 1T392 -9T327 -8Q283 -2 250 7T187 21T126 24Q117 24 101 19T71 6T51 -6H41V4Q61 29 82 77T119 198T130 370Q129 438 139 498T178 605T254 680T377 714Q443 719 489 702T556 657L516 536H506Q507
585 495 615T459 660T399 672Q343 669 317 632T285 529T282 377Q287 293 278 238T250 150T205 98T148 66Q188 80 231 73T329 60Q376 57 423 67T511 109T579 195H589ZM54 371H465L446 323H38L54 371Z" />
<glyph unicode="&#xa4;" horiz-adv-x="541" d="M119 503Q161 545 215 558T324 559T420 503Q462 461 475 407T476 298T420 201Q379 160 325 146T216 146T119 201Q78 243 64 297T64 406T119 503ZM140 481Q104 446 92 399T92 306T140 223Q176 187 222 175T316 175T399
223Q435 259 446 305T447 399T399 481Q363 517 316 529T223 529T140 481ZM50 553L71 574L143 503L121 481L50 553ZM399 204L420 225L492 154L470 132L399 204ZM71 132L50 154L121 225L143 204L71 132ZM420 481L399 503L470 574L492 553L420 481Z" />
<glyph unicode="&#xa5;" horiz-adv-x="702" d="M213 699L418 327L276 313L42 699H213ZM423 322V0H273V322H423ZM584 699H662L412 302L362 312L584 699ZM543 628Q552 642 548 656T533 680T508 690Q508 690 502 690T496 690V700H735V690H721Q690 690 663 672T620
631L543 628ZM252 628L83 631Q69 654 42 672T-17 690H-31V700H300V690Q300 690 294 690T287 690Q265 690 254 670T252 628ZM276 73V0H196V10Q196 10 202 10T209 10Q235 10 253 28T273 73H276ZM420 73H423Q423 47 442 29T487 10Q487 10 493 10T499 10V0H420V73ZM100
307H594V265H100V307ZM100 421H302V379H100V421ZM435 421H594V379H435V421Z" />
<glyph unicode="&#xa6;" horiz-adv-x="257" d="M100 170H157V-180H100V170ZM100 700H157V350H100V700Z" />
<glyph unicode="&#xa7;" horiz-adv-x="526" d="M310 713Q354 716 386 706T438 678T460 640T448 600Q434 581 418 580T384 590T348 617T311 645T273 661T234 651Q215 637 214 618T224 574T259 523T308 465T366 403Q433 330 462 253T486 104T448 -25T359 -118T230
-156Q185 -159 151 -149T94 -122T67 -83T77 -41Q93 -20 109 -19T144 -29T183 -56T223 -86T263 -102T303 -91Q332 -69 321 -36T268 46T158 160Q98 220 70 282T41 406T61 522T119 618T206 685T310 713ZM143 583Q121 537 117 495T125 413T166 335T237 253Q287 206
323 161T377 72T386 -19Q408 23 411 63T400 144T357 225T285 310Q243 354 215 387T170 449T148 510T143 583Z" />
<glyph unicode="&#xa8;" horiz-adv-x="600" d="M164 679Q139 679 122 696T104 739Q104 764 121 781T164 799Q189 799 206 782T224 739Q224 714 207 697T164 679ZM397 679Q372 679 355 696T337 739Q337 764 354 781T397 799Q422 799 439 782T457 739Q457 714 440
697T397 679Z" />
<glyph unicode="&#xa9;" horiz-adv-x="848" d="M424 714Q499 714 565 686T681 607T759 491T788 350Q788 275 760 209T681 93T565 15T424 -14Q349 -14 283 14T167 93T89 209T60 350Q60 425 88 491T167 607T283 685T424 714ZM424 668Q358 668 301 643T200 575T131
474T106 350Q106 284 131 227T199 126T300 57T424 32Q490 32 547 57T648 125T717 226T742 350Q742 416 717 473T649 574T548 643T424 668ZM618 322L630 218Q598 176 548 152T432 127Q363 128 309 157T223 236T191 350Q191 414 222 464T309 544T434 573Q477 573
524 562T606 530L607 418H601Q581 474 540 506T437 538Q396 538 365 515T317 449T300 350Q300 294 317 252T365 187T439 163Q510 163 556 202T612 322H618Z" />
<glyph unicode="&#xaa;" horiz-adv-x="381" d="M188 712L354 380H249L153 601L188 712ZM87 413Q80 398 88 390T106 382H110V377H-3V382Q-3 382 -1 382T1 382Q13 382 25 389T45 413H87ZM188 712L189 635L71 378H28L157 643Q159 648 165 661T177 689T183 712H188ZM234
483V457H93V483H234ZM235 413H337Q346 397 357 390T380 382Q380 382 382 382T384 382V377H212V382H217Q226 382 234 390T235 413Z" />
<glyph unicode="&#xab;" horiz-adv-x="506" d="M40 292L245 89L254 95L160 292L253 485L245 490L40 292ZM233 292L438 89L447 95L353 292L446 485L438 490L233 292Z" />
<glyph unicode="&#xac;" horiz-adv-x="600" d="M40 403H562V346H40V403ZM505 403H562V195H505V403Z" />
<glyph unicode="&#xad;" horiz-adv-x="380" d="M40 325H340L348 292L340 258H40L32 292L40 325Z" />
<glyph unicode="&#xae;" horiz-adv-x="245" d="M123 701Q154 701 179 686T220 645T236 588Q236 557 221 532T180 491T123 475Q92 475 67 490T26 531T10 588Q10 619 25 644T66 685T123 701ZM81 531H65V533Q65 533 66 533T67 533Q78 533 78 544L81 531ZM106 544Q106
533 116 533Q116 533 117 533T119 533V531H103L106 544ZM106 651V531H78V651H106ZM81 651L78 638Q78 649 67 649Q67 649 66 649T65 649V651H81ZM126 651Q144 651 156 643T169 618Q169 603 161 595T139 585Q146 584 154 572T168 552Q170 549 175 543T189 533V531H173Q148
531 139 545T122 576Q119 581 117 585T111 589V591Q111 591 114 591T122 591Q125 591 130 594T138 607Q140 613 139 620Q139 642 117 641L104 642Q104 642 103 646T102 651H126ZM123 679Q85 679 59 653T32 588Q32 550 58 524T123 497Q161 497 187 523T214 588Q214
626 188 652T123 679Z" />
<glyph unicode="&#xaf;" horiz-adv-x="600" d="M158 768H432V703H158V768Z" />
<glyph unicode="&#xb0;" horiz-adv-x="245" d="M123 664Q164 664 192 636T221 566Q221 525 193 496T123 467Q82 467 53 496T24 566Q24 607 53 635T123 664ZM123 613Q103 613 89 600T74 566Q74 546 88 533T123 519Q143 519 156 532T170 566Q170 586 157 599T123 613Z" />
<glyph unicode="&#xb1;" horiz-adv-x="481" d="M40 111H442V54H40V111ZM212 179V581H269V179H212ZM40 408H442V351H40V408Z" />
<glyph unicode="&#xb2;" horiz-adv-x="402" d="M68 573L34 672Q58 694 97 705T177 717Q223 717 259 703T318 663T340 601Q340 565 322 534T278 478T224 433T173 401H284Q310 401 328 415T362 461H368L331 308H35V314Q65 350 98 387T160 462T207 537T226 611Q226
648 205 669T149 688Q115 685 95 656T74 573H68Z" />
<glyph unicode="&#xb3;" horiz-adv-x="348" d="M159 713Q223 713 261 688T299 619Q299 589 282 570T240 543T192 541Q217 542 245 533T294 500T315 437Q315 387 289 353T220 303T127 287T28 308L29 314Q77 313 117 327T181 370T205 442Q205 476 189 495T149 523T96
532L97 537Q138 537 167 564T193 630Q190 661 170 674T125 685Q92 683 77 660T62 584H56L28 676Q48 693 82 703T159 713Z" />
<glyph unicode="&#xb4;" horiz-adv-x="537" d="M203 751Q220 780 245 811T297 869T346 916Q373 901 389 881T415 834Q384 815 349 798T279 766T210 744L203 751Z" />
<glyph unicode="&#xb5;" horiz-adv-x="863" d="M705 613L713 510L444 83Q444 83 435 67T418 27T408 -19H399L360 63L705 613ZM90 64V0H-8V10Q-8 10 -2 10T5 10Q30 10 48 24T71 64H90ZM134 50Q133 39 140 25T168 10H182V0H122L128 50H134ZM149 613H157L191 517L128
0H63L149 613ZM157 613L453 170L399 -19L133 384L157 613ZM714 613L802 0H649L600 365L705 613H714ZM774 64H793Q798 38 816 24T858 10Q858 10 865 10T872 10V0H774V64ZM642 50H648L654 0H594V10H608Q630 10 637 24T642 50Z" />
<glyph unicode="&#xb6;" horiz-adv-x="532" d="M515 743L522 737Q517 719 504 701T469 671T417 658H291V0Q291 -38 284 -77T255 -147T193 -199L186 -190Q214 -161 227 -136T245 -80T249 0L246 333Q191 333 147 355T76 419T50 517Q51 574 77 615T147 678T246 700H419Q430
700 444 701T477 710T515 743ZM416 687V147Q416 109 409 80T389 28T356 -13L347 -5Q362 20 367 41T373 87T374 145V687H416Z" />
<glyph unicode="&#xb7;" horiz-adv-x="219" d="M109 281Q79 281 58 302T37 353Q37 384 58 404T109 425Q140 425 161 405T182 353Q182 323 161 302T109 281Z" />
<glyph unicode="&#xb8;" horiz-adv-x="600" d="M277 1H325L283 -48Q297 -43 316 -43T354 -48T385 -68T397 -109Q395 -142 369 -165T304 -195T227 -189L228 -179Q249 -179 271 -172T309 -150T326 -108Q328 -87 312 -77T274 -65T234 -72Q234 -72 232 -67T229 -62L277 1Z" />
<glyph unicode="&#xb9;" horiz-adv-x="260" d="M235 308V314H222Q209 314 200 323T190 346V715H184Q169 705 149 698T106 687T65 680T34 676V671H46Q64 671 73 663T83 632V346Q83 333 74 324T51 314H38V308H235Z" />
<glyph unicode="&#xba;" horiz-adv-x="405" d="M202 712Q257 712 297 691T359 632T381 543Q381 492 359 454T297 395T202 374Q148 374 108 394T46 453T24 543Q24 594 46 632T108 691T202 712ZM202 398Q243 398 264 437T286 543Q286 609 265 648T202 688Q176 688
157 670T128 620T118 543Q118 498 128 466T157 416T202 398Z" />
<glyph unicode="&#xbb;" horiz-adv-x="506" d="M467 292L262 490L254 485L348 292L253 95L262 89L467 292ZM274 292L69 490L61 485L155 292L60 95L69 89L274 292Z" />
<glyph unicode="&#xbc;" horiz-adv-x="745" d="M235 308V314H222Q209 314 200 323T190 346V715H184Q169 705 149 698T106 687T65 680T34 676V671H46Q64 671 73 663T83 632V346Q83 333 74 324T51 314H38V308H235ZM110 7L149 -18L626 693L588 719L110 7ZM541 295L640
408H646V1H541V295ZM639 408L645 366L444 165H673Q691 165 698 170T712 186H718L700 107H352V114L639 408ZM646 41Q646 27 656 17T680 6H687V0H499V6H506Q521 6 531 16T541 41H646Z" />
<glyph unicode="&#xbd;" horiz-adv-x="832" d="M237 308V314H224Q211 314 202 323T192 346V715H186Q171 705 151 698T108 687T67 680T36 676V671H48Q66 671 75 663T85 632V346Q85 333 76 324T53 314H40V308H237ZM98 7L137 -18L614 693L576 719L98 7ZM493 265L459
364Q483 386 522 397T602 409Q648 409 684 395T743 355T765 293Q765 257 747 226T703 170T649 125T598 93H709Q735 93 753 107T787 153H793L756 0H460V6Q490 42 523 79T585 154T632 229T651 303Q651 340 630 361T574 380Q540 377 520 348T499 265H493Z" />
<glyph unicode="&#xbe;" horiz-adv-x="786" d="M159 713Q223 713 261 688T299 619Q299 589 282 570T240 543T192 541Q217 542 245 533T294 500T315 437Q315 387 289 353T220 303T127 287T28 308L29 314Q77 313 117 327T181 370T205 442Q205 476 189 495T149 523T96
532L97 537Q138 537 167 564T193 630Q190 661 170 674T125 685Q92 683 77 660T62 584H56L28 676Q48 693 82 703T159 713ZM167 7L206 -18L683 693L645 719L167 7ZM590 295L689 408H695V1H590V295ZM688 408L694 366L493 165H722Q740 165 747 170T761 186H767L749
107H401V114L688 408ZM695 41Q695 27 705 17T729 6H736V0H548V6H555Q570 6 580 16T590 41H695Z" />
<glyph unicode="&#xbf;" horiz-adv-x="488" d="M454 75Q432 35 382 11T262 -14Q154 -14 96 32T38 160Q38 191 47 216T73 262T109 304T152 345T197 391Q211 406 222 421T236 455T224 497L231 503Q268 487 290 458T310 390Q308 364 297 344T269 306T236 267T208
220T198 155Q198 94 225 61T301 28Q352 28 381 66T409 182H419L454 75ZM254 710Q284 710 305 689T327 638Q327 608 306 587T254 565Q224 565 203 586T182 638Q182 668 203 689T254 710Z" />
<glyph unicode="&#xc0;" horiz-adv-x="717" d="M354 720L680 6H501L293 527L354 720ZM139 73Q131 53 136 39T153 18T177 10H186V0H-28V10Q-28 10 -24 10T-19 10Q4 10 28 24T69 73H139ZM354 720L358 598L110 3H37L296 589Q299 595 306 611T322 649T338 689T345
720H354ZM459 238V196H165V238H459ZM474 73H649Q666 39 690 25T737 10Q737 10 741 10T745 10V0H427V10H436Q456 10 471 26T474 73ZM372 771L365 764Q332 772 296 786T225 817T160 854Q169 882 185 902T228 936Q249 916 276 889T329 832T372 771Z" />
<glyph unicode="&#xc1;" horiz-adv-x="717" d="M354 720L680 6H501L293 527L354 720ZM139 73Q131 53 136 39T153 18T177 10H186V0H-28V10Q-28 10 -24 10T-19 10Q4 10 28 24T69 73H139ZM354 720L358 598L110 3H37L296 589Q299 595 306 611T322 649T338 689T345
720H354ZM459 238V196H165V238H459ZM474 73H649Q666 39 690 25T737 10Q737 10 741 10T745 10V0H427V10H436Q456 10 471 26T474 73ZM335 769Q352 798 377 829T429 887T478 934Q505 919 521 899T547 852Q516 833 481 816T411 784T342 762L335 769Z" />
<glyph unicode="&#xc2;" horiz-adv-x="717" d="M354 720L680 6H501L293 527L354 720ZM139 73Q131 53 136 39T153 18T177 10H186V0H-28V10Q-28 10 -24 10T-19 10Q4 10 28 24T69 73H139ZM354 720L358 598L110 3H37L296 589Q299 595 306 611T322 649T338 689T345
720H354ZM459 238V196H165V238H459ZM474 73H649Q666 39 690 25T737 10Q737 10 741 10T745 10V0H427V10H436Q456 10 471 26T474 73ZM202 763L208 755L351 820L503 755L510 763L357 916H346L202 763Z" />
<glyph unicode="&#xc3;" horiz-adv-x="717" d="M354 720L680 6H501L293 527L354 720ZM139 73Q131 53 136 39T153 18T177 10H186V0H-28V10Q-28 10 -24 10T-19 10Q4 10 28 24T69 73H139ZM354 720L358 598L110 3H37L296 589Q299 595 306 611T322 649T338 689T345
720H354ZM459 238V196H165V238H459ZM474 73H649Q666 39 690 25T737 10Q737 10 741 10T745 10V0H427V10H436Q456 10 471 26T474 73ZM201 767H212Q218 780 228 791T255 810T289 814Q316 811 338 799T384 776T434 764Q463 764 483 776T515 808T531 850T531 890H520Q516
881 505 871T478 854T443 850Q414 853 392 865T347 888T297 899Q270 899 251 886T220 853T203 810T201 767Z" />
<glyph unicode="&#xc4;" horiz-adv-x="717" d="M354 720L680 6H501L293 527L354 720ZM139 73Q131 53 136 39T153 18T177 10H186V0H-28V10Q-28 10 -24 10T-19 10Q4 10 28 24T69 73H139ZM354 720L358 598L110 3H37L296 589Q299 595 306 611T322 649T338 689T345
720H354ZM459 238V196H165V238H459ZM474 73H649Q666 39 690 25T737 10Q737 10 741 10T745 10V0H427V10H436Q456 10 471 26T474 73ZM233 759Q208 759 191 776T173 819Q173 844 190 861T233 879Q258 879 275 862T293 819Q293 794 276 777T233 759ZM466 759Q441 759
424 776T406 819Q406 844 423 861T466 879Q491 879 508 862T526 819Q526 794 509 777T466 759Z" />
<glyph unicode="&#xc5;" horiz-adv-x="717" d="M354 714L680 6H501L293 521L354 714ZM139 73Q131 53 136 39T153 18T177 10H186V0H-28V10Q-28 10 -24 10T-19 10Q4 10 28 24T69 73H139ZM354 714L358 592L110 3H37L296 583Q299 589 306 605T322 643T338 683T345
714H354ZM459 238V196H165V238H459ZM474 73H649Q666 39 690 25T737 10Q737 10 741 10T745 10V0H427V10H436Q456 10 471 26T474 73ZM351 841Q390 841 417 822T444 769Q444 738 417 717T351 696Q312 696 285 716T258 768Q257 801 284 821T351 841ZM351 821Q332 821
320 807T307 768Q307 745 319 731T351 716Q370 716 382 730T394 768Q395 793 383 807T351 821Z" />
<glyph unicode="&#xc6;" horiz-adv-x="972" d="M156 71Q146 53 149 40T164 18T189 10H199V0H-24V10Q-24 10 -20 10T-16 10Q8 10 30 26T74 72L156 71ZM616 700V0H466V654L616 700ZM468 58V0H406L407 10Q407 10 411 10T416 10Q436 10 450 24T466 58H468ZM886 43V0H613V43H886ZM837
360V318H293L298 360H837ZM885 700V657H527L488 617L115 3H28L457 647Q468 664 461 677T436 690H431V700H885ZM945 195L900 0H715L748 43Q816 43 864 84T935 195H945ZM837 321V224H827V233Q827 269 803 293T742 318V321H837ZM837 455V358H742V360Q779 361 803 385T827
446V455H837ZM885 660V549H875V559Q876 604 850 630T778 657V660H885ZM885 718V689L763 700Q785 700 809 703T855 710T885 718Z" />
<glyph unicode="&#xc7;" horiz-adv-x="780" d="M722 292L731 120Q709 83 672 53T580 5T450 -14Q328 -13 237 30T95 155T45 351Q45 463 94 544T234 670T453 714Q533 714 596 698T702 659L704 488H695Q668 587 607 629T464 672Q384 672 327 633T239 523T208 353Q208
254 237 182T321 70T450 28Q527 28 580 53T665 136T714 292H722ZM405 -8H453L411 -57Q425 -52 444 -52T482 -57T513 -77T525 -118Q523 -151 497 -174T432 -204T355 -198L356 -188Q377 -188 399 -181T437 -159T454 -117Q456 -96 440 -86T402 -74T362 -81Q362 -81
360 -76T357 -71L405 -8Z" />
<glyph unicode="&#xc8;" horiz-adv-x="632" d="M269 700V0H119V700H269ZM533 43L557 0H266V43H533ZM496 366V324H266V366H496ZM545 700V657H266V700H545ZM606 204L560 0H364L400 43Q450 43 488 62T553 118T596 204H606ZM496 326V230H486V239Q486 275 462 299T401
324V326H496ZM496 460V364H401V366Q438 367 462 391T486 452V460H496ZM545 660V543H535V555Q535 601 508 629T433 658V660H545ZM545 718V689L423 700Q445 700 469 703T515 710T545 718ZM122 73V0H42V10Q42 10 48 10T55 10Q81 10 99 28T119 73H122ZM122 627H119Q118
653 100 671T55 690Q55 690 49 690T42 690V700H122V627ZM343 771L336 764Q303 772 267 786T196 817T131 854Q140 882 156 902T199 936Q220 916 247 889T300 832T343 771Z" />
<glyph unicode="&#xc9;" horiz-adv-x="632" d="M269 700V0H119V700H269ZM533 43L557 0H266V43H533ZM496 366V324H266V366H496ZM545 700V657H266V700H545ZM606 204L560 0H364L400 43Q450 43 488 62T553 118T596 204H606ZM496 326V230H486V239Q486 275 462 299T401
324V326H496ZM496 460V364H401V366Q438 367 462 391T486 452V460H496ZM545 660V543H535V555Q535 601 508 629T433 658V660H545ZM545 718V689L423 700Q445 700 469 703T515 710T545 718ZM122 73V0H42V10Q42 10 48 10T55 10Q81 10 99 28T119 73H122ZM122 627H119Q118
653 100 671T55 690Q55 690 49 690T42 690V700H122V627ZM306 769Q323 798 348 829T400 887T449 934Q476 919 492 899T518 852Q487 833 452 816T382 784T313 762L306 769Z" />
<glyph unicode="&#xca;" horiz-adv-x="632" d="M269 700V0H119V700H269ZM533 43L557 0H266V43H533ZM496 366V324H266V366H496ZM545 700V657H266V700H545ZM606 204L560 0H364L400 43Q450 43 488 62T553 118T596 204H606ZM496 326V230H486V239Q486 275 462 299T401
324V326H496ZM496 460V364H401V366Q438 367 462 391T486 452V460H496ZM545 660V543H535V555Q535 601 508 629T433 658V660H545ZM545 718V689L423 700Q445 700 469 703T515 710T545 718ZM122 73V0H42V10Q42 10 48 10T55 10Q81 10 99 28T119 73H122ZM122 627H119Q118
653 100 671T55 690Q55 690 49 690T42 690V700H122V627ZM173 763L179 755L322 820L474 755L481 763L328 916H317L173 763Z" />
<glyph unicode="&#xcb;" horiz-adv-x="632" d="M269 700V0H119V700H269ZM533 43L557 0H266V43H533ZM496 366V324H266V366H496ZM545 700V657H266V700H545ZM606 204L560 0H364L400 43Q450 43 488 62T553 118T596 204H606ZM496 326V230H486V239Q486 275 462 299T401
324V326H496ZM496 460V364H401V366Q438 367 462 391T486 452V460H496ZM545 660V543H535V555Q535 601 508 629T433 658V660H545ZM545 718V689L423 700Q445 700 469 703T515 710T545 718ZM122 73V0H42V10Q42 10 48 10T55 10Q81 10 99 28T119 73H122ZM122 627H119Q118
653 100 671T55 690Q55 690 49 690T42 690V700H122V627ZM204 759Q179 759 162 776T144 819Q144 844 161 861T204 879Q229 879 246 862T264 819Q264 794 247 777T204 759ZM437 759Q412 759 395 776T377 819Q377 844 394 861T437 879Q462 879 479 862T497 819Q497
794 480 777T437 759Z" />
<glyph unicode="&#xcc;" horiz-adv-x="387" d="M269 700V0H119V700H269ZM122 73V0H42V10Q42 10 48 10T55 10Q81 10 99 28T119 73H122ZM122 627H119Q118 653 100 671T55 690Q55 690 49 690T42 690V700H122V627ZM266 73H269Q270 47 288 29T333 10Q333 10 339 10T346
10V0H266V73ZM266 627V700H346V690Q345 690 339 690T333 690Q307 690 289 672T269 627H266ZM218 771L211 764Q179 772 143 786T72 817T6 854Q16 881 32 901T74 935Q96 916 123 889T176 831T218 771Z" />
<glyph unicode="&#xcd;" horiz-adv-x="387" d="M269 700V0H119V700H269ZM122 73V0H42V10Q42 10 48 10T55 10Q81 10 99 28T119 73H122ZM122 627H119Q118 653 100 671T55 690Q55 690 49 690T42 690V700H122V627ZM266 73H269Q270 47 288 29T333 10Q333 10 339 10T346
10V0H266V73ZM266 627V700H346V690Q345 690 339 690T333 690Q307 690 289 672T269 627H266ZM433 769Q450 798 475 829T527 887T576 934Q603 919 619 899T645 852Q614 833 579 816T509 784T440 762L433 769Z" />
<glyph unicode="&#xce;" horiz-adv-x="387" d="M269 700V0H119V700H269ZM122 73V0H42V10Q42 10 48 10T55 10Q81 10 99 28T119 73H122ZM122 627H119Q118 653 100 671T55 690Q55 690 49 690T42 690V700H122V627ZM266 73H269Q270 47 288 29T333 10Q333 10 339 10T346
10V0H266V73ZM266 627V700H346V690Q345 690 339 690T333 690Q307 690 289 672T269 627H266ZM299 763L305 755L448 820L600 755L607 763L454 916H443L299 763Z" />
<glyph unicode="&#xcf;" horiz-adv-x="387" d="M269 700V0H119V700H269ZM122 73V0H42V10Q42 10 48 10T55 10Q81 10 99 28T119 73H122ZM122 627H119Q118 653 100 671T55 690Q55 690 49 690T42 690V700H122V627ZM266 73H269Q270 47 288 29T333 10Q333 10 339 10T346
10V0H266V73ZM266 627V700H346V690Q345 690 339 690T333 690Q307 690 289 672T269 627H266ZM330 759Q305 759 288 776T270 819Q270 844 287 861T330 879Q355 879 372 862T390 819Q390 794 373 777T330 759ZM563 759Q538 759 521 776T503 819Q503 844 520 861T563
879Q588 879 605 862T623 819Q623 794 606 777T563 759Z" />
<glyph unicode="&#xd0;" horiz-adv-x="828" d="M42 371H400V329H42V371ZM407 700Q525 700 610 658T742 537T788 350Q788 242 742 164T611 43T407 0H169L168 42Q197 42 228 42T289 42T343 42T381 42T395 42Q467 42 519 79T601 186T630 350Q630 445 601 514T520
620T395 658Q395 658 380 658T340 658T285 658T221 658T158 658V700H407ZM271 700V0H121V700H271ZM124 73V0H44V10Q44 10 50 10T57 10Q83 10 101 28T121 73H124ZM124 627H121Q120 653 102 671T57 690Q57 690 51 690T44 690V700H124V627Z" />
<glyph unicode="&#xd1;" horiz-adv-x="865" d="M108 715L746 107L758 -14L120 593L108 715ZM113 71V0H30V10Q30 10 39 10T49 10Q74 10 92 28T110 71H113ZM253 71Q253 46 271 28T314 10Q315 10 324 10T333 10V0H250V71H253ZM108 715L252 562L253 0H110V590Q110
646 104 680T98 715H108ZM755 700V114Q755 77 758 48T764 2T767 -14H758L613 148V700H755ZM835 700V690Q835 690 826 690T817 690Q792 690 774 673T755 629H752V700H835ZM532 700H615V629H613Q612 655 595 672T551 690Q551 690 542 690T532 690V700ZM266 767H277Q283
780 293 791T320 810T354 814Q381 811 403 799T449 776T499 764Q528 764 548 776T580 808T596 850T596 890H585Q581 881 570 871T543 854T508 850Q479 853 457 865T412 888T362 899Q335 899 316 886T285 853T268 810T266 767Z" />
<glyph unicode="&#xd2;" horiz-adv-x="879" d="M442 714Q562 714 650 670T787 544T836 350Q836 238 788 157T651 31T442 -14Q322 -14 234 30T97 156T49 350Q49 462 97 543T233 669T442 714ZM442 28Q515 28 567 67T646 179T674 350Q674 449 647 521T567 632T442
672Q370 672 318 633T238 521T210 350Q210 251 238 179T318 68T442 28ZM461 779L454 772Q421 781 386 794T315 826T249 862Q259 890 274 910T317 944Q339 924 366 897T419 840T461 779Z" />
<glyph unicode="&#xd3;" horiz-adv-x="879" d="M442 714Q562 714 650 670T787 544T836 350Q836 238 788 157T651 31T442 -14Q322 -14 234 30T97 156T49 350Q49 462 97 543T233 669T442 714ZM442 28Q513 28 564 67T643 179T671 350Q671 449 644 521T565 632T442
672Q372 672 321 633T241 521T213 350Q213 251 241 179T320 68T442 28ZM425 777Q442 806 467 837T519 895T568 942Q595 927 611 907T637 860Q606 841 571 824T501 792T432 770L425 777Z" />
<glyph unicode="&#xd4;" horiz-adv-x="879" d="M442 714Q562 714 650 670T787 544T836 350Q836 238 788 157T651 31T442 -14Q322 -14 234 30T97 156T49 350Q49 462 97 543T233 669T442 714ZM442 28Q513 28 564 67T643 179T671 350Q671 449 644 521T565 632T442
672Q372 672 321 633T241 521T213 350Q213 251 241 179T320 68T442 28ZM292 771L298 763L441 828L593 763L600 771L447 924H436L292 771Z" />
<glyph unicode="&#xd5;" horiz-adv-x="879" d="M442 714Q562 714 650 670T787 544T836 350Q836 238 788 157T651 31T442 -14Q322 -14 234 30T97 156T49 350Q49 462 97 543T233 669T442 714ZM442 28Q513 28 564 67T643 179T671 350Q671 449 644 521T565 632T442
672Q372 672 321 633T241 521T213 350Q213 251 241 179T320 68T442 28ZM291 775H302Q308 788 318 799T345 818T379 822Q406 819 428 807T474 784T524 772Q553 772 573 784T605 816T621 858T621 898H610Q606 889 595 879T568 862T533 858Q504 861 482 873T437 896T387
907Q360 907 341 894T310 861T293 818T291 775Z" />
<glyph unicode="&#xd6;" horiz-adv-x="879" d="M442 714Q562 714 650 670T787 544T836 350Q836 238 788 157T651 31T442 -14Q322 -14 234 30T97 156T49 350Q49 462 97 543T233 669T442 714ZM442 28Q513 28 564 67T643 179T671 350Q671 449 644 521T565 632T442
672Q372 672 321 633T241 521T213 350Q213 251 241 179T320 68T442 28ZM323 767Q298 767 281 784T263 827Q263 852 280 869T323 887Q348 887 365 870T383 827Q383 802 366 785T323 767ZM556 767Q531 767 514 784T496 827Q496 852 513 869T556 887Q581 887 598 870T616
827Q616 802 599 785T556 767Z" />
<glyph unicode="&#xd7;" horiz-adv-x="412" d="M84 472L368 188L328 148L44 432L84 472ZM368 432L84 148L44 188L328 472L368 432Z" />
<glyph unicode="&#xd8;" horiz-adv-x="875" d="M440 714Q560 714 648 670T784 544T832 350Q832 238 784 157T648 31T440 -14Q320 -14 232 30T97 156T49 350Q49 462 96 543T232 669T440 714ZM440 28Q513 28 565 67T644 179T672 350Q672 449 645 521T565 632T440
672Q368 672 316 633T236 521T208 350Q208 251 236 179T316 68T440 28ZM717 724L754 695L145 -23L109 7L717 724Z" />
<glyph unicode="&#xd9;" horiz-adv-x="821" d="M257 700V260Q257 189 280 137T347 57T451 29Q512 29 556 55T625 131T649 247V700H721V253Q721 171 687 111T588 19T432 -14Q326 -14 253 18T144 110T107 252V700H257ZM110 700V640H107Q107 662 92 676T54 690Q54
690 46 690T38 690V700H110ZM326 700V690Q326 690 318 690T310 690Q288 690 273 676T257 640H255V700H326ZM652 700V640H649Q649 662 634 676T596 690Q596 690 588 690T580 690V700H652ZM790 700V690Q790 690 782 690T774 690Q752 690 737 676T721 640H719V700H790ZM471
771L464 764Q431 772 395 786T324 817T259 854Q268 882 284 902T327 936Q348 916 375 889T428 832T471 771Z" />
<glyph unicode="&#xda;" horiz-adv-x="821" d="M257 700V260Q257 189 280 137T347 57T451 29Q512 29 556 55T625 131T649 247V700H721V253Q721 171 687 111T588 19T432 -14Q326 -14 253 18T144 110T107 252V700H257ZM110 700V640H107Q107 662 92 676T54 690Q54
690 46 690T38 690V700H110ZM326 700V690Q326 690 318 690T310 690Q288 690 273 676T257 640H255V700H326ZM652 700V640H649Q649 662 634 676T596 690Q596 690 588 690T580 690V700H652ZM790 700V690Q790 690 782 690T774 690Q752 690 737 676T721 640H719V700H790ZM434
769Q451 798 476 829T528 887T577 934Q604 919 620 899T646 852Q615 833 580 816T510 784T441 762L434 769Z" />
<glyph unicode="&#xdb;" horiz-adv-x="821" d="M257 700V260Q257 189 280 137T347 57T451 29Q512 29 556 55T625 131T649 247V700H721V253Q721 171 687 111T588 19T432 -14Q326 -14 253 18T144 110T107 252V700H257ZM110 700V640H107Q107 662 92 676T54 690Q54
690 46 690T38 690V700H110ZM326 700V690Q326 690 318 690T310 690Q288 690 273 676T257 640H255V700H326ZM652 700V640H649Q649 662 634 676T596 690Q596 690 588 690T580 690V700H652ZM790 700V690Q790 690 782 690T774 690Q752 690 737 676T721 640H719V700H790ZM301
763L307 755L450 820L602 755L609 763L456 916H445L301 763Z" />
<glyph unicode="&#xdc;" horiz-adv-x="821" d="M257 700V260Q257 189 280 137T347 57T451 29Q512 29 556 55T625 131T649 247V700H721V253Q721 171 687 111T588 19T432 -14Q326 -14 253 18T144 110T107 252V700H257ZM110 700V640H107Q107 662 92 676T54 690Q54
690 46 690T38 690V700H110ZM326 700V690Q326 690 318 690T310 690Q288 690 273 676T257 640H255V700H326ZM652 700V640H649Q649 662 634 676T596 690Q596 690 588 690T580 690V700H652ZM790 700V690Q790 690 782 690T774 690Q752 690 737 676T721 640H719V700H790ZM332
759Q307 759 290 776T272 819Q272 844 289 861T332 879Q357 879 374 862T392 819Q392 794 375 777T332 759ZM565 759Q540 759 523 776T505 819Q505 844 522 861T565 879Q590 879 607 862T625 819Q625 794 608 777T565 759Z" />
<glyph unicode="&#xdd;" horiz-adv-x="702" d="M213 699L418 327L276 313L42 699H213ZM423 322V0H273V322H423ZM584 699H662L412 302L362 312L584 699ZM543 628Q552 642 548 656T533 680T508 690Q508 690 502 690T496 690V700H735V690H721Q690 690 663 672T620
631L543 628ZM252 628L83 631Q69 654 42 672T-17 690H-31V700H300V690Q300 690 294 690T287 690Q265 690 254 670T252 628ZM276 73V0H196V10Q196 10 202 10T209 10Q235 10 253 28T273 73H276ZM420 73H423Q423 47 442 29T487 10Q487 10 493 10T499 10V0H420V73ZM381
769Q398 798 423 829T475 887T524 934Q551 919 567 899T593 852Q562 833 527 816T457 784T388 762L381 769Z" />
<glyph unicode="&#xde;" horiz-adv-x="647" d="M270 700V0H120V700H270ZM122 73V0H43V10Q43 10 49 10T56 10Q82 10 100 28T120 73H122ZM122 627H120Q119 653 101 671T56 690Q55 690 49 690T43 690V700H122V627ZM267 73H270Q270 47 289 29T334 10Q334 10 340 10T346
10V0H267V73ZM267 627V700H346V690Q346 690 340 690T334 690Q308 690 289 672T270 627H267ZM252 554H372Q459 554 512 529T591 460T619 362Q620 311 602 270T550 200T475 159T388 152T299 187V197Q299 197 311 197T343 201T384 216T425 250T454 311Q458 324 459
340T460 371Q458 435 425 473T332 512H262Q262 512 260 522T255 543T252 554Z" />
<glyph unicode="&#xdf;" horiz-adv-x="1030" d="M238 613Q258 613 286 611T343 607T392 601T422 594L409 472H400Q400 518 368 545T276 572Q228 572 199 551T167 495Q165 477 173 463T197 437T232 415L389 318Q429 298 452 260T472 168Q469 112 440 71T359 9T237
-13Q194 -13 157 -6T94 13T53 40Q45 60 46 88T55 145T75 193H83Q80 148 99 110T156 50T248 27Q306 27 335 54T364 118Q364 144 347 165T289 208L147 298Q97 324 75 367T58 461Q63 509 86 543T149 595T238 613ZM422 604L421 586H314V604H422ZM753 613Q773 613 801
611T858 607T907 601T937 594L924 472H915Q915 518 883 545T791 572Q743 572 714 551T682 495Q680 477 688 463T712 437T747 415L904 318Q944 298 967 260T987 168Q984 112 955 71T874 9T752 -13Q709 -13 672 -6T609 13T568 40Q560 60 561 88T570 145T590 193H598Q595
148 614 110T671 50T763 27Q821 27 850 54T879 118Q879 144 862 165T804 208L662 298Q612 324 590 367T573 461Q578 509 601 543T664 595T753 613ZM937 604L936 586H829V604H937Z" />
<glyph unicode="&#xe0;" horiz-adv-x="644" d="M319 627L615 5H446L260 444L319 627ZM131 66Q120 39 134 25T165 10H173V0H-27V10Q-27 10 -23 10T-19 10Q1 10 23 22T59 66H131ZM319 627L321 507L104 3H30L264 506Q266 512 273 527T288 562T303 599T311 627H319ZM406
196V157H151V196H406ZM421 66H586Q601 35 623 23T665 10Q665 10 669 10T673 10V0H379V10H387Q404 10 418 24T421 66ZM335 927L328 920Q295 928 259 942T188 973T123 1010Q132 1038 148 1058T191 1092Q212 1072 239 1045T292 988T335 927Z" />
<glyph unicode="&#xe1;" horiz-adv-x="644" d="M319 627L615 5H446L260 444L319 627ZM131 66Q120 39 134 25T165 10H173V0H-27V10Q-27 10 -23 10T-19 10Q1 10 23 22T59 66H131ZM319 627L321 507L104 3H30L264 506Q266 512 273 527T288 562T303 599T311 627H319ZM406
196V157H151V196H406ZM421 66H586Q601 35 623 23T665 10Q665 10 669 10T673 10V0H379V10H387Q404 10 418 24T421 66ZM298 925Q315 954 340 985T392 1043T441 1090Q468 1075 484 1055T510 1008Q479 989 444 972T374 940T305 918L298 925Z" />
<glyph unicode="&#xe2;" horiz-adv-x="644" d="M319 627L615 5H446L260 444L319 627ZM131 66Q120 39 134 25T165 10H173V0H-27V10Q-27 10 -23 10T-19 10Q1 10 23 22T59 66H131ZM319 627L321 507L104 3H30L264 506Q266 512 273 527T288 562T303 599T311 627H319ZM406
196V157H151V196H406ZM421 66H586Q601 35 623 23T665 10Q665 10 669 10T673 10V0H379V10H387Q404 10 418 24T421 66ZM165 919L171 911L314 976L466 911L473 919L320 1072H309L165 919Z" />
<glyph unicode="&#xe3;" horiz-adv-x="644" d="M319 627L615 5H446L260 444L319 627ZM131 66Q120 39 134 25T165 10H173V0H-27V10Q-27 10 -23 10T-19 10Q1 10 23 22T59 66H131ZM319 627L321 507L104 3H30L264 506Q266 512 273 527T288 562T303 599T311 627H319ZM406
196V157H151V196H406ZM421 66H586Q601 35 623 23T665 10Q665 10 669 10T673 10V0H379V10H387Q404 10 418 24T421 66ZM165 923H176Q182 936 192 947T219 966T253 970Q280 967 302 955T348 932T398 920Q427 920 447 932T479 964T495 1006T495 1046H484Q480 1037 469
1027T442 1010T407 1006Q378 1009 356 1021T311 1044T261 1055Q234 1055 215 1042T184 1009T167 966T165 923Z" />
<glyph unicode="&#xe4;" horiz-adv-x="644" d="M319 627L615 5H446L260 444L319 627ZM131 66Q120 39 134 25T165 10H173V0H-27V10Q-27 10 -23 10T-19 10Q1 10 23 22T59 66H131ZM319 627L321 507L104 3H30L264 506Q266 512 273 527T288 562T303 599T311 627H319ZM406
196V157H151V196H406ZM421 66H586Q601 35 623 23T665 10Q665 10 669 10T673 10V0H379V10H387Q404 10 418 24T421 66ZM197 915Q172 915 155 932T137 975Q137 1000 154 1017T197 1035Q222 1035 239 1018T257 975Q257 950 240 933T197 915ZM430 915Q405 915 388 932T370
975Q370 1000 387 1017T430 1035Q455 1035 472 1018T490 975Q490 950 473 933T430 915Z" />
<glyph unicode="&#xe5;" horiz-adv-x="644" d="M319 627L615 5H446L260 444L319 627ZM131 66Q120 39 134 25T165 10H173V0H-27V10Q-27 10 -23 10T-19 10Q1 10 23 22T59 66H131ZM319 627L321 507L104 3H30L264 506Q266 512 273 527T288 562T303 599T311 627H319ZM406
196V157H151V196H406ZM421 66H586Q601 35 623 23T665 10Q665 10 669 10T673 10V0H379V10H387Q404 10 418 24T421 66ZM315 1087Q361 1087 392 1064T423 1005Q423 967 392 943T314 919Q268 919 237 943T206 1003Q206 1039 237 1063T315 1087ZM314 1062Q293 1062 279
1046T264 1003Q264 977 278 961T314 945Q337 945 351 961T365 1003Q365 1030 351 1046T314 1062Z" />
<glyph unicode="&#xe6;" horiz-adv-x="867" d="M139 61Q129 45 132 34T146 17T168 10H176V0H-21V10Q-21 10 -18 10T-14 10Q7 10 26 23T63 63L139 61ZM555 599V0H413V560L555 599ZM415 50V0H362V10Q363 10 367 10T371 10Q388 10 400 21T413 50H415ZM795 40V0H552V40H795ZM753
310V271H257L261 310H753ZM795 599V559H470L432 525L102 3H22L406 553Q415 568 409 579T387 591H383V599H795ZM847 176L808 0H644L673 40Q732 40 775 76T837 176H847ZM753 273V187H744V193Q744 227 722 248T667 271V273H753ZM753 395V308H667V310Q700 311 722 333T744
388V395H753ZM795 562V461H786V470Q786 510 762 534T697 560V562H795ZM795 615V590L690 599Q718 599 750 604T795 615Z" />
<glyph unicode="&#xe7;" horiz-adv-x="683" d="M634 251L645 100Q626 68 592 43T509 2T395 -13Q283 -12 202 25T78 131T34 301Q34 399 77 468T201 575T395 613Q463 613 521 600T619 567L620 408H612Q587 500 533 537T404 574Q332 574 284 540T211 445T186 302Q186
219 210 158T282 63T395 27Q466 27 512 49T586 120T626 251H634ZM355 246H403L361 197Q375 202 394 202T432 197T463 177T475 136Q473 103 447 80T382 50T305 56L306 66Q327 66 349 73T387 95T404 137Q406 158 390 168T352 180T312 173Q312 173 310 178T307 183L355
246Z" />
<glyph unicode="&#xe8;" horiz-adv-x="564" d="M245 600V0H101V600H245ZM479 40L502 0H243V40H479ZM445 317V277H243V317H445ZM490 600V560H243V600H490ZM543 184L505 0H332L363 40Q406 40 439 57T497 107T534 184H543ZM445 279V191H435V199Q435 232 415 254T359
277V279H445ZM445 403V315H359V317Q394 318 414 340T435 396V403H445ZM490 562V456H480V465Q480 509 457 534T389 560V562H490ZM490 615V591L385 600Q414 600 446 605T490 615ZM104 63L108 0H34V10Q34 10 40 10T47 10Q69 10 85 25T101 63H104ZM104 537H101Q101
560 85 575T47 590Q46 590 40 590T34 590V600H108L104 537ZM311 927L304 920Q271 928 235 942T164 973T99 1010Q108 1038 124 1058T167 1092Q188 1072 215 1045T268 988T311 927Z" />
<glyph unicode="&#xe9;" horiz-adv-x="564" d="M245 600V0H101V600H245ZM479 40L502 0H243V40H479ZM445 317V277H243V317H445ZM490 600V560H243V600H490ZM543 184L505 0H332L363 40Q406 40 439 57T497 107T534 184H543ZM445 279V191H435V199Q435 232 415 254T359
277V279H445ZM445 403V315H359V317Q394 318 414 340T435 396V403H445ZM490 562V456H480V465Q480 509 457 534T389 560V562H490ZM490 615V591L385 600Q414 600 446 605T490 615ZM104 63L108 0H34V10Q34 10 40 10T47 10Q69 10 85 25T101 63H104ZM104 537H101Q101
560 85 575T47 590Q46 590 40 590T34 590V600H108L104 537ZM274 925Q291 954 316 985T368 1043T417 1090Q444 1075 460 1055T486 1008Q455 989 420 972T350 940T281 918L274 925Z" />
<glyph unicode="&#xea;" horiz-adv-x="564" d="M245 600V0H101V600H245ZM479 40L502 0H243V40H479ZM445 317V277H243V317H445ZM490 600V560H243V600H490ZM543 184L505 0H332L363 40Q406 40 439 57T497 107T534 184H543ZM445 279V191H435V199Q435 232 415 254T359
277V279H445ZM445 403V315H359V317Q394 318 414 340T435 396V403H445ZM490 562V456H480V465Q480 509 457 534T389 560V562H490ZM490 615V591L385 600Q414 600 446 605T490 615ZM104 63L108 0H34V10Q34 10 40 10T47 10Q69 10 85 25T101 63H104ZM104 537H101Q101
560 85 575T47 590Q46 590 40 590T34 590V600H108L104 537ZM141 919L147 911L290 976L442 911L449 919L296 1072H285L141 919Z" />
<glyph unicode="&#xeb;" horiz-adv-x="564" d="M245 600V0H101V600H245ZM479 40L502 0H243V40H479ZM445 317V277H243V317H445ZM490 600V560H243V600H490ZM543 184L505 0H332L363 40Q406 40 439 57T497 107T534 184H543ZM445 279V191H435V199Q435 232 415 254T359
277V279H445ZM445 403V315H359V317Q394 318 414 340T435 396V403H445ZM490 562V456H480V465Q480 509 457 534T389 560V562H490ZM490 615V591L385 600Q414 600 446 605T490 615ZM104 63L108 0H34V10Q34 10 40 10T47 10Q69 10 85 25T101 63H104ZM104 537H101Q101
560 85 575T47 590Q46 590 40 590T34 590V600H108L104 537ZM173 915Q148 915 131 932T113 975Q113 1000 130 1017T173 1035Q198 1035 215 1018T233 975Q233 950 216 933T173 915ZM406 915Q381 915 364 932T346 975Q346 1000 363 1017T406 1035Q431 1035 448 1018T466
975Q466 950 449 933T406 915Z" />
<glyph unicode="&#xec;" horiz-adv-x="341" d="M242 600V0H98V600H242ZM101 63V0H34V10Q34 10 39 10T45 10Q67 10 82 25T98 63H101ZM240 63H242Q243 41 258 26T296 10Q296 10 301 10T306 10L307 0H240V63ZM240 537V600H306V590Q306 590 301 590T296 590Q274 590
259 575T242 537H240ZM101 537H98Q98 560 83 575T45 590Q45 590 40 590T34 590V600H101V537ZM445 927L438 920Q405 928 369 942T298 973T233 1010Q242 1038 258 1058T301 1092Q322 1072 349 1045T402 988T445 927Z" />
<glyph unicode="&#xed;" horiz-adv-x="340" d="M242 600V0H98V600H242ZM101 63V0H34V10Q34 10 39 10T45 10Q67 10 82 25T98 63H101ZM240 63H242Q243 41 258 26T296 10Q296 10 301 10T306 10L307 0H240V63ZM240 537V600H306V590Q306 590 301 590T296 590Q274 590
259 575T242 537H240ZM101 537H98Q98 560 83 575T45 590Q45 590 40 590T34 590V600H101V537ZM408 926Q425 955 450 986T502 1044T551 1091Q578 1076 594 1056T620 1009Q589 990 554 973T484 941T415 919L408 926Z" />
<glyph unicode="&#xee;" horiz-adv-x="340" d="M242 600V0H98V600H242ZM101 63V0H34V10Q34 10 39 10T45 10Q67 10 82 25T98 63H101ZM240 63H242Q243 41 258 26T296 10Q296 10 301 10T306 10L307 0H240V63ZM240 537V600H306V590Q306 590 301 590T296 590Q274 590
259 575T242 537H240ZM101 537H98Q98 560 83 575T45 590Q45 590 40 590T34 590V600H101V537ZM275 919L281 911L424 976L576 911L583 919L430 1072H419L275 919Z" />
<glyph unicode="&#xef;" horiz-adv-x="340" d="M242 600V0H98V600H242ZM101 63V0H34V10Q34 10 39 10T45 10Q67 10 82 25T98 63H101ZM240 63H242Q243 41 258 26T296 10Q296 10 301 10T306 10L307 0H240V63ZM240 537V600H306V590Q306 590 301 590T296 590Q274 590
259 575T242 537H240ZM101 537H98Q98 560 83 575T45 590Q45 590 40 590T34 590V600H101V537ZM306 915Q281 915 264 932T246 975Q246 1000 263 1017T306 1035Q331 1035 348 1018T366 975Q366 950 349 933T306 915ZM539 915Q514 915 497 932T479 975Q479 1000 496
1017T539 1035Q564 1035 581 1018T599 975Q599 950 582 933T539 915Z" />
<glyph unicode="&#xf0;" horiz-adv-x="748" d="M371 600Q478 600 555 565T673 462T714 300Q714 206 673 139T555 36T371 0H149L147 40Q223 40 269 40T337 40T359 40Q453 40 507 109T562 300Q562 422 508 491T359 561Q359 561 337 561T266 561T137 561V600H371ZM246
600V0H102V600H246ZM105 63V0H33V10Q33 10 39 10T46 10Q69 10 85 25T102 63H105ZM104 537H102Q102 560 85 575T45 590Q45 590 39 590T33 590V600H104V537ZM37 320H372V281H37V320Z" />
<glyph unicode="&#xf1;" horiz-adv-x="779" d="M91 614L678 98L688 -13L102 503L91 614ZM95 61V0H21V10Q21 10 29 10T37 10Q60 10 76 24T92 61H95ZM229 61Q230 39 246 25T284 10Q284 10 292 10T300 10V0H227V61H229ZM91 614L229 464V0H92V500Q92 551 87 582T82
614H91ZM687 600V104Q687 69 689 43T694 2T697 -13H688L550 146V600H687ZM684 539V600H759V590Q759 590 751 590T742 590Q720 590 704 576T687 539H684ZM550 539Q549 561 534 575T495 590Q495 590 487 590T478 590V600H552V539H550ZM221 923H232Q238 936 248 947T275
966T309 970Q336 967 358 955T404 932T454 920Q483 920 503 932T535 964T551 1006T551 1046H540Q536 1037 525 1027T498 1010T463 1006Q434 1009 412 1021T367 1044T317 1055Q290 1055 271 1042T240 1009T223 966T221 923Z" />
<glyph unicode="&#xf2;" horiz-adv-x="777" d="M388 613Q468 613 533 592T645 529T717 430T743 299Q743 227 718 170T645 71T533 9T388 -13Q309 -13 244 8T132 71T60 169T35 299Q35 372 60 430T132 529T244 591T388 613ZM388 26Q449 26 494 59T564 154T589 299Q589
384 565 445T495 540T388 574Q328 574 283 541T213 446T188 299Q188 215 213 154T283 60T388 26ZM409 671L402 664Q369 672 333 686T262 717T197 754Q206 782 222 802T265 836Q286 816 313 789T366 732T409 671Z" />
<glyph unicode="&#xf3;" horiz-adv-x="777" d="M388 613Q468 613 533 592T645 529T717 430T743 299Q743 227 718 170T645 71T533 9T388 -13Q309 -13 244 8T132 71T60 169T35 299Q35 372 60 430T132 529T244 591T388 613ZM388 26Q449 26 494 59T564 154T589 299Q589
384 565 445T495 540T388 574Q328 574 283 541T213 446T188 299Q188 215 213 154T283 60T388 26ZM372 670Q389 699 414 730T466 788T515 835Q542 820 558 800T584 753Q553 734 518 717T448 685T379 663L372 670Z" />
<glyph unicode="&#xf4;" horiz-adv-x="777" d="M388 613Q468 613 533 592T645 529T717 430T743 299Q743 227 718 170T645 71T533 9T388 -13Q309 -13 244 8T132 71T60 169T35 299Q35 372 60 430T132 529T244 591T388 613ZM388 26Q449 26 494 59T564 154T589 299Q589
384 565 445T495 540T388 574Q328 574 283 541T213 446T188 299Q188 215 213 154T283 60T388 26ZM239 919L245 911L388 976L540 911L547 919L394 1072H383L239 919Z" />
<glyph unicode="&#xf5;" horiz-adv-x="777" d="M388 613Q468 613 533 592T645 529T717 430T743 299Q743 227 718 170T645 71T533 9T388 -13Q309 -13 244 8T132 71T60 169T35 299Q35 372 60 430T132 529T244 591T388 613ZM388 26Q449 26 494 59T564 154T589 299Q589
384 565 445T495 540T388 574Q328 574 283 541T213 446T188 299Q188 215 213 154T283 60T388 26ZM238 923H249Q255 936 265 947T292 966T326 970Q353 967 375 955T421 932T471 920Q500 920 520 932T552 964T568 1006T568 1046H557Q553 1037 542 1027T515 1010T480
1006Q451 1009 429 1021T384 1044T334 1055Q307 1055 288 1042T257 1009T240 966T238 923Z" />
<glyph unicode="&#xf6;" horiz-adv-x="777" d="M388 613Q468 613 533 592T645 529T717 430T743 299Q743 227 718 170T645 71T533 9T388 -13Q309 -13 244 8T132 71T60 169T35 299Q35 372 60 430T132 529T244 591T388 613ZM388 26Q449 26 494 59T564 154T589 299Q589
384 565 445T495 540T388 574Q328 574 283 541T213 446T188 299Q188 215 213 154T283 60T388 26ZM270 915Q245 915 228 932T210 975Q210 1000 227 1017T270 1035Q295 1035 312 1018T330 975Q330 950 313 933T270 915ZM503 915Q478 915 461 932T443 975Q443 1000
460 1017T503 1035Q528 1035 545 1018T563 975Q563 950 546 933T503 915Z" />
<glyph unicode="&#xf7;" horiz-adv-x="481" d="M40 338H442V281H40V338ZM241 107Q222 107 209 120T195 152Q195 171 208 184T241 197Q259 197 272 184T286 152Q286 133 273 120T241 107ZM241 423Q222 423 209 436T195 468Q195 487 208 500T241 513Q259 513 272
500T286 468Q286 449 273 436T241 423Z" />
<glyph unicode="&#xf8;" horiz-adv-x="777" d="M630 638L666 608L131 -29L95 1L630 638ZM388 613Q465 613 530 592T643 529T717 430T743 299Q743 227 718 170T645 71T533 9T388 -13Q309 -13 244 8T132 71T60 169T35 299Q35 372 60 430T132 529T244 591T388 613ZM388
26Q449 26 494 59T564 154T589 299Q589 384 565 445T495 540T388 574Q328 574 283 541T213 446T188 299Q188 215 213 154T283 60T388 26Z" />
<glyph unicode="&#xf9;" horiz-adv-x="705" d="M231 600V223Q231 131 273 79T392 27Q471 27 514 76T559 212V600H625V218Q625 111 560 49T374 -13Q230 -13 159 48T87 217V600H231ZM89 600V548H87Q86 567 73 579T41 591Q41 591 34 591T27 591V600H89ZM290 600V591Q290
591 283 591T276 591Q257 591 244 579T231 548H229V600H290ZM561 600V548H559Q558 567 545 579T514 591Q514 591 507 591T500 591V600H561ZM684 600V591Q684 591 678 591T671 591Q652 591 639 579T625 548H623V600H684ZM399 927L392 920Q359 928 323 942T252 973T187
1010Q196 1038 212 1058T255 1092Q276 1072 303 1045T356 988T399 927Z" />
<glyph unicode="&#xfa;" horiz-adv-x="705" d="M231 600V223Q231 131 273 79T392 27Q471 27 514 76T559 212V600H625V218Q625 111 560 49T374 -13Q230 -13 159 48T87 217V600H231ZM89 600V548H87Q86 567 73 579T41 591Q41 591 34 591T27 591V600H89ZM290 600V591Q290
591 283 591T276 591Q257 591 244 579T231 548H229V600H290ZM561 600V548H559Q558 567 545 579T514 591Q514 591 507 591T500 591V600H561ZM684 600V591Q684 591 678 591T671 591Q652 591 639 579T625 548H623V600H684ZM362 669Q379 698 404 729T456 787T505 834Q532
819 548 799T574 752Q543 733 508 716T438 684T369 662L362 669Z" />
<glyph unicode="&#xfb;" horiz-adv-x="705" d="M231 600V223Q231 131 273 79T392 27Q471 27 514 76T559 212V600H625V218Q625 111 560 49T374 -13Q230 -13 159 48T87 217V600H231ZM89 600V548H87Q86 567 73 579T41 591Q41 591 34 591T27 591V600H89ZM290 600V591Q290
591 283 591T276 591Q257 591 244 579T231 548H229V600H290ZM561 600V548H559Q558 567 545 579T514 591Q514 591 507 591T500 591V600H561ZM684 600V591Q684 591 678 591T671 591Q652 591 639 579T625 548H623V600H684ZM229 919L235 911L378 976L530 911L537 919L384
1072H373L229 919Z" />
<glyph unicode="&#xfc;" horiz-adv-x="705" d="M231 600V223Q231 131 273 79T392 27Q471 27 514 76T559 212V600H625V218Q625 111 560 49T374 -13Q230 -13 159 48T87 217V600H231ZM89 600V548H87Q86 567 73 579T41 591Q41 591 34 591T27 591V600H89ZM290 600V591Q290
591 283 591T276 591Q257 591 244 579T231 548H229V600H290ZM561 600V548H559Q558 567 545 579T514 591Q514 591 507 591T500 591V600H561ZM684 600V591Q684 591 678 591T671 591Q652 591 639 579T625 548H623V600H684ZM261 915Q236 915 219 932T201 975Q201 1000
218 1017T261 1035Q286 1035 303 1018T321 975Q321 950 304 933T261 915ZM494 915Q469 915 452 932T434 975Q434 1000 451 1017T494 1035Q519 1035 536 1018T554 975Q554 950 537 933T494 915Z" />
<glyph unicode="&#xfd;" horiz-adv-x="636" d="M196 599L384 274L251 259L32 599H196ZM390 272V0H246V270L390 272ZM532 599H605L380 252L333 261L532 599ZM496 538Q507 557 496 573T466 590Q466 590 460 590T454 590V600H669V590H656Q629 590 606 576T568 541L496
538ZM231 538L69 541Q55 562 32 576T-19 590H-31V600H273V590Q273 590 268 590T262 590Q242 590 232 573T231 538ZM249 63V0H178V10Q179 10 184 10T190 10Q213 10 229 25T246 63H249ZM388 63H390Q391 41 407 26T446 10Q446 10 452 10T458 10V0H388V63ZM341 669Q358
698 383 729T435 787T484 834Q511 819 527 799T553 752Q522 733 487 716T417 684T348 662L341 669Z" />
<glyph unicode="&#xfe;" horiz-adv-x="571" d="M235 479H336Q416 479 466 457T541 397T567 312Q570 252 545 209T476 142T383 121T282 157V165Q282 165 292 165T318 168T353 182T387 212T413 267Q416 280 417 294T419 320Q417 375 386 407T298 440H245Q245 440
243 449T238 469T235 479ZM251 600V0H110V600H251ZM112 63L117 0H43L44 10Q44 10 49 10T55 10Q78 10 93 25T110 63H112ZM112 537H110Q109 560 94 575T55 590Q55 590 50 590T44 590L43 600H117L112 537ZM248 63H251Q251 41 267 26T306 10Q306 10 311 10T317 10V0H244L248
63ZM248 537L244 600H317V590Q317 590 312 590T306 590Q283 590 267 575T251 537H248Z" />
<glyph unicode="&#xff;" horiz-adv-x="636" d="M196 599L384 274L251 259L32 599H196ZM390 272V0H246V270L390 272ZM532 599H605L380 252L333 261L532 599ZM496 538Q507 557 496 573T466 590Q466 590 460 590T454 590V600H669V590H656Q629 590 606 576T568 541L496
538ZM231 538L69 541Q55 562 32 576T-19 590H-31V600H273V590Q273 590 268 590T262 590Q242 590 232 573T231 538ZM249 63V0H178V10Q179 10 184 10T190 10Q213 10 229 25T246 63H249ZM388 63H390Q391 41 407 26T446 10Q446 10 452 10T458 10V0H388V63ZM239 915Q214
915 197 932T179 975Q179 1000 196 1017T239 1035Q264 1035 281 1018T299 975Q299 950 282 933T239 915ZM472 915Q447 915 430 932T412 975Q412 1000 429 1017T472 1035Q497 1035 514 1018T532 975Q532 950 515 933T472 915Z" />
<glyph unicode="&#x2013;" horiz-adv-x="500" d="M0 317H500V265H0V317Z" />
<glyph unicode="&#x2014;" horiz-adv-x="800" d="M0 317H800V265H0V317Z" />
<glyph unicode="&#x2018;" horiz-adv-x="245" d="M180 568Q163 551 138 550T89 560T53 600Q35 641 40 682T67 757T124 807T199 820L202 807Q178 798 165 778T153 734T177 684Q191 668 197 647T200 604T180 568Z" />
<glyph unicode="&#x2019;" horiz-adv-x="245" d="M65 803Q83 819 108 821T156 811T192 771Q211 730 206 689T178 614T121 564T46 551L43 564Q67 573 80 593T92 637T68 687Q55 703 49 724T46 767T65 803Z" />
<glyph unicode="&#x201a;" horiz-adv-x="245" d="M65 128Q83 144 108 146T156 136T192 96Q211 55 206 14T178 -61T121 -111T46 -124L43 -111Q67 -102 80 -82T92 -38T68 12Q55 28 49 49T46 92T65 128Z" />
<glyph unicode="&#x201c;" horiz-adv-x="446" d="M380 568Q363 551 338 550T289 560T253 600Q235 641 240 682T267 757T324 807T399 820L402 807Q378 798 365 778T353 734T377 684Q391 668 397 647T400 604T380 568ZM435 568Q418 551 393 550T344 560T308 600Q290
641 295 682T322 757T379 807T454 820L457 807Q433 798 420 778T408 734T432 684Q446 668 452 647T455 604T435 568Z" />
<glyph unicode="&#x201d;" horiz-adv-x="439" d="M260 803Q278 819 303 821T351 811T387 771Q406 730 401 689T373 614T316 564T241 551L238 564Q262 573 275 593T287 637T263 687Q250 703 244 724T241 767T260 803ZM65 803Q83 819 108 821T156 811T192 771Q211
730 206 689T178 614T121 564T46 551L43 564Q67 573 80 593T92 637T68 687Q55 703 49 724T46 767T65 803Z" />
<glyph unicode="&#x201e;" horiz-adv-x="439" d="M260 125Q278 141 303 143T351 133T387 93Q406 52 401 11T373 -64T316 -114T241 -127L238 -114Q262 -105 275 -85T287 -41T263 9Q250 25 244 46T241 89T260 125ZM65 125Q83 141 108 143T156 133T192 93Q211 52
206 11T178 -64T121 -114T46 -127L43 -114Q67 -105 80 -85T92 -41T68 9Q55 25 49 46T46 89T65 125Z" />
<glyph unicode="&#x2022;" horiz-adv-x="368" d="M202 210Q184 204 167 210Q139 219 123 226T96 244T79 271T61 315Q55 332 61 350Q71 378 78 395T96 421T122 439T167 456Q184 463 202 456Q230 447 246 439T273 422T290 395T307 350Q311 341 311 333T307 313Q298
286 291 270T273 243T247 226T202 210Z" />
<glyph unicode="&#x2039;" horiz-adv-x="313" d="M40 292L245 89L254 95L160 292L253 485L245 490L40 292Z" />
<glyph unicode="&#x203a;" horiz-adv-x="313" d="M274 292L69 490L61 485L155 292L60 95L69 89L274 292Z" />
</font>
</defs>
</svg>
