<?xml version="1.0" encoding="utf-8"?>
<!-- Generator: Adobe Illustrator 16.0.4, SVG Export Plug-In . SVG Version: 6.00 Build 0)  -->
<!DOCTYPE svg PUBLIC "-//W3C//DTD SVG 1.1//EN" "http://www.w3.org/Graphics/SVG/1.1/DTD/svg11.dtd">
<svg version="1.1" id="Aphrodite" xmlns="http://www.w3.org/2000/svg" xmlns:xlink="http://www.w3.org/1999/xlink" x="0px" y="0px"
	 width="490px" height="490px" viewBox="0 0 490 490" enable-background="new 0 0 490 490" xml:space="preserve">
<ellipse fill="#C8746F" cx="245" cy="245" rx="233.941" ry="239.142"/>
<g>
	<g>
		<g>
			<path fill="#F8B3AD" d="M238.94,470.166c-0.046,1.676-0.771,3.174-1.928,4.242c-0.579,0.533-1.264,0.961-2.021,1.248
				c-0.378,0.145-0.774,0.254-1.183,0.324c-0.409,0.059-0.83,0.064-1.258,0.033c-3.449-0.256-6.007-3.172-5.712-6.508
				c0.293-3.334,3.149-5.848,6.378-5.604c0.406,0.029,0.799,0.107,1.179,0.209c0.38,0.09,0.745,0.219,1.091,0.381
				c0.693,0.324,1.313,0.783,1.831,1.346C238.354,466.961,238.985,468.494,238.94,470.166z"/>
		</g>
		<g>
			<path fill="#F8B3AD" d="M220.806,468.938c-0.353,3.33-3.422,5.682-6.853,5.25c-0.854-0.105-1.643-0.377-2.336-0.773
				c-0.688-0.424-1.277-0.986-1.741-1.621c-0.931-1.279-1.352-2.893-1.073-4.545c0.279-1.65,1.195-3.029,2.426-3.924
				c0.615-0.451,1.311-0.773,2.054-0.963c0.747-0.217,1.54-0.289,2.347-0.188C218.84,462.576,221.158,465.607,220.806,468.938z"/>
		</g>
		<g>
			<path fill="#F8B3AD" d="M202.834,466.193c-0.319,1.629-1.295,3.043-2.606,3.861c-1.311,0.824-2.976,1.141-4.654,0.756
				c-3.371-0.775-5.419-4.018-4.565-7.277c0.844-3.219,4.094-5.279,7.248-4.553c1.584,0.363,2.873,1.355,3.7,2.672
				C202.781,462.977,203.16,464.537,202.834,466.193z"/>
		</g>
		<g>
			<path fill="#F8B3AD" d="M185.174,461.887c-0.46,1.609-1.536,2.881-2.925,3.629c-1.384,0.736-3.1,1.01-4.722,0.428
				c-3.278-1.105-5.027-4.561-3.906-7.719c1.119-3.154,4.515-4.879,7.58-3.842c1.529,0.553,2.761,1.553,3.481,2.908
				C185.404,458.637,185.635,460.277,185.174,461.887z"/>
		</g>
		<g>
			<path fill="#F8B3AD" d="M167.928,456.148c-1.177,3.137-4.741,4.65-7.959,3.379c-1.614-0.602-2.757-1.9-3.337-3.363
				c-0.58-1.467-0.583-3.133,0.102-4.662c0.686-1.527,1.919-2.633,3.337-3.195c1.422-0.566,3.014-0.551,4.539,0.014
				C167.619,449.506,169.104,453.014,167.928,456.148z"/>
		</g>
		<g>
			<path fill="#F8B3AD" d="M151.213,449c-1.453,3.057-5.103,4.203-8.181,2.627c-1.531-0.787-2.601-2.104-3.07-3.58
				c-0.481-1.461-0.314-3.174,0.489-4.625c0.818-1.479,2.111-2.424,3.6-2.914c1.479-0.473,3.105-0.4,4.551,0.344
				C151.481,442.326,152.635,446.008,151.213,449z"/>
		</g>
		<g>
			<path fill="#F8B3AD" d="M135.207,440.381c-0.851,1.443-2.212,2.406-3.745,2.785c-0.767,0.189-1.575,0.232-2.379,0.121
				c-0.786-0.139-1.563-0.443-2.285-0.91c-2.902-1.879-3.734-5.654-1.86-8.432c1.872-2.775,5.597-3.602,8.312-1.84
				c0.684,0.443,1.242,1.01,1.676,1.654c0.451,0.615,0.771,1.314,0.955,2.057C136.244,437.295,136.057,438.939,135.207,440.381z"/>
		</g>
		<g>
			<path fill="#F8B3AD" d="M119.951,430.5c-1.922,2.742-5.755,3.328-8.557,1.307c-0.349-0.252-0.664-0.531-0.943-0.834
				c-0.268-0.316-0.501-0.656-0.698-1.01c-0.394-0.707-0.645-1.475-0.744-2.256c-0.198-1.562,0.21-3.176,1.253-4.486
				c1.041-1.311,2.512-2.078,4.027-2.271c0.759-0.098,1.529-0.051,2.268,0.146c0.369,0.1,0.731,0.236,1.08,0.412
				c0.36,0.16,0.708,0.359,1.039,0.596C121.303,423.996,121.873,427.758,119.951,430.5z"/>
		</g>
		<g>
			<path fill="#F8B3AD" d="M105.525,419.438c-2.144,2.578-5.979,2.812-8.568,0.527c-1.29-1.139-2.002-2.674-2.097-4.221
				c-0.105-1.535,0.476-3.154,1.609-4.365c1.155-1.234,2.641-1.834,4.202-1.941c1.552-0.096,3.111,0.375,4.332,1.451
				C107.434,413.031,107.663,416.865,105.525,419.438z"/>
		</g>
		<g>
			<path fill="#F8B3AD" d="M92.127,407.148c-1.176,1.193-2.729,1.795-4.308,1.791c-0.789-0.004-1.583-0.156-2.335-0.461
				c-0.744-0.309-1.411-0.803-2.001-1.428c-2.355-2.525-2.247-6.393,0.24-8.637c2.486-2.242,6.298-2.141,8.507,0.234
				c0.561,0.592,0.951,1.291,1.234,2.004c0.288,0.709,0.43,1.467,0.426,2.23C93.885,404.408,93.303,405.957,92.127,407.148z"/>
		</g>
		<g>
			<path fill="#F8B3AD" d="M79.703,393.881c-2.523,2.201-6.379,1.846-8.604-0.791c-0.548-0.664-0.968-1.377-1.175-2.162
				c-0.212-0.783-0.27-1.59-0.179-2.373c0.183-1.566,0.968-3.037,2.292-4.061c1.325-1.025,2.934-1.418,4.449-1.242
				c0.758,0.088,1.494,0.32,2.162,0.689c0.665,0.375,1.32,0.842,1.84,1.469C82.58,387.885,82.228,391.68,79.703,393.881z"/>
		</g>
		<g>
			<path fill="#F8B3AD" d="M68.356,379.678c-2.728,2.016-6.506,1.328-8.462-1.518c-1.956-2.848-1.281-6.613,1.558-8.447
				c2.788-1.799,6.583-1.123,8.419,1.549C71.706,373.932,71.014,377.711,68.356,379.678z"/>
		</g>
		<g>
			<path fill="#F8B3AD" d="M58.258,364.562c-1.426,0.877-3.078,1.09-4.606,0.707c-1.515-0.391-2.971-1.34-3.776-2.861
				c-1.678-3.02-0.642-6.752,2.311-8.336c2.95-1.582,6.62-0.568,8.191,2.266c0.759,1.441,1.001,3.008,0.616,4.498
				C60.619,362.316,59.684,363.686,58.258,364.562z"/>
		</g>
		<g>
			<path fill="#F8B3AD" d="M49.36,348.711c-2.979,1.533-6.632,0.262-8.157-2.836c-0.376-0.773-0.596-1.574-0.629-2.377
				c-0.019-0.811,0.119-1.607,0.397-2.348c0.555-1.477,1.67-2.717,3.201-3.393c1.532-0.676,3.188-0.67,4.615-0.137
				c0.715,0.268,1.372,0.67,1.932,1.189c0.576,0.514,1.085,1.131,1.441,1.863C53.594,343.578,52.338,347.18,49.36,348.711z"/>
		</g>
		<g>
			<path fill="#F8B3AD" d="M41.762,332.197c-1.537,0.631-3.254,0.596-4.651-0.049c-1.413-0.637-2.596-1.848-3.202-3.455
				c-1.215-3.234,0.353-6.732,3.541-7.826c3.146-1.08,6.661,0.49,7.801,3.525c0.574,1.523,0.46,3.146-0.179,4.564
				C44.414,330.377,43.322,331.555,41.762,332.197z"/>
		</g>
		<g>
			<path fill="#F8B3AD" d="M35.587,315.1c-1.596,0.508-3.249,0.318-4.641-0.42c-1.374-0.744-2.565-2.012-2.981-3.682
				c-0.902-3.334,0.999-6.709,4.243-7.539s6.563,1.033,7.407,4.164c0.391,1.582,0.257,3.16-0.479,4.516
				C38.419,313.486,37.182,314.588,35.587,315.1z"/>
		</g>
		<g>
			<path fill="#F8B3AD" d="M30.747,297.578c-3.259,0.775-6.501-1.332-7.238-4.705c-0.184-0.838-0.192-1.672-0.05-2.457
				c0.174-0.789,0.501-1.531,0.946-2.182c0.892-1.303,2.271-2.24,3.921-2.533c1.648-0.291,3.254,0.109,4.512,0.969
				c0.631,0.432,1.171,0.979,1.593,1.617c0.454,0.633,0.786,1.357,0.961,2.152C36.087,293.605,34.004,296.803,30.747,297.578z"/>
		</g>
		<g>
			<path fill="#F8B3AD" d="M27.315,279.725c-1.646,0.248-3.291-0.193-4.521-1.148c-1.22-0.953-2.079-2.41-2.283-4.115
				c-0.412-3.428,1.961-6.455,5.295-6.764s6.355,2.053,6.743,5.273c0.193,1.617-0.305,3.17-1.265,4.396
				C30.336,278.588,28.98,279.473,27.315,279.725z"/>
		</g>
		<g>
			<path fill="#F8B3AD" d="M25.359,261.652c-3.327,0.252-6.278-2.332-6.461-5.775c-0.085-3.448,2.564-6.284,5.913-6.332
				c3.348-0.05,6.129,2.542,6.204,5.787C31.189,258.572,28.711,261.398,25.359,261.652z"/>
		</g>
		<g>
			<path fill="#F8B3AD" d="M24.739,243.485c-3.349-0.006-5.999-2.807-5.917-6.255c0.055-1.717,0.729-3.246,1.91-4.305
				c1.176-1.06,2.738-1.653,4.409-1.555c1.672,0.098,3.138,0.858,4.156,1.986c1.013,1.131,1.699,2.635,1.648,4.263
				C30.869,240.864,28.088,243.491,24.739,243.485z"/>
		</g>
		<g>
			<path fill="#F8B3AD" d="M25.575,225.325c-3.33-0.265-5.899-3.275-5.435-6.696c0.41-3.428,3.434-5.823,6.75-5.354
				c3.314,0.47,5.694,3.463,5.307,6.685C31.755,223.173,28.922,225.59,25.575,225.325z"/>
		</g>
		<g>
			<path fill="#F8B3AD" d="M27.82,207.287c-3.308-0.526-5.523-3.713-4.945-7.115c0.676-3.385,3.969-5.518,7.223-4.789
				c3.281,0.733,5.328,3.887,4.691,7.065C34.25,205.646,31.127,207.812,27.82,207.287z"/>
		</g>
		<g>
			<path fill="#F8B3AD" d="M31.418,189.466c-3.256-0.786-5.167-4.128-4.267-7.46c0.45-1.66,1.51-2.979,2.854-3.745
				c1.382-0.758,3.052-0.964,4.651-0.476c1.604,0.489,2.838,1.568,3.573,2.907c0.772,1.352,1.042,2.96,0.617,4.532
				C38.002,188.354,34.672,190.252,31.418,189.466z"/>
		</g>
		<g>
			<path fill="#F8B3AD" d="M36.518,172.016c-1.588-0.529-2.816-1.658-3.511-3.079c-0.339-0.706-0.582-1.497-0.602-2.292
				c-0.027-0.797,0.102-1.62,0.404-2.425c1.218-3.232,4.729-4.843,7.839-3.599c3.107,1.244,4.705,4.713,3.561,7.745
				c-0.288,0.763-0.722,1.43-1.262,1.989c-0.547,0.557-1.133,1.029-1.826,1.36C39.752,172.384,38.106,172.545,36.518,172.016z"/>
		</g>
		<g>
			<path fill="#F8B3AD" d="M42.968,155.022c-3.089-1.297-4.478-4.919-3.102-8.086c0.327-0.796,0.86-1.452,1.463-1.989
				c0.605-0.536,1.302-0.944,2.043-1.208c1.483-0.527,3.146-0.472,4.648,0.268s2.565,2.013,3.079,3.453
				c0.257,0.721,0.375,1.484,0.341,2.25c-0.032,0.767-0.239,1.525-0.548,2.279C49.605,154.962,46.055,156.32,42.968,155.022z"/>
		</g>
		<g>
			<path fill="#F8B3AD" d="M50.715,138.577c-2.973-1.543-4.026-5.244-2.351-8.265c0.835-1.503,2.181-2.529,3.669-2.951
				c1.518-0.408,3.193-0.203,4.627,0.652c1.442,0.86,2.375,2.202,2.774,3.682c0.426,1.497,0.302,3.123-0.487,4.546
				C57.375,139.074,53.687,140.12,50.715,138.577z"/>
		</g>
		<g>
			<path fill="#F8B3AD" d="M59.855,122.863c-1.416-0.896-2.336-2.287-2.669-3.833c-0.16-0.768-0.2-1.591-0.036-2.372
				c0.166-0.78,0.488-1.549,0.977-2.256c1.961-2.845,5.757-3.564,8.476-1.608c2.719,1.955,3.435,5.705,1.593,8.373
				c-0.463,0.669-1.044,1.214-1.703,1.627c-0.658,0.413-1.346,0.727-2.097,0.883C62.906,123.995,61.271,123.757,59.855,122.863z"/>
		</g>
		<g>
			<path fill="#F8B3AD" d="M70.197,107.915c-2.686-2.001-3.163-5.85-1.064-8.592c0.511-0.692,1.167-1.215,1.89-1.585
				c0.718-0.374,1.492-0.604,2.275-0.68c1.567-0.155,3.169,0.298,4.45,1.376s2.007,2.568,2.158,4.09
				c0.076,0.761,0.008,1.53-0.21,2.264c-0.225,0.729-0.589,1.432-1.072,2.088C76.657,109.452,72.882,109.916,70.197,107.915z"/>
		</g>
		<g>
			<path fill="#F8B3AD" d="M81.659,93.803c-2.519-2.213-2.65-6.053-0.298-8.579c1.172-1.258,2.727-1.929,4.274-1.98
				c1.537-0.065,3.138,0.553,4.32,1.721c1.2,1.186,1.765,2.69,1.832,4.255c0.054,1.553-0.458,3.1-1.568,4.291
				C88.01,95.883,84.172,96.01,81.659,93.803z"/>
		</g>
		<g>
			<path fill="#F8B3AD" d="M94.299,80.736c-1.161-1.207-1.723-2.776-1.676-4.354c0.024-0.788,0.198-1.577,0.522-2.32
				c0.321-0.745,0.839-1.392,1.478-1.967c2.59-2.287,6.453-2.075,8.629,0.472c2.175,2.546,1.971,6.352-0.46,8.496
				c-0.604,0.544-1.32,0.911-2.034,1.182c-0.716,0.27-1.477,0.392-2.239,0.367C96.993,82.565,95.46,81.942,94.299,80.736z"/>
		</g>
		<g>
			<path fill="#F8B3AD" d="M107.894,68.67c-2.131-2.583-1.67-6.427,1.03-8.582c1.325-1.099,3.015-1.45,4.574-1.223
				c1.562,0.227,3.009,1.053,3.994,2.406c0.986,1.353,1.332,2.973,1.115,4.482c-0.22,1.512-1.02,2.894-2.271,3.935
				C113.807,71.711,110.023,71.253,107.894,68.67z"/>
		</g>
		<g>
			<path fill="#F8B3AD" d="M122.41,57.727c-1.938-2.788-1.125-6.526,1.773-8.411c2.901-1.88,6.65-1.085,8.401,1.823
				c1.704,2.829,0.91,6.597-1.808,8.357C128.064,61.262,124.295,60.438,122.41,57.727z"/>
		</g>
		<g>
			<path fill="#F8B3AD" d="M137.829,48.098c-0.832-1.453-0.993-3.112-0.561-4.631c0.216-0.759,0.578-1.482,1.075-2.124
				c0.497-0.64,1.156-1.144,1.918-1.544c3.074-1.585,6.769-0.432,8.249,2.572c1.48,3.003,0.35,6.644-2.528,8.124
				c-0.72,0.379-1.5,0.562-2.261,0.645c-0.759,0.086-1.526,0.018-2.259-0.191C139.996,50.531,138.66,49.551,137.829,48.098z"/>
		</g>
		<g>
			<path fill="#F8B3AD" d="M153.974,39.749c-1.427-3.03-0.028-6.646,3.122-8.072c0.392-0.177,0.792-0.312,1.192-0.404
				c0.405-0.082,0.817-0.11,1.223-0.108c0.811,0.011,1.602,0.176,2.329,0.479c1.455,0.605,2.65,1.764,3.268,3.32
				c0.619,1.557,0.551,3.213-0.034,4.623c-0.293,0.705-0.717,1.351-1.256,1.893c-0.269,0.272-0.569,0.513-0.892,0.734
				c-0.317,0.233-0.662,0.437-1.033,0.604C158.947,44.155,155.399,42.778,153.974,39.749z"/>
		</g>
		<g>
			<path fill="#F8B3AD" d="M170.749,32.743c-1.165-3.14,0.548-6.584,3.825-7.69c1.632-0.551,3.319-0.403,4.704,0.288
				c1.396,0.713,2.497,2,2.979,3.597c0.485,1.609,0.269,3.223-0.43,4.592c-0.692,1.394-1.877,2.511-3.418,3.03
				C175.346,37.594,171.913,35.882,170.749,32.743z"/>
		</g>
		<g>
			<path fill="#F8B3AD" d="M188.091,27.29c-0.439-1.616-0.181-3.265,0.619-4.631c0.79-1.392,2.146-2.395,3.825-2.773
				c3.373-0.773,6.655,1.261,7.334,4.541c0.677,3.279-1.33,6.527-4.485,7.249c-1.585,0.358-3.187,0.02-4.494-0.721
				C189.577,30.185,188.531,28.905,188.091,27.29z"/>
		</g>
		<g>
			<path fill="#F8B3AD" d="M205.818,23.279c-0.618-3.292,1.643-6.449,5.047-7.049c3.424-0.49,6.535,1.897,6.933,5.211
				c0.401,3.336-1.885,6.321-5.088,6.778C209.523,28.785,206.438,26.57,205.818,23.279z"/>
		</g>
		<g>
			<path fill="#F8B3AD" d="M223.816,20.719c-0.34-3.331,2.18-6.244,5.627-6.502c1.717-0.126,3.312,0.428,4.48,1.452
				c1.173,1.067,1.919,2.565,1.986,4.239c0.068,1.673-0.543,3.204-1.563,4.326c-1.02,1.166-2.446,1.964-4.068,2.083
				C227.051,26.561,224.156,24.05,223.816,20.719z"/>
		</g>
		<g>
			<path fill="#F8B3AD" d="M241.971,19.757c-0.063-3.326,2.688-6.209,6.143-6.064c3.455,0.085,6.131,2.869,5.977,6.216
				c-0.154,3.345-2.905,5.996-6.145,5.914C244.709,25.68,242.032,23.127,241.971,19.757z"/>
		</g>
		<g>
			<path fill="#F8B3AD" d="M260.139,20.266c0.215-3.342,3.184-5.843,6.631-5.582c1.715,0.144,3.186,1.062,4.169,2.276
				c0.983,1.229,1.473,2.818,1.264,4.48c-0.209,1.66-1.066,3.081-2.26,4.038c-1.197,0.971-2.724,1.413-4.345,1.278
				C262.37,26.517,259.926,23.608,260.139,20.266z"/>
		</g>
		<g>
			<path fill="#F8B3AD" d="M278.212,22.223c0.492-3.312,3.653-5.513,7.06-4.91c1.694,0.302,3.104,1.233,3.983,2.515
				c0.873,1.325,1.225,2.961,0.876,4.599c-0.348,1.638-1.318,2.971-2.584,3.807c-1.277,0.878-2.855,1.298-4.456,1.013
				C279.904,28.683,277.721,25.535,278.212,22.223z"/>
		</g>
		<g>
			<path fill="#F8B3AD" d="M296.04,25.78c0.767-3.246,4.145-5.339,7.458-4.343c3.33,0.939,5.23,4.299,4.244,7.5
				c-0.984,3.2-4.31,5.087-7.424,4.206C297.221,32.205,295.268,29.051,296.04,25.78z"/>
		</g>
		<g>
			<path fill="#F8B3AD" d="M313.508,30.805c1.043-3.184,4.547-4.866,7.823-3.759c3.222,1.26,4.813,4.812,3.562,7.916
				c-1.254,3.106-4.709,4.659-7.723,3.478C314.104,37.409,312.465,33.987,313.508,30.805z"/>
		</g>
		<g>
			<path fill="#F8B3AD" d="M330.506,37.247c1.309-3.083,4.926-4.427,8.074-2.998c0.785,0.355,1.459,0.848,2.005,1.433
				c0.272,0.292,0.513,0.607,0.718,0.939c0.199,0.348,0.363,0.711,0.491,1.086c0.515,1.498,0.444,3.167-0.305,4.665
				c-0.749,1.497-2.025,2.546-3.462,3.039c-0.359,0.124-0.729,0.212-1.104,0.265c-0.382,0.065-0.769,0.097-1.157,0.09
				c-0.775-0.014-1.554-0.181-2.295-0.516C330.524,43.915,329.197,40.328,330.506,37.247z"/>
		</g>
		<g>
			<path fill="#F8B3AD" d="M346.878,45.147c0.789-1.478,2.111-2.502,3.632-2.952c1.506-0.425,3.177-0.221,4.67,0.638
				c2.992,1.734,3.992,5.454,2.235,8.307c-1.756,2.851-5.453,3.85-8.253,2.226c-1.409-0.811-2.341-2.158-2.759-3.641
				C345.974,48.269,346.09,46.624,346.878,45.147z"/>
		</g>
		<g>
			<path fill="#F8B3AD" d="M362.52,54.406c1.8-2.81,5.641-3.605,8.508-1.676c2.805,2.02,3.467,5.846,1.48,8.542
				c-1.986,2.695-5.729,3.348-8.355,1.452C361.467,60.918,360.707,57.236,362.52,54.406z"/>
		</g>
		<g>
			<path fill="#F8B3AD" d="M377.37,64.887c2.033-2.66,5.873-3.07,8.571-0.913c2.738,2.112,2.994,6.083,0.807,8.593
				c-2.213,2.54-5.907,2.777-8.479,0.803C375.738,71.349,375.337,67.548,377.37,64.887z"/>
		</g>
		<g>
			<path fill="#F8B3AD" d="M391.293,76.579c1.127-1.239,2.66-1.908,4.244-1.973c1.559-0.041,3.131,0.562,4.366,1.758
				c2.475,2.408,2.536,6.261,0.141,8.601c-2.394,2.34-6.224,2.407-8.546,0.145c-1.169-1.133-1.748-2.665-1.787-4.209
				C389.65,79.383,390.166,77.817,391.293,76.579z"/>
		</g>
		<g>
			<path fill="#F8B3AD" d="M404.21,89.367c2.435-2.299,6.318-2.117,8.667,0.412c2.231,2.638,1.95,6.513-0.625,8.655
				c-2.574,2.142-6.358,1.872-8.449-0.606C401.594,95.455,401.775,91.667,404.21,89.367z"/>
		</g>
		<g>
			<path fill="#F8B3AD" d="M416.122,103.098c2.61-2.098,6.429-1.575,8.525,1.169c1.037,1.372,1.46,2.997,1.216,4.552
				c-0.253,1.563-1.102,3.005-2.466,3.975s-2.983,1.294-4.483,1.053c-1.51-0.236-2.977-0.984-3.957-2.283
				C412.988,108.988,413.512,105.196,416.122,103.098z"/>
		</g>
		<g>
			<path fill="#F8B3AD" d="M426.84,117.784c2.764-1.877,6.654-1.132,8.428,1.833c1.822,2.936,0.958,6.696-1.928,8.396
				c-2.885,1.7-6.611,0.85-8.319-1.906C423.361,123.323,424.062,119.668,426.84,117.784z"/>
		</g>
		<g>
			<path fill="#F8B3AD" d="M436.345,133.276c2.914-1.65,6.636-0.54,8.309,2.481c1.56,3.081,0.333,6.791-2.674,8.249
				c-3.019,1.466-6.604,0.284-8.064-2.609C432.342,138.565,433.432,134.927,436.345,133.276z"/>
		</g>
		<g>
			<path fill="#F8B3AD" d="M444.621,149.461c3.038-1.41,6.617,0.016,7.99,3.184c0.679,1.581,0.689,3.264,0.091,4.71
				c-0.622,1.457-1.792,2.653-3.351,3.267c-1.558,0.613-3.205,0.539-4.603-0.056c-1.422-0.587-2.654-1.671-3.297-3.166
				C440.162,154.428,441.584,150.872,444.621,149.461z"/>
		</g>
		<g>
			<path fill="#F8B3AD" d="M451.491,166.293c3.131-1.156,6.734,0.499,7.743,3.804c1.062,3.286-0.682,6.729-3.891,7.688
				c-3.207,0.958-6.621-0.764-7.615-3.85C446.787,170.833,448.339,167.458,451.491,166.293z"/>
		</g>
		<g>
			<path fill="#F8B3AD" d="M457.001,183.615c3.226-0.904,6.571,1.065,7.469,4.399c0.786,3.361-1.302,6.671-4.567,7.368
				c-3.285,0.702-6.473-1.306-7.209-4.463C451.846,187.791,453.777,184.519,457.001,183.615z"/>
		</g>
		<g>
			<path fill="#F8B3AD" d="M461.169,201.309c3.287-0.644,6.42,1.594,6.995,4.997c0.287,1.694-0.125,3.334-1.025,4.592
				c-0.946,1.267-2.371,2.151-4.029,2.377c-1.66,0.227-3.238-0.238-4.46-1.147c-1.267-0.905-2.185-2.254-2.456-3.86
				C455.653,205.07,457.883,201.954,461.169,201.309z"/>
		</g>
		<g>
			<path fill="#F8B3AD" d="M463.832,219.293c1.664-0.186,3.252,0.326,4.477,1.325c0.605,0.499,1.151,1.116,1.51,1.828
				c0.359,0.712,0.588,1.513,0.649,2.369c0.247,3.442-2.266,6.377-5.609,6.555s-6.247-2.302-6.479-5.538
				c-0.058-0.813,0.057-1.603,0.312-2.337c0.256-0.734,0.597-1.41,1.086-2.001C460.74,220.314,462.168,219.478,463.832,219.293z"/>
		</g>
		<g>
			<path fill="#F8B3AD" d="M465.116,237.425c3.347-0.123,6.128,2.573,6.208,6.021c0.074,1.717-0.695,3.271-1.806,4.375
				c-1.124,1.104-2.655,1.758-4.33,1.725c-1.674-0.033-3.174-0.737-4.246-1.826c-1.085-1.091-1.675-2.566-1.747-4.195
				C459.116,240.28,461.771,237.548,465.116,237.425z"/>
		</g>
		<g>
			<path fill="#F8B3AD" d="M465.044,255.605c3.391,0.137,5.89,3.036,5.646,6.477c-0.253,3.441-3.136,5.957-6.497,5.615
				c-3.302-0.336-5.841-3.238-5.603-6.475C458.82,257.986,461.743,255.473,465.044,255.605z"/>
		</g>
		<g>
			<path fill="#F8B3AD" d="M463.471,273.715c1.662,0.205,3.085,1.07,4.039,2.322c0.479,0.627,0.838,1.35,1.053,2.129
				c0.105,0.391,0.185,0.795,0.205,1.207c0.013,0.41-0.014,0.83-0.086,1.254c-0.574,3.404-3.713,5.676-7.008,5.074
				c-3.293-0.6-5.529-3.68-4.986-6.879c0.067-0.4,0.176-0.787,0.32-1.154c0.135-0.369,0.29-0.721,0.487-1.051
				c0.388-0.66,0.903-1.234,1.512-1.697C460.224,273.994,461.809,273.51,463.471,273.715z"/>
		</g>
		<g>
			<path fill="#F8B3AD" d="M460.551,291.656c3.284,0.656,5.349,3.924,4.609,7.295c-0.185,0.84-0.525,1.602-0.982,2.254
				c-0.474,0.65-1.092,1.184-1.766,1.59c-1.355,0.811-3,1.088-4.62,0.664s-2.911-1.457-3.694-2.764
				c-0.396-0.656-0.648-1.375-0.779-2.135c-0.147-0.766-0.146-1.562,0.027-2.357C454.038,293.037,457.268,291,460.551,291.656z"/>
		</g>
		<g>
			<path fill="#F8B3AD" d="M456.21,309.311c1.602,0.463,2.905,1.553,3.629,2.934c0.71,1.377,0.88,3.061,0.352,4.697
				c-1.062,3.287-4.482,5.043-7.64,3.926c-3.156-1.117-4.913-4.527-3.916-7.611c0.5-1.549,1.602-2.75,2.985-3.461
				C452.987,309.08,454.595,308.844,456.21,309.311z"/>
		</g>
		<g>
			<path fill="#F8B3AD" d="M450.422,326.543c1.566,0.592,2.743,1.77,3.371,3.213c0.314,0.721,0.491,1.508,0.514,2.316
				c0.024,0.811-0.102,1.643-0.457,2.426c-1.373,3.17-4.966,4.629-8.022,3.26c-3.056-1.369-4.491-4.891-3.2-7.863
				c0.339-0.742,0.763-1.406,1.296-1.955c0.534-0.549,1.173-0.982,1.875-1.287C447.2,326.043,448.855,325.949,450.422,326.543z"/>
		</g>
		<g>
			<path fill="#F8B3AD" d="M443.318,343.275c3.033,1.42,4.255,5.086,2.729,8.184c-0.381,0.771-0.895,1.428-1.495,1.953
				c-0.604,0.523-1.341,0.889-2.091,1.123c-1.511,0.463-3.174,0.338-4.646-0.463c-1.471-0.799-2.477-2.111-2.923-3.566
				c-0.229-0.732-0.294-1.486-0.25-2.262c0.04-0.775,0.231-1.551,0.591-2.279C436.664,343.057,440.287,341.854,443.318,343.275z"/>
		</g>
		<g>
			<path fill="#F8B3AD" d="M434.875,359.373c1.445,0.836,2.443,2.201,2.821,3.721c0.358,1.508,0.118,3.182-0.788,4.643
				c-1.82,2.938-5.564,3.82-8.36,1.977s-3.682-5.572-1.974-8.328c0.858-1.383,2.217-2.283,3.731-2.641
				C431.797,358.375,433.42,358.533,434.875,359.373z"/>
		</g>
		<g>
			<path fill="#F8B3AD" d="M425.118,374.711c1.378,0.951,2.237,2.377,2.499,3.93c0.132,0.775,0.114,1.582-0.059,2.371
				c-0.176,0.787-0.486,1.574-1.021,2.246c-2.097,2.746-5.936,3.299-8.574,1.236c-2.638-2.062-3.185-5.826-1.214-8.4
				c0.509-0.637,1.069-1.188,1.723-1.59c0.651-0.402,1.376-0.67,2.131-0.797C422.11,373.453,423.74,373.76,425.118,374.711z"/>
		</g>
		<g>
			<path fill="#F8B3AD" d="M414.207,389.25c2.604,2.107,2.908,5.957,0.68,8.594c-2.186,2.678-6.16,2.824-8.61,0.57
				c-2.48-2.279-2.618-5.98-0.571-8.498C407.796,387.439,411.605,387.143,414.207,389.25z"/>
		</g>
		<g>
			<path fill="#F8B3AD" d="M402.144,402.85c1.208,1.16,1.837,2.709,1.858,4.295c0.008,1.566-0.642,3.117-1.869,4.32
				c-2.474,2.41-6.326,2.369-8.603-0.086c-2.276-2.457-2.241-6.285,0.082-8.547c1.161-1.141,2.714-1.674,4.251-1.678
				C399.383,401.135,400.936,401.691,402.144,402.85z"/>
		</g>
		<g>
			<path fill="#F8B3AD" d="M389.021,415.428c2.233,2.494,1.947,6.373-0.646,8.654c-2.699,2.158-6.565,1.771-8.636-0.861
				c-2.069-2.633-1.697-6.408,0.836-8.43C383.004,412.648,386.786,412.932,389.021,415.428z"/>
		</g>
		<g>
			<path fill="#F8B3AD" d="M374.966,426.955c2.023,2.67,1.392,6.473-1.412,8.494c-1.404,0.994-3.029,1.387-4.591,1.076
				c-1.556-0.297-2.971-1.188-3.9-2.58c-0.928-1.393-1.204-3.021-0.92-4.512c0.294-1.484,1.072-2.943,2.4-3.883
				C369.169,423.656,372.942,424.287,374.966,426.955z"/>
		</g>
		<g>
			<path fill="#F8B3AD" d="M359.977,437.242c0.892,1.418,1.125,3.072,0.762,4.615c-0.361,1.541-1.381,2.873-2.863,3.746
				c-2.992,1.736-6.721,0.758-8.326-2.182s-0.64-6.643,2.162-8.266c1.4-0.824,3.045-0.945,4.523-0.598
				C357.713,434.908,359.086,435.826,359.977,437.242z"/>
		</g>
		<g>
			<path fill="#F8B3AD" d="M344.184,446.24c1.55,2.961,0.327,6.674-2.765,8.223c-3.149,1.43-6.801,0.104-8.152-2.961
				c-1.353-3.062-0.061-6.633,2.888-7.967C339.045,442.082,342.628,443.268,344.184,446.24z"/>
		</g>
		<g>
			<path fill="#F8B3AD" d="M327.711,453.926c1.297,3.088-0.26,6.621-3.479,7.891c-3.197,1.324-6.774-0.447-7.854-3.59
				c-1.096-3.193,0.544-6.498,3.533-7.746C322.921,449.293,326.415,450.838,327.711,453.926z"/>
		</g>
		<g>
			<path fill="#F8B3AD" d="M310.637,460.164c0.506,1.592,0.322,3.268-0.422,4.654c-0.751,1.354-2.06,2.43-3.717,2.896
				c-3.329,0.941-6.69-0.932-7.506-4.182c-0.815-3.246,1.047-6.598,4.161-7.477c1.563-0.443,3.173-0.189,4.532,0.566
				C309.033,457.35,310.127,458.564,310.637,460.164z"/>
		</g>
		<g>
			<path fill="#F8B3AD" d="M293.086,464.896c0.371,1.633,0.04,3.264-0.817,4.586c-0.428,0.662-0.987,1.244-1.65,1.711
				c-0.331,0.232-0.688,0.438-1.067,0.605c-0.382,0.158-0.788,0.268-1.211,0.344c-3.406,0.605-6.605-1.588-7.143-4.895
				c-0.539-3.305,1.607-6.443,4.795-7.006c0.4-0.072,0.801-0.094,1.192-0.088c0.391-0.008,0.776,0.027,1.151,0.098
				c0.751,0.143,1.465,0.436,2.105,0.852C291.723,461.936,292.715,463.264,293.086,464.896z"/>
		</g>
		<g>
			<path fill="#F8B3AD" d="M275.209,468.182c0.479,3.314-1.914,6.354-5.345,6.783c-0.854,0.105-1.686,0.041-2.454-0.176
				c-0.772-0.248-1.481-0.641-2.089-1.145c-1.216-1.01-2.022-2.469-2.16-4.139c-0.137-1.668,0.41-3.229,1.382-4.402
				c0.486-0.588,1.08-1.076,1.754-1.436c0.671-0.393,1.421-0.658,2.229-0.76C271.736,462.504,274.73,464.867,275.209,468.182z"/>
		</g>
		<g>
			<path fill="#F8B3AD" d="M257.116,469.959c0.093,1.658-0.503,3.27-1.57,4.385c-1.065,1.125-2.6,1.842-4.319,1.885
				c-3.456,0.086-6.243-2.561-6.227-5.91c0.017-3.348,2.655-6.135,5.893-6.215c1.626-0.041,3.123,0.604,4.251,1.674
				C256.27,466.855,257.023,468.273,257.116,469.959z"/>
		</g>
	</g>
</g>
<path fill="#FFC831" d="M139.727,266.445c-1.3,17.545-6.499,35.092,14.296,43.539c17.546,7.148,24.694,11.047,18.195,31.191
	c-6.498,18.195-3.249,23.395,12.347,35.092c12.348,9.098,9.748,29.893,25.994,22.744c17.546-7.797,24.044-9.098,42.89-6.498
	c7.798,0.65,16.896,1.949,23.394-2.6c7.799-4.549,9.748-12.348,18.846-14.945c14.297-5.199,31.192,4.549,44.189-7.799
	c11.047-11.047,3.898-26.643-1.95-38.99c-7.798-18.846-0.649-24.693,16.246-33.143c14.297-7.797,25.993-16.246,25.993-33.141
	c0-13.647-5.848-26.644-5.198-40.291c0.649-18.196,14.946-34.441-9.098-45.489"/>
<path fill="#FFC831" d="M222.256,116.332c18.845,5.199,32.492-18.846,52.637-16.246c16.246,2.6,20.145,20.795,36.391,20.146
	c14.297-0.65,27.943-11.048,41.59-1.3c14.946,11.047,0.65,29.893,14.297,40.939c10.397,7.798,27.943,14.946,23.395,32.492
	c-2.6,7.798-12.997,11.697-15.597,19.496c-2.6,7.147,0.649,12.347,3.899,18.845c7.147,16.896,8.447,25.994-8.448,37.691
	c-11.048,7.799-23.395,5.199-35.091,11.047c-16.896,8.447-10.398,13.646-7.148,26.645c5.848,26.643-42.89,14.945-44.189,37.689l0,0
	c-11.047-12.346-20.795-22.744-38.99-22.094c-20.145,0.65-24.044,8.447-38.99-8.449c-12.997-14.295-22.744-1.949-38.99-2.598
	c-7.148,0-14.946-1.951-20.146-8.449c-5.198-6.498-2.599-13.646-5.849-20.145c-7.147-12.996-25.344-9.098-21.444-29.892
	c0.649-7.148,7.148-12.348,8.448-19.495c1.299-9.748-4.549-11.697-10.397-18.196c-5.199-5.198-10.397-11.048-8.448-18.846
	c2.6-9.747,11.697-9.098,16.896-16.246c8.447-11.047-2.6-26.644,1.949-39.64c4.549-11.048,13.646-11.697,23.394-14.297
	c14.297-3.898,17.546-11.697,28.593-18.845c14.297-9.099,44.84-4.549,53.287,10.396"/>
<ellipse fill="#FFEBC2" cx="250.292" cy="195.33" rx="111.772" ry="72.782"/>
<path fill="#FFEBC2" d="M309.338,300.02c0.149-2.477,1.63-4.07,3.449-4.783c-1.169-23.309-8.624-48.46-13.378-63.516l-49.117,5.535
	l-49.117-5.535c-4.358,13.803-10.988,36.092-12.963,57.668c1.688,0.379,3.225,1.506,3.954,3.561
	c4.932,13.879,4.966,29.137,4.961,43.738c1.756,2.289,3.789,4.354,6.142,6.146c8.253,6.287,28.396,8.439,45.453,8.732v0.033
	c0.52-0.002,1.044-0.006,1.57-0.012c0.526,0.006,1.051,0.01,1.57,0.012v-0.033c17.057-0.293,37.2-2.445,45.453-8.732
	c4.699-3.58,8.141-8.236,10.585-13.635C308.216,319.467,308.75,309.74,309.338,300.02z"/>
<g>
	<path fill="#FFEBC2" d="M230.47,401.979c0.786-2.631,1.246-2.371,0.842-5.199c-3.249-22.744-4.498-40.613-2.507-59.627
		c0.057-0.545,0.119-1.09,0.188-1.635c-0.576,4.783,0.324-2.883,0.347-2.557c0.155-2.559-0.236-5.105-0.312-7.664
		c-0.167-5.648-6.215-9.305-11.23-6.443c-6.388,3.645-16.116-7.701-19.627-1.354c-3.77,6.812,2.532,43.73,1.3,51.336
		c-2.385,14.715-1.3,20.146,0.354,33.143H230.47z"/>
</g>
<g>
	<path fill="#0D2D4D" d="M176.635,173.517c-0.142,5.459,2.426,10.06,6.943,13.103c3.628,2.444,11.904,5.224,15.701,1.938
		c0.646-0.559,0.221-1.509-0.464-1.757c-1.763-0.639-3.808-0.169-5.659-0.259c-2.211-0.107-4.364-0.713-6.42-1.494
		c-5.012-1.902-8.726-6.109-9.188-11.53C177.499,172.937,176.65,172.92,176.635,173.517L176.635,173.517z"/>
</g>
<g>
	<path fill="#0D2D4D" d="M183.202,165.07c-0.571,4.813,0.654,8.438,3.878,12.065c2.386,2.686,7.69,7.038,11.456,6.848
		c0.979-0.049,1.288-1.069,0.737-1.78c-0.913-1.181-2.346-1.682-3.643-2.369c-1.896-1.005-3.72-2.145-5.402-3.479
		c-3.472-2.754-6.374-6.668-6.25-11.284C183.992,164.557,183.259,164.586,183.202,165.07L183.202,165.07z"/>
</g>
<g>
	<path fill="#0D2D4D" d="M192.086,156.947c-0.522,4.51,0.315,8.944,2.074,13.1c1.193,2.822,4.469,8.401,8.295,7.318
		c0.876-0.247,1.337-1.516,0.57-2.163c-1.051-0.889-2.343-1.246-3.381-2.203c-1.489-1.374-2.443-3.322-3.277-5.134
		c-1.521-3.306-2.918-7.259-3.078-10.918C193.256,156.155,192.174,156.191,192.086,156.947L192.086,156.947z"/>
</g>
<path fill="#FFEBC2" d="M207.268,398.08c-5.849,0-16.246,3.898-18.846,9.746c-7.148,13.646,14.946,8.449,22.744,6.498
	c19.496-3.248,24.045-5.848,14.947-23.393"/>
<g>
	<path fill="#FFEBC2" d="M269.239,401.979c-0.786-2.631-1.245-2.371-0.841-5.199c3.249-22.744,4.498-40.613,2.507-59.627
		c-0.058-0.545-0.12-1.09-0.188-1.635c0.577,4.783-0.323-2.883-0.347-2.557c-0.154-2.559,0.237-5.105,0.312-7.664
		c0.166-5.648,6.214-9.305,11.229-6.443c6.389,3.645,16.116-7.701,19.628-1.354c3.769,6.812-2.532,43.73-1.3,51.336
		c2.384,14.715,1.3,20.146-0.354,33.143H269.239z"/>
</g>
<path fill="#FFEBC2" d="M292.442,398.08c5.849,0,16.245,3.898,18.845,9.746c7.148,13.646-14.946,8.449-22.744,6.498
	c-19.495-3.248-24.044-5.848-14.946-23.393"/>
<path fill="#FFEBC2" d="M300.426,261.994c10.258,5.33,17.402,13.691,23.276,23.475c5.69,9.477,9.836,20.447,11.54,31.418
	c0.928,1.023,1.705,2.232,2.497,3.367c2.136,3.062,2.868,7.727,2.651,11.363c-0.379,6.369-4.652,14.607-12.129,14.402
	c-6.587-0.18-9.01-5.152-9.623-11.125c-3.508,2.281-9.28-0.277-8.099-5.539c0.883-3.93,4.245-11.271,8.709-15.211
	c-1.741-7.014-4.309-13.756-7.458-20.314c-2.284-4.758-5.133-9.055-7.895-13.525c-2.505-4.059-5.319-7.844-8.991-10.908
	C290.719,265.902,295.896,259.639,300.426,261.994z"/>
<g>
	<ellipse fill="#6C92A7" cx="207.743" cy="187.597" rx="15.596" ry="22.745"/>
	<circle fill="#FFFFFF" cx="214.458" cy="174.817" r="5.849"/>
	<circle opacity="0.5" fill="#FFFFFF" cx="218.79" cy="187.814" r="3.466"/>
	<g>
		<path fill="#F37D6B" d="M233.087,228.324c2.136,7.656,9.448,11.795,17.128,11.333c3.594-0.216,7.153-1.66,9.989-3.879
			c2.539-1.987,5.761-4.475,6.841-7.609c0.197-0.571-0.502-1.046-0.988-0.76c-2.551,1.502-4.395,3.653-7.268,4.7
			c-2.594,0.945-5.211,1.362-7.952,1.571c-6.081,0.464-12.118-1.52-16.536-5.335C233.383,227.553,232.729,227.044,233.087,228.324
			L233.087,228.324z"/>
	</g>
	<path fill="#F8B3AD" d="M255.393,203.565c0-0.052,0.005-0.103,0.005-0.155c0-3.828-2.134-6.932-4.766-6.932
		s-4.767,3.104-4.767,6.932c0,0.053,0.006,0.104,0.006,0.156c-5.307,1.337-9.102,4.83-9.102,8.941c0,5.265,6.206,9.531,13.862,9.531
		c7.657,0,13.863-4.267,13.863-9.531C264.495,208.396,260.7,204.902,255.393,203.565z"/>
</g>
<g>
	<path fill="#F37D6B" d="M240.605,235.004c1.436,0.832,3.492-0.669,4.609-1.041c0.334-0.112,0.683-0.193,1.024-0.273
		c-0.298,0.023-0.289,0.023,0.026,0c0.727-0.052-0.487-0.158,0.189,0.001c-0.186-0.048-0.338-0.145-0.459-0.292
		c0.383,0.301,0.03-0.014-0.051-0.209c0.197,0.48,0.24,0.918,0.258,1.413c0.142,3.937,6.442,3.815,6.041,0
		c-0.229-2.186-0.756-4.18-2.625-5.521c-1.325-0.952-3.028-0.996-4.559-0.626C243.331,228.876,237.237,233.052,240.605,235.004
		L240.605,235.004z"/>
</g>
<g>
	<path fill="#F37D6B" d="M258.689,235.004c-1.435,0.832-3.491-0.669-4.609-1.041c-0.333-0.112-0.682-0.193-1.023-0.273
		c0.297,0.023,0.289,0.023-0.026,0c-0.727-0.052,0.487-0.158-0.188,0.001c0.185-0.048,0.337-0.145,0.458-0.292
		c-0.383,0.301-0.03-0.014,0.05-0.209c-0.196,0.48-0.239,0.918-0.257,1.413c-0.142,3.937-6.442,3.815-6.042,0
		c0.23-2.186,0.757-4.18,2.626-5.521c1.325-0.952,3.028-0.996,4.558-0.626C255.965,228.876,262.059,233.052,258.689,235.004
		L258.689,235.004z"/>
</g>
<path fill="#F37D6B" d="M262.221,232.329c0.159-0.558-1.435,1.075-2.076,1.16c-1.911,0.25-3.441,1.699-4.979,2.978
	c-0.411-2.298-3.89-3.384-5.056-0.971c-0.125,0.259-0.276,0.784-0.462,1.337c-0.187-0.553-0.338-1.078-0.463-1.337
	c-1.166-2.413-4.645-1.327-5.056,0.971c-1.537-1.278-3.067-2.728-4.979-2.978c-0.642-0.085-2.079-1.4-1.949-0.836
	c1.19,5.177,6.265,11.155,11.697,11.373C257.021,244.35,260.535,238.23,262.221,232.329z"/>
<g>
	<path fill="#0D2D4D" d="M296.376,206.196c-9.411,2.41-16.054-12.83-16.523-20.007c-0.028-0.438-0.72-0.59-0.808-0.108
		c-1.809,9.935,5.412,24.823,17.078,23.676c5.558-0.547,9.493-5.357,11.991-9.928c-0.855-0.499-1.673-1.061-2.378-1.672
		C303.621,202.002,300.623,205.107,296.376,206.196z"/>
	<path fill="#0D2D4D" d="M311.067,182.821c-0.172-0.507-0.821-0.373-0.883,0.119c-0.2,1.59-0.482,3.328-0.871,5.117
		c0.712,0.528,1.413,1.026,2.25,1.339C311.84,187.088,311.743,184.815,311.067,182.821z"/>
	<path fill="#0D2D4D" d="M311.064,192.153c-0.915-0.188-1.785-0.49-2.551-0.924c-0.061,0.216-0.125,0.43-0.19,0.646
		c0.759,0.63,1.472,1.312,2.34,1.801C310.812,193.173,310.942,192.665,311.064,192.153z"/>
	<path fill="#0D2D4D" d="M307.044,195.435c0.235,0.23,0.479,0.465,0.751,0.692c0.494,0.417,1.01,0.817,1.534,1.203
		c0.123-0.284,0.242-0.571,0.359-0.864c-0.915-0.395-1.758-0.893-2.439-1.527C307.183,195.106,307.113,195.27,307.044,195.435z"/>
	<path fill="#0D2D4D" d="M316.479,192.218c4.702-0.777,8.834-3.521,12.569-6.304c0.438-0.326,0.041-1.062-0.438-0.75
		c-2.906,1.893-6.355,3.105-9.69,3.979c-1.892,0.497-3.846,0.679-5.796,0.577c-0.582-0.031-1.092-0.15-1.561-0.325
		c-0.11,0.92-0.282,1.843-0.499,2.757C312.91,192.534,314.914,192.476,316.479,192.218z"/>
	<path fill="#0D2D4D" d="M311.563,189.396c-0.837-0.312-1.538-0.811-2.25-1.339c-0.227,1.046-0.493,2.109-0.8,3.172
		c0.766,0.434,1.636,0.736,2.551,0.924C311.281,191.239,311.453,190.316,311.563,189.396z"/>
	<path fill="#0D2D4D" d="M328.095,191.628c-2.913,2.701-7.247,3.56-11.11,3.499c-2.023-0.031-3.996-0.389-5.851-1.211
		c-0.163-0.072-0.318-0.156-0.471-0.241c-0.283,0.959-0.614,1.894-0.975,2.791c2.109,0.91,4.617,1.253,6.517,1.305
		c4.658,0.128,9.543-1.942,12.709-5.324C329.425,191.901,328.643,191.121,328.095,191.628z"/>
	<path fill="#0D2D4D" d="M308.323,191.875c-0.315,1.032-0.672,2.061-1.074,3.064c0.682,0.635,1.524,1.133,2.439,1.527
		c0.36-0.897,0.691-1.832,0.975-2.791C309.795,193.186,309.082,192.504,308.323,191.875z"/>
	<path fill="#0D2D4D" d="M308.114,199.829c1.695,0.992,3.511,1.754,4.761,2.249c4.026,1.591,8.28,1.304,11.771-1.292
		c0.729-0.542,0.095-1.734-0.73-1.249c-3.745,2.2-8.084,1.318-11.798-0.483c-0.983-0.477-1.906-1.073-2.788-1.723
		c-0.379,0.872-0.78,1.703-1.195,2.464C308.128,199.805,308.121,199.818,308.114,199.829z"/>
	<path fill="#0D2D4D" d="M307.044,195.435c-0.394,0.936-0.828,1.847-1.308,2.722c0.705,0.611,1.522,1.173,2.378,1.672
		c0.007-0.011,0.014-0.023,0.02-0.034c0.415-0.761,0.816-1.592,1.195-2.464c-0.524-0.386-1.04-0.786-1.534-1.203
		C307.523,195.9,307.279,195.666,307.044,195.435z"/>
</g>
<g>
	<path fill="#FFD733" d="M371.596,222.871c-0.848-6.573,0.51-12.243,2.66-18.426c2.299-6.606,2.586-12.663-2.618-18.062
		c-3.667-3.806-8.495-7.026-10.827-11.93c-2.695-5.663-3.345-11.726-3.78-17.906c-0.344-4.862-0.338-11.314-3.747-15.23
		c-2.159-2.48-4.959-3.964-8.146-4.739c-4.126-1.004-8.304,0.643-12.286,1.597c-7.883,1.887-15.251,0.949-21.052-5.167
		c-5.279-5.568-9.008-12.819-15.747-16.91c-5.879-3.569-11.689-2.947-17.93-0.671c-7.107,2.592-14.119,6.348-21.748,7.086
		c-8.954,0.865-19-2.367-27.477,1.489c-0.027,0.012-0.053,0.021-0.08,0.032c4.137,9.699,17.141,8.737,25.909,8.019
		c10.263-0.841,22.038-3.797,32.021-0.041c5.553,2.089,9.387,6.363,12.614,11.176c2.957,4.409,5.75,9.176,10.759,11.516
		c7.319,3.42,15.341-0.097,22.997,1.334c6.508,1.216,12.278,5.919,11.743,12.971c-0.232,3.079-0.611,5.777,0.435,8.754
		c0.849,2.415,2.251,4.537,4.108,6.298c3.35,3.177,7.885,5.185,10.878,8.72c3.548,4.191,3.861,9.053,1.89,14.092
		c-1.472,3.757-3.756,7.021-5.963,10.366c-1.894,2.871-4.27,6.511-2.997,10.112c2.318,6.562,9.347,10.164,11.569,16.951
		c2.184,6.673,0.33,13.56-3.793,19.035c-3.735,4.959-9.27,9.572-11.436,15.523c-0.969,2.66-1.537,5.363-1.92,8.086
		c0.531-1.008,1.114-1.977,1.779-2.883c3.375-4.598,7.403-8.555,11.58-12.414c4.206-3.887,8.672-7.762,11.472-12.848
		c3.011-5.468,4.038-11.683,3.005-17.853C374.45,234.861,372.387,228.999,371.596,222.871z"/>
	<path fill="#FFD733" d="M378.045,214.372c0.703-4.399,2.81-8.485,3.934-12.781c2.09-7.992-1.292-15.473-6.921-21.067
		c-2.401-2.388-5.184-4.449-7.229-7.177c-1.995-2.661-2.856-6.055-3.46-9.274c-1.065-5.691-0.83-11.551-1.887-17.256
		c-2.251-12.157-13.36-18.634-25.245-16.395c-3.793,0.716-7.418,2.135-11.299,2.363c-3.45,0.204-6.478-1.543-8.95-3.78
		c-4.927-4.46-8.271-10.372-13.26-14.847c-4.59-4.115-10.112-6.834-16.338-6.923c-5.646-0.079-11.104,2.271-16.227,4.354
		c-7.099,2.886-13.675,5.232-21.454,5.076c-8.162-0.164-16.068-1.228-23.698,2.395c-1.688,0.801-1.782,2.432-1.038,3.66
		c0.326,9.646,9.415,15.312,18.529,16.432c10.932,1.342,21.885-1.385,32.812-1.396c5.079-0.004,9.678,1.243,13.316,4.954
		c3.721,3.795,6.008,8.819,9.514,12.825c4.307,4.92,10.707,7.904,17.22,8.129c4.017,0.139,8.043-0.562,12.058-0.654
		c2.655-0.062,7.817,0.485,8.977,3.485c0.799,2.064-0.064,4.919-0.119,7.072c-0.089,3.396,1.084,6.635,2.574,9.634
		c2.426,4.887,6.987,8.154,11.334,11.192c3.229,2.258,5.991,4.296,4.908,8.548c-1.854,7.279-8.61,12.219-9.928,19.757
		c-1.371,7.849,4.118,13.175,8.84,18.555c4.967,5.66,4.522,12.027,0.834,18.2c-3.313,5.543-8.404,9.725-11.221,15.635
		c-3.938,8.262-2.907,17.809-2.512,26.674c0.008,0.178,0.002,0.355,0.008,0.533c-0.194,0.531-0.392,1.061-0.601,1.576
		c-0.214,0.525,0.13,0.982,0.587,1.164c-0.012,0.35-0.017,0.699-0.034,1.051c-0.095,1.924,2.925,2.324,3.351,0.453
		c0.49-2.152,0.794-4.318,1.02-6.492c1.006-1.941,1.822-3.988,2.722-6.074c1.803-4.184,4.197-7.67,7.403-10.887
		c5.089-5.102,11.17-9.07,16.111-14.359c5.27-5.639,8.489-12.345,9.447-20c0.98-7.825-1.854-15.568-3.5-23.098
		C377.816,221.941,377.444,218.121,378.045,214.372z M372.464,258.799c-2.8,5.086-7.266,8.961-11.472,12.848
		c-4.177,3.859-8.205,7.816-11.58,12.414c-0.665,0.906-1.248,1.875-1.779,2.883c0.383-2.723,0.951-5.426,1.92-8.086
		c2.166-5.951,7.7-10.564,11.436-15.523c4.123-5.475,5.977-12.362,3.793-19.035c-2.223-6.787-9.251-10.39-11.569-16.951
		c-1.272-3.602,1.104-7.241,2.997-10.112c2.207-3.346,4.491-6.609,5.963-10.366c1.972-5.039,1.658-9.9-1.89-14.092
		c-2.993-3.535-7.528-5.543-10.878-8.72c-1.857-1.761-3.26-3.883-4.108-6.298c-1.046-2.977-0.667-5.675-0.435-8.754
		c0.535-7.052-5.235-11.755-11.743-12.971c-7.656-1.431-15.678,2.086-22.997-1.334c-5.009-2.34-7.802-7.106-10.759-11.516
		c-3.228-4.812-7.062-9.087-12.614-11.176c-9.982-3.756-21.758-0.8-32.021,0.041c-8.769,0.719-21.772,1.681-25.909-8.019
		c0.027-0.012,0.053-0.021,0.08-0.032c8.477-3.856,18.522-0.624,27.477-1.489c7.629-0.738,14.641-4.494,21.748-7.086
		c6.24-2.276,12.051-2.898,17.93,0.671c6.739,4.091,10.468,11.342,15.747,16.91c5.801,6.116,13.169,7.054,21.052,5.167
		c3.982-0.954,8.16-2.601,12.286-1.597c3.187,0.775,5.986,2.259,8.146,4.739c3.409,3.916,3.403,10.368,3.747,15.23
		c0.436,6.181,1.085,12.243,3.78,17.906c2.332,4.903,7.16,8.124,10.827,11.93c5.204,5.399,4.917,11.456,2.618,18.062
		c-2.15,6.183-3.508,11.853-2.66,18.426c0.791,6.128,2.854,11.99,3.873,18.075C376.502,247.116,375.475,253.331,372.464,258.799z"/>
</g>
<g>
	<path fill="#FFD733" d="M357.039,266.355c-3.886,1.387-6.893,2.936-9.944,5.812c-3.356,3.164-5.706,7.158-7.46,11.383
		c-3.232,7.793-4.75,18.48,1.007,25.518c5.694,6.963,18.518,8.486,25.338,2.359c3.769-3.383,4.074-9.736,1.468-13.871
		c-0.969-1.539-2.974-2.928-4.86-2.855c-3.071,0.117-4.422,1.846-6.493,3.768c0.967,0.4,1.934,0.801,2.899,1.201
		c-0.012-0.82,0.451-1.549,0.284-2.414c-0.205-1.061-1.523-0.951-2.043-0.266c-0.028,0.035-0.056,0.072-0.083,0.109
		c-0.608,0.801,0.39,1.756,1.204,1.566c0.047-0.012,0.094-0.023,0.141-0.033c-0.42-0.549-0.841-1.096-1.262-1.643
		c-0.45,0.816-1.261,1.293-1.578,2.227c-0.534,1.576,1.264,2.449,2.496,1.92c1.918-0.826,2.811-3.939,5.445-2.639
		c2.472,1.219,2.17,4.871,1.121,6.838c-1.983,3.719-6.232,4.777-10.174,4.154c-5.375-0.85-8.736-5.41-9.674-10.457
		c-0.99-5.324,0.926-11.562,3.186-16.316c2.238-4.709,5.355-11.064,10.092-13.73C359.547,268.199,358.6,265.801,357.039,266.355
		L357.039,266.355z"/>
</g>
<g>
	<path fill="#FFD733" d="M222.903,118.281c-0.356,7.577-8.287,10.771-14.989,12.655c-9.507,2.67-19.388,3.782-28.822,6.747
		c-8.867,2.786-17.337,7.614-20.361,16.931c-1.986,6.117-0.363,11.83,1.895,17.561c2.756,6.992-3.319,11.509-8.301,15.431
		c-4.165,3.278-7.332,7.434-6.766,12.995c0.602,5.917,4.559,9.457,9.369,12.391c4.771,2.908,9.192,5.672,11.403,11.1
		c1.132,2.775,0.769,5.338-1.131,7.643c-4.046,4.909-10.616,7.956-12.278,14.563c-0.955,3.804,0.244,8.173,2.914,10.987
		c3.793,3.998,10.184,3.553,12.893,9.031c0.557,1.125,2.062,0.277,1.884-0.793c-0.991-5.988-7.061-8.168-11.101-11.914
		c-3.008-2.787-1.533-7.337,0.795-9.897c5.253-5.778,14.117-9.272,12.607-18.669c-0.946-5.886-5.213-11.159-9.953-14.493
		c-4.734-3.329-13.293-6.065-10.858-13.541c0.809-2.482,3.873-4.401,5.817-5.912c2.86-2.221,5.241-4.497,7.336-7.471
		c4.264-6.053,2.247-11.579,0.647-18.049c-1.851-7.483,2.396-13.607,8.362-16.958c6.838-3.842,15.107-5.129,22.693-6.69
		c7.589-1.563,15.358-3.14,22.271-6.794c6.76-3.574,10.317-9.223,10.177-16.853C229.328,114.072,223.1,114.108,222.903,118.281
		L222.903,118.281z"/>
</g>
<path fill="#FFC831" d="M232.003,116.981c-14.296,14.297-26.644,15.597-44.188,22.095c-15.597,5.849-32.492,12.348-37.691,27.943
	c-3.089,9.268-1.949,11.047-7.147,18.195c-4.549,7.148-6.499,11.048-3.899,19.495c2.6,8.449,9.748,11.698,13.646,18.196
	c5.199,9.748-1.3,11.047-4.549,19.495c-7.148,17.546,13.646,22.744,16.896,38.341c1.299,6.498-6.499,25.344-14.947,16.895
	c-1.949-1.949,0.65-12.346-3.249-17.545c-5.849-8.447-12.347-11.697-13.646-22.744c-0.649-8.449,1.95-15.596,0.65-24.044
	c-0.65-8.448-5.199-16.246-7.798-24.693c-4.55-16.247,1.949-33.143,8.447-48.089c9.098-20.146,20.795-34.441,42.89-40.29
	c11.697-3.25,35.741-8.448,48.088-4.549c2.6,0.649,3.899,1.299,5.198,2.599"/>
<g>
	<path fill="#FFD733" d="M210.559,107.262c-6.362-0.537-10.969,3.27-15.368,7.363c-2.411,2.243-4.686,4.628-7.2,6.758
		c-3.394,2.873-7.363,4.182-11.662,5.094c-8.803,1.867-18.025,1.55-26.363,5.314c-5.765,2.603-9.467,7.587-11.037,13.605
		c-1.511,5.792-1.923,12.543-1.771,18.508c0.163,6.414-3.226,11.331-8.119,15.093c-4.615,3.545-9.826,6.419-13.801,10.739
		c-4.07,4.425-5.523,10.436-4.459,16.283c1.126,6.178,7.151,10.122,11.24,14.259c3.105,3.142,5.281,7.829,2.955,11.935
		c-2.154,3.801-6.044,6.553-8.957,9.741c-3.428,3.753-5.854,8.243-5.653,13.446c0.479,12.375,11.452,17.011,21.159,21.289
		c4.049,1.783,8.5,4.033,10.164,8.432c2.189,5.781,0.854,12.639-4.684,15.838c-5.398,3.119-11.45,0.961-16.337-2.033
		c-3.273-2.008-6.53-5.66-4.711-9.68c1.288-2.848,4.411-4.916,7.495-5.174c4.11-0.344,5.787,3.334,6.39,6.812
		c0.288,1.662,3.044,1.273,2.932-0.396c-0.281-4.18-1.954-7.871-6.066-9.412c-3.343-1.254-7.358,0.1-10.093,2.109
		c-3.014,2.213-4.914,5.592-4.789,9.373c0.172,5.236,4.746,8.906,8.912,11.273c5.582,3.172,12.293,4.469,18.444,2.289
		c6.466-2.289,9.821-8.248,10.647-14.742c0.724-5.684-1.783-11.756-5.859-15.641c-3.7-3.525-8.617-5.361-13.233-7.324
		c-4.313-1.834-8.928-3.867-11.446-8.033c-2.403-3.973-1.865-8.312,1.005-11.806c3.04-3.703,7.049-6.467,9.972-10.281
		c3.114-4.064,4.192-8.907,2.797-13.868c-1.776-6.307-6.824-9.98-11.547-14.028c-4.85-4.157-7.695-9.613-3.998-15.585
		c3.045-4.915,8.993-7.681,13.613-10.836c5.098-3.482,8.765-7.438,10.846-13.313c2.584-7.292,2.18-14.561,3.314-22.073
		c0.503-3.325,1.591-6.521,3.69-9.191c3.202-4.072,9.033-5.658,13.841-6.699c9.544-2.067,19.467-2.719,27.25-9.234
		c6.175-5.169,11.555-14.683,20.488-14.959C211.369,108.48,211.349,107.329,210.559,107.262L210.559,107.262z"/>
</g>
<g>
	<path fill="#FFD733" d="M113.568,203.885c2.693,5.115,6.858,9.494,10.969,13.478c3.9,3.778,8.102,8.077,8.113,13.853
		c0.014,6.042-3.809,10.631-7.502,14.979c-3.441,4.051-7.016,8.386-6.191,14.045c1.026,7.053,8.657,10.971,13.886,14.613
		c4.71,3.281,11.804,7.881,12.641,14.148c0.818,6.135-3.608,12.492-8.814,15.312c-4.253,2.305-9.641,2.326-14.19,1.037
		c-5.396-1.527-9.653-5.816-10.413-11.49c-0.481-3.598,1.704-6.619,4.206-8.965c3.032-2.842,5.953-3.074,9.676-1.727
		c0.376,0.137,0.69-0.27,0.612-0.611c-1.323-5.723-8.774-3.74-12.334-1.543c-5.272,3.252-7.972,8.857-8.124,14.877
		c-0.305,12.086,13.142,18.68,23.493,18.654c13.302-0.033,25.589-11.834,24.505-25.545c-0.568-7.203-5.561-12.754-10.935-17.086
		c-2.909-2.346-5.998-4.455-9.081-6.561c-2.354-1.605-5.89-3.459-6.84-6.363c-0.225-0.688-0.17-0.688,0.095-1.627
		c0.254-0.902,0.976-1.9,1.581-2.784c1.57-2.292,3.489-4.363,5.172-6.575c3.978-5.228,6.783-11.806,5.741-18.48
		c-0.97-6.21-5.18-10.705-9.987-14.391c-5.046-3.868-11.156-6.698-14.649-12.2C114.544,201.909,113.003,202.81,113.568,203.885
		L113.568,203.885z"/>
</g>
<g>
	<path fill="#FFD733" d="M111.712,292.666c-2.339,3.645-1.087,7.357,2.083,10.1c2.748,2.377,9.504,6.258,13.093,4.037
		c1.169-0.723,1.538-2.17,0.885-3.373c-1.485-2.73-5.631-3.031-8.24-4.16c-2.405-1.039-7.22-2.539-6.294-5.959
		C113.491,292.375,112.218,291.879,111.712,292.666L111.712,292.666z"/>
</g>
<g>
	<path fill="#FFD733" d="M126.71,239.131c-3.419,3.07-6.874,6.273-8.778,10.538c-1.6,3.582-4.021,12.098,0.395,14.374
		c0.772,0.398,1.745,0.498,2.51,0c2.113-1.371,2.102-2.936,2.143-5.277c0.039-2.264,0.362-4.376,1.007-6.544
		c1.153-3.873,3.625-7.378,5.654-10.828C130.749,239.508,128.256,237.743,126.71,239.131L126.71,239.131z"/>
</g>
<path fill="#FFEBC2" d="M199.156,283.316c-9.941,5.9-20.814,7.557-32.223,7.383c-11.054-0.168-22.561-2.438-32.777-6.779
	c-1.36,0.248-2.797,0.27-4.179,0.344c-3.728,0.197-8.075-1.641-11.052-3.744c-5.21-3.684-9.951-11.662-5.832-17.904
	c3.631-5.5,9.133-4.934,14.529-2.303c-0.086-4.182,5.133-7.736,8.979-3.954c2.871,2.823,7.333,9.553,8.322,15.424
	c6.877,2.223,13.959,3.6,21.192,4.385c5.245,0.572,10.398,0.42,15.654,0.434c4.77,0.014,9.471-0.379,14.011-1.881
	C200.96,273.008,203.547,280.711,199.156,283.316z"/>
<path fill="#EF4937" d="M150.523,234.192c-3.254-8.812-14.592-3.43-19.587,3.369c-4.82-6.717-15.803-11.939-19.547-3.648
	c-2.714,6.01-1.02,12.625,3.485,17.165c2.426,2.443,5.373,4.314,8.111,6.377c2.901,2.188,7.242,8.639,7.911,8.566
	c0.67,0.072,4.637-5.938,7.181-8c2.742-2.222,5.741-4.081,8.35-6.472C151.425,246.965,152.866,240.539,150.523,234.192z"/>
<g>
	<path fill="#FFFFFF" d="M143.614,236.781c1.483-0.84,2.976-1.665,4.465-2.493c-0.619-0.897-1.406-1.759-2.354-2.324
		c-1.012,1.117-2.139,2.131-3.359,3.025c0.24,0.302,0.52,0.575,0.748,0.899C143.311,236.167,143.471,236.468,143.614,236.781z"/>
	<path fill="#FFFFFF" d="M144.266,238.873c0.023,0.111,0.052,0.224,0.072,0.334c0.267,1.399,1.237,9.908,0.154,11.208
		c-1.091,1.311,3.466-1.732,4.822-7.737c0.455-2.017,0.649-4.418-0.219-6.504C147.483,237.069,145.868,237.959,144.266,238.873z"/>
</g>
<g>
	<path fill="#FFFFFF" d="M314.104,389.697c-0.509-4.398-1.03-8.803-1.516-13.215c-0.584-2.066-1.116-4.146-1.539-6.258
		c-1.125-5.609-1.016-11.312-0.405-16.979c-0.271-5.879-0.326-11.766-0.04-17.656c0.45-9.273,1.996-18.426,2.124-27.723
		c0.085-6.184-0.092-12.363-0.226-18.545c-1.656-0.236-3.32-0.545-5.005-0.91c-5.933-1.287-11.909-2.373-17.893-3.4
		c-12.431-2.137-24.92-3.977-37.294-6.438c-11.57-2.301-23.018-5.18-34.199-8.953c-7.951-2.684-16.657-3.762-24.381-7.113
		c-0.458,0.137-0.896,0.316-1.314,0.541c-2.623,11.281-6.212,22.215-4.928,34c0.713,6.529,2.304,12.922,3.139,19.434
		c0.75,5.842,1.354,11.707,1.698,17.59c1.265,21.633-0.384,43.59-6.614,64.371c2.803,2.545,6.297,2.887,9.98,2.256
		c3.425-11.191,6.013-23.223,9.452-34.828c2.6-9.533,2.167-20.363,6.065-29.893c3.837,18.486,7.391,39.502,6.82,59.428
		c3.176,0.857,6.109,2.744,9.267,3.992c3.562,1.408,7.12,1.654,10.667,1.211c-0.031-6.268,0.351-12.607-0.327-18.711
		c-1.3-11.697-5.199-22.527-9.099-33.791c-3.898-12.564-7.798-24.693-9.098-38.123c7.365,19.061,16.463,35.957,22.095,55.451
		c2.792,10.525,5.584,21.264,8.007,32.109c3.73-0.965,7.19-1.215,11.367-0.016c3.17,0.91,6.181,2.201,9.301,3.176
		c-2.555-20.652-7.872-41.787-14.811-60.396c7.364,12.564,12.13,27.295,17.762,40.725c3.044,7.229,5.002,14.125,6.57,21.018
		c4.534-0.197,9.022-1.408,13.445-2.426c0.318-0.074,0.635-0.143,0.952-0.215c-1.157-17.914-9.013-36.109-7.971-53.469
		c7.798,11.264,12.13,30.326,15.162,43.756c0.727,2.787,1.246,5.539,1.652,8.277c3.259-0.262,6.532-0.148,9.902,0.584
		c2.604,0.564,4.78-1.301,4.763-3.779C315.58,394.014,314.368,391.996,314.104,389.697z"/>
	<path fill="#FFF7E1" d="M211.209,335.979c-3.898,9.529-3.466,20.359-6.065,29.893c-3.439,11.605-6.027,23.637-9.452,34.828
		c5.698-0.979,11.847-4.295,16.582-5.439c2.056-0.498,3.944-0.342,5.756,0.146C218.6,375.48,215.046,354.465,211.209,335.979z"/>
	<path fill="#FFF7E1" d="M219.439,309.984c1.3,13.43,5.199,25.559,9.098,38.123c3.899,11.264,7.799,22.094,9.099,33.791
		c0.678,6.104,0.296,12.443,0.327,18.711c2.531-0.314,5.056-0.98,7.574-1.838c1.395-0.475,2.715-0.893,4.004-1.227
		c-2.423-10.846-5.215-21.584-8.007-32.109C235.902,345.941,226.805,329.045,219.439,309.984z"/>
	<path fill="#FFF7E1" d="M255.398,340.309c6.938,18.609,12.256,39.744,14.811,60.396c1.522,0.475,3.07,0.883,4.678,1.121
		c1.619,0.238,3.234,0.293,4.844,0.225c-1.568-6.893-3.526-13.789-6.57-21.018C267.528,367.604,262.763,352.873,255.398,340.309z"/>
	<path fill="#FFF7E1" d="M286.157,345.941c-1.042,17.359,6.813,35.555,7.971,53.469c2.976-0.662,5.904-1.201,8.844-1.436
		c-0.406-2.738-0.926-5.49-1.652-8.277C298.287,376.268,293.955,357.205,286.157,345.941z"/>
</g>
<ellipse fill="#FDDBC4" cx="298.937" cy="222.256" rx="17.546" ry="7.148"/>
<ellipse fill="#FDDBC4" cx="202.11" cy="222.256" rx="17.546" ry="7.148"/>
<g>
</g>
<g>
</g>
<g>
</g>
<g>
</g>
<g>
</g>
<g>
</g>
</svg>
