<?xml version="1.0" encoding="utf-8"?>
<!-- Generator: Adobe Illustrator 16.0.4, SVG Export Plug-In . SVG Version: 6.00 Build 0)  -->
<!DOCTYPE svg PUBLIC "-//W3C//DTD SVG 1.1//EN" "http://www.w3.org/Graphics/SVG/1.1/DTD/svg11.dtd">
<svg version="1.1" id="Hermes" xmlns="http://www.w3.org/2000/svg" xmlns:xlink="http://www.w3.org/1999/xlink" x="0px" y="0px"
	 width="490px" height="490px" viewBox="0 0 490 490" enable-background="new 0 0 490 490" xml:space="preserve">
<path fill="#DA822C" d="M346.392,346.16c-2.753,1.297-6.553,3.239-7.812,6.618c-1.488,3.996,0.122,8.021,2.136,11.066
	c0.547,0.827,1.152,1.617,1.784,2.389l6.974-21.289C348.4,345.305,347.366,345.702,346.392,346.16z"/>
<path fill="#DA822C" d="M326.661,381.706c-3.86,8.252-2.917,18.766,2.639,24.822l10.928-33.361
	C334.891,374.145,329.537,375.556,326.661,381.706z"/>
<path fill="#DA822C" d="M348.08,367.738c5.435-1.666,11.183-4.738,10.546-10.917c-0.393-3.818-1.816-6.991-3.743-9.854
	L348.08,367.738z"/>
<path fill="#DA822C" d="M356.71,236.297c2.154-1.93,6.323-3.413,7.608-5.303c-2.086,0.107-4.281,0.176-6.457,0.076
	c-0.183,0.898-0.37,1.803-0.568,2.722C357.113,234.601,356.919,235.44,356.71,236.297z"/>
<path fill="#DA822C" d="M334.679,256.406c-5.47-2.229-8.322-5.568-9.198-9.174c-8.438,7.127-18.929,13.17-30.896,17.756
	c0.301,1.236,0.597,2.489,0.887,3.754c0.12-0.096,0.184-0.147,0.184-0.147l1.499,8.074c0.254,1.302,0.498,2.612,0.729,3.928
	l0.866,4.667c3.707,1.729,7.656,2.703,11.711,3.369c5.013,0.825,9.901,1.795,14.994,2.088c7.021,0.406,13.992,0.225,20.903-0.795
	c1.143-3.304,3.56-6.702,5.995-9.365c-0.61-3.64-0.346-7.453,1.375-11.059c3.613-7.571,11.196-11.959,18.131-14.216
	c1.472-0.48,2.229,2.087,0.772,2.771c-5.864,2.757-14.009,6.317-16.485,13.731c-0.661,1.979-0.901,3.955-0.826,5.888
	c0.51-0.434,0.995-0.816,1.438-1.125c4.271-2.991,8.679,1.229,7.93,5.204c1.988-0.588,3.944-0.915,5.759-0.837l9.461-28.878
	c-2.065,0.292-4.209,0.103-5.988-0.779c0.759-0.856,1.085-1.853,1.413-2.852c-5.398,0.441-18.19,0.118-6.562-7.673
	c-2.447,0.729-11.113,1.777-13.001-0.877C352.796,250.177,347.213,261.106,334.679,256.406z"/>
<path fill="#DA822C" d="M348.697,378.998c-0.958-1.302-2.011-2.515-3.094-3.701l-10.689,32.633
	C345.502,405.096,356.356,389.396,348.697,378.998z"/>
<path fill="#DA822C" d="M369.096,303.584l-11.762,35.901c0.233-0.05,0.468-0.099,0.7-0.147c6.36-1.334,15.543-3.431,19.19-10.63
	c4.241-8.374-0.39-17.555-5.619-22.777C370.796,305.122,369.954,304.346,369.096,303.584z"/>
<path fill="#DA822C" d="M245,5.859c-122.824,0-222.395,107.066-222.395,239.142c0,132.072,99.57,239.14,222.395,239.14
	s222.395-107.067,222.395-239.14C467.395,112.926,367.824,5.859,245,5.859z M414.541,258.493
	c-2.705,2.428-10.026-4.389-11.693-6.593c4.765,13.161-5.738,5.854-9.83,2.305c-0.326,0.997-0.653,1.995-0.549,3.133
	c-2.647-0.462-5.085-2.341-6.728-4.569l-9.893,30.199c0.91,0.817,1.697,1.897,2.321,3.305c1.554,3.505,0.654,7.076-1.362,10.058
	c4.977-1.139,9.796-3.321,13.008-7.95c6.058-8.728,1.261-18.182-2.776-25.603c-0.769-1.414,1.36-3.034,2.263-1.778
	c6.103,8.495,10.61,22.957,0.687,32.027c-5.212,4.764-11.146,6.779-17.388,7.643c-0.238,0.177-0.478,0.348-0.72,0.51
	c1.793,1.645,3.501,3.384,4.984,5.384c3.905,5.265,6.695,13.119,4.438,20.447c-3.747,12.161-15.025,13.904-25.174,16.172
	c0.619,0.832,1.216,1.688,1.771,2.586c2.834,4.58,5.5,10.538,2.887,16.46c-2.397,5.435-8.142,8.059-13.345,9.464
	c2.112,2.316,4.086,4.736,5.335,7.663c5.461,12.795-6.594,29.321-18.595,30.806l-1.594,4.866l-5.484-1.797l1.498-4.573
	c-0.015-0.01-0.029-0.016-0.043-0.028c-7.659-6.547-9.521-22.402-2.351-31.731c3.86-5.019,8.834-6.311,14.15-7.375
	c-1.769-2.137-3.339-4.454-4.396-7.246c-2.073-5.48-1.506-11.707,3.431-15.723c3.331-2.71,7-4.265,10.784-5.366
	c-5.402-5.89-11.451-11.405-11.931-20.473c-0.327-6.2,2.448-11.841,6.788-15.818c-7.557,0.847-15.306,0.67-22.681-0.452
	c-7.562-1.149-14.733-3.099-21.267-6.588l0.69,3.718l1.505,18.984l0.711,8.974l3.908,49.303h-18.831
	c0.168,1.614,0.284,3.116,0.349,4.538c0.012,0.254,0.022,0.508,0.03,0.759c0.026,0.769,0.037,1.519,0.036,2.255
	c0,0.325-0.003,0.646-0.009,0.967c-0.03,1.842-0.146,3.626-0.313,5.467c4.253-2.218,9.089-3.942,13.341-5.762
	c5.722-2.897,11.104-8.09,16.581-10.659c-2.091,7.633-7.706,15.202-15.062,18.93c1.963-0.584,4.341-0.351,6.316,1.114
	c-1.613,4.926-8.588,3.322-12.761,4.82c1.805,0.318,2.792,1.051,4.353,1.698c-0.966,2.475-4.169,2.628-7.389,2.019
	c1.933,1.353,3.49,2.954,4.287,4.746c2.623,5.009,1.17,7.39-2.053,8.315c0.176,0.049,0.352,0.097,0.527,0.145
	c4.414,1.223,2.517,8.152-1.891,6.857c-7.165-2.105-14.337-4.197-21.553-6.123c-3.643-0.973-7.354-1.82-10.963-2.908
	c-1.823-0.55-3.703-1.031-5.488-1.711c0.111-1.781,0.34-3.537,0.615-5.296c0.237,0.002,0.476,0.025,0.714,0.036
	c-0.635-1.236-0.833-2.714-0.591-4.523c0.021-0.143,0.056-0.298,0.081-0.445h-0.046c-0.349-1.168-0.63-1.747-0.795-2.295
	c-0.195-0.647-0.229-1.253-0.019-2.73c0.503-3.521,0.95-6.911,1.35-10.215c0.135-1.118,0.264-2.225,0.386-3.321
	c0.253-2.268,0.476-4.488,0.672-6.677h-17.2h-4.084h-19.381c0.179,1.991,0.38,4.011,0.605,6.067
	c0.112,1.024,0.229,2.055,0.352,3.098c0.423,3.564,0.906,7.231,1.451,11.048c0.087,0.607,0.131,1.062,0.141,1.439
	c0.009,0.327-0.009,0.595-0.051,0.838c-0.106,0.621-0.365,1.107-0.714,2.15c-0.061,0.184-0.124,0.377-0.189,0.598h-0.039
	c0.002,0.005,0.002,0.01,0.003,0.015c0.35,2.097,0.154,3.772-0.61,5.139c0.937-0.12,1.88-0.209,2.817-0.221
	c0.275,1.759,0.503,3.515,0.615,5.296c-1.785,0.68-3.665,1.161-5.489,1.711c-3.607,1.088-7.319,1.936-10.962,2.908
	c-7.216,1.926-14.388,4.018-21.553,6.123c-4.288,1.26-6.198-5.263-2.234-6.743c-3.99-0.684-6.11-3.006-3.193-8.574
	c0.74-1.666,2.144-3.162,3.888-4.452c-2.237,0.066-4.148-0.499-4.856-2.312c1.561-0.647,2.548-1.38,4.353-1.698
	c-4.172-1.498-11.147,0.105-12.761-4.82c1.976-1.465,4.354-1.698,6.316-1.114c-7.356-3.728-12.972-11.297-15.062-18.93
	c5.478,2.569,10.859,7.762,16.581,10.659c3.522,1.508,7.446,2.949,11.109,4.66c-0.134-1.694-0.215-3.357-0.225-5.086
	c0-0.083,0-0.167,0-0.25c-0.154,0-0.309,0-0.463,0c0.134-0.992,0.269-1.985,0.402-2.977c0.042,0.014,0.082,0.028,0.124,0.042
	c0.001-0.031,0.003-0.062,0.004-0.092c0.064-1.416,0.18-2.914,0.348-4.521h-16.651l3.831-48.34l0.863-10.888l1.429-18.033
	l0.182-0.976c0.121-2.301,0.303-4.619,0.54-6.943c-2.079,2.053-4.11,4.147-5.995,6.434c-4.475,5.427-8.445,11.159-11.705,17.339
	c3.277,4.729,4.732,12.399,4.65,16.291c-0.109,5.213-6.119,6.276-8.883,3.323c-1.959,5.464-5.385,9.568-11.608,8.213
	c-7.064-1.54-9.167-10.261-8.048-16.326c0.64-3.465,2.407-7.672,5.121-10.05c1.006-0.882,2.016-1.837,3.123-2.584
	c4.141-9.899,10.572-19.235,18.107-26.812c5.398-5.427,11.215-10.066,17.898-13.278c0.755-3.829,1.596-7.586,2.479-11.215
	c-11.932-4.573-22.396-10.594-30.822-17.693c-0.893,3.583-3.744,6.896-9.182,9.111c-15.076,5.653-20.102-11.308-22.614-22.614
	c-2.77-12.842-4.02-23.663-2.992-33.601c-19.987-6.165-31.893-13.902-31.893-22.307c0-8.882,13.294-17.021,35.374-23.342
	c-5.162-2.201-10.028-5.57-8.833-9.952c2.513,0.629,4.396,0.629,6.909,1.885c-3.769-5.653-13.819-10.051-11.307-17.589
	c3.769,0,6.91,1.885,8.794,4.397c-5.653-11.307-5.653-25.755-1.256-37.062c4.397,8.166,6.281,19.473,10.679,28.267
	c2.166,3.713,4.634,7.576,6.959,11.518c14.537-29.308,56.056-50.463,105.013-50.463c48.593,0,89.862,20.841,104.688,49.81
	c2.21-3.714,4.525-7.357,6.57-10.864c4.397-8.794,6.282-20.101,10.68-28.267c4.396,11.307,4.396,25.755-1.257,37.062
	c1.885-2.513,5.025-4.397,8.795-4.397c2.513,7.538-7.538,11.936-11.308,17.589c2.513-1.256,4.397-1.256,6.91-1.885
	c1.173,4.301-3.495,7.628-8.551,9.83c22.336,6.34,35.803,14.524,35.803,23.464c0,8.422-11.956,16.178-32.024,22.348
	c0.749,7.298,0.269,15.077-1.138,23.778c5.151-1.692,10.333-2.725,14.312-0.517c7.668,4.529,9.744,16.421,11.463,25.227l0.173,0.057
	c6.596-6.082,15.306-14.44,24.168-13.554c8.254,1.047,13.346,13.21,18.51,19.32c-5.667-0.199-11.052-4.173-15.575-7.865
	C412.083,249.955,417.247,256.066,414.541,258.493z"/>
<path fill="#DA822C" d="M358.615,304.213c-1.306-0.291-2.672-0.542-3.93-0.995c-0.365,0.089-0.733,0.167-1.102,0.249
	c-1.63,0.635-3.205,1.464-4.691,2.575c-3.55,2.653-7.183,6.877-7.446,11.792c-0.202,3.758,0.964,7.209,2.66,10.224
	c2.111,3.755,4.902,6.806,7.656,9.896l10.992-33.556C361.323,304.539,359.907,304.501,358.615,304.213z"/>
<g>
	<path fill="#F2D655" d="M289.026,394.279c-0.053,0.501-0.108,1.005-0.169,1.521c-0.054,0.472-0.112,0.955-0.173,1.445
		c-0.174,1.417-0.369,2.908-0.578,4.522c0.533,0.186,1.066,0.384,1.595,0.602c0.656,0.271,1.304,0.566,1.937,0.884
		c0.318,0.161,0.631,0.327,0.94,0.499c0.362,0.203,0.719,0.412,1.065,0.63c0.309,0.192,0.609,0.393,0.9,0.598
		c3.22,0.609,6.423,0.456,7.389-2.019c-1.561-0.647-2.548-1.38-4.353-1.698c4.173-1.498,11.147,0.105,12.761-4.82
		c-1.976-1.465-4.354-1.698-6.316-1.114c7.356-3.728,12.972-11.297,15.062-18.93c-5.478,2.569-10.859,7.762-16.581,10.659
		c-4.252,1.819-9.088,3.544-13.341,5.762c-0.012,0.119-0.017,0.234-0.028,0.354C289.102,393.539,289.065,393.907,289.026,394.279z"
		/>
</g>
<g>
	<path fill="#F2D655" d="M187.547,403.109c0.46-0.224,0.927-0.436,1.397-0.636c0.517-0.218,1.037-0.422,1.559-0.609
		c0.094-0.034,0.188-0.069,0.283-0.101c-0.497-3.832-0.914-6.99-1.156-10.046c-3.663-1.711-7.587-3.152-11.109-4.66
		c-5.722-2.897-11.104-8.09-16.581-10.659c2.091,7.633,7.706,15.202,15.062,18.93c-1.963-0.584-4.341-0.351-6.316,1.114
		c1.613,4.926,8.589,3.322,12.761,4.82c-1.805,0.318-2.792,1.051-4.353,1.698c0.708,1.813,2.619,2.379,4.856,2.312
		c0.893-0.66,1.869-1.27,2.904-1.813C187.083,403.34,187.313,403.224,187.547,403.109z"/>
</g>
<path fill="#FFEBC2" d="M259.106,385.511c4.019-1.433,8.655-1.444,12.805-1.652c5.838-0.292,11.667-0.438,17.51-0.486
	c-0.064-1.422-0.181-2.924-0.349-4.538h-29.294C259.582,381.022,259.359,383.243,259.106,385.511z"/>
<path fill="#FFEBC2" d="M288.685,397.245c-0.945,1.269-1.888,2.543-2.805,3.837c-0.696,0.983-1.366,1.981-2.02,2.99
	c-1.104,1.707-2.142,3.45-3.041,5.266c2.245-1.71,4.41-3.528,6.635-5.266c0.13-0.102,0.264-0.197,0.394-0.299
	c0.614-0.474,1.228-0.947,1.854-1.404c-0.528-0.218-1.062-0.416-1.595-0.602C288.315,400.153,288.511,398.662,288.685,397.245z"/>
<path fill="#FFEBC2" d="M197.202,386.41c5.455,2.368,10.665,5.209,15.722,8.339c2.044,1.264,4.063,2.574,6.064,3.918
	c0.895,0.601,1.786,1.206,2.674,1.819c-0.01-0.377-0.054-0.832-0.141-1.439c-0.545-3.816-1.028-7.483-1.451-11.048
	c-3.959-1.222-8.566-1.033-12.553-1.262C204.079,386.54,200.642,386.452,197.202,386.41z"/>
<path fill="#FFEBC2" d="M189.473,383.355c6.78,0.03,13.541,0.188,20.313,0.543c3.208,0.168,6.695,0.24,9.933,1.003
	c-0.226-2.057-0.427-4.076-0.605-6.067H189.82C189.652,380.441,189.537,381.939,189.473,383.355z"/>
<path fill="#FFEBC2" d="M190.503,401.864c0.109,0.077,0.218,0.154,0.326,0.232c0.889,0.639,1.761,1.301,2.624,1.976
	c2.222,1.738,4.388,3.556,6.633,5.266c-0.898-1.812-1.923-3.562-3.026-5.266c-0.743-1.147-1.521-2.274-2.316-3.389
	c-1.402-1.963-2.86-3.888-4.289-5.81c-0.596-0.802,0.394-2.046,1.309-1.702c4.537,1.705,9.168,3.106,13.843,4.353
	c3.374,0.899,6.77,1.722,10.176,2.498c-2.091-1.364-4.207-2.684-6.353-3.948c-6.362-3.748-12.99-7.001-20.023-9.442
	c0.01,1.729,0.091,3.392,0.225,5.086c0.242,3.056,0.659,6.214,1.156,10.046C190.691,401.795,190.597,401.83,190.503,401.864z"/>
<path fill="#FFEBC2" d="M189.536,416.553c-0.739-4.22-0.809-9.228-2.682-13.093c-1.035,0.544-2.012,1.153-2.904,1.813
	c-1.744,1.29-3.147,2.786-3.888,4.452c-2.917,5.568-0.797,7.891,3.193,8.574c0.111-0.042,0.224-0.081,0.344-0.114
	C185.577,417.639,187.556,417.094,189.536,416.553z"/>
<path fill="#FFEBC2" d="M189.866,405.043c1.035,3.522,1.331,7.281,1.822,10.924c3.014-0.816,6.029-1.623,9.052-2.409
	C196.869,411.085,193.386,408.023,189.866,405.043z"/>
<path fill="#FFEBC2" d="M201.24,399.181c-2.206-0.695-4.392-1.45-6.549-2.293c0.839,1.159,1.688,2.307,2.529,3.456
	c0.902,1.233,1.794,2.47,2.65,3.729c1.815,2.67,3.468,5.444,4.725,8.494c0.216-0.056,0.433-0.113,0.649-0.168
	c3.669-0.927,7.367-1.736,11.069-2.521c1.21-0.255,2.473-0.488,3.747-0.652c0.765-1.366,0.96-3.042,0.61-5.139
	c-0.022-0.005-0.046-0.01-0.069-0.015C214.098,402.651,207.585,401.178,201.24,399.181z"/>
<path fill="#FFEBC2" d="M267.218,395.222c5.279-3.306,10.723-6.307,16.434-8.788c-3.661,0.055-7.319,0.158-10.983,0.342
	c-4.492,0.225-9.808,0.023-13.947,2.057c-0.399,3.304-0.847,6.693-1.35,10.215c-0.211,1.478-0.177,2.083,0.019,2.73
	c0.596-0.419,1.194-0.836,1.793-1.249C261.828,398.7,264.502,396.922,267.218,395.222z"/>
<path fill="#FFEBC2" d="M265.124,400.022c3.009-0.686,6.012-1.405,8.996-2.182c5.075-1.322,10.1-2.819,15.017-4.667
	c0.012-0.12,0.017-0.235,0.028-0.354c0.168-1.841,0.283-3.625,0.313-5.467c-6.574,2.452-12.798,5.604-18.791,9.186
	C268.812,397.661,266.958,398.825,265.124,400.022z"/>
<path fill="#FFEBC2" d="M275.66,412.398c0.217,0.055,0.433,0.112,0.649,0.168c1.257-3.052,2.915-5.822,4.73-8.494
	c0.804-1.182,1.634-2.346,2.479-3.503c0.895-1.226,1.801-2.447,2.694-3.682c-2.517,0.982-5.071,1.852-7.652,2.638
	c-5.995,1.826-12.131,3.209-18.261,4.547c-0.625,0.137-1.249,0.273-1.874,0.409c-0.096,0.021-0.188,0.031-0.277,0.036
	c-0.242,1.81-0.044,3.287,0.591,4.523c1.981,0.094,3.977,0.44,5.851,0.837C268.293,410.662,271.991,411.472,275.66,412.398z"/>
<path fill="#FFEBC2" d="M291.038,405.043c-3.519,2.98-7.002,6.042-10.873,8.515c3.022,0.786,6.038,1.593,9.052,2.409
	C289.708,412.324,290.004,408.565,291.038,405.043z"/>
<path fill="#FFEBC2" d="M291.369,416.553c1.805,0.493,3.607,0.988,5.409,1.488c3.223-0.926,4.676-3.307,2.053-8.315
	c-0.797-1.792-2.354-3.394-4.287-4.746c-0.291-0.205-0.592-0.405-0.9-0.598C292.163,408.101,292.05,412.661,291.369,416.553z"/>
<path fill="#D7C98A" d="M259.106,385.511c-0.122,1.097-0.251,2.203-0.386,3.321c4.14-2.033,9.455-1.832,13.947-2.057
	c3.664-0.184,7.322-0.287,10.983-0.342c-5.711,2.481-11.154,5.482-16.434,8.788c-2.716,1.7-5.39,3.479-8.035,5.307
	c-0.599,0.413-1.197,0.83-1.793,1.249c0.165,0.548,0.446,1.127,0.795,2.295h0.046c-0.025,0.147-0.061,0.303-0.081,0.445
	c0.09-0.005,0.182-0.016,0.277-0.036c0.625-0.136,1.249-0.272,1.874-0.409c6.13-1.338,12.266-2.721,18.261-4.547
	c2.581-0.786,5.136-1.655,7.652-2.638c-0.894,1.234-1.8,2.456-2.694,3.682c-0.846,1.157-1.676,2.321-2.479,3.503
	c-1.815,2.672-3.474,5.442-4.73,8.494c0.482,0.121,0.965,0.248,1.448,0.371c0.456,0.117,0.912,0.234,1.368,0.353
	c0.347,0.09,0.693,0.178,1.039,0.268c3.871-2.473,7.354-5.534,10.873-8.515c-1.034,3.522-1.33,7.281-1.821,10.924
	c0.718,0.195,1.436,0.39,2.152,0.586c0.681-3.892,0.794-8.452,2.274-12.171c-0.347-0.218-0.703-0.427-1.065-0.63
	c-0.31-0.172-0.622-0.338-0.94-0.499c-0.633-0.317-1.28-0.612-1.937-0.884c-0.626,0.457-1.239,0.931-1.854,1.404
	c-0.13,0.102-0.264,0.197-0.394,0.299c-2.225,1.737-4.39,3.556-6.635,5.266c0.899-1.815,1.937-3.559,3.041-5.266
	c0.653-1.009,1.323-2.007,2.02-2.99c0.917-1.294,1.859-2.568,2.805-3.837c0.061-0.49,0.119-0.974,0.173-1.445
	c0.061-0.516,0.116-1.02,0.169-1.521c0.039-0.372,0.075-0.74,0.11-1.105c-4.917,1.848-9.941,3.345-15.017,4.667
	c-2.984,0.776-5.987,1.496-8.996,2.182c1.834-1.197,3.688-2.361,5.563-3.484c5.993-3.581,12.217-6.733,18.791-9.186
	c0.006-0.32,0.009-0.642,0.009-0.967c0.001-0.736-0.01-1.486-0.036-2.255c-0.008-0.251-0.019-0.505-0.03-0.759
	c-5.843,0.049-11.672,0.194-17.51,0.486C267.762,384.066,263.125,384.078,259.106,385.511z"/>
<path fill="#D7C98A" d="M290.686,418.472c-0.384-0.023-0.771-0.053-1.161-0.089C289.876,418.627,290.341,418.68,290.686,418.472z"/>
<path fill="#F2D655" d="M289.217,415.967c-3.014-0.816-6.029-1.623-9.052-2.409c-0.346-0.09-0.692-0.178-1.039-0.268
	c-0.456-0.118-0.912-0.235-1.368-0.353c-0.483-0.123-0.966-0.25-1.448-0.371c-0.217-0.056-0.433-0.113-0.649-0.168
	c-3.669-0.927-7.367-1.736-11.069-2.521c-1.874-0.396-3.869-0.743-5.851-0.837c-0.238-0.011-0.477-0.034-0.714-0.036
	c-0.275,1.759-0.504,3.515-0.615,5.296c1.785,0.68,3.665,1.161,5.488,1.711c3.608,1.088,7.32,1.936,10.963,2.908
	c7.216,1.926,14.388,4.018,21.553,6.123c4.407,1.295,6.305-5.635,1.891-6.857c-0.176-0.048-0.352-0.096-0.527-0.145
	c-1.802-0.5-3.604-0.995-5.409-1.488C290.652,416.356,289.935,416.162,289.217,415.967z M289.524,418.383
	c0.391,0.036,0.777,0.065,1.161,0.089C290.341,418.68,289.876,418.627,289.524,418.383z"/>
<path fill="#F2D655" d="M205.245,412.398c-0.217,0.055-0.434,0.112-0.649,0.168c-0.483,0.121-0.966,0.248-1.448,0.371
	c-0.456,0.117-0.913,0.234-1.368,0.353c-0.347,0.09-0.693,0.178-1.039,0.268c-3.022,0.786-6.038,1.593-9.052,2.409
	c-0.718,0.195-1.436,0.39-2.152,0.586c-1.98,0.541-3.959,1.086-5.937,1.633c-0.12,0.033-0.232,0.072-0.344,0.114
	c-3.964,1.48-2.054,8.003,2.234,6.743c7.165-2.105,14.337-4.197,21.553-6.123c3.643-0.973,7.354-1.82,10.962-2.908
	c1.824-0.55,3.704-1.031,5.489-1.711c-0.112-1.781-0.34-3.537-0.615-5.296c-0.938,0.012-1.881,0.101-2.817,0.221
	c-1.274,0.164-2.537,0.397-3.747,0.652C212.612,410.662,208.914,411.472,205.245,412.398z"/>
<path fill="#D7C98A" d="M189.473,383.355c-0.001,0.03-0.003,0.061-0.004,0.092c-0.042-0.014-0.082-0.028-0.124-0.042
	c-0.134,0.991-0.269,1.984-0.402,2.977c0.154,0,0.309,0,0.463,0c0,0.083,0,0.167,0,0.25c7.033,2.441,13.661,5.694,20.023,9.442
	c2.146,1.265,4.262,2.584,6.353,3.948c-3.406-0.776-6.802-1.599-10.176-2.498c-4.675-1.246-9.306-2.647-13.843-4.353
	c-0.915-0.344-1.904,0.9-1.309,1.702c1.429,1.922,2.887,3.847,4.289,5.81c0.796,1.114,1.573,2.241,2.316,3.389
	c1.104,1.704,2.128,3.453,3.026,5.266c-2.245-1.71-4.411-3.527-6.633-5.266c-0.863-0.675-1.735-1.337-2.624-1.976
	c-0.108-0.078-0.217-0.155-0.326-0.232c-0.521,0.188-1.042,0.392-1.559,0.609c-0.471,0.2-0.938,0.412-1.397,0.636
	c-0.233,0.114-0.464,0.23-0.692,0.351c1.873,3.865,1.942,8.873,2.682,13.093c0.717-0.196,1.435-0.391,2.152-0.586
	c-0.491-3.643-0.787-7.401-1.822-10.924c3.52,2.98,7.003,6.042,10.874,8.515c0.346-0.09,0.692-0.178,1.039-0.268
	c0.455-0.118,0.912-0.235,1.368-0.353c0.482-0.123,0.965-0.25,1.448-0.371c-1.257-3.05-2.909-5.824-4.725-8.494
	c-0.856-1.259-1.748-2.495-2.65-3.729c-0.841-1.149-1.69-2.297-2.529-3.456c2.157,0.843,4.343,1.598,6.549,2.293
	c6.345,1.997,12.857,3.471,19.362,4.892c0.023,0.005,0.047,0.01,0.069,0.015c-0.001-0.005-0.001-0.01-0.003-0.015h0.039
	c0.065-0.221,0.129-0.414,0.189-0.598c0.349-1.043,0.607-1.529,0.714-2.15c0.042-0.243,0.06-0.511,0.051-0.838
	c-0.888-0.613-1.779-1.219-2.674-1.819c-2.001-1.344-4.021-2.654-6.064-3.918c-5.057-3.13-10.267-5.971-15.722-8.339
	c3.439,0.042,6.877,0.13,10.315,0.327c3.986,0.229,8.594,0.04,12.553,1.262c-0.123-1.043-0.239-2.073-0.352-3.098
	c-3.237-0.763-6.725-0.835-9.933-1.003C203.014,383.544,196.253,383.386,189.473,383.355z"/>
<g>
	<path fill="#F2D655" d="M129.978,151.655c0.812-5.411,2.512-10.647,4.992-15.648c-2.325-3.941-4.793-7.805-6.959-11.518
		c-4.397-8.794-6.281-20.101-10.679-28.267c-4.397,11.307-4.397,25.755,1.256,37.062c-1.884-2.513-5.025-4.397-8.794-4.397
		c-2.513,7.538,7.538,11.936,11.307,17.589c-2.513-1.256-4.396-1.256-6.909-1.885c-1.195,4.382,3.671,7.751,8.833,9.952
		c1.96-0.562,3.989-1.108,6.084-1.641C129.39,152.484,129.681,152.069,129.978,151.655z"/>
</g>
<g>
	<path fill="#F2D655" d="M352.738,153.387c1.287,0.339,2.54,0.685,3.772,1.034c5.056-2.202,9.724-5.529,8.551-9.83
		c-2.513,0.629-4.397,0.629-6.91,1.885c3.77-5.653,13.82-10.051,11.308-17.589c-3.77,0-6.91,1.885-8.795,4.397
		c5.653-11.307,5.653-25.755,1.257-37.062c-4.397,8.166-6.282,19.473-10.68,28.267c-2.045,3.507-4.36,7.15-6.57,10.864
		c2.236,4.371,3.865,8.927,4.834,13.624C350.681,150.421,351.759,151.892,352.738,153.387z"/>
</g>
<path fill="#FFEBC2" d="M222.348,242.867c-0.207-0.536-0.393-1.09-0.552-1.661c-0.419-1.502,0.348-0.904,1.425,0.025
	c0.86,0.744,1.778,1.421,2.734,2.043l13.914,1.568l16.688-1.881c1.277-0.969,2.522-1.985,3.956-2.831
	c0.57-0.336,1.393,0.221,1.16,0.893c-0.169,0.491-0.387,0.969-0.638,1.434l26.313-2.965c2.139,6.772,4.842,15.66,7.236,25.496
	c11.967-4.586,22.457-10.629,30.896-17.756c-1.84-7.578,5.062-16.339,14.852-18.466c-18.912,0-12.938-25.475,1.23-26.942
	c-11.626,0.121-23.996-13.417-14.236-23.096c-8.437,5.821-21.759-4.893-15.89-17.805c-11.936,5.025-32.037,9.423-25.127-11.308
	c-8.61,6.697-24.502,3.194-25.492-4.96l-0.263,0.563c-6.862,6.237-16.508,1.789-20.641-4.655
	c-4.133,6.444-13.778,10.893-20.641,4.655l-0.263-0.563c-0.99,8.154-16.882,11.657-25.492,4.96
	c6.91,20.73-13.191,16.333-25.127,11.308c5.869,12.912-7.453,23.626-15.89,17.805c9.76,9.679-2.61,23.217-14.237,23.096
	c14.17,1.468,20.143,26.942,1.231,26.942c9.816,2.134,16.729,10.937,14.835,18.528c8.427,7.1,18.891,13.12,30.822,17.693
	c2.395-9.836,5.098-18.724,7.236-25.496L222.348,242.867z M284.571,180.927c3.547,0,6.804,1.79,9.378,4.778
	c1.437,0.856,2.459,2.328,2.704,4.055c1.881,3.668,2.994,8.222,2.994,13.153c0,12.143-6.75,21.986-15.076,21.986
	s-15.076-9.844-15.076-21.986S276.245,180.927,284.571,180.927z M242.274,211.499c2.545,0,4.607,3,4.607,6.7
	c0,0.051-0.005,0.1-0.005,0.15c5.131,1.292,8.799,4.669,8.799,8.644c0,5.088-5.999,9.213-13.401,9.213c-7.4,0-13.4-4.125-13.4-9.213
	c0-3.975,3.669-7.352,8.799-8.644c0-0.05-0.006-0.1-0.006-0.15C237.667,214.499,239.731,211.499,242.274,211.499z M200.815,180.927
	c3.546,0,6.804,1.79,9.378,4.778c1.437,0.856,2.458,2.328,2.704,4.055c1.881,3.668,2.994,8.222,2.994,13.153
	c0,12.143-6.749,21.986-15.076,21.986c-8.326,0-15.075-9.844-15.075-21.986S192.489,180.927,200.815,180.927z"/>
<g>
	<path fill="#FFEBC2" d="M297.884,280.597c-0.231-1.315-0.476-2.626-0.729-3.928L297.884,280.597z"/>
</g>
<g>
	<path fill="#FFEBC2" d="M185.417,268.595c0,0,2.255,1.841,6.153,4.377c0.164-0.041,0.323-0.089,0.487-0.129
		c2.811-0.68,5.142,1.469,5.64,3.828c10.424,5.827,26.288,12.404,42.838,10.769h0.001c27.204,2.69,52.557-16.812,54.936-18.697
		c-0.29-1.265-0.586-2.518-0.887-3.754c-2.395-9.836-5.098-18.724-7.236-25.496l-26.313,2.965c-1.63,3.016-4.812,5.48-7.396,7.503
		c-3.33,2.605-7.51,4.302-11.73,4.554c-8.445,0.508-16.512-3.724-19.562-11.646l-29.958-3.375
		c-2.139,6.772-4.842,15.66-7.236,25.496c-0.883,3.629-1.724,7.386-2.479,11.215c0.479-0.23,0.965-0.454,1.454-0.67L185.417,268.595
		z"/>
</g>
<g>
	<path fill="#FFEBC2" d="M180.014,293.654c-0.237,2.324-0.419,4.643-0.54,6.943l1.457-7.845
		C180.624,293.052,180.318,293.353,180.014,293.654z"/>
</g>
<g>
	<path fill="#FFEBC2" d="M242.64,247.496c3.22-0.245,6.293-0.736,9.338-1.845c1.759-0.642,3.188-1.636,4.579-2.689l-16.688,1.881
		l-13.914-1.568C230.767,246.399,236.684,247.95,242.64,247.496z"/>
</g>
<path fill="#FFEBC2" d="M192.058,272.843c-0.164,0.04-0.323,0.088-0.487,0.129c1.735,1.13,3.793,2.395,6.127,3.699
	C197.199,274.312,194.868,272.163,192.058,272.843z"/>
<path fill="#FFEBC2" d="M184.129,275.533c-0.489,0.216-0.975,0.439-1.454,0.67c-6.684,3.212-12.5,7.852-17.898,13.278
	c-7.535,7.577-13.967,16.913-18.107,26.812c-1.107,0.747-2.117,1.702-3.123,2.584c-2.714,2.378-4.481,6.585-5.121,10.05
	c-1.119,6.065,0.983,14.786,8.048,16.326c6.224,1.355,9.649-2.749,11.608-8.213c2.764,2.953,8.773,1.89,8.883-3.323
	c0.082-3.892-1.373-11.562-4.65-16.291c3.26-6.18,7.23-11.912,11.705-17.339c1.885-2.286,3.916-4.381,5.995-6.434
	c0.305-0.302,0.61-0.603,0.917-0.901L184.129,275.533z"/>
<path fill="#FFEBC2" d="M358.615,304.213c1.292,0.288,2.708,0.326,4.14,0.186l0.969-2.956c-3.428,0.289-6.893,0.763-10.14,2.024
	c0.368-0.082,0.736-0.16,1.102-0.249C355.943,303.671,357.31,303.922,358.615,304.213z"/>
<path fill="#FFEBC2" d="M364.688,281.756c0.749-3.975-3.659-8.195-7.93-5.204c-0.442,0.309-0.928,0.691-1.438,1.125
	c0.211,5.462,2.994,10.546,6.315,14.19c1.245,1.367,2.587,2.626,3.965,3.846l4.846-14.794
	C368.632,280.841,366.676,281.168,364.688,281.756z"/>
<path fill="#FFEBC2" d="M362.677,298.013c-2.302-2.1-4.465-4.355-6.194-7.066c-1.905-2.981-3.492-6.589-4.129-10.386
	c-2.436,2.663-4.853,6.062-5.995,9.365c-6.911,1.02-13.882,1.201-20.903,0.795c-5.093-0.293-9.981-1.263-14.994-2.088
	c-4.055-0.666-8.004-1.64-11.711-3.369l2.339,12.592c6.533,3.489,13.705,5.438,21.267,6.588c7.375,1.122,15.124,1.299,22.681,0.452
	c0.796-0.729,1.638-1.409,2.529-2.02C352.301,299.64,357.463,298.572,362.677,298.013z"/>
<path fill="#FFEBC2" d="M376.808,296.33c2.017-2.981,2.916-6.553,1.362-10.058c-0.624-1.407-1.411-2.487-2.321-3.305l-4.679,14.282
	C373.021,297.046,374.925,296.761,376.808,296.33z"/>
<path fill="#FFEBC2" d="M371.881,301.179c0.242-0.162,0.481-0.333,0.72-0.51c-0.37,0.051-0.741,0.101-1.114,0.144
	C371.62,300.933,371.749,301.058,371.881,301.179z"/>
<path fill="#8E5B36" d="M284.571,224.899c8.326,0,15.076-9.844,15.076-21.986c0-4.932-1.113-9.485-2.994-13.153
	c0.037,0.263,0.062,0.527,0.062,0.8c0,3.122-2.531,5.653-5.653,5.653s-5.653-2.531-5.653-5.653s2.531-5.653,5.653-5.653
	c1.057,0,2.042,0.294,2.887,0.799c-2.574-2.988-5.831-4.778-9.378-4.778c-8.326,0-15.076,9.844-15.076,21.986
	S276.245,224.899,284.571,224.899z M295.251,199.773c1.851,0,3.35,1.5,3.35,3.35c0,1.851-1.499,3.351-3.35,3.351
	s-3.351-1.5-3.351-3.351C291.9,201.273,293.4,199.773,295.251,199.773z"/>
<path fill="#FFFFFF" d="M285.409,190.56c0,3.122,2.531,5.653,5.653,5.653s5.653-2.531,5.653-5.653c0-0.272-0.025-0.537-0.062-0.8
	c-0.245-1.727-1.268-3.198-2.704-4.055c-0.845-0.505-1.83-0.799-2.887-0.799C287.94,184.906,285.409,187.438,285.409,190.56z"/>
<circle fill="#8E5B36" cx="295.251" cy="203.124" r="3.35"/>
<circle opacity="0.5" fill="#FFFFFF" cx="295.251" cy="203.124" r="3.35"/>
<path fill="#8E5B36" d="M200.815,224.899c8.327,0,15.076-9.844,15.076-21.986c0-4.932-1.113-9.485-2.994-13.153
	c0.037,0.263,0.062,0.527,0.062,0.8c0,3.122-2.531,5.653-5.653,5.653s-5.653-2.531-5.653-5.653s2.531-5.653,5.653-5.653
	c1.056,0,2.041,0.294,2.887,0.799c-2.574-2.988-5.832-4.778-9.378-4.778c-8.326,0-15.075,9.844-15.075,21.986
	S192.489,224.899,200.815,224.899z M211.495,199.773c1.851,0,3.35,1.5,3.35,3.35c0,1.851-1.499,3.351-3.35,3.351
	s-3.351-1.5-3.351-3.351C208.145,201.273,209.645,199.773,211.495,199.773z"/>
<path fill="#FFFFFF" d="M201.653,190.56c0,3.122,2.531,5.653,5.653,5.653s5.653-2.531,5.653-5.653c0-0.272-0.025-0.537-0.062-0.8
	c-0.246-1.727-1.268-3.198-2.704-4.055c-0.846-0.505-1.831-0.799-2.887-0.799C204.185,184.906,201.653,187.438,201.653,190.56z"/>
<circle fill="#8E5B36" cx="211.495" cy="203.124" r="3.35"/>
<circle opacity="0.5" fill="#FFFFFF" cx="211.495" cy="203.124" r="3.35"/>
<path fill="#F37D6B" d="M260.513,240.131c-1.434,0.846-2.679,1.862-3.956,2.831c-1.391,1.054-2.82,2.048-4.579,2.689
	c-3.045,1.108-6.118,1.6-9.338,1.845c-5.956,0.454-11.873-1.097-16.685-4.222c-0.956-0.622-1.874-1.299-2.734-2.043
	c-1.077-0.93-1.844-1.527-1.425-0.025c0.159,0.571,0.345,1.125,0.552,1.661c3.05,7.923,11.116,12.154,19.562,11.646
	c4.221-0.252,8.4-1.948,11.73-4.554c2.583-2.022,5.766-4.487,7.396-7.503c0.251-0.465,0.469-0.942,0.638-1.434
	C261.905,240.352,261.083,239.795,260.513,240.131z"/>
<path fill="#F8B3AD" d="M237.667,218.199c0,0.051,0.006,0.101,0.006,0.15c-5.13,1.292-8.799,4.669-8.799,8.644
	c0,5.088,6,9.213,13.4,9.213c7.402,0,13.401-4.125,13.401-9.213c0-3.975-3.668-7.352-8.799-8.644c0-0.051,0.005-0.1,0.005-0.15
	c0-3.7-2.062-6.7-4.607-6.7C239.731,211.499,237.667,214.499,237.667,218.199z"/>
<g>
	<path fill="#E4B46A" d="M139.496,228.767c18.911,0,12.938-25.475-1.231-26.942c11.627,0.121,23.997-13.417,14.237-23.096
		c8.437,5.821,21.759-4.893,15.89-17.805c11.936,5.025,32.037,9.423,25.127-11.308c8.61,6.697,24.502,3.194,25.492-4.96l0.263,0.563
		c6.862,6.237,16.508,1.789,20.641-4.655c4.133,6.444,13.778,10.893,20.641,4.655l0.263-0.563c0.99,8.154,16.882,11.657,25.492,4.96
		c-6.91,20.73,13.191,16.333,25.127,11.308c-5.869,12.912,7.453,23.626,15.89,17.805c-9.76,9.679,2.61,23.217,14.236,23.096
		c-14.169,1.468-20.143,26.942-1.23,26.942c-9.789,2.127-16.691,10.888-14.852,18.466c0.876,3.605,3.729,6.945,9.198,9.174
		c12.534,4.7,18.117-6.229,21.09-16.546c-0.155-0.219-0.27-0.458-0.326-0.727c-0.226-1.077,0.333-1.999,1.268-2.837
		c0.209-0.856,0.403-1.696,0.583-2.505c0.198-0.919,0.386-1.823,0.568-2.722c-3.905-0.178-7.742-0.901-10.752-2.951
		c3.525-0.849,7.772-2.706,12.042-4.108c1.406-8.701,1.887-16.48,1.138-23.778c-1.037-10.104-4.433-19.293-10.993-28.754
		c-0.151-0.045-0.303-0.087-0.454-0.135c-3.936-1.256-7.23-3.536-10.347-6.108c-4.192-7.161-12.411-14.06-23.913-19.841
		c-19.565-9.835-45.781-15.251-73.817-15.251c-28.035,0-54.249,5.416-73.816,15.251c-9.814,4.934-17.23,10.681-21.803,16.71
		c-4.866,2.979-9.592,6.204-14.475,9.17c-6.646,9.519-10.078,18.756-11.128,28.917c-1.027,9.938,0.223,20.759,2.992,33.601
		c2.513,11.307,7.538,28.268,22.614,22.614c5.438-2.216,8.289-5.528,9.182-9.111C156.225,239.703,149.312,230.9,139.496,228.767z"/>
</g>
<path fill="#F8C036" d="M145.146,162.104c4.572-6.029,11.988-11.776,21.803-16.71c19.567-9.835,45.781-15.251,73.816-15.251
	c28.036,0,54.252,5.416,73.817,15.251c11.502,5.781,19.721,12.68,23.913,19.841c3.116,2.572,6.411,4.853,10.347,6.108
	c0.151,0.048,0.303,0.09,0.454,0.135c6.561,9.461,9.956,18.65,10.993,28.754c20.068-6.17,32.024-13.926,32.024-22.348
	c0-8.939-13.467-17.124-35.803-23.464c-1.232-0.35-2.485-0.695-3.772-1.034c-0.979-1.495-2.058-2.966-3.233-4.409
	c-0.969-4.697-2.598-9.253-4.834-13.624c-14.826-28.969-56.096-49.81-104.688-49.81c-48.957,0-90.476,21.155-105.013,50.463
	c-2.48,5.001-4.18,10.237-4.992,15.648c-0.297,0.414-0.588,0.829-0.869,1.247c-2.095,0.532-4.124,1.079-6.084,1.641
	c-22.08,6.321-35.374,14.46-35.374,23.342c0,8.404,11.905,16.142,31.893,22.307c1.05-10.161,4.482-19.398,11.128-28.917
	C135.554,168.309,140.279,165.084,145.146,162.104z M333.534,128.688c1.781,2.069,3.49,4.22,5.044,6.468
	c0.049,0.07,0.099,0.143,0.148,0.213c-2.507,0.961-5.037,1.869-7.518,2.888c-1.332-1.813-2.741-3.566-4.254-5.234
	c-1.028-1.134-2.089-2.245-3.177-3.332c0.063-0.037,0.127-0.074,0.189-0.111c2.093-1.265,4.35-2.63,6.575-4.137
	C331.573,126.493,332.573,127.572,333.534,128.688z M253.227,91.691c5.541,1.363,11.239,2.137,16.813,3.42
	c8.649,1.991,17.052,4.092,25.271,7.549c9.493,3.992,18.646,8.831,26.754,15.224c0.291,0.23,0.578,0.466,0.868,0.698
	c-2.218,1.443-4.509,2.785-6.767,4.109c-0.078,0.046-0.157,0.091-0.235,0.137c-7.836-5.918-16.257-10.857-25.188-14.938
	c-7.611-3.477-15.397-6.899-23.311-9.624c-4.885-1.682-9.796-3.214-14.626-5.052C251.869,92.858,252.22,91.443,253.227,91.691z"/>
<path fill="#FFFFFF" d="M252.807,93.215c4.83,1.838,9.741,3.37,14.626,5.052c7.913,2.725,15.699,6.147,23.311,9.624
	c8.932,4.08,17.353,9.02,25.188,14.938c0.078-0.046,0.157-0.091,0.235-0.137c2.258-1.324,4.549-2.666,6.767-4.109
	c-0.29-0.232-0.577-0.468-0.868-0.698c-8.107-6.393-17.261-11.231-26.754-15.224c-8.22-3.457-16.622-5.558-25.271-7.549
	c-5.574-1.283-11.272-2.057-16.813-3.42C252.22,91.443,251.869,92.858,252.807,93.215z"/>
<path fill="#FFFFFF" d="M323.968,129.578c-0.062,0.037-0.126,0.074-0.189,0.111c1.088,1.087,2.148,2.198,3.177,3.332
	c1.513,1.668,2.922,3.421,4.254,5.234c2.48-1.019,5.011-1.927,7.518-2.888c-0.05-0.07-0.1-0.143-0.148-0.213
	c-1.554-2.248-3.263-4.398-5.044-6.468c-0.961-1.115-1.961-2.194-2.991-3.246C328.317,126.948,326.061,128.313,323.968,129.578z"/>
<path fill="#F8C036" d="M297.884,280.597l-0.729-3.928l-1.499-8.074c0,0-0.063,0.052-0.184,0.147
	c-2.379,1.885-27.731,21.388-54.936,18.697h-0.001c-16.55,1.636-32.414-4.941-42.838-10.769c-2.334-1.305-4.392-2.569-6.127-3.699
	c-3.898-2.536-6.153-4.377-6.153-4.377l-1.288,6.938l-3.198,17.22l-1.457,7.845l-0.182,0.976l-1.429,18.033
	c13.524-2.364,35.501-3.901,60.317-3.901c28.009,0,52.399,1.958,65.104,4.853l-1.505-18.984l-0.69-3.718l-2.339-12.592
	L297.884,280.597z"/>
<path fill="#F8C036" d="M238.181,334.551c-25.353,0-47.74-1.605-61.181-4.057l-3.831,48.34h16.651h29.293h19.381h4.084h17.2h29.294
	h18.831l-3.908-49.303C291.506,332.517,266.722,334.551,238.181,334.551z"/>
<path fill="#F2D655" d="M238.181,315.705c-24.816,0-46.793,1.537-60.317,3.901L177,330.494c13.44,2.451,35.828,4.057,61.181,4.057
	c28.541,0,53.325-2.034,65.814-5.02l-0.711-8.974C290.58,317.663,266.189,315.705,238.181,315.705z"/>
<path fill="#F2D655" d="M352.656,344.011c-1.091,0.284-2.157,0.591-3.184,0.934l-6.974,21.289c0.677,0.823,1.388,1.625,2.117,2.416
	c1.092-0.248,2.27-0.546,3.464-0.911l6.803-20.771C354.198,345.947,353.446,344.968,352.656,344.011z"/>
<path fill="#F2D655" d="M366.387,301.241c-0.883,0.062-1.771,0.125-2.663,0.201l-0.969,2.956l-10.992,33.556
	c0.679,0.762,1.356,1.526,2.019,2.304c1.183-0.273,2.369-0.525,3.553-0.772l11.762-35.901
	C368.205,302.792,367.298,302.016,366.387,301.241z"/>
<path fill="#F2D655" d="M379.907,252.041l-9.461,28.878l-4.846,14.794c0.708,0.626,1.425,1.243,2.146,1.856
	c1.104-0.088,2.254-0.188,3.424-0.319l4.679-14.282l9.893-30.199c-0.528-0.717-0.974-1.469-1.317-2.224
	C383.112,251.278,381.536,251.81,379.907,252.041z"/>
<path fill="#F2D655" d="M333.415,408.254c0.498-0.074,0.997-0.189,1.499-0.324l10.689-32.633c-0.814-0.892-1.643-1.77-2.467-2.651
	c-0.959,0.176-1.933,0.343-2.909,0.521L329.3,406.528c0.163,0.179,0.316,0.367,0.488,0.538c0.716,0.711-0.414,2.163-1.186,1.59
	l-1.498,4.573l5.484,1.797l1.594-4.866c-0.234,0.029-0.468,0.062-0.701,0.08C332.469,410.314,332.4,408.407,333.415,408.254z"/>
<path fill="#F2D655" d="M385.099,248.777l-0.173-0.057c0.013,0.062,0.023,0.121,0.036,0.183
	C385.008,248.861,385.053,248.82,385.099,248.777z"/>
<path fill="#F8C036" d="M367.746,297.569c-0.721-0.613-1.438-1.23-2.146-1.856c-1.378-1.22-2.72-2.479-3.965-3.846
	c-3.321-3.645-6.104-8.729-6.315-14.19c-0.075-1.933,0.165-3.909,0.826-5.888c2.477-7.414,10.621-10.975,16.485-13.731
	c1.456-0.685,0.699-3.252-0.772-2.771c-6.935,2.257-14.518,6.645-18.131,14.216c-1.721,3.605-1.985,7.419-1.375,11.059
	c0.637,3.797,2.224,7.404,4.129,10.386c1.729,2.711,3.893,4.967,6.194,7.066c-5.214,0.56-10.376,1.627-15.111,4.863
	c-0.892,0.61-1.733,1.29-2.529,2.02c-4.34,3.978-7.115,9.618-6.788,15.818c0.479,9.067,6.528,14.583,11.931,20.473
	c-3.784,1.102-7.453,2.656-10.784,5.366c-4.937,4.016-5.504,10.242-3.431,15.723c1.057,2.792,2.627,5.109,4.396,7.246
	c-5.316,1.064-10.29,2.356-14.15,7.375c-7.171,9.329-5.309,25.185,2.351,31.731c0.014,0.013,0.028,0.019,0.043,0.028
	c0.771,0.573,1.901-0.879,1.186-1.59c-0.172-0.171-0.325-0.359-0.488-0.538c-5.556-6.057-6.499-16.57-2.639-24.822
	c2.876-6.15,8.229-7.562,13.566-8.539c0.977-0.179,1.95-0.346,2.909-0.521c0.824,0.882,1.652,1.76,2.467,2.651
	c1.083,1.187,2.136,2.399,3.094,3.701c7.659,10.398-3.195,26.098-13.783,28.932c-0.502,0.135-1.001,0.25-1.499,0.324
	c-1.015,0.153-0.946,2.061,0.066,1.986c0.233-0.018,0.467-0.051,0.701-0.08c12.001-1.484,24.056-18.011,18.595-30.806
	c-1.249-2.927-3.223-5.347-5.335-7.663c5.203-1.405,10.947-4.029,13.345-9.464c2.613-5.922-0.053-11.88-2.887-16.46
	c-0.556-0.897-1.152-1.754-1.771-2.586c10.148-2.268,21.427-4.011,25.174-16.172c2.258-7.328-0.532-15.183-4.438-20.447
	c-1.483-2-3.191-3.739-4.984-5.384c-0.132-0.121-0.261-0.246-0.395-0.366c0.373-0.043,0.744-0.093,1.114-0.144
	c6.242-0.863,12.176-2.879,17.388-7.643c9.924-9.07,5.416-23.532-0.687-32.027c-0.902-1.256-3.031,0.364-2.263,1.778
	c4.037,7.421,8.834,16.875,2.776,25.603c-3.212,4.629-8.031,6.812-13.008,7.95c-1.883,0.431-3.787,0.716-5.638,0.92
	C370,297.381,368.851,297.481,367.746,297.569z M358.626,356.821c0.637,6.179-5.111,9.251-10.546,10.917
	c-1.194,0.365-2.372,0.663-3.464,0.911c-0.729-0.791-1.44-1.593-2.117-2.416c-0.632-0.771-1.237-1.562-1.784-2.389
	c-2.014-3.046-3.624-7.07-2.136-11.066c1.26-3.379,5.06-5.321,7.812-6.618c0.975-0.458,2.009-0.855,3.081-1.216
	c1.026-0.343,2.093-0.649,3.184-0.934c0.79,0.957,1.542,1.937,2.227,2.957C356.81,349.83,358.233,353.003,358.626,356.821z
	 M377.225,328.708c-3.647,7.199-12.83,9.296-19.19,10.63c-0.232,0.049-0.467,0.098-0.7,0.147c-1.184,0.247-2.37,0.499-3.553,0.772
	c-0.662-0.777-1.34-1.542-2.019-2.304c-2.754-3.091-5.545-6.142-7.656-9.896c-1.696-3.015-2.862-6.466-2.66-10.224
	c0.264-4.915,3.896-9.139,7.446-11.792c1.486-1.111,3.062-1.94,4.691-2.575c3.247-1.262,6.712-1.735,10.14-2.024
	c0.892-0.076,1.78-0.14,2.663-0.201c0.911,0.774,1.818,1.551,2.709,2.343c0.858,0.762,1.7,1.538,2.51,2.347
	C376.835,311.153,381.466,320.334,377.225,328.708z"/>
<path fill="#F8C036" d="M427.776,254.544c-5.164-6.11-10.256-18.273-18.51-19.32c-8.862-0.887-17.572,7.472-24.168,13.554
	c-0.046,0.043-0.091,0.084-0.137,0.126c-0.013-0.062-0.023-0.121-0.036-0.183c-1.719-8.806-3.795-20.697-11.463-25.227
	c-3.979-2.208-9.16-1.176-14.312,0.517c-4.27,1.402-8.517,3.26-12.042,4.108c3.01,2.05,6.847,2.773,10.752,2.951
	c2.176,0.1,4.371,0.031,6.457-0.076c-1.285,1.89-5.454,3.373-7.608,5.303c-0.935,0.838-1.493,1.76-1.268,2.837
	c0.057,0.269,0.171,0.508,0.326,0.727c1.888,2.654,10.554,1.606,13.001,0.877c-11.628,7.791,1.164,8.114,6.562,7.673
	c-0.328,0.999-0.654,1.995-1.413,2.852c1.779,0.882,3.923,1.071,5.988,0.779c1.629-0.231,3.205-0.763,4.517-1.496
	c0.344,0.755,0.789,1.507,1.317,2.224c1.643,2.229,4.08,4.107,6.728,4.569c-0.104-1.138,0.223-2.136,0.549-3.133
	c4.092,3.549,14.595,10.856,9.83-2.305c1.667,2.204,8.988,9.021,11.693,6.593c2.706-2.427-2.458-8.538-2.34-11.814
	C416.725,250.371,422.109,254.345,427.776,254.544z"/>
<g>
</g>
<g>
</g>
<g>
</g>
<g>
</g>
<g>
</g>
<g>
</g>
</svg>
