<?xml version="1.0" encoding="utf-8"?>
<!-- Generator: Adobe Illustrator 16.0.4, SVG Export Plug-In . SVG Version: 6.00 Build 0)  -->
<!DOCTYPE svg PUBLIC "-//W3C//DTD SVG 1.1//EN" "http://www.w3.org/Graphics/SVG/1.1/DTD/svg11.dtd">
<svg version="1.1" id="Apollo" xmlns="http://www.w3.org/2000/svg" xmlns:xlink="http://www.w3.org/1999/xlink" x="0px" y="0px"
	 width="490px" height="490px" viewBox="0 0 490 490" enable-background="new 0 0 490 490" xml:space="preserve">
<path fill="#8DC7DE" d="M251.952,434.753c-1.682,1.941-1.989,4.39,0.956,6.27c0.518,0.331,0.08,1.154-0.461,0.843
	c-1.955-1.125-3.49-3.004-2.955-5.383c0.23-1.021,0.748-2.013,1.416-2.904c-1.011-1.129-2.034-2.246-3.072-3.351
	c-1.255,3.343-2.613,6.69-2.615,10.303c-0.002,3.418,1.711,6.796,4.815,8.437c2.737,1.446,5.814,0.95,8.309-0.781
	c1.039-0.723,1.966-1.612,2.733-2.623c-1.038-1.256-2.08-2.503-3.11-3.748C255.998,439.435,253.998,437.073,251.952,434.753z"/>
<path fill="#8DC7DE" d="M245.924,415.41c-0.866-1.273-2.627-3.494-4.382-3.472c-1.912,0.025-2.214,2.684-1.911,4.131
	c0.715,3.409,3.134,6.248,5.456,8.725c0.585,0.625,1.173,1.246,1.763,1.865C248.168,422.864,248.302,418.903,245.924,415.41z"/>
<path fill="#8DC7DE" d="M178.886,415.852c-0.02,0.696-0.059,1.39-0.118,2.086c5.053,0.688,10.183,0.999,15.216,1.572
	c3.881,0.443,7.759,0.923,11.636,1.403c0.128,0.016,0.26,0.03,0.391,0.044c0.07-0.391,0.147-0.779,0.23-1.167
	c-3.631-0.54-7.255-1.111-10.864-1.6C189.873,417.445,184.379,416.655,178.886,415.852z"/>
<path fill="#8DC7DE" d="M87.838,233.485c1.205-5.421-4.936-9.705-10.721-10.613c-0.001,0.014-0.002,0.027-0.003,0.041
	c-0.546,7.262-1.238,14.514-2.062,21.749c1.637-0.484,3.205-1.192,4.638-2.139C82.881,240.418,86.947,237.488,87.838,233.485z"/>
<path fill="#8DC7DE" d="M368.783,345.818c-6.662,2.664-13.343,5.271-20.03,7.864c0.419,0.794,0.817,1.599,1.193,2.419
	c6.118-2.44,12.086-5.355,18.111-7.913c4.646-1.972,9.311-3.899,13.977-5.826c0.154-0.063,0.312-0.132,0.467-0.198
	c-0.168-0.484-0.329-0.972-0.482-1.46C377.593,342.407,373.152,344.07,368.783,345.818z"/>
<path fill="#8DC7DE" d="M253.271,433.534c0.005,0.007,0.012,0.014,0.018,0.02c3.015,3.391,5.962,6.844,8.844,10.349
	c0.492-0.942,0.855-1.953,1.053-3.004c0.439-2.341,0.89-5.431-0.516-7.564C260.764,430.445,256.185,431.338,253.271,433.534z"/>
<path fill="#8DC7DE" d="M89.816,194.169c0.502-2.42,1.097-6.928-0.888-8.927c-2.162-2.178-5.565,0.441-6.896,2.407
	c-3.134,4.63-3.707,10.585-3.972,16.029c-0.067,1.372-0.126,2.744-0.184,4.115C83.727,205.077,88.442,200.811,89.816,194.169z"/>
<path fill="#8DC7DE" d="M332.989,84.36c2.737,1.446,5.814,0.951,8.309-0.781c1.039-0.723,1.966-1.613,2.733-2.623
	c-1.038-1.255-2.08-2.503-3.11-3.748c-1.97-2.379-3.97-4.741-6.016-7.062c-1.682,1.942-1.989,4.39,0.956,6.27
	c0.518,0.331,0.08,1.154-0.461,0.844c-1.955-1.126-3.49-3.005-2.955-5.383c0.231-1.021,0.748-2.013,1.416-2.904
	c-1.011-1.131-2.034-2.247-3.072-3.351c-1.255,3.343-2.613,6.69-2.615,10.302C328.172,79.342,329.885,82.72,332.989,84.36z"/>
<path fill="#8DC7DE" d="M345.085,79.296c0.492-0.942,0.855-1.952,1.053-3.004c0.439-2.341,0.89-5.431-0.516-7.564
	c-1.905-2.889-6.484-1.996-9.398,0.201c0.006,0.006,0.012,0.012,0.018,0.019C339.256,72.339,342.203,75.791,345.085,79.296z"/>
<path fill="#8DC7DE" d="M364.257,215.14c-1.929,6.43-15.432,10.931-18.646,1.929c-3.215,11.572-6.43,18.646-20.575,14.145
	c-2.244-0.641-4.055-1.446-5.541-2.387c-7.256,5.06-15.616,9.437-24.834,12.969c0.375,1.54,0.741,3.103,1.099,4.685
	c1.314,0.156,2.557,0.643,3.51,1.712c0.938,1.052,1.645,2.271,2.201,3.56c1.26,1.935,1.717,4.1,1.769,6.468
	c0.045,2.104-1.818,3.966-3.922,3.922c-0.192-0.005-0.376-0.028-0.562-0.042c0.169,1.097,0.328,2.196,0.479,3.297
	c3.004,0.57,6.065,0.781,9.16,0.811c5.2,0.051,10.296,0.265,15.493-0.235c7.03-0.675,13.923-1.92,20.631-3.962
	c-4.062-3.293-8.249-7.952-7.775-13.421c0.61-7.032,6.263-11.888,12.635-13.996c3.237-1.071,6.596-1.696,9.873-2.627
	c0.409-0.117,0.822-0.239,1.234-0.369c1.63-0.515,3.24-1.166,4.586-2.187c0.595-0.451,1.14-0.972,1.609-1.588
	c2.144-2.812,2.178-7.235,1.541-10.532c-0.595-3.076-2.251-6.923-4.599-9.668C364.563,210.046,364.877,212.658,364.257,215.14z"/>
<path fill="#8DC7DE" d="M328.877,50.803c-0.866-1.271-2.627-3.492-4.382-3.47c-1.912,0.024-2.214,2.683-1.91,4.13
	c0.714,3.409,3.133,6.247,5.455,8.725c0.585,0.625,1.173,1.246,1.763,1.866C331.122,58.258,331.255,54.297,328.877,50.803z"/>
<path fill="#8DC7DE" d="M172.184,45.412c0.128,0.016,0.26,0.03,0.391,0.045c0.07-0.391,0.148-0.78,0.23-1.168
	c-3.63-0.539-7.254-1.111-10.863-1.6c-5.504-0.744-10.997-1.535-16.49-2.337c-0.021,0.694-0.059,1.389-0.118,2.084
	c5.052,0.688,10.183,0.999,15.216,1.574C164.43,44.453,168.307,44.932,172.184,45.412z"/>
<path fill="#8DC7DE" d="M72.812,237.53c0.546-4.927,1.037-9.87,1.428-14.819c-4.116,0.229-7.282,2.605-6.162,8.101
	c0.196,0.966-1.242,1.381-1.486,0.41c-0.886-3.511-0.431-7.378,2.909-9.416c1.435-0.873,3.154-1.385,4.93-1.608
	c0.174-2.427,0.32-4.854,0.434-7.282c-5.255,2.282-10.633,4.453-14.8,8.482c-3.942,3.812-5.926,9.558-4.353,14.971
	c1.387,4.77,5.394,7.765,10.175,8.707c1.993,0.393,4.054,0.468,6.074,0.225C72.25,242.702,72.526,240.107,72.812,237.53z"/>
<path fill="#8DC7DE" d="M387.285,247.021c-0.958-0.538-1.918-1.075-2.876-1.613l-0.003,0.004l-1.126-0.635
	c-1.872,3.509-3.839,6.969-5.802,10.429c2.03,5.822-2.297,12.446-6.957,15.654c-0.213,0.146-0.434,0.291-0.66,0.434l-0.014,0.024
	c0.896,0.566,1.79,1.141,2.679,1.717c0.419-0.72,0.839-1.439,1.248-2.162c1.961-3.453,3.919-6.909,5.88-10.362
	C382.203,256.024,384.884,251.591,387.285,247.021z"/>
<path fill="#8DC7DE" d="M393.684,250.582c-1.271-0.698-2.541-1.4-3.806-2.108c-0.384-0.216-0.769-0.431-1.153-0.646
	c-2.517,4.203-4.795,8.557-7.174,12.84c-1.928,3.47-3.861,6.938-5.792,10.406c-0.55,0.988-1.087,1.99-1.629,2.991
	c1.079,0.688,2.162,1.355,3.253,1.974c0.465,0.263,0.938,0.528,1.416,0.793c2.524-4.763,5.25-9.438,7.908-14.102
	C389.021,258.672,391.342,254.621,393.684,250.582z"/>
<path fill="#8DC7DE" d="M376.514,253.22C376.514,253.22,376.514,253.221,376.514,253.22c1.732-3.108,3.47-6.216,5.279-9.278
	l-1.127-0.632l0.003-0.005c-0.958-0.54-1.916-1.079-2.874-1.618c-1.624,2.708-3.148,5.479-4.662,8.254
	C374.38,250.625,375.525,251.68,376.514,253.22z"/>
<path fill="#8DC7DE" d="M371.638,249.307c1.613-2.789,3.221-5.582,4.719-8.43c-0.384-0.216-0.769-0.433-1.149-0.648
	c-1.266-0.713-2.524-1.432-3.781-2.155c-2.098,3.854-4.217,7.696-6.341,11.536C367.375,248.895,369.61,248.693,371.638,249.307z"/>
<path fill="#8DC7DE" d="M353.333,246.737c3.852-3.694,8.972-0.114,8.835,4.023c0.228-0.106,0.457-0.206,0.686-0.306
	c0.297-0.52,0.596-1.039,0.892-1.558c2.181-3.827,4.371-7.647,6.58-11.456c-1.315-0.759-2.63-1.519-3.944-2.279
	c-0.093,0.052-0.185,0.103-0.279,0.152c-5.913,3.062-13.178,2.838-18.826,6.366c-2.215,1.385-4.238,3.834-4.744,6.071
	c-0.445,1.968,0.008,3.908,1.266,5.896c0.766,1.208,1.671,2.319,2.671,3.356C348.327,252.743,351.252,248.732,353.333,246.737z"/>
<path fill="#8DC7DE" d="M245,5.859C121.447,5.859,21.287,112.927,21.287,245c0,132.074,100.16,239.141,223.713,239.141
	S468.713,377.074,468.713,245C468.713,112.927,368.553,5.859,245,5.859z M448.513,300.736c3.432,0,3.432,5.32,0,5.32
	C445.082,306.057,445.082,300.736,448.513,300.736z M380.837,182.467c0.304-3.96,4.117-6.736,7.487-8.219
	c2.666-1.172,5.445-1.709,8.367-1.718c1.172-0.004,2.32,0.091,3.461,0.219c0.881-0.144,1.763-0.196,2.637-0.128
	c0.366,0.027,0.721,0.094,1.064,0.181c-0.127-2.534-0.011-5.135-0.049-7.501c-0.07-4.447-0.103-8.894-0.122-13.342
	c-0.019-4.445-0.038-8.892-0.056-13.338c-0.019-4.413,0.051-8.474,1.211-12.755c0.166-0.612,0.656-0.953,1.185-1.026
	c0.01-0.044,0.017-0.085,0.026-0.13c0.177-0.788,1.25-0.53,1.318,0.18c0.018,0.18,0.048,0.356,0.072,0.534
	c0.088,0.128,0.159,0.275,0.204,0.442c0.254,0.934,0.447,1.857,0.606,2.777c1.401,3.764,4.173,7.019,7.051,9.729
	c3.416,3.215,8.137,6.461,10.072,10.884c1.914,4.374,2.109,9.038-0.894,13.012c-2.636,3.49-7.64,4.519-11.602,2.86
	c-0.813-0.342-0.53-1.521,0.37-1.344c2.639,0.521,5.388,0.571,7.512-1.353c1.55-1.401,2.802-3.052,3.224-5.145
	c1.003-4.988-2.203-8.371-5.552-11.563c-3.263-3.107-6.81-5.961-9.585-9.537c0.009,0.803,0.013,1.61,0.009,2.434
	c-0.018,4.446-0.037,8.893-0.057,13.338c-0.019,4.448-0.051,8.895-0.121,13.342c-0.059,3.68,0.252,7.923-0.555,11.607
	c0.241,0.917,0.259,1.921-0.022,2.961c-0.967,3.569-4.467,5.496-7.721,6.632c-3.308,1.155-7.109,1.991-10.633,1.842
	C386.475,188.203,380.493,186.958,380.837,182.467z M320.815,49.593c0.272-2.835,2.553-4.965,5.386-3.704
	c3.155,1.403,5.521,4.565,6.32,7.89c0.849,3.531,0.062,6.792-1.064,10.013c1.209,1.271,2.414,2.544,3.597,3.841
	c0.443-0.424,0.909-0.804,1.379-1.127c4.255-2.923,10.88-3.067,12.524,2.859c1.149,4.143,0.362,8.72-1.918,12.323
	c1.615,1.999,3.215,4.011,4.779,6.051c0.918,1.197,1.72,2.462,2.167,3.918c1.354,4.412-0.065,10.737-5.304,11.708
	c-6.063,1.124-12.969-6.303-8.425-11.707c0.501-0.595,1.628-0.798,2.282-0.349c0.399,0.274,0.783,0.58,1.191,0.844
	c0.506,0.06,0.979,0.363,1.274,1.001c0.005,0.012,0.011,0.024,0.017,0.036c0.803,1.737-0.795,3.604-2.628,2.714
	c-0.218-0.106-0.442-0.234-0.665-0.377c-1.151,1.946,1.459,4.252,3.291,5.211c1.65,0.865,3.522,1.111,5.094-0.068
	c3.276-2.463,2.926-7.723,0.809-10.788c-1.567-2.27-3.27-4.47-5.018-6.634c-0.67,0.808-1.427,1.545-2.265,2.188
	c-5.248,4.023-12.363,3.039-15.928-2.729c-3.622-5.863-0.923-12.911,1.395-18.828C325.261,59.994,320.272,55.252,320.815,49.593z
	 M230.694,19.266c4.175,1.497,7.544,3.764,11.153,6.303c3.637,2.558,7.273,5.116,10.909,7.676c3.638,2.561,7.267,5.13,10.874,7.732
	c2.985,2.152,6.643,4.323,9.204,7.094c0.89,0.326,1.724,0.887,2.415,1.713c2.375,2.833,1.953,6.807,1.023,10.126
	c-0.943,3.373-2.434,6.969-4.573,9.773c-1.985,2.606-6.428,6.801-9.915,3.947c-3.074-2.514-3.171-7.229-2.459-10.841
	c0.564-2.857,1.713-5.444,3.377-7.847c0.667-0.963,1.402-1.85,2.16-2.714c0.386-0.804,0.848-1.558,1.401-2.235
	c0.233-0.284,0.49-0.538,0.759-0.77c-2.151-1.348-4.217-2.929-6.18-4.251c-3.688-2.486-7.354-5.004-11.014-7.531
	c-3.658-2.528-7.315-5.056-10.973-7.585c-3.63-2.51-6.921-4.888-9.769-8.289C228.164,20.463,229.338,18.779,230.694,19.266z
	 M119.116,76.957c0.621-3.009,3.82-4.768,6.554-5.574c2.161-0.639,4.348-0.779,6.592-0.5c0.9,0.112,1.771,0.297,2.636,0.508
	c0.689-0.023,1.372,0.021,2.035,0.159c0.279,0.058,0.545,0.144,0.8,0.243c0.152-1.958,0.496-3.942,0.698-5.763
	c0.382-3.421,0.793-6.838,1.214-10.254c0.422-3.415,0.843-6.831,1.265-10.246c0.084-0.676,0.171-1.338,0.262-1.995
	c0.083-0.577,0.169-1.152,0.267-1.719c0.115-0.67,0.252-1.332,0.404-1.992c0.148-0.639,0.318-1.275,0.515-1.911
	c1.025,0.112,2.051,0.224,3.076,0.336c5.613,0.613,11.223,1.238,16.831,1.911c3.752,0.45,7.541,0.818,11.326,1.226
	c0.964,0.103,1.926,0.21,2.888,0.319c0.073,1.053,0.078,2.087,0.032,3.118c-0.015,0.332-0.035,0.667-0.059,1
	c-0.064,0.884-0.153,1.77-0.262,2.669c-0.06,0.502-0.123,1.006-0.191,1.518c-0.449,3.412-0.899,6.823-1.35,10.234
	c-0.451,3.412-0.911,6.823-1.401,10.23c-0.406,2.819-0.582,6.107-1.563,8.856c0.096,0.729,0.012,1.501-0.308,2.271
	c-1.091,2.646-3.968,3.781-6.577,4.335c-2.652,0.562-5.651,0.832-8.343,0.371c-2.501-0.428-6.97-1.97-6.265-5.385
	c0.622-3.01,3.82-4.769,6.553-5.574c2.162-0.639,4.349-0.779,6.593-0.5c0.899,0.111,1.771,0.298,2.636,0.507
	c0.689-0.023,1.372,0.023,2.035,0.16c0.279,0.058,0.544,0.143,0.801,0.243c0.151-1.958,0.494-3.942,0.697-5.763
	c0.382-3.421,0.794-6.837,1.215-10.255c0.42-3.415,0.842-6.829,1.264-10.245c0.068-0.561,0.141-1.112,0.216-1.658
	c-0.341-0.055-0.677-0.106-1.005-0.15c-3.872-0.509-7.741-1.024-11.608-1.57c-4.782-0.676-9.583-1.606-14.404-2.19
	c-0.077,0.696-0.165,1.399-0.26,2.114c-0.45,3.412-0.899,6.823-1.35,10.235c-0.452,3.412-0.911,6.822-1.401,10.231
	c-0.406,2.819-0.582,6.106-1.563,8.855c0.095,0.728,0.011,1.501-0.308,2.271c-1.091,2.646-3.967,3.781-6.577,4.335
	c-2.651,0.563-5.651,0.831-8.344,0.371C122.882,81.914,118.411,80.372,119.116,76.957z M67.732,113.525
	c-0.215-0.59,0.594-0.871,0.937-0.437c0.087,0.11,0.18,0.213,0.271,0.319c0.11,0.047,0.219,0.111,0.318,0.203
	c0.558,0.503,1.071,1.025,1.562,1.559c2.493,1.871,5.669,2.835,8.684,3.397c3.58,0.667,8.024,0.808,11.145,2.885
	c3.083,2.052,5.167,5.018,4.873,8.872c-0.258,3.385-3.095,6.154-6.378,6.733c-0.674,0.118-0.984-0.772-0.321-1.033
	c1.941-0.767,3.758-1.887,4.339-4.033c0.425-1.565,0.55-3.168-0.054-4.713c-1.437-3.678-4.949-4.543-8.475-5.222
	c-3.434-0.662-6.947-1.039-10.26-2.21c0.343,0.521,0.684,1.046,1.027,1.586c1.853,2.911,3.704,5.823,5.557,8.734
	c1.853,2.913,3.696,5.831,5.517,8.765c1.505,2.428,3.487,5.067,4.505,7.812c0.542,0.498,0.976,1.146,1.229,1.943
	c0.865,2.735-0.613,5.462-2.262,7.57c-1.676,2.142-3.808,4.28-6.172,5.66c-2.196,1.281-6.624,2.977-8.284-0.101
	c-1.462-2.713-0.136-6.126,1.444-8.507c1.249-1.884,2.839-3.399,4.743-4.632c0.764-0.493,1.554-0.913,2.352-1.309
	c0.516-0.462,1.069-0.866,1.668-1.188c0.252-0.136,0.512-0.241,0.771-0.329c-1.146-1.602-2.16-3.349-3.178-4.878
	c-1.91-2.874-3.796-5.766-5.674-8.661c-1.878-2.896-3.755-5.792-5.631-8.688c-1.863-2.875-3.521-5.557-4.559-8.838
	c-0.148-0.47,0.028-0.897,0.343-1.168C67.759,113.588,67.744,113.558,67.732,113.525z M55.41,252.892
	c1.242-0.087,2.735,0.987,2.947,2.244c0.129,0.765,0.206,1.55,0.356,2.314c0.496,0.65,0.674,1.534,0.268,2.586
	c-0.008,0.021-0.016,0.04-0.023,0.061c-1.105,2.865-5.042,3.105-6.06,0c-0.121-0.371-0.225-0.773-0.31-1.188
	c-3.529,0.843-3.273,6.428-2.335,9.612c0.844,2.866,2.65,5.303,5.765,5.797c6.495,1.029,12.172-5.247,13.344-11.11
	c0.866-4.339,1.504-8.758,2.047-13.189c-1.679,0.128-3.373,0.079-5.047-0.171c-10.499-1.56-17.307-10.864-14.633-21.413
	c2.719-10.721,13.858-15.475,23.269-19.407c0.185-8.769,0.086-19.813,7.216-25.505c3.573-2.851,8.576-2.599,10.284,2.075
	c1.902,5.206,0.897,11.465-2.043,16.095c-3.125,4.922-7.764,7.653-12.735,9.95c-0.116,2.812-0.24,5.622-0.415,8.435
	c0.983,0.037,1.943,0.15,2.839,0.332c8.119,1.645,15.683,9.121,10.683,17.634c-3.493,5.948-9.651,10.15-16.352,11.543
	c-0.502,4.094-1.036,8.185-1.643,12.265c-0.356,2.396-0.92,4.731-2.1,6.872c-3.575,6.487-12.454,11.91-19.42,6.954
	C43.247,269.937,44.104,253.685,55.41,252.892z M77.912,338.909c-0.178,0.932-0.593,1.846-1.295,2.663
	c-2.405,2.808-6.395,3.042-9.822,2.669c-3.481-0.379-7.272-1.26-10.391-2.911c-2.895-1.532-7.761-5.228-5.517-9.135
	c1.976-3.444,6.612-4.312,10.292-4.201c2.91,0.089,5.65,0.798,8.293,2.046c1.06,0.5,2.055,1.08,3.031,1.687
	c0.855,0.249,1.676,0.581,2.434,1.017c0.32,0.184,0.61,0.396,0.885,0.622c0.977-2.343,2.197-4.64,3.182-6.793
	c1.848-4.045,3.73-8.073,5.625-12.099c1.894-4.022,3.789-8.044,5.685-12.066c1.882-3.992,3.688-7.628,6.576-10.994
	c0.939-1.093,2.792-0.211,2.534,1.207c-0.792,4.363-2.477,8.059-4.391,12.035c-1.928,4.006-3.855,8.013-5.784,12.019
	c-1.931,4.008-3.87,8.009-5.847,11.994C81.767,331.965,80.225,335.929,77.912,338.909z M133.043,382.1
	c-3.792,2.178-8.799,1.162-11.794-1.916c-0.614-0.633,0.108-1.607,0.868-1.091c2.223,1.514,4.732,2.637,7.44,1.7
	c1.974-0.683,3.772-1.711,4.981-3.472c2.877-4.196,1.254-8.565-0.577-12.813c-1.783-4.137-3.929-8.153-5.081-12.53
	c-0.306,0.742-0.619,1.486-0.945,2.242c-1.759,4.084-3.519,8.167-5.279,12.25c-1.76,4.085-3.532,8.162-5.339,12.227
	c-1.496,3.363-2.872,7.388-5.059,10.462c-0.137,0.938-0.515,1.869-1.181,2.716c-2.288,2.904-6.263,3.305-9.703,3.076
	c-3.496-0.233-7.319-0.954-10.503-2.474c-2.956-1.409-7.973-4.898-5.896-8.897c1.831-3.523,6.428-4.584,10.108-4.626
	c2.912-0.033,5.68,0.561,8.372,1.697c1.079,0.456,2.099,0.993,3.099,1.558c0.865,0.214,1.698,0.511,2.476,0.915
	c0.326,0.169,0.627,0.369,0.909,0.584c0.876-2.382,2.001-4.729,2.894-6.92c1.678-4.12,3.391-8.223,5.116-12.322
	c1.725-4.099,3.449-8.196,5.175-12.294c1.713-4.067,3.367-7.776,6.112-11.26c0.392-0.498,0.977-0.62,1.492-0.481
	c0.026-0.035,0.049-0.071,0.075-0.107c0.472-0.657,1.357,0.001,1.143,0.681c-0.055,0.173-0.097,0.347-0.144,0.521
	c0.03,0.151,0.039,0.314,0.015,0.486c-0.132,0.959-0.316,1.885-0.529,2.793c-0.187,4.013,1.088,8.093,2.673,11.714
	c1.884,4.297,4.955,9.134,5.003,13.961C139.012,375.251,137.363,379.619,133.043,382.1z M209.945,420.323
	c-0.016,0.334-0.035,0.668-0.06,1.001c-0.063,0.884-0.153,1.771-0.262,2.669c-0.06,0.501-0.123,1.006-0.191,1.517
	c-0.449,3.412-0.899,6.823-1.349,10.235c-0.452,3.412-0.912,6.823-1.402,10.23c-0.405,2.819-0.582,6.106-1.562,8.857
	c0.096,0.727,0.011,1.499-0.308,2.271c-1.092,2.645-3.968,3.781-6.577,4.335c-2.653,0.562-5.652,0.831-8.344,0.37
	c-2.5-0.427-6.97-1.969-6.264-5.384c0.621-3.01,3.82-4.769,6.552-5.575c2.162-0.639,4.349-0.779,6.593-0.5
	c0.899,0.112,1.771,0.298,2.636,0.508c0.689-0.023,1.373,0.022,2.036,0.159c0.278,0.058,0.544,0.144,0.8,0.244
	c0.151-1.958,0.495-3.943,0.698-5.764c0.382-3.421,0.793-6.837,1.214-10.254c0.421-3.415,0.843-6.83,1.264-10.246
	c0.069-0.561,0.141-1.111,0.216-1.658c-0.34-0.054-0.677-0.106-1.004-0.149c-3.873-0.509-7.742-1.024-11.609-1.57
	c-4.782-0.676-9.583-1.607-14.403-2.191c-0.078,0.698-0.166,1.399-0.261,2.115c-0.449,3.411-0.899,6.823-1.35,10.235
	c-0.451,3.412-0.911,6.822-1.4,10.229c-0.407,2.819-0.583,6.107-1.563,8.857c0.095,0.728,0.01,1.5-0.309,2.271
	c-1.091,2.646-3.967,3.781-6.577,4.335c-2.651,0.563-5.651,0.832-8.344,0.371c-2.498-0.427-6.969-1.97-6.263-5.384
	c0.621-3.011,3.82-4.769,6.553-5.574c2.161-0.639,4.349-0.779,6.592-0.5c0.9,0.111,1.771,0.297,2.637,0.507
	c0.688-0.023,1.372,0.022,2.035,0.16c0.278,0.058,0.544,0.143,0.8,0.242c0.151-1.957,0.495-3.941,0.698-5.762
	c0.382-3.422,0.792-6.838,1.214-10.255c0.421-3.415,0.842-6.831,1.264-10.246c0.084-0.676,0.171-1.338,0.263-1.994
	c0.082-0.578,0.168-1.153,0.266-1.719c0.116-0.671,0.252-1.333,0.405-1.993c0.147-0.639,0.317-1.275,0.515-1.91
	c1.024,0.111,2.05,0.224,3.075,0.336c5.613,0.612,11.224,1.237,16.832,1.91c3.752,0.45,7.54,0.818,11.326,1.226
	c0.963,0.104,1.926,0.21,2.887,0.32C209.985,418.258,209.99,419.293,209.945,420.323z M265.729,467.971
	c-6.063,1.124-12.969-6.303-8.425-11.708c0.501-0.594,1.628-0.797,2.282-0.348c0.399,0.273,0.783,0.58,1.191,0.844
	c0.506,0.06,0.979,0.363,1.274,1c0.005,0.013,0.011,0.025,0.017,0.037c0.803,1.737-0.795,3.604-2.628,2.713
	c-0.218-0.106-0.442-0.234-0.665-0.375c-1.152,1.945,1.459,4.251,3.291,5.21c1.65,0.864,3.522,1.111,5.094-0.068
	c3.275-2.462,2.926-7.724,0.809-10.789c-1.567-2.269-3.27-4.469-5.018-6.633c-0.671,0.807-1.427,1.545-2.265,2.187
	c-5.248,4.024-12.363,3.041-15.928-2.729c-3.622-5.863-0.923-12.912,1.394-18.828c-3.845-3.884-8.833-8.625-8.29-14.284
	c0.272-2.836,2.553-4.966,5.386-3.704c3.155,1.403,5.521,4.565,6.32,7.889c0.849,3.532,0.062,6.793-1.064,10.014
	c1.209,1.271,2.413,2.545,3.597,3.841c0.443-0.424,0.909-0.804,1.379-1.127c4.255-2.922,10.88-3.067,12.524,2.859
	c1.149,4.142,0.362,8.72-1.918,12.322c1.615,1.999,3.215,4.011,4.779,6.051c0.918,1.198,1.72,2.464,2.167,3.919
	C272.387,460.675,270.967,467,265.729,467.971z M399.518,392.633c-2.625,2.32-5.827,4.531-9.146,5.727
	c-3.083,1.109-9.091,2.221-10.471-2.069c-1.216-3.78,1.263-7.792,3.821-10.438c2.024-2.094,4.395-3.643,7.096-4.757
	c1.083-0.446,2.181-0.793,3.287-1.107c0.76-0.464,1.558-0.848,2.39-1.115c0.351-0.112,0.704-0.185,1.056-0.235
	c-1.075-2.299-1.952-4.748-2.883-6.924c-1.748-4.091-3.459-8.194-5.16-12.305c-1.7-4.108-3.399-8.217-5.099-12.326
	c-0.277-0.675-0.549-1.339-0.812-2.002c-0.417,0.155-0.828,0.312-1.224,0.471c-4.679,1.893-9.358,3.774-14.055,5.62
	c-5.808,2.284-11.8,4.292-17.591,6.703c0.355,0.833,0.703,1.68,1.053,2.544c1.666,4.122,3.33,8.245,4.995,12.368
	c1.664,4.125,3.317,8.252,4.934,12.396c1.339,3.428,3.231,7.237,3.879,10.954c0.569,0.758,0.967,1.681,1.099,2.75
	c0.457,3.669-2.055,6.775-4.638,9.06c-2.624,2.32-5.827,4.531-9.146,5.727c-3.082,1.109-9.09,2.221-10.47-2.069
	c-1.217-3.78,1.262-7.793,3.821-10.438c2.024-2.094,4.395-3.643,7.095-4.757c1.083-0.446,2.182-0.793,3.288-1.107
	c0.76-0.464,1.557-0.848,2.391-1.115c0.35-0.112,0.703-0.185,1.054-0.235c-1.075-2.299-1.951-4.748-2.881-6.924
	c-1.749-4.091-3.46-8.194-5.161-12.305c-1.7-4.108-3.4-8.217-5.099-12.326c-0.336-0.813-0.659-1.612-0.974-2.41
	c-0.276-0.702-0.545-1.402-0.795-2.102c-0.297-0.828-0.564-1.659-0.812-2.498c-0.24-0.812-0.454-1.637-0.637-2.477
	c1.223-0.527,2.447-1.053,3.672-1.579c6.701-2.883,13.409-5.75,20.144-8.562c4.506-1.882,9-3.88,13.518-5.83
	c1.147-0.497,2.298-0.989,3.449-1.478c0.751,1.138,1.415,2.297,2.021,3.485c0.195,0.384,0.385,0.772,0.57,1.163
	c0.49,1.033,0.953,2.088,1.403,3.168c0.252,0.602,0.501,1.209,0.75,1.827c1.666,4.122,3.331,8.245,4.995,12.368
	c1.664,4.125,3.317,8.253,4.935,12.396c1.338,3.428,3.231,7.238,3.879,10.954c0.569,0.758,0.967,1.681,1.099,2.75
	C404.611,387.242,402.1,390.35,399.518,392.633z M404.906,256.56c0.104,0.42,0.213,0.836,0.327,1.246
	c0.908,3.284,2.12,6.477,2.89,9.8c1.512,6.538,0.303,13.893-5.387,18.069c-4.921,3.612-11.987,1.783-17.115-0.27
	c-6.437-2.578-15.488-7.648-21.284-11.353c-0.092-0.06-0.179-0.112-0.271-0.17c-1.526,0.421-3.074,0.641-4.524,0.544
	c-1.366-0.09-2.788-0.13-4.131-0.391c-10.161,4.169-21.574,6.271-32.512,6.301c-7.809,0.021-15.354-0.823-22.494-3.317
	c0.288,4.676,0.33,9.287,0.053,13.737c0.826,7.803,1.43,15.645,1.43,23.401c0,20.839,2.752,40.026,2.648,60.109
	c-2.925-0.81-5.914-1.025-9.003-0.771c-1.315,0.107-2.646,0.291-4.002,0.565c-0.557,0.112-1.112,0.245-1.669,0.386
	c-0.317,0.079-0.635,0.165-0.952,0.252c-0.238,2.174-0.542,4.481-0.88,7.095c4.684,1.633,9.356,4.51,10.976,8.15
	c7.073,13.503-14.788,8.358-22.504,6.43c-14.199-2.366-20.375-4.392-19.062-12.217h-0.038c-0.778-2.602-1.233-2.346-0.833-5.144
	c0.191-1.341,0.375-2.663,0.553-3.972c-5.195,1.104-10.397,3.619-15.326,2.288c-2.854-0.771-5.616-1.91-8.425-2.822
	c-3.312-1.075-6.977-1.301-10.435-1.149l-0.078,0.003c-1.246,0.057-2.482,0.184-3.713,0.346c0.231,1.743,0.472,3.505,0.729,5.307
	c0.4,2.798-0.055,2.542-0.832,5.144h-0.039c1.313,7.825-4.862,9.851-19.062,12.217c-7.715,1.929-29.576,7.073-22.504-6.43
	c1.619-3.641,6.292-6.518,10.976-8.15c-0.433-3.346-0.809-6.191-1.063-8.896c-0.388,0.03-0.78,0.078-1.178,0.147
	c-0.349,0.062-0.696,0.141-1.045,0.212c-2.355,0.48-4.705,1.16-6.985,1.869c-1.18,0.366-2.091,0.771-2.919,1.037
	c0.05-13.829,1.055-49.729,2.109-80.211c-0.98-7.809-0.816-16.274,0.056-24.815c-2.129,2.101-4.206,4.244-6.137,6.585
	c-4.58,5.555-8.645,11.422-11.98,17.747c3.354,4.842,4.844,12.691,4.76,16.675c-0.111,5.336-6.264,6.425-9.093,3.402
	c-2.005,5.592-5.511,9.794-11.882,8.406c-7.231-1.576-9.383-10.502-8.237-16.71c0.654-3.547,2.464-7.854,5.241-10.287
	c1.03-0.902,2.063-1.88,3.197-2.646c4.238-10.133,10.821-19.688,18.534-27.443c3.561-3.58,7.301-6.822,11.338-9.558
	c-0.903-3.948,1.257-7.202,4.668-9.457c0.174-0.115,0.35-0.207,0.526-0.286c0.729-0.461,1.532-0.835,2.378-1.151
	c0.303-0.114,0.605-0.167,0.903-0.177c0.34-1.498,0.688-2.98,1.044-4.442c-9.4-3.603-17.911-8.083-25.266-13.27
	c-1.566,1.072-3.524,1.979-6.008,2.688c-14.146,4.501-17.36-2.572-20.575-14.146c-3.215,9.002-16.717,4.501-18.646-1.929
	c-1.586-6.344,2.914-13.553,8.495-16.274c-0.127-0.378-0.252-0.755-0.373-1.132c-15.142-1.303-16.822-15.822-3.494-20.675
	c0.01-0.862,0.045-1.727,0.1-2.593c-16.251-6.669-13.503-21.119,5.815-21.058c0.067-0.14,0.137-0.278,0.205-0.418
	c-6.386-3.563-7.942-12.618-2.389-16.938c3.852-2.75,10.52-2.206,15.187-1.589c0.1-0.108,0.201-0.215,0.301-0.323
	c-0.352-0.461-0.692-0.931-1.021-1.408c-6.201-5.706-3.776-15.205,4.18-19.184c5.343-2.672,13.349-0.458,19.224,2.58
	c0.46-0.276,0.922-0.551,1.387-0.821c-8.879-14.766,13.111-16.77,23.531-10.256c0.075-0.022,0.149-0.044,0.224-0.066
	c-0.458-17.758,19.121-15.977,27.413-4.341c0.29-0.024,0.582-0.047,0.875-0.07c0.273-12.012,9.41-10.397,15.786-3.831
	c1.943-3.277,5.192-5.699,10.635-5.699c7.684,0,8.564,4.679,7.511,9.615c5.92-9.477,18.533-14.229,18.854-0.085
	c0.292,0.023,0.585,0.046,0.874,0.07c8.293-11.636,27.873-13.417,27.414,4.341c0.073,0.021,0.147,0.044,0.222,0.066
	c10.421-6.514,32.411-4.509,23.533,10.256c0.465,0.271,0.927,0.545,1.387,0.821c5.874-3.038,13.88-5.252,19.223-2.58
	c5.306,2.652,8.15,7.761,7.622,12.562c0.193,0.089,0.331,0.283,0.234,0.519c-0.211,0.51-0.438,1.013-0.674,1.51
	c-0.384,1.183-0.994,2.319-1.847,3.367c-0.613,0.979-1.277,1.926-1.985,2.84c0.036,0.039,0.074,0.079,0.11,0.118
	c4.666-0.617,11.335-1.161,15.188,1.589c5.553,4.32,3.996,13.374-2.391,16.938c0.068,0.14,0.138,0.278,0.206,0.418
	c19.318-0.062,22.066,14.389,5.815,21.058c0.055,0.866,0.089,1.73,0.099,2.592c13.329,4.854,11.648,19.374-3.493,20.676
	c-0.122,0.377-0.246,0.755-0.373,1.132c2.122,1.034,4.085,2.717,5.62,4.756c3.505,1.429,6.377,3.396,8.487,6.616
	c2.051,3.131,3.749,6.937,3.759,10.748c0.011,4.204-0.977,8.169-3.502,11.15c0.832,0.454,1.662,0.909,2.492,1.363
	c0.331,0.183,0.66,0.366,0.99,0.548c1.523,0.838,3.047,1.675,4.564,2.525c0.087,0.05,0.173,0.098,0.26,0.146
	c0.612,0.344,1.227,0.688,1.838,1.031c0.893,0.5,1.784,1,2.677,1.499c0.425,0.235,0.847,0.474,1.271,0.712
	c0.199,0.112,0.4,0.226,0.599,0.339c0.201,0.111,0.401,0.225,0.602,0.336c0.424,0.237,0.848,0.475,1.271,0.713
	c0.89,0.506,1.78,1.008,2.671,1.509c0.611,0.346,1.224,0.689,1.836,1.035c0.087,0.049,0.172,0.097,0.26,0.146
	c1.515,0.853,3.022,1.719,4.531,2.586c0.326,0.188,0.655,0.372,0.981,0.56c0.82,0.473,1.641,0.946,2.462,1.42
	c1.233-3.706,4.106-6.612,7.703-8.789c3.261-1.974,7.394-2.501,11.135-2.378c3.872,0.129,7.061,1.573,10.121,3.849
	c0.805,0.599,0.138,1.928-0.786,1.399c-3.938-2.248-10.402-1.696-14.502-0.172c-3.146,1.17-6.907,3.5-8.193,6.792
	c-0.282,0.723-0.444,1.458-0.52,2.2C404.217,253.186,404.498,254.899,404.906,256.56z M440.82,315.147
	c-1.664,5.015-4.333,9.763-8.266,13.328c-1.884,1.708-3.996,3.271-6.402,4.167c-2.438,0.908-5.404,2.055-8.04,1.839
	c-0.251-0.021-0.288-0.338-0.057-0.428c1.37-0.531,2.841-0.705,4.166-1.377c1.104-0.561,2.092-1.258,3.143-1.904
	c1.817-1.119,3.223-2.394,4.601-4.019c2.521-2.972,4.885-6.508,6.248-10.174c2.238-6.02,2.575-15.381-4.405-18.538
	c-3.319-1.502-10.315-2.392-12.291,1.623c1.087-0.702,2.241-1.002,3.756-0.492c1.532,0.516,2.893,1.754,2.86,3.487
	c-0.054,2.903-3.151,5.302-5.793,5.882c-3.779,0.83-6.895-1.392-7.129-5.333c-0.589-9.938,9.406-14.258,17.906-11.901
	C441.52,294.192,443.885,305.911,440.82,315.147z M448.513,318.646c-1.43,0-2.622-1.192-2.622-2.621c0-1.43,1.192-2.622,2.622-2.622
	c1.429,0,2.621,1.192,2.621,2.622C451.134,317.453,449.941,318.646,448.513,318.646z"/>
<path fill="#8DC7DE" d="M398.793,253.378c-1.332-0.729-2.666-1.456-3.997-2.186c-2.105,3.868-4.229,7.726-6.364,11.579
	c-2.728,4.925-5.422,9.922-8.313,14.779c4.544,2.44,9.53,4.643,14.629,4.729c2.352,0.04,4.245-0.581,5.692-1.984
	c1.648-1.596,2.689-4.599,2.72-7.209c0.077-6.66-3.891-12.748-4.351-19.393C398.801,253.588,398.799,253.483,398.793,253.378z"/>
<path fill="#F4C851" d="M139.873,212.099c2.252-2.569,1.932-6.674-2-9.819c18.646-0.643,11.573-17.36,1.929-25.076
	c18.646,6.43,14.146-14.789,5.787-23.147c1.484,1.048,3.123,1.785,4.83,2.243c-3.853-3.626-7.452-9.512-3.927-12.746
	c-4.046-2.494-7.646-5.683-10.492-9.413c-0.1,0.108-0.201,0.215-0.301,0.323c-4.667-0.617-11.335-1.161-15.187,1.589
	c-5.554,4.32-3.997,13.375,2.389,16.938c-0.068,0.14-0.138,0.278-0.205,0.418c-19.318-0.062-22.066,14.389-5.815,21.058
	c-0.055,0.866-0.09,1.73-0.1,2.593c-13.328,4.853-11.647,19.372,3.494,20.675c0.121,0.377,0.246,0.754,0.373,1.132
	c-5.581,2.722-10.081,9.931-8.495,16.274c1.93,6.43,15.432,10.931,18.646,1.929c3.215,11.573,6.43,18.646,20.575,14.146
	c2.483-0.71,4.441-1.616,6.008-2.688C150.441,223.629,144.53,218.105,139.873,212.099z"/>
<path fill="#F4C851" d="M132.498,126.272c1.949,3.565,4.477,6.719,7.413,9.433l0.021-0.005c4.088-3.746,10.897-1.702,15.326,0.341
	c-4.133,3.646-7.576,4.159-11.684,2.673c5.138,3.737,11.152,6.316,17.405,7.584c2.562-2.278,6.062-2.747,9.68-2.443
	c0.02-1.822-0.376-3.791-1.281-5.874c10.288,8.359,27.005,4.501,23.147-10.931c11.573,10.288,30.22,10.931,25.076-8.358h0.643
	c5.405,8.879,15.211,7.79,19.96,2.72c4.75,5.07,14.556,6.159,19.96-2.72h0.644c-5.145,19.289,13.502,18.646,25.076,8.358
	c-3.858,15.432,12.859,19.29,23.147,10.931c-0.911,2.095-1.306,4.074-1.28,5.905c3.742-0.364,7.385,0.061,10.03,2.412
	c6.252-1.268,12.267-3.847,17.404-7.584c-4.106,1.486-7.55,0.974-11.683-2.673c4.428-2.043,11.238-4.087,15.325-0.341l0.022,0.005
	c2.936-2.714,5.464-5.867,7.413-9.433c0.127-0.232,0.4-0.258,0.608-0.163c0.528-4.801-2.316-9.909-7.622-12.562
	c-5.343-2.672-13.349-0.458-19.223,2.58c-0.46-0.276-0.922-0.551-1.387-0.821c8.878-14.765-13.112-16.77-23.533-10.256
	c-0.074-0.022-0.148-0.045-0.222-0.066c0.459-17.758-19.121-15.977-27.414-4.341c-0.289-0.024-0.582-0.047-0.874-0.07
	c-0.321-14.144-12.935-9.392-18.854,0.085c1.054-4.937,0.173-9.615-7.511-9.615c-5.442,0-8.691,2.422-10.635,5.699
	c-6.376-6.566-15.513-8.181-15.786,3.831c-0.293,0.023-0.585,0.046-0.875,0.07c-8.292-11.636-27.871-13.417-27.413,4.341
	c-0.074,0.022-0.148,0.044-0.224,0.066c-10.42-6.514-32.41-4.51-23.531,10.256c-0.465,0.271-0.927,0.545-1.387,0.821
	c-5.875-3.038-13.881-5.252-19.224-2.58c-7.956,3.979-10.381,13.478-4.18,19.184c-1.314-1.912-2.437-3.952-3.324-6.104
	C131.454,126.139,132.252,125.823,132.498,126.272z"/>
<path fill="#F4C851" d="M344.434,128.138c-0.55,1.158-1.168,2.282-1.847,3.367C343.439,130.457,344.05,129.32,344.434,128.138z"/>
<path fill="#FFEBC2" d="M185.097,248.909c0.724,2.082,0.979,4.55,0.241,6.686c14.14,6.017,36.95,4.553,50.966,4.553
	c18.93,0.573,35.306-3.457,53.226-7.072c-0.096-0.835-0.108-1.694-0.011-2.572c0.185-1.665,1.073-3.539,2.944-3.868
	c1.067-0.188,2.207-0.285,3.296-0.155c-0.357-1.582-0.724-3.145-1.099-4.685c9.218-3.532,17.578-7.909,24.834-12.969
	c6.93-4.831,12.853-10.282,17.544-16.215c-2.784-2.507-2.704-6.969,1.5-10.332c-18.646-0.643-11.574-17.36-1.929-25.076
	c-18.646,6.43-14.146-14.789-5.787-23.147c-1.339,0.944-2.803,1.638-4.329,2.102c-1.525,1.462-3.104,2.58-4.308,3.042
	c-0.075-0.824-0.139-1.596-0.188-2.328c-4.011,0.103-8.039-1.139-11.082-3.405c-5.479,0.72-13.184-3.951-15.975-7.208
	c3.074-0.809,6.995-2,10.812-2.372c-0.025-1.831,0.369-3.811,1.28-5.905c-10.288,8.359-27.006,4.501-23.147-10.931
	c-11.574,10.288-30.221,10.931-25.076-8.358h-0.644c-5.404,8.879-15.21,7.79-19.96,2.72c-4.749,5.07-14.555,6.159-19.96-2.72h-0.643
	c5.144,19.289-13.503,18.646-25.076,8.358c3.857,15.432-12.859,19.29-23.147,10.931c0.905,2.083,1.301,4.052,1.281,5.874
	c3.926,0.33,7.993,1.57,11.161,2.403c-2.841,3.314-10.777,8.099-16.269,7.165c-2.962,2.227-6.868,3.479-10.788,3.455
	c-0.049,0.731-0.113,1.5-0.188,2.321c-1.163-0.447-2.679-1.508-4.157-2.9c-1.707-0.458-3.346-1.195-4.83-2.243
	c8.358,8.358,12.859,29.577-5.787,23.147c9.645,7.716,16.718,24.434-1.929,25.076c3.932,3.146,4.252,7.25,2,9.819
	c4.657,6.007,10.568,11.53,17.51,16.427c7.354,5.187,15.865,9.667,25.266,13.27c-0.355,1.462-0.704,2.944-1.044,4.442
	C183.179,246.186,184.597,247.474,185.097,248.909z M281.196,153.625c3.629,0,6.964,1.832,9.599,4.89
	c1.471,0.876,2.517,2.383,2.768,4.149c1.926,3.754,3.066,8.416,3.066,13.466c0,12.427-6.91,22.503-15.433,22.503
	s-15.432-10.076-15.432-22.503C265.765,163.699,272.674,153.625,281.196,153.625z M233.191,191.929l-0.005-0.154
	c0-3.788,2.112-6.858,4.716-6.858c2.604,0,4.715,3.07,4.715,6.858l-0.005,0.154c5.252,1.322,9.007,4.778,9.007,8.848
	c0,5.208-6.141,9.43-13.717,9.43c-7.575,0-13.717-4.222-13.717-9.43C224.186,196.707,227.941,193.251,233.191,191.929z
	 M218.399,215.351c5.311,4.585,12.567,6.969,19.877,6.412c3.295-0.251,6.44-0.754,9.558-1.89c3.454-1.259,5.67-3.844,8.736-5.649
	c0.584-0.344,1.425,0.227,1.188,0.913c-1.299,3.768-5.172,6.759-8.223,9.146c-3.408,2.668-7.688,4.403-12.008,4.662
	c-9.229,0.556-18.018-4.419-20.586-13.621C216.513,213.787,217.297,214.398,218.399,215.351z M180.034,176.13
	c0-12.431,6.909-22.505,15.432-22.505c3.629,0,6.963,1.83,9.597,4.889c1.473,0.876,2.52,2.385,2.771,4.152
	c1.925,3.755,3.063,8.415,3.063,13.464c0,12.427-6.908,22.503-15.431,22.503S180.034,188.557,180.034,176.13z"/>
<path fill="#FFEBC2" d="M208.482,375.389c-2.034,0.244-4.082,0.372-6.163,0.252l-0.014-0.001c-4.022-0.234-7.597-1.977-11.422-2.579
	c-1.149-0.181-2.321-0.26-3.534-0.163c0.255,2.705,0.631,5.551,1.063,8.896c-4.684,1.633-9.356,4.51-10.976,8.15
	c-7.072,13.503,14.789,8.358,22.504,6.43c14.199-2.366,20.375-4.392,19.062-12.217h0.039c0.777-2.602,1.232-2.346,0.832-5.144
	c-0.257-1.802-0.497-3.563-0.729-5.307c-0.258,0.033-0.516,0.067-0.772,0.104C215.063,374.285,211.792,374.991,208.482,375.389z"/>
<path fill="#FFEBC2" d="M274.594,376.992l-0.171-0.035c-2.306-0.425-4.509-1.335-6.785-1.937c-0.484-0.128-0.971-0.246-1.464-0.338
	c-2.057-0.381-4.008-0.369-6.003-0.139c-0.718,0.083-1.442,0.192-2.18,0.325c-0.29,0.052-0.579,0.111-0.869,0.173
	c-0.178,1.309-0.361,2.631-0.553,3.972c-0.4,2.798,0.055,2.542,0.833,5.144h0.038c-1.313,7.825,4.862,9.851,19.062,12.217
	c7.716,1.929,29.577,7.073,22.504-6.43c-1.619-3.641-6.292-6.518-10.976-8.15c0.338-2.613,0.642-4.921,0.88-7.095
	c-2.661,0.724-5.332,1.628-8.036,2.13C278.805,377.212,276.715,377.357,274.594,376.992z"/>
<path fill="#FFEBC2" d="M178.153,261.217c-2.187,0.388-3.851-0.575-4.644-2.638c-0.166-0.432-0.285-0.854-0.381-1.271
	c-4.037,2.735-7.777,5.978-11.338,9.558c-7.713,7.755-14.296,17.311-18.534,27.443c-1.134,0.766-2.167,1.743-3.197,2.646
	c-2.777,2.434-4.587,6.74-5.241,10.287c-1.146,6.208,1.006,15.134,8.237,16.71c6.371,1.388,9.877-2.814,11.882-8.406
	c2.829,3.022,8.981,1.934,9.093-3.402c0.084-3.983-1.405-11.833-4.76-16.675c3.336-6.325,7.4-12.192,11.98-17.747
	c1.931-2.341,4.008-4.484,6.137-6.585c-0.872,8.541-1.036,17.007-0.056,24.815c0.467-13.469,0.942-25.875,1.35-34.854
	C178.506,261.138,178.333,261.185,178.153,261.217z"/>
<path fill="#FFEBC2" d="M374.767,256.358c0.583-1.045,1.165-2.092,1.748-3.138c-0.001,0-0.001-0.001-0.001-0.001
	c-0.988-1.54-2.134-2.595-3.381-3.279c-0.962,1.762-1.92,3.526-2.893,5.278c-1.93,3.472-3.863,6.941-5.795,10.411
	c-0.404,0.726-0.8,1.458-1.196,2.189c0.953,0.46,1.908,0.925,2.857,1.396l0.055-0.097c0.363,0.198,0.727,0.401,1.086,0.609
	c0.579-1.022,1.175-2.04,1.763-3.068C370.965,263.248,372.848,259.792,374.767,256.358z"/>
<path fill="#FFEBC2" d="M344.518,262.009c-6.708,2.042-13.601,3.287-20.631,3.962c-5.197,0.5-10.293,0.286-15.493,0.235
	c-3.095-0.029-6.156-0.24-9.16-0.811c-0.151-1.101-0.311-2.2-0.479-3.297c-0.59-0.043-1.166-0.118-1.713-0.252
	c0.999,9.41,2.381,19.128,3.417,28.91c0.277-4.45,0.235-9.062-0.053-13.737c7.141,2.494,14.686,3.338,22.494,3.317
	c10.938-0.029,22.351-2.132,32.512-6.301c1.343,0.261,2.765,0.301,4.131,0.391c1.45,0.097,2.998-0.123,4.524-0.544
	c-6.884-4.361-11.57-5.854-18.194-10.816C345.427,262.733,344.973,262.377,344.518,262.009z"/>
<path fill="#FFEBC2" d="M377.479,255.205c-0.383,0.677-0.768,1.354-1.15,2.03c-1.936,3.424-3.909,6.829-5.807,10.274
	c-0.573,1.037-1.132,2.074-1.705,3.101c0.365,0.199,0.727,0.404,1.086,0.611l-0.041,0.071c0.227-0.143,0.447-0.287,0.66-0.434
	C375.182,267.651,379.509,261.027,377.479,255.205z"/>
<path fill="#FFEBC2" d="M371.638,249.307c-2.027-0.613-4.263-0.412-6.553,0.303c-0.138,0.247-0.271,0.494-0.407,0.74
	c-2.602,4.694-5.178,9.454-7.935,14.087c0.475,0.27,0.947,0.536,1.415,0.798c1.095,0.61,2.228,1.187,3.375,1.751
	c0.574-0.982,1.15-1.963,1.709-2.946c1.959-3.453,3.916-6.906,5.878-10.358C369.951,252.22,370.795,250.763,371.638,249.307z"/>
<path fill="#FFEBC2" d="M362.168,250.761c0.137-4.138-4.983-7.718-8.835-4.023c-2.081,1.995-5.006,6.006-6.865,10.267
	c2.566,2.658,5.776,4.801,8.976,6.681c2.364-4.466,4.904-8.855,7.41-13.229C362.625,250.555,362.396,250.654,362.168,250.761z"/>
<path fill="#347A89" d="M281.196,198.633c8.522,0,15.433-10.076,15.433-22.503c0-5.05-1.141-9.712-3.066-13.466
	c0.038,0.268,0.064,0.54,0.064,0.819c0,3.196-2.591,5.787-5.786,5.787c-3.196,0-5.787-2.591-5.787-5.787s2.591-5.787,5.787-5.787
	c1.081,0,2.089,0.303,2.954,0.818c-2.635-3.058-5.97-4.89-9.599-4.89c-8.522,0-15.432,10.074-15.432,22.505
	C265.765,188.557,272.674,198.633,281.196,198.633z M292.127,172.914c1.895,0,3.43,1.534,3.43,3.429c0,1.894-1.535,3.429-3.43,3.429
	s-3.428-1.535-3.428-3.429C288.699,174.448,290.232,172.914,292.127,172.914z"/>
<path fill="#FFFFFF" d="M282.054,163.483c0,3.196,2.591,5.787,5.787,5.787c3.195,0,5.786-2.591,5.786-5.787
	c0-0.279-0.026-0.552-0.064-0.819c-0.251-1.767-1.297-3.273-2.768-4.149c-0.865-0.516-1.873-0.818-2.954-0.818
	C284.645,157.696,282.054,160.287,282.054,163.483z"/>
<circle fill="#9CA191" cx="292.127" cy="176.343" r="3.429"/>
<path fill="#347A89" d="M195.466,198.633c8.522,0,15.431-10.076,15.431-22.503c0-5.049-1.139-9.709-3.063-13.464
	c0.037,0.268,0.063,0.539,0.063,0.817c0,3.196-2.591,5.787-5.786,5.787c-3.196,0-5.787-2.591-5.787-5.787s2.591-5.787,5.787-5.787
	c1.08,0,2.087,0.302,2.952,0.817c-2.634-3.059-5.968-4.889-9.597-4.889c-8.522,0-15.432,10.074-15.432,22.505
	C180.034,188.557,186.943,198.633,195.466,198.633z M206.397,172.914c1.895,0,3.429,1.534,3.429,3.429
	c0,1.894-1.534,3.429-3.429,3.429s-3.431-1.535-3.431-3.429C202.967,174.448,204.503,172.914,206.397,172.914z"/>
<path fill="#FFFFFF" d="M196.323,163.483c0,3.196,2.591,5.787,5.787,5.787c3.195,0,5.786-2.591,5.786-5.787
	c0-0.278-0.026-0.55-0.063-0.817c-0.251-1.768-1.298-3.276-2.771-4.152c-0.865-0.516-1.872-0.817-2.952-0.817
	C198.914,157.696,196.323,160.287,196.323,163.483z"/>
<circle fill="#9CA191" cx="206.397" cy="176.343" r="3.429"/>
<path fill="#F37D6B" d="M237.527,228.945c4.32-0.259,8.6-1.994,12.008-4.662c3.051-2.388,6.924-5.379,8.223-9.146
	c0.237-0.687-0.604-1.257-1.188-0.913c-3.066,1.806-5.282,4.391-8.736,5.649c-3.117,1.136-6.263,1.639-9.558,1.89
	c-7.31,0.557-14.566-1.827-19.877-6.412c-1.103-0.952-1.887-1.563-1.458-0.026C219.51,224.526,228.298,229.501,237.527,228.945z"/>
<path fill="#F8B3AD" d="M237.902,210.206c7.576,0,13.717-4.222,13.717-9.43c0-4.069-3.755-7.525-9.007-8.848l0.005-0.154
	c0-3.788-2.11-6.858-4.715-6.858c-2.604,0-4.716,3.07-4.716,6.858l0.005,0.154c-5.25,1.322-9.006,4.778-9.006,8.848
	C224.186,205.984,230.327,210.206,237.902,210.206z"/>
<path fill="#F4C851" d="M330.271,143.553c3.479,3.192,0.017,8.968-3.777,12.604c1.526-0.464,2.99-1.157,4.329-2.102
	c-8.359,8.358-12.859,29.577,5.787,23.147c-9.646,7.716-16.718,24.434,1.929,25.076c-4.204,3.363-4.284,7.825-1.5,10.332
	c-4.691,5.933-10.614,11.384-17.544,16.215c1.486,0.94,3.297,1.746,5.541,2.387c14.146,4.502,17.36-2.572,20.575-14.145
	c3.215,9.002,16.718,4.501,18.646-1.929c0.62-2.481,0.307-5.094-0.635-7.519c-0.93-1.087-1.963-2.006-3.089-2.628
	c-0.932-0.516-0.143-1.776,0.786-1.4c0.021,0.01,0.042,0.02,0.063,0.028c-1.535-2.039-3.498-3.722-5.62-4.756
	c0.127-0.377,0.251-0.755,0.373-1.132c15.142-1.302,16.822-15.822,3.493-20.676c-0.01-0.861-0.044-1.726-0.099-2.592
	c16.251-6.669,13.503-21.12-5.815-21.058c-0.068-0.14-0.138-0.278-0.206-0.418c6.387-3.564,7.943-12.618,2.391-16.938
	c-3.853-2.75-10.521-2.206-15.188-1.589c-0.036-0.039-0.074-0.079-0.11-0.118C337.779,137.986,334.242,141.105,330.271,143.553z"/>
<path fill="#F4C851" d="M325.259,146.19c-2.909,1.281-5.964,2.22-9.069,2.78c-0.957,2.874-2.91,4.185-5.274,4.495
	c3.043,2.267,7.071,3.508,11.082,3.405C321.691,152.316,322.054,149.369,325.259,146.19z"/>
<path fill="#F4C851" d="M160.573,148.971c-3.105-0.561-6.16-1.499-9.069-2.78c3.206,3.181,3.568,6.129,3.261,10.688
	c3.92,0.023,7.826-1.229,10.788-3.455C163.32,153.043,161.49,151.725,160.573,148.971z"/>
<path fill="#7EA53F" d="M344.265,126.272c-1.949,3.565-4.478,6.719-7.413,9.433l-0.022-0.005
	c-4.087-3.746-10.897-1.702-15.325,0.341c4.133,3.646,7.576,4.159,11.683,2.673c-5.138,3.737-11.152,6.316-17.404,7.584
	c-2.646-2.352-6.288-2.776-10.03-2.412c-3.816,0.372-7.737,1.563-10.812,2.372c2.791,3.257,10.496,7.928,15.975,7.208
	c2.364-0.311,4.317-1.621,5.274-4.495c3.105-0.561,6.16-1.499,9.069-2.78c-3.205,3.179-3.567,6.126-3.262,10.681
	c0.05,0.732,0.113,1.504,0.188,2.328c1.203-0.462,2.782-1.58,4.308-3.042c3.794-3.637,7.256-9.412,3.777-12.604
	c3.972-2.447,7.509-5.566,10.331-9.208c0.708-0.914,1.372-1.86,1.985-2.84c0.679-1.085,1.297-2.209,1.847-3.367
	c0.236-0.497,0.463-1,0.674-1.51c0.097-0.235-0.041-0.43-0.234-0.519C344.665,126.015,344.392,126.04,344.265,126.272z"/>
<path fill="#7EA53F" d="M146.492,143.553c-3.525,3.234,0.074,9.12,3.927,12.746c1.479,1.393,2.994,2.453,4.157,2.9
	c0.075-0.821,0.14-1.59,0.188-2.321c0.308-4.559-0.055-7.507-3.261-10.688c2.909,1.281,5.964,2.22,9.069,2.78
	c0.917,2.754,2.747,4.072,4.979,4.452c5.491,0.934,13.428-3.851,16.269-7.165c-3.168-0.833-7.235-2.073-11.161-2.403
	c-3.618-0.304-7.117,0.165-9.68,2.443c-6.253-1.268-12.268-3.847-17.405-7.584c4.107,1.486,7.551,0.974,11.684-2.673
	c-4.429-2.043-11.238-4.087-15.326-0.341l-0.021,0.005c-2.937-2.714-5.464-5.867-7.413-9.433c-0.246-0.449-1.044-0.134-0.843,0.355
	c0.888,2.151,2.01,4.191,3.324,6.104c0.328,0.478,0.669,0.947,1.021,1.408C138.847,137.87,142.446,141.059,146.492,143.553z"/>
<path fill="#F1A21E" d="M404.909,249.305c1.286-3.292,5.047-5.622,8.193-6.792c4.1-1.524,10.563-2.076,14.502,0.172
	c0.924,0.528,1.591-0.801,0.786-1.399c-3.061-2.275-6.249-3.72-10.121-3.849c-3.741-0.123-7.874,0.404-11.135,2.378
	c-3.597,2.177-6.47,5.083-7.703,8.789c-0.821-0.474-1.642-0.947-2.462-1.42c-0.326-0.188-0.655-0.372-0.981-0.56
	c-1.509-0.867-3.017-1.733-4.531-2.586c-0.088-0.05-0.173-0.098-0.26-0.146c-0.612-0.346-1.225-0.689-1.836-1.035
	c-0.891-0.501-1.781-1.003-2.671-1.509c-0.423-0.238-0.847-0.476-1.271-0.713c-0.2-0.111-0.4-0.225-0.602-0.336
	c-0.198-0.113-0.399-0.227-0.599-0.339c-0.425-0.238-0.847-0.477-1.271-0.712c-0.893-0.499-1.784-0.999-2.677-1.499
	c-0.611-0.344-1.226-0.688-1.838-1.031c-0.087-0.048-0.173-0.096-0.26-0.146c-1.518-0.851-3.041-1.688-4.564-2.525
	c-0.33-0.182-0.659-0.365-0.99-0.548c-0.83-0.454-1.66-0.909-2.492-1.363c2.525-2.981,3.513-6.946,3.502-11.15
	c-0.01-3.812-1.708-7.617-3.759-10.748c-2.11-3.221-4.982-5.188-8.487-6.616c-0.021-0.009-0.042-0.019-0.063-0.028
	c-0.929-0.376-1.718,0.885-0.786,1.4c1.126,0.622,2.159,1.541,3.089,2.628c2.348,2.745,4.004,6.592,4.599,9.668
	c0.637,3.297,0.603,7.721-1.541,10.532c-0.47,0.616-1.015,1.137-1.609,1.588c-1.346,1.021-2.956,1.672-4.586,2.187
	c-0.412,0.13-0.825,0.252-1.234,0.369c-3.277,0.931-6.636,1.556-9.873,2.627c-6.372,2.108-12.024,6.964-12.635,13.996
	c-0.474,5.469,3.713,10.128,7.775,13.421c0.455,0.368,0.909,0.725,1.354,1.058c6.624,4.963,11.311,6.455,18.194,10.816
	c0.092,0.058,0.179,0.11,0.271,0.17c5.796,3.704,14.848,8.774,21.284,11.353c5.128,2.053,12.194,3.882,17.115,0.27
	c5.689-4.177,6.898-11.531,5.387-18.069c-0.77-3.323-1.981-6.516-2.89-9.8c-0.114-0.41-0.224-0.826-0.327-1.246
	c-0.408-1.66-0.689-3.374-0.517-5.055C404.465,250.763,404.627,250.027,404.909,249.305z M346.468,257.004
	c-1-1.037-1.905-2.148-2.671-3.356c-1.258-1.987-1.711-3.928-1.266-5.896c0.506-2.237,2.529-4.687,4.744-6.071
	c5.648-3.528,12.913-3.304,18.826-6.366c0.095-0.05,0.187-0.101,0.279-0.152c1.314,0.761,2.629,1.521,3.944,2.279
	c-2.209,3.809-4.399,7.629-6.58,11.456c-0.296,0.519-0.595,1.038-0.892,1.558c-2.506,4.374-5.046,8.764-7.41,13.229
	C352.244,261.805,349.034,259.662,346.468,257.004z M361.533,266.985c-1.147-0.564-2.28-1.141-3.375-1.751
	c-0.468-0.262-0.94-0.528-1.415-0.798c2.757-4.633,5.333-9.393,7.935-14.087c0.137-0.246,0.27-0.493,0.407-0.74
	c2.124-3.84,4.243-7.683,6.341-11.536c1.257,0.724,2.516,1.442,3.781,2.155c0.381,0.216,0.766,0.433,1.149,0.648
	c-1.498,2.848-3.105,5.641-4.719,8.43c-0.843,1.456-1.687,2.913-2.518,4.374c-1.962,3.452-3.919,6.905-5.878,10.358
	C362.684,265.022,362.107,266.003,361.533,266.985z M366.161,269.119l-0.055,0.097c-0.949-0.472-1.904-0.937-2.857-1.396
	c0.396-0.731,0.792-1.464,1.196-2.189c1.932-3.47,3.865-6.939,5.795-10.411c0.973-1.752,1.931-3.517,2.893-5.278
	c1.514-2.775,3.038-5.546,4.662-8.254c0.958,0.539,1.916,1.078,2.874,1.618l-0.003,0.005l1.127,0.632
	c-1.81,3.062-3.547,6.17-5.278,9.279c-0.583,1.046-1.165,2.093-1.748,3.138c-1.919,3.434-3.802,6.89-5.757,10.302
	c-0.588,1.028-1.184,2.046-1.763,3.068C366.888,269.521,366.524,269.317,366.161,269.119z M372.526,273.034
	c-0.889-0.576-1.782-1.15-2.679-1.717l0.014-0.024l0.041-0.071c-0.359-0.207-0.721-0.412-1.086-0.611
	c0.573-1.026,1.132-2.063,1.705-3.101c1.897-3.445,3.871-6.851,5.807-10.274c0.383-0.677,0.768-1.354,1.15-2.03
	c1.963-3.46,3.93-6.92,5.802-10.429l1.126,0.635l0.003-0.004c0.958,0.538,1.918,1.075,2.876,1.613
	c-2.401,4.57-5.082,9.004-7.631,13.489c-1.961,3.453-3.919,6.909-5.88,10.362C373.365,271.595,372.945,272.314,372.526,273.034z
	 M377.383,276.038c-1.091-0.618-2.174-1.286-3.253-1.974c0.542-1.001,1.079-2.003,1.629-2.991c1.931-3.469,3.864-6.937,5.792-10.406
	c2.379-4.283,4.657-8.637,7.174-12.84c0.385,0.216,0.77,0.431,1.153,0.646c1.265,0.708,2.534,1.41,3.806,2.108
	c-2.342,4.039-4.663,8.09-6.977,12.147c-2.658,4.663-5.384,9.339-7.908,14.102C378.321,276.566,377.848,276.301,377.383,276.038z
	 M400.439,280.296c-1.447,1.403-3.341,2.024-5.692,1.984c-5.099-0.087-10.085-2.289-14.629-4.729
	c2.892-4.857,5.586-9.854,8.313-14.779c2.135-3.854,4.259-7.711,6.364-11.579c1.331,0.729,2.665,1.457,3.997,2.186
	c0.006,0.105,0.008,0.21,0.016,0.316c0.46,6.645,4.428,12.732,4.351,19.393C403.129,275.697,402.088,278.7,400.439,280.296z"/>
<path fill="#EEE4D2" d="M289.529,253.075c-17.92,3.615-34.296,7.646-53.226,7.072c-14.016,0-36.826,1.464-50.966-4.553
	c-0.161,0.467-0.369,0.919-0.632,1.347c-1.36,2.215-3.533,3.591-6.024,4.156c-0.407,8.979-0.883,21.386-1.35,34.854
	c-1.055,30.481-2.06,66.382-2.109,80.211c0.828-0.267,1.739-0.671,2.919-1.037c2.28-0.709,4.63-1.389,6.985-1.869
	c0.11-0.923,0.224-1.831,0.3-2.705c0.396-4.504,0.854-9.003,1.341-13.497c0.923-8.529,1.929-17.056,2.646-25.605
	c0.715-8.52,1.066-17.046,1.179-25.593c0.119-9.016,0.4-17.952-1.43-26.828c-0.228-1.104,1.442-1.578,1.695-0.468
	c1.956,8.6,4.19,17.249,4.802,26.073c0.62,8.932,0.148,17.905-0.591,26.815c-0.744,8.962-1.796,17.89-2.758,26.828
	c-0.485,4.499-0.957,8.998-1.344,13.506c-0.036,0.415-0.062,0.843-0.083,1.277c3.825,0.603,7.399,2.345,11.422,2.579l0.014,0.001
	c-0.082-3.408-0.114-6.815-0.161-10.225c-0.108-7.982,0.033-15.962-0.148-23.944c-0.362-15.992-0.468-32.014-2.574-47.889
	c-0.127-0.961,1.549-1.187,1.692-0.229c2.396,16.003,4.946,31.961,6.032,48.118c0.536,7.974,1.111,15.953,1.252,23.944
	c0.06,3.326,0.091,6.648,0.07,9.973c3.31-0.397,6.581-1.104,9.891-1.578c-0.108-1.016-0.223-2.031-0.32-3.05
	c-0.638-6.649-1.026-13.318-1.394-19.988c-0.756-13.704-1.007-27.479-2.663-41.115c-0.148-1.218,1.94-1.497,2.141-0.29
	c2.21,13.317,3.632,26.7,4.678,40.155c0.552,7.084,1.138,14.168,1.854,21.238c0.088,0.866,0.177,1.732,0.269,2.598
	c3.458-0.151,7.122,0.074,10.435,1.149c2.809,0.912,5.571,2.052,8.425,2.822c4.929,1.331,10.131-1.184,15.326-2.288
	c0.29-0.062,0.579-0.121,0.869-0.173c0.737-0.133,1.462-0.242,2.18-0.325c-0.027-2.365-0.037-4.732-0.008-7.1
	c0.123-9.83,0.497-19.637,1.549-29.416c2.076-19.309,7.072-37.427,15.875-54.765c0.788-1.552,3.019-0.193,2.308,1.349
	c-7.947,17.22-10.549,36.892-11.591,55.666c-0.522,9.416-0.664,18.869-0.662,28.3c0.001,2.144,0.006,4.293-0.004,6.442
	c2.276,0.602,4.479,1.512,6.785,1.937c0.011-0.228,0.02-0.452,0.026-0.675c0.135-4.083,0.402-8.147,0.781-12.215
	c0.703-7.53,1.643-15.023,2.724-22.509c2.269-15.71,5.581-31.512,6.822-47.333c0.103-1.315,2.088-1.354,2.074,0
	c-0.079,8.078-0.026,16.092-0.638,24.157c-0.578,7.611-1.417,15.186-2.232,22.774c-0.863,8.031-1.763,16.069-2.357,24.125
	c-0.284,3.845-0.553,7.696-0.749,11.547c2.704-0.502,5.375-1.406,8.036-2.13c0.317-0.087,0.635-0.173,0.952-0.252
	c0.04-0.902,0.083-1.806,0.133-2.705c0.32-5.82,0.593-11.646,1.017-17.459c0.876-12.049,1.742-24.18,1.41-36.268
	c-0.04-1.442,2.104-1.405,2.215,0c0.951,12.087,1.459,24.142,1.436,36.268c-0.012,6.229-0.22,12.486-0.515,18.71
	c-0.008,0.167-0.017,0.334-0.024,0.503c3.089-0.254,6.078-0.038,9.003,0.771c0.104-20.083-2.648-39.271-2.648-60.109
	c0-7.757-0.604-15.599-1.43-23.401c-1.036-9.782-2.418-19.5-3.417-28.91C292.875,260.835,290.013,257.327,289.529,253.075z"/>
<path fill="#F5E9D6" d="M190.884,373.061c0.021-0.435,0.047-0.862,0.083-1.277c0.387-4.508,0.858-9.007,1.344-13.506
	c0.962-8.938,2.014-17.866,2.758-26.828c0.739-8.91,1.211-17.884,0.591-26.815c-0.611-8.824-2.846-17.474-4.802-26.073
	c-0.253-1.11-1.923-0.637-1.695,0.468c1.83,8.876,1.549,17.812,1.43,26.828c-0.112,8.547-0.464,17.073-1.179,25.593
	c-0.717,8.55-1.723,17.076-2.646,25.605c-0.486,4.494-0.945,8.993-1.341,13.497c-0.076,0.874-0.189,1.782-0.3,2.705
	c0.349-0.071,0.696-0.15,1.045-0.212c0.397-0.069,0.79-0.117,1.178-0.147C188.562,372.801,189.734,372.88,190.884,373.061z"/>
<path fill="#F5E9D6" d="M208.482,375.389c0.021-3.324-0.011-6.646-0.07-9.973c-0.141-7.991-0.716-15.971-1.252-23.944
	c-1.086-16.157-3.636-32.115-6.032-48.118c-0.144-0.957-1.819-0.731-1.692,0.229c2.106,15.875,2.212,31.896,2.574,47.889
	c0.182,7.982,0.04,15.962,0.148,23.944c0.047,3.409,0.079,6.816,0.161,10.225C204.4,375.761,206.448,375.633,208.482,375.389z"/>
<path fill="#F5E9D6" d="M220.814,349.522c-1.046-13.455-2.468-26.838-4.678-40.155c-0.2-1.207-2.289-0.928-2.141,0.29
	c1.656,13.636,1.907,27.411,2.663,41.115c0.367,6.67,0.756,13.339,1.394,19.988c0.098,1.019,0.212,2.034,0.32,3.05
	c0.257-0.036,0.515-0.07,0.772-0.104c1.23-0.162,2.467-0.289,3.713-0.346l0.078-0.003c-0.092-0.865-0.181-1.731-0.269-2.598
	C221.952,363.69,221.366,356.606,220.814,349.522z"/>
<path fill="#F5E9D6" d="M266.174,374.683c0.493,0.092,0.979,0.21,1.464,0.338c0.01-2.149,0.005-4.299,0.004-6.442
	c-0.002-9.431,0.14-18.884,0.662-28.3c1.042-18.774,3.644-38.446,11.591-55.666c0.711-1.542-1.52-2.9-2.308-1.349
	c-8.803,17.338-13.799,35.456-15.875,54.765c-1.052,9.779-1.426,19.586-1.549,29.416c-0.029,2.367-0.02,4.734,0.008,7.1
	C262.166,374.313,264.117,374.302,266.174,374.683z"/>
<path fill="#F5E9D6" d="M280.874,376.829c0.196-3.851,0.465-7.702,0.749-11.547c0.595-8.056,1.494-16.094,2.357-24.125
	c0.815-7.589,1.654-15.163,2.232-22.774c0.611-8.065,0.559-16.079,0.638-24.157c0.014-1.354-1.972-1.315-2.074,0
	c-1.241,15.821-4.554,31.623-6.822,47.333c-1.081,7.485-2.021,14.979-2.724,22.509c-0.379,4.067-0.646,8.132-0.781,12.215
	c-0.007,0.223-0.016,0.447-0.026,0.675l0.171,0.035C276.715,377.357,278.805,377.212,280.874,376.829z"/>
<path fill="#F5E9D6" d="M296.072,354.283c0.023-12.126-0.484-24.181-1.436-36.268c-0.11-1.405-2.255-1.442-2.215,0
	c0.332,12.088-0.534,24.219-1.41,36.268c-0.424,5.812-0.696,11.639-1.017,17.459c-0.05,0.899-0.093,1.803-0.133,2.705
	c0.557-0.141,1.112-0.273,1.669-0.386c1.355-0.274,2.687-0.458,4.002-0.565c0.008-0.169,0.017-0.336,0.024-0.503
	C295.853,366.77,296.061,360.513,296.072,354.283z"/>
<path fill="#F1A21E" d="M303.238,258.219c-0.052-2.368-0.509-4.533-1.769-6.468c-0.557-1.288-1.264-2.508-2.201-3.56
	c-0.953-1.069-2.195-1.556-3.51-1.712c-1.089-0.13-2.229-0.033-3.296,0.155c-1.871,0.329-2.76,2.203-2.944,3.868
	c-0.098,0.878-0.085,1.737,0.011,2.572c0.483,4.252,3.346,7.76,7.512,8.771c0.547,0.134,1.123,0.209,1.713,0.252
	c0.187,0.014,0.37,0.037,0.562,0.042C301.42,262.185,303.283,260.323,303.238,258.219z"/>
<path fill="#F1A21E" d="M178.153,261.217c0.18-0.032,0.353-0.079,0.528-0.119c2.491-0.565,4.664-1.941,6.024-4.156
	c0.263-0.428,0.471-0.88,0.632-1.347c0.738-2.136,0.482-4.604-0.241-6.686c-0.5-1.436-1.918-2.724-3.492-2.672
	c-0.298,0.01-0.601,0.062-0.903,0.177c-0.846,0.316-1.648,0.69-2.378,1.151c-0.177,0.079-0.353,0.171-0.526,0.286
	c-3.411,2.255-5.571,5.509-4.668,9.457c0.096,0.417,0.215,0.839,0.381,1.271C174.303,260.642,175.967,261.604,178.153,261.217z"/>
<path fill="#72BBD2" d="M238.857,29.856c3.657,2.529,7.314,5.057,10.973,7.585c3.66,2.527,7.325,5.045,11.014,7.531
	c1.963,1.322,4.028,2.903,6.18,4.251c-0.269,0.231-0.525,0.485-0.759,0.77c-0.554,0.678-1.016,1.432-1.401,2.235
	c-0.758,0.864-1.493,1.751-2.16,2.714c-1.664,2.402-2.812,4.989-3.377,7.847c-0.712,3.611-0.615,8.327,2.459,10.841
	c3.487,2.854,7.93-1.341,9.915-3.947c2.14-2.805,3.63-6.4,4.573-9.773c0.93-3.319,1.352-7.293-1.023-10.126
	c-0.691-0.826-1.525-1.387-2.415-1.713c-2.562-2.771-6.219-4.941-9.204-7.094c-3.607-2.603-7.236-5.172-10.874-7.732
	c-3.636-2.56-7.272-5.118-10.909-7.676c-3.609-2.539-6.979-4.806-11.153-6.303c-1.356-0.486-2.53,1.197-1.605,2.302
	C231.937,24.969,235.228,27.347,238.857,29.856z"/>
<path fill="#72BBD2" d="M95.033,304.655c1.914-3.977,3.599-7.672,4.391-12.035c0.258-1.418-1.595-2.3-2.534-1.207
	c-2.889,3.366-4.694,7.002-6.576,10.994c-1.896,4.022-3.791,8.044-5.685,12.066c-1.895,4.025-3.777,8.054-5.625,12.099
	c-0.984,2.153-2.205,4.45-3.182,6.793c-0.274-0.227-0.564-0.438-0.885-0.622c-0.758-0.436-1.578-0.768-2.434-1.017
	c-0.977-0.606-1.972-1.187-3.031-1.687c-2.643-1.248-5.383-1.957-8.293-2.046c-3.68-0.11-8.316,0.757-10.292,4.201
	c-2.244,3.907,2.622,7.603,5.517,9.135c3.118,1.651,6.909,2.532,10.391,2.911c3.428,0.373,7.417,0.139,9.822-2.669
	c0.702-0.817,1.117-1.731,1.295-2.663c2.312-2.98,3.854-6.944,5.49-10.241c1.977-3.985,3.916-7.986,5.847-11.994
	C91.178,312.668,93.105,308.661,95.033,304.655z"/>
<path fill="#72BBD2" d="M389.747,188.343c3.523,0.149,7.325-0.687,10.633-1.842c3.254-1.136,6.754-3.062,7.721-6.632
	c0.281-1.04,0.264-2.044,0.022-2.961c0.807-3.685,0.496-7.928,0.555-11.607c0.07-4.447,0.103-8.894,0.121-13.342
	c0.02-4.445,0.039-8.892,0.057-13.338c0.004-0.823,0-1.631-0.009-2.434c2.775,3.576,6.322,6.43,9.585,9.537
	c3.349,3.192,6.555,6.575,5.552,11.563c-0.422,2.093-1.674,3.743-3.224,5.145c-2.124,1.924-4.873,1.873-7.512,1.353
	c-0.9-0.178-1.184,1.002-0.37,1.344c3.962,1.658,8.966,0.63,11.602-2.86c3.003-3.974,2.808-8.638,0.894-13.012
	c-1.936-4.423-6.656-7.669-10.072-10.884c-2.878-2.711-5.649-5.966-7.051-9.729c-0.159-0.92-0.353-1.844-0.606-2.777
	c-0.045-0.167-0.116-0.314-0.204-0.442c-0.024-0.178-0.055-0.354-0.072-0.534c-0.068-0.71-1.142-0.968-1.318-0.18
	c-0.01,0.045-0.017,0.086-0.026,0.13c-0.528,0.073-1.019,0.414-1.185,1.026c-1.16,4.281-1.229,8.342-1.211,12.755
	c0.018,4.446,0.037,8.893,0.056,13.338c0.02,4.448,0.052,8.895,0.122,13.342c0.038,2.366-0.078,4.967,0.049,7.501
	c-0.344-0.087-0.698-0.153-1.064-0.181c-0.874-0.068-1.756-0.016-2.637,0.128c-1.141-0.128-2.289-0.223-3.461-0.219
	c-2.922,0.009-5.701,0.546-8.367,1.718c-3.37,1.482-7.184,4.259-7.487,8.219C380.493,186.958,386.475,188.203,389.747,188.343z"/>
<path fill="#72BBD2" d="M67.427,114.788c1.038,3.281,2.695,5.963,4.559,8.838c1.876,2.896,3.753,5.791,5.631,8.688
	c1.878,2.896,3.764,5.787,5.674,8.661c1.018,1.529,2.032,3.276,3.178,4.878c-0.26,0.088-0.52,0.193-0.771,0.329
	c-0.599,0.322-1.152,0.727-1.668,1.188c-0.798,0.396-1.588,0.815-2.352,1.309c-1.904,1.232-3.494,2.748-4.743,4.632
	c-1.58,2.381-2.906,5.794-1.444,8.507c1.66,3.077,6.088,1.382,8.284,0.101c2.364-1.38,4.496-3.519,6.172-5.66
	c1.648-2.108,3.127-4.835,2.262-7.57c-0.253-0.797-0.687-1.445-1.229-1.943c-1.018-2.745-3-5.385-4.505-7.812
	c-1.82-2.934-3.664-5.852-5.517-8.765c-1.853-2.911-3.704-5.823-5.557-8.734c-0.344-0.54-0.685-1.065-1.027-1.586
	c3.312,1.171,6.826,1.548,10.26,2.21c3.525,0.679,7.038,1.544,8.475,5.222c0.604,1.545,0.479,3.147,0.054,4.713
	c-0.581,2.146-2.397,3.267-4.339,4.033c-0.663,0.261-0.353,1.151,0.321,1.033c3.283-0.579,6.12-3.349,6.378-6.733
	c0.294-3.854-1.79-6.82-4.873-8.872c-3.12-2.077-7.564-2.218-11.145-2.885c-3.015-0.562-6.19-1.526-8.684-3.397
	c-0.49-0.533-1.004-1.056-1.562-1.559c-0.1-0.092-0.208-0.156-0.318-0.203c-0.092-0.106-0.185-0.209-0.271-0.319
	c-0.343-0.435-1.151-0.153-0.937,0.437c0.012,0.032,0.026,0.062,0.037,0.095C67.455,113.891,67.278,114.318,67.427,114.788z"/>
<path fill="#72BBD2" d="M131.289,344.803c0.213-0.908,0.397-1.834,0.529-2.793c0.024-0.172,0.016-0.335-0.015-0.486
	c0.047-0.174,0.089-0.348,0.144-0.521c0.215-0.68-0.671-1.338-1.143-0.681c-0.026,0.036-0.049,0.072-0.075,0.107
	c-0.516-0.139-1.101-0.017-1.492,0.481c-2.745,3.483-4.399,7.192-6.112,11.26c-1.726,4.098-3.45,8.195-5.175,12.294
	c-1.726,4.1-3.438,8.202-5.116,12.322c-0.893,2.191-2.018,4.538-2.894,6.92c-0.282-0.215-0.583-0.415-0.909-0.584
	c-0.777-0.404-1.61-0.701-2.476-0.915c-1-0.564-2.02-1.102-3.099-1.558c-2.692-1.137-5.46-1.73-8.372-1.697
	c-3.681,0.042-8.277,1.103-10.108,4.626c-2.077,3.999,2.939,7.488,5.896,8.897c3.184,1.52,7.007,2.24,10.503,2.474
	c3.44,0.229,7.415-0.172,9.703-3.076c0.666-0.847,1.044-1.777,1.181-2.716c2.187-3.074,3.562-7.099,5.059-10.462
	c1.807-4.064,3.579-8.142,5.339-12.227c1.761-4.083,3.521-8.166,5.279-12.25c0.326-0.756,0.64-1.5,0.945-2.242
	c1.152,4.377,3.298,8.394,5.081,12.53c1.831,4.248,3.454,8.617,0.577,12.813c-1.209,1.761-3.008,2.789-4.981,3.472
	c-2.708,0.937-5.218-0.187-7.44-1.7c-0.76-0.517-1.482,0.458-0.868,1.091c2.995,3.078,8.002,4.094,11.794,1.916
	c4.32-2.48,5.969-6.849,5.922-11.622c-0.048-4.827-3.119-9.664-5.003-13.961C132.377,352.896,131.103,348.815,131.289,344.803z"/>
<path fill="#72BBD2" d="M403.057,380.823c-0.647-3.716-2.541-7.526-3.879-10.954c-1.617-4.144-3.271-8.271-4.935-12.396
	c-1.664-4.123-3.329-8.246-4.995-12.368c-0.249-0.618-0.498-1.226-0.75-1.827c-0.45-1.08-0.913-2.135-1.403-3.168
	c-0.186-0.391-0.375-0.779-0.57-1.163c-0.605-1.188-1.27-2.348-2.021-3.485c-1.151,0.488-2.302,0.98-3.449,1.478
	c-4.518,1.95-9.012,3.948-13.518,5.83c-6.734,2.812-13.442,5.679-20.144,8.562c-1.225,0.526-2.449,1.052-3.672,1.579
	c0.183,0.84,0.396,1.664,0.637,2.477c0.248,0.839,0.516,1.67,0.812,2.498c0.25,0.699,0.519,1.399,0.795,2.102
	c0.314,0.798,0.638,1.597,0.974,2.41c1.698,4.109,3.398,8.218,5.099,12.326c1.701,4.11,3.412,8.214,5.161,12.305
	c0.93,2.176,1.806,4.625,2.881,6.924c-0.351,0.051-0.704,0.123-1.054,0.235c-0.834,0.268-1.631,0.651-2.391,1.115
	c-1.106,0.314-2.205,0.661-3.288,1.107c-2.7,1.114-5.07,2.663-7.095,4.757c-2.56,2.646-5.038,6.658-3.821,10.438
	c1.38,4.29,7.388,3.179,10.47,2.069c3.319-1.195,6.522-3.406,9.146-5.727c2.583-2.284,5.095-5.391,4.638-9.06
	c-0.132-1.069-0.529-1.992-1.099-2.75c-0.647-3.717-2.54-7.526-3.879-10.954c-1.616-4.145-3.27-8.271-4.934-12.396
	c-1.665-4.123-3.329-8.246-4.995-12.368c-0.35-0.864-0.697-1.711-1.053-2.544c5.791-2.411,11.783-4.419,17.591-6.703
	c4.696-1.846,9.376-3.728,14.055-5.62c0.396-0.159,0.807-0.315,1.224-0.471c0.264,0.663,0.535,1.327,0.812,2.002
	c1.699,4.109,3.398,8.218,5.099,12.326c1.701,4.11,3.412,8.214,5.16,12.305c0.931,2.176,1.808,4.625,2.883,6.924
	c-0.352,0.051-0.705,0.123-1.056,0.235c-0.832,0.268-1.63,0.651-2.39,1.115c-1.106,0.314-2.204,0.661-3.287,1.107
	c-2.701,1.114-5.071,2.663-7.096,4.757c-2.559,2.646-5.037,6.658-3.821,10.438c1.38,4.29,7.388,3.179,10.471,2.069
	c3.319-1.195,6.521-3.406,9.146-5.727c2.582-2.283,5.094-5.391,4.638-9.06C404.023,382.504,403.626,381.581,403.057,380.823z
	 M382.034,342.362c-4.666,1.927-9.33,3.854-13.977,5.826c-6.025,2.558-11.993,5.473-18.111,7.913
	c-0.376-0.82-0.774-1.625-1.193-2.419c6.688-2.594,13.368-5.2,20.03-7.864c4.369-1.748,8.81-3.411,13.235-5.114
	c0.153,0.488,0.314,0.976,0.482,1.46C382.346,342.23,382.188,342.299,382.034,342.362z"/>
<path fill="#72BBD2" d="M125.38,82.342c2.692,0.46,5.692,0.192,8.344-0.371c2.61-0.554,5.486-1.689,6.577-4.335
	c0.318-0.771,0.402-1.544,0.308-2.271c0.981-2.749,1.157-6.036,1.563-8.855c0.49-3.409,0.949-6.819,1.401-10.231
	c0.45-3.412,0.899-6.823,1.35-10.235c0.095-0.715,0.183-1.418,0.26-2.114c4.821,0.584,9.622,1.515,14.404,2.19
	c3.867,0.546,7.736,1.062,11.608,1.57c0.328,0.044,0.664,0.096,1.005,0.15c-0.075,0.546-0.147,1.098-0.216,1.658
	c-0.422,3.416-0.844,6.83-1.264,10.245c-0.421,3.418-0.833,6.834-1.215,10.255c-0.203,1.82-0.546,3.805-0.697,5.763
	c-0.257-0.101-0.521-0.186-0.801-0.243c-0.663-0.137-1.346-0.184-2.035-0.16c-0.865-0.209-1.736-0.396-2.636-0.507
	c-2.244-0.279-4.431-0.139-6.593,0.5c-2.732,0.806-5.931,2.564-6.553,5.574c-0.705,3.415,3.764,4.957,6.265,5.385
	c2.691,0.461,5.69,0.191,8.343-0.371c2.609-0.554,5.486-1.689,6.577-4.335c0.319-0.771,0.403-1.543,0.308-2.271
	c0.981-2.749,1.157-6.037,1.563-8.856c0.49-3.407,0.95-6.818,1.401-10.23c0.45-3.411,0.9-6.822,1.35-10.234
	c0.068-0.512,0.132-1.016,0.191-1.518c0.108-0.899,0.197-1.785,0.262-2.669c0.023-0.333,0.044-0.668,0.059-1
	c0.046-1.031,0.041-2.065-0.032-3.118c-0.962-0.109-1.924-0.217-2.888-0.319c-3.785-0.407-7.574-0.775-11.326-1.226
	c-5.608-0.673-11.218-1.298-16.831-1.911c-1.025-0.112-2.051-0.224-3.076-0.336c-0.196,0.636-0.366,1.272-0.515,1.911
	c-0.152,0.66-0.289,1.322-0.404,1.992c-0.098,0.566-0.184,1.142-0.267,1.719c-0.091,0.657-0.178,1.319-0.262,1.995
	c-0.422,3.415-0.843,6.831-1.265,10.246c-0.421,3.416-0.832,6.833-1.214,10.254c-0.202,1.82-0.546,3.805-0.698,5.763
	c-0.255-0.1-0.521-0.186-0.8-0.243c-0.663-0.138-1.346-0.183-2.035-0.159c-0.864-0.211-1.735-0.396-2.636-0.508
	c-2.244-0.279-4.431-0.139-6.592,0.5c-2.733,0.807-5.933,2.565-6.554,5.574C118.411,80.372,122.882,81.914,125.38,82.342z
	 M145.451,40.353c5.493,0.802,10.986,1.593,16.49,2.337c3.609,0.488,7.233,1.061,10.863,1.6c-0.082,0.388-0.16,0.777-0.23,1.168
	c-0.131-0.015-0.263-0.029-0.391-0.045c-3.877-0.48-7.754-0.959-11.635-1.401c-5.033-0.575-10.164-0.886-15.216-1.574
	C145.393,41.741,145.431,41.047,145.451,40.353z"/>
<path fill="#72BBD2" d="M207.025,416.886c-3.786-0.407-7.574-0.775-11.326-1.226c-5.608-0.673-11.219-1.298-16.832-1.91
	c-1.025-0.112-2.051-0.225-3.075-0.336c-0.197,0.635-0.367,1.271-0.515,1.91c-0.153,0.66-0.289,1.322-0.405,1.993
	c-0.098,0.565-0.184,1.141-0.266,1.719c-0.092,0.656-0.179,1.318-0.263,1.994c-0.422,3.415-0.843,6.831-1.264,10.246
	c-0.422,3.417-0.832,6.833-1.214,10.255c-0.203,1.82-0.547,3.805-0.698,5.762c-0.256-0.1-0.521-0.185-0.8-0.242
	c-0.663-0.138-1.347-0.184-2.035-0.16c-0.865-0.21-1.736-0.396-2.637-0.507c-2.243-0.279-4.431-0.139-6.592,0.5
	c-2.732,0.806-5.932,2.563-6.553,5.574c-0.706,3.414,3.765,4.957,6.263,5.384c2.692,0.461,5.692,0.192,8.344-0.371
	c2.61-0.554,5.486-1.689,6.577-4.335c0.318-0.771,0.403-1.543,0.309-2.271c0.98-2.75,1.156-6.038,1.563-8.857
	c0.489-3.407,0.949-6.817,1.4-10.229c0.45-3.412,0.9-6.824,1.35-10.235c0.095-0.716,0.183-1.417,0.261-2.115
	c4.82,0.584,9.621,1.516,14.403,2.191c3.867,0.546,7.736,1.062,11.609,1.57c0.327,0.043,0.664,0.096,1.004,0.149
	c-0.075,0.547-0.146,1.098-0.216,1.658c-0.421,3.416-0.843,6.831-1.264,10.246c-0.421,3.417-0.832,6.833-1.214,10.254
	c-0.203,1.82-0.547,3.806-0.698,5.764c-0.256-0.101-0.521-0.187-0.8-0.244c-0.663-0.137-1.347-0.183-2.036-0.159
	c-0.865-0.21-1.736-0.396-2.636-0.508c-2.244-0.279-4.431-0.139-6.593,0.5c-2.731,0.807-5.931,2.565-6.552,5.575
	c-0.706,3.415,3.764,4.957,6.264,5.384c2.691,0.461,5.69,0.191,8.344-0.37c2.609-0.554,5.485-1.69,6.577-4.335
	c0.318-0.771,0.403-1.544,0.308-2.271c0.98-2.751,1.157-6.038,1.562-8.857c0.49-3.407,0.95-6.818,1.402-10.23
	c0.449-3.412,0.899-6.823,1.349-10.235c0.068-0.511,0.132-1.016,0.191-1.517c0.108-0.898,0.198-1.785,0.262-2.669
	c0.024-0.333,0.044-0.667,0.06-1.001c0.045-1.03,0.04-2.065-0.033-3.117C208.951,417.096,207.988,416.989,207.025,416.886z
	 M206.01,420.957c-0.131-0.014-0.263-0.028-0.391-0.044c-3.877-0.48-7.755-0.96-11.636-1.403
	c-5.033-0.573-10.163-0.884-15.216-1.572c0.06-0.696,0.099-1.39,0.118-2.086c5.493,0.804,10.987,1.594,16.49,2.339
	c3.609,0.488,7.233,1.06,10.864,1.6C206.157,420.178,206.08,420.566,206.01,420.957z"/>
<path fill="#72BBD2" d="M70.732,268.722c1.18-2.141,1.743-4.477,2.1-6.872c0.606-4.08,1.141-8.171,1.643-12.265
	c6.7-1.393,12.858-5.595,16.352-11.543c5-8.513-2.563-15.989-10.683-17.634c-0.896-0.182-1.855-0.295-2.839-0.332
	c0.175-2.812,0.299-5.622,0.415-8.435c4.972-2.297,9.61-5.028,12.735-9.95c2.94-4.63,3.945-10.889,2.043-16.095
	c-1.708-4.674-6.711-4.926-10.284-2.075c-7.13,5.691-7.031,16.736-7.216,25.505c-9.41,3.933-20.55,8.687-23.269,19.407
	c-2.674,10.549,4.134,19.854,14.633,21.413c1.674,0.25,3.368,0.299,5.047,0.171c-0.543,4.432-1.181,8.851-2.047,13.189
	c-1.172,5.863-6.849,12.14-13.344,11.11c-3.114-0.494-4.921-2.931-5.765-5.797c-0.938-3.185-1.194-8.77,2.335-9.612
	c0.085,0.415,0.188,0.817,0.31,1.188c1.018,3.105,4.954,2.865,6.06,0c0.008-0.021,0.016-0.04,0.023-0.061
	c0.406-1.052,0.229-1.936-0.268-2.586c-0.15-0.765-0.228-1.55-0.356-2.314c-0.212-1.257-1.705-2.331-2.947-2.244
	c-11.306,0.793-12.163,17.045-4.098,22.784C58.278,280.632,67.157,275.209,70.732,268.722z M78.061,203.679
	c0.265-5.444,0.838-11.399,3.972-16.029c1.331-1.966,4.734-4.585,6.896-2.407c1.984,1.999,1.39,6.507,0.888,8.927
	c-1.374,6.642-6.09,10.908-11.939,13.625C77.935,206.423,77.993,205.051,78.061,203.679z M77.114,222.913
	c0.001-0.014,0.002-0.027,0.003-0.041c5.785,0.908,11.926,5.192,10.721,10.613c-0.891,4.003-4.957,6.933-8.148,9.038
	c-1.433,0.946-3.001,1.654-4.638,2.139C75.876,237.427,76.568,230.175,77.114,222.913z M65.886,245.075
	c-4.781-0.942-8.788-3.938-10.175-8.707c-1.573-5.413,0.41-11.158,4.353-14.971c4.167-4.029,9.545-6.2,14.8-8.482
	c-0.113,2.428-0.26,4.855-0.434,7.282c-1.775,0.224-3.495,0.735-4.93,1.608c-3.34,2.038-3.795,5.905-2.909,9.416
	c0.244,0.971,1.683,0.556,1.486-0.41c-1.12-5.495,2.046-7.872,6.162-8.101c-0.391,4.949-0.882,9.893-1.428,14.819
	c-0.285,2.577-0.562,5.172-0.852,7.77C69.939,245.543,67.879,245.468,65.886,245.075z"/>
<path fill="#72BBD2" d="M327.712,82.705c3.564,5.769,10.68,6.753,15.928,2.729c0.838-0.643,1.595-1.38,2.265-2.188
	c1.748,2.164,3.45,4.364,5.018,6.634c2.117,3.065,2.468,8.325-0.809,10.788c-1.571,1.18-3.443,0.934-5.094,0.068
	c-1.832-0.959-4.442-3.265-3.291-5.211c0.223,0.143,0.447,0.271,0.665,0.377c1.833,0.891,3.431-0.977,2.628-2.714
	c-0.006-0.012-0.012-0.024-0.017-0.036c-0.296-0.638-0.769-0.941-1.274-1.001c-0.408-0.264-0.792-0.569-1.191-0.844
	c-0.654-0.449-1.781-0.246-2.282,0.349c-4.544,5.404,2.361,12.831,8.425,11.707c5.238-0.971,6.658-7.296,5.304-11.708
	c-0.447-1.456-1.249-2.721-2.167-3.918c-1.564-2.04-3.164-4.052-4.779-6.051c2.28-3.604,3.067-8.181,1.918-12.323
	c-1.645-5.927-8.27-5.782-12.524-2.859c-0.47,0.323-0.936,0.703-1.379,1.127c-1.183-1.297-2.388-2.57-3.597-3.841
	c1.126-3.221,1.913-6.481,1.064-10.013c-0.799-3.324-3.165-6.486-6.32-7.89c-2.833-1.261-5.113,0.869-5.386,3.704
	c-0.543,5.659,4.445,10.401,8.291,14.284C326.789,69.794,324.09,76.842,327.712,82.705z M345.622,68.728
	c1.405,2.134,0.955,5.224,0.516,7.564c-0.197,1.052-0.561,2.062-1.053,3.004c-2.882-3.505-5.829-6.957-8.844-10.349
	c-0.006-0.007-0.012-0.013-0.018-0.019C339.138,66.731,343.717,65.839,345.622,68.728z M333.861,68.973
	c-0.668,0.892-1.185,1.884-1.416,2.904c-0.535,2.378,1,4.257,2.955,5.383c0.541,0.311,0.979-0.513,0.461-0.844
	c-2.945-1.88-2.638-4.327-0.956-6.27c2.046,2.32,4.046,4.683,6.016,7.062c1.03,1.245,2.072,2.493,3.11,3.748
	c-0.768,1.01-1.694,1.9-2.733,2.623c-2.494,1.732-5.571,2.228-8.309,0.781c-3.104-1.641-4.817-5.019-4.815-8.437
	c0.002-3.611,1.36-6.959,2.615-10.302C331.827,66.726,332.851,67.842,333.861,68.973z M328.04,60.188
	c-2.322-2.478-4.741-5.315-5.455-8.725c-0.304-1.447-0.002-4.105,1.91-4.13c1.755-0.022,3.516,2.198,4.382,3.47
	c2.378,3.494,2.245,7.455,0.926,11.251C329.213,61.434,328.625,60.812,328.04,60.188z"/>
<path fill="#72BBD2" d="M268.865,452.344c-1.564-2.04-3.164-4.052-4.779-6.051c2.28-3.603,3.067-8.181,1.918-12.322
	c-1.645-5.927-8.27-5.781-12.524-2.859c-0.47,0.323-0.936,0.703-1.379,1.127c-1.184-1.296-2.388-2.57-3.597-3.841
	c1.126-3.221,1.913-6.481,1.064-10.014c-0.799-3.323-3.165-6.485-6.32-7.889c-2.833-1.262-5.113,0.868-5.386,3.704
	c-0.543,5.659,4.445,10.4,8.29,14.284c-2.316,5.916-5.016,12.965-1.394,18.828c3.564,5.77,10.68,6.753,15.928,2.729
	c0.838-0.642,1.594-1.38,2.265-2.187c1.748,2.164,3.45,4.364,5.018,6.633c2.117,3.065,2.467,8.327-0.809,10.789
	c-1.571,1.18-3.443,0.933-5.094,0.068c-1.832-0.959-4.443-3.265-3.291-5.21c0.223,0.141,0.447,0.269,0.665,0.375
	c1.833,0.892,3.431-0.976,2.628-2.713c-0.006-0.012-0.012-0.024-0.017-0.037c-0.296-0.637-0.769-0.94-1.274-1
	c-0.408-0.264-0.792-0.57-1.191-0.844c-0.654-0.449-1.781-0.246-2.282,0.348c-4.544,5.405,2.361,12.832,8.425,11.708
	c5.238-0.971,6.658-7.296,5.304-11.708C270.585,454.808,269.783,453.542,268.865,452.344z M245.087,424.794
	c-2.322-2.477-4.741-5.315-5.456-8.725c-0.303-1.447-0.001-4.105,1.911-4.131c1.755-0.022,3.516,2.198,4.382,3.472
	c2.378,3.493,2.244,7.454,0.926,11.249C246.26,426.04,245.672,425.419,245.087,424.794z M258.345,448.186
	c-2.494,1.731-5.571,2.228-8.309,0.781c-3.104-1.641-4.817-5.019-4.815-8.437c0.002-3.612,1.36-6.96,2.615-10.303
	c1.038,1.104,2.062,2.222,3.072,3.351c-0.668,0.892-1.186,1.884-1.416,2.904c-0.535,2.379,1,4.258,2.955,5.383
	c0.541,0.312,0.979-0.512,0.461-0.843c-2.945-1.88-2.638-4.328-0.956-6.27c2.046,2.32,4.046,4.682,6.016,7.062
	c1.03,1.245,2.072,2.492,3.11,3.748C260.311,446.573,259.384,447.463,258.345,448.186z M263.185,440.898
	c-0.197,1.051-0.561,2.062-1.053,3.004c-2.882-3.505-5.829-6.958-8.844-10.349c-0.006-0.006-0.013-0.013-0.018-0.02
	c2.914-2.196,7.493-3.089,9.398-0.2C264.074,435.468,263.624,438.558,263.185,440.898z"/>
<path fill="#72BBD2" d="M431.117,291.308c-8.5-2.356-18.495,1.963-17.906,11.901c0.234,3.941,3.35,6.163,7.129,5.333
	c2.642-0.58,5.739-2.979,5.793-5.882c0.032-1.733-1.328-2.972-2.86-3.487c-1.515-0.51-2.669-0.21-3.756,0.492
	c1.976-4.015,8.972-3.125,12.291-1.623c6.98,3.157,6.644,12.519,4.405,18.538c-1.363,3.666-3.728,7.202-6.248,10.174
	c-1.378,1.625-2.783,2.899-4.601,4.019c-1.051,0.646-2.038,1.344-3.143,1.904c-1.325,0.672-2.796,0.846-4.166,1.377
	c-0.231,0.09-0.194,0.406,0.057,0.428c2.636,0.216,5.602-0.931,8.04-1.839c2.406-0.896,4.519-2.459,6.402-4.167
	c3.933-3.565,6.602-8.313,8.266-13.328C443.885,305.911,441.52,294.192,431.117,291.308z"/>
<path fill="#72BBD2" d="M448.513,313.402c-1.43,0-2.622,1.192-2.622,2.622c0,1.429,1.192,2.621,2.622,2.621
	c1.429,0,2.621-1.192,2.621-2.621C451.134,314.595,449.941,313.402,448.513,313.402z"/>
<path fill="#72BBD2" d="M448.513,306.057c3.432,0,3.432-5.32,0-5.32C445.082,300.736,445.082,306.057,448.513,306.057z"/>
<g>
</g>
<g>
</g>
<g>
</g>
<g>
</g>
<g>
</g>
<g>
</g>
</svg>
