<?xml version="1.0" encoding="utf-8"?>
<!-- Generator: Adobe Illustrator 16.0.4, SVG Export Plug-In . SVG Version: 6.00 Build 0)  -->
<!DOCTYPE svg PUBLIC "-//W3C//DTD SVG 1.1//EN" "http://www.w3.org/Graphics/SVG/1.1/DTD/svg11.dtd">
<svg version="1.1" id="Ares" xmlns="http://www.w3.org/2000/svg" xmlns:xlink="http://www.w3.org/1999/xlink" x="0px" y="0px"
	 width="490px" height="490px" viewBox="0 0 490 490" enable-background="new 0 0 490 490" xml:space="preserve">
<g id="Ares_1_">
	<path fill="#8D281D" d="M450.204,260.139c0-119.004-85.01-216.331-192.356-223.57c0.098,10.234-0.32,20.42-0.347,30.677
		c45.014,9.65,79.518,64.741,79.518,131.262c0,2.062-0.037,4.11-0.104,6.149c3.47,4.343,6.667,9.188,9.584,14.592
		c12.49,22.378,3.499,46.582-15.332,61.779c-7.411,8.897-17.855,16.566-30.429,22.422c-2.181,2.399-4.437,4.669-6.765,6.793
		c0.233,1.02,0.463,2.047,0.687,3.082c6.537,4.166,13.075,8.064,19.614,13.149c-0.305,0.161-0.597,0.338-0.891,0.511
		c1.616,0.013,3.237-0.014,4.872-0.121c6.621-0.435,13.127-1.414,19.479-3.169c1.13-5.311,5.458-11.27,8.185-13.729
		c3.652-3.297,8.269,0.145,8.026,3.952c1.6-0.696,3.2-1.199,4.74-1.396v-84.23l-8.89-19.146l10.668-45.131v-3.756l0.443,1.878
		l0.444-1.878v3.756l10.667,45.131l-8.889,19.145v84.713c1.508,0.612,2.86,1.745,3.963,3.582c3.01,5.015,0.031,10.937-3.963,14.51
		v112.225C415.801,402.77,450.204,335.841,450.204,260.139z"/>
	<path fill="#8D281D" d="M350.866,335.648c-1.256-0.121-2.564-0.197-3.794-0.476c-9.478,3.557-20.049,5.175-30.126,4.897
		c-4.821-0.134-9.521-0.628-14.055-1.686c-1.829,3.368-3.236,7.104-4.303,10.986c-0.215,6.235-1.063,12.173-2.771,17.515
		c-0.125,2.008-0.188,3.959-0.204,5.823c4.524,11.121,4.995,26.382,1.407,36.429c-3.573-2.858-6.825-6.485-9.793-10.483
		c-0.308,4.057-0.439,7.317-0.167,9c2.036,12.566,1.298,17.707-0.042,28.043c4.317,1.506,8.625,4.156,10.116,7.513
		c6.519,12.445-13.63,7.704-20.741,5.927c-13.086-2.183-18.778-4.049-17.566-11.26h-0.036c-0.718-2.399-1.137-2.162-0.768-4.741
		c1.506-10.545,2.538-19.939,2.953-28.907c-1.132-2.517-2.044-5.118-2.843-7.762c-3.849,6.924-9.346,13.688-16.433,21.561
		c-0.322-0.218-0.638-0.45-0.955-0.68c-0.317,0.229-0.634,0.462-0.956,0.68c-7.086-7.871-12.584-14.636-16.432-21.561
		c-0.635,2.1-1.341,4.174-2.171,6.199c0.362,9.44,1.422,19.309,3.016,30.47c0.369,2.579-0.05,2.342-0.767,4.741h-0.037
		c1.212,7.211-4.48,9.077-17.566,11.26c-7.111,1.777-27.26,6.519-20.741-5.927c1.491-3.356,5.799-6.007,10.116-7.513
		c-1.34-10.336-2.078-15.477-0.042-28.043c0.293-1.807,0.118-5.43-0.236-9.906c-3.146,4.356-6.617,8.316-10.459,11.39
		c-3.481-9.749-3.143-24.407,1.013-35.429c-0.337-0.042-0.675-0.081-1.012-0.125c0-9.918-1.37-22.565-6.008-32.655
		c-3.842,4.779-7.27,9.812-10.116,15.208c3.093,4.463,4.465,11.697,4.388,15.369c-0.104,4.918-5.772,5.921-8.381,3.136
		c-1.848,5.153-5.079,9.026-10.95,7.746c-6.665-1.451-8.648-9.679-7.592-15.4c0.603-3.269,2.271-7.237,4.83-9.48
		c0.949-0.832,1.902-1.732,2.947-2.438c3.894-9.311,9.936-18.091,17.015-25.227c-1.454-1.301-3.046-2.439-4.799-3.368
		c7.684-5.977,15.366-10.314,23.05-15.374c0.287-1.273,0.582-2.534,0.882-3.781c-0.383-0.381-0.765-0.766-1.144-1.153
		c-14.541-5.765-26.688-13.831-35.254-23.423c-20.325-15.047-30.522-40.255-17.552-63.494c4.11-7.612,8.772-14.121,13.978-19.663
		c-0.002-0.36-0.009-0.718-0.009-1.078c0-68.978,37.1-125.663,84.548-132.14c-0.004-9.907-0.077-20.001-0.011-29.933
		C125.938,42.514,39.796,140.344,39.796,260.139c0,123.712,91.872,224.002,205.203,224.002c42.05,0,81.143-13.81,113.688-37.495
		V333.983C356.235,335.127,353.375,335.891,350.866,335.648z"/>
	<path fill="#CE5630" d="M234.305,66.368c2.988-0.408,6.018-0.624,9.082-0.624c4.798,0,9.511,0.514,14.114,1.501
		c0.026-10.257,0.444-20.443,0.347-30.677c-0.073-7.607-0.432-15.241-1.454-22.95c-2.706,6.636-3.416,14.8-3.361,21.966
		c-0.818-6.168-2.043-22.146-5.737-29.725c-4.235,8.631-4.478,20.32-5.071,29.365c-2.05-8.694-4.216-18.271-7.148-26.848
		c-0.521,8.98-0.717,18.442-0.781,28.059C234.228,46.367,234.301,56.461,234.305,66.368z"/>
	<path fill="#F6B119" d="M293.974,310.243c2.328-2.124,4.584-4.394,6.765-6.793c-2.457,1.144-4.996,2.217-7.608,3.217
		C293.417,307.847,293.698,309.038,293.974,310.243z"/>
	<path fill="#F6B119" d="M188.594,306.166c0.379,0.388,0.761,0.772,1.144,1.153c0.052-0.217,0.104-0.435,0.157-0.651
		C189.46,306.501,189.024,306.336,188.594,306.166z"/>
	<path fill="#F6B119" d="M234.305,66.368c-47.448,6.477-84.548,63.162-84.548,132.14c0,0.36,0.007,0.718,0.009,1.078
		c1.4-1.491,2.843-2.909,4.322-4.261c11.969-43.513,47.42-75.065,89.299-75.065c43.813,0,80.592,34.532,90.807,81.165
		c0.925,1.046,1.833,2.121,2.722,3.233c0.066-2.039,0.104-4.088,0.104-6.149c0-66.521-34.504-121.612-79.518-131.262
		c-4.604-0.987-9.316-1.501-14.114-1.501C240.322,65.744,237.293,65.96,234.305,66.368z M318.263,136.2
		c-1.626,0.703-3.202,1.516-4.717,2.432c-2.11-4.272-4.352-8.48-6.677-12.627c1.862-1.345,3.76-2.64,5.694-3.873
		C314.816,126.684,316.674,131.393,318.263,136.2z M254.941,74.021c5.49,2.035,11.032,3.568,16.402,5.972
		c7.091,3.174,13.729,7.64,19.421,12.924c6.699,6.217,12.465,13.39,17.283,21.148c-1.985,1.247-3.938,2.549-5.855,3.902
		c-4.641-7.56-10.018-14.695-16.462-20.812c-9.214-8.747-20.028-15.996-31.514-21.417C253.257,75.286,253.943,73.652,254.941,74.021
		z"/>
	<path fill="#FFEBC2" d="M332.277,258.953c-1.778-4.148-5.333-4.148-5.926-8.889c-0.593-4.148,3.556-5.926,3.556-9.481
		c0.592-11.26-5.927-7.704-11.853-13.037c-6.519-5.927,0.593-13.631-7.704-18.371c-4.74-2.963-13.037,2.37-18.37-1.186
		c-2.317-1.391-3.366-3.054-4.208-4.775h-32.988c-3.371-0.208-6.775-0.314-10.212-0.314c-3.442,0-6.853,0.106-10.229,0.314h-39.827
		c-0.843,1.722-1.891,3.385-4.209,4.775c-5.333,3.556-13.63-1.777-18.37,1.186c-8.297,4.74-1.186,12.444-7.704,18.371
		c-5.926,5.333-12.444,1.777-11.852,13.037c0,3.556,4.147,5.333,3.555,9.481c-0.592,4.74-4.147,4.74-5.926,8.889
		c-2.963,7.704,4.148,22.519,9.481,27.853c-2.138-1.253-4.191-2.611-6.152-4.062c8.565,9.592,20.713,17.658,35.254,23.423
		c0.431,0.17,0.866,0.335,1.301,0.502c-0.053,0.217-0.105,0.435-0.157,0.651c-0.3,1.247-0.595,2.508-0.882,3.781
		c0.316-0.208,0.633-0.415,0.949-0.626l-0.89,1.778c6.223,3.556,14.223,5.333,22.222,7.111c5.735,1.638,22.785-0.496,28.903,1.247
		c6.117-1.743,23.168,0.391,28.902-1.247c8-1.778,15.999-3.556,22.222-7.111l-0.89-1.778c1.462,0.975,2.924,1.919,4.386,2.851
		c-0.224-1.035-0.453-2.062-0.687-3.082c-0.275-1.205-0.557-2.396-0.844-3.576c2.612-1,5.151-2.073,7.608-3.217
		c12.573-5.855,23.018-13.524,30.429-22.422c-2.612,2.108-5.412,4.045-8.371,5.777C328.129,281.472,335.24,266.657,332.277,258.953z
		 M270.082,218.092c3.874-4.317,10.635-5.432,16.118-5.908c3.386-0.295,4.174,5.428,0.805,5.947
		c-5.209,0.805-10.515,2.446-15.766,2.755C269.725,220.975,269.193,219.082,270.082,218.092z M238.071,260.046l-0.005-0.143
		c0-3.49,1.947-6.32,4.347-6.32c2.4,0,4.346,2.83,4.346,6.32l-0.005,0.143c4.841,1.219,8.301,4.404,8.301,8.154
		c0,4.8-5.659,8.69-12.642,8.69s-12.642-3.891-12.642-8.69C229.771,264.45,233.231,261.265,238.071,260.046z M248.431,291.112
		c-3.146-0.454-6.366-0.992-9.539-1.187c-2.758-0.17-5.76-0.15-8.437-0.812c-0.641-0.158-0.877-1.036-0.394-1.489
		c4.772-4.482,13.312-3.387,19.195-2.619C253.732,285.588,252.909,291.758,248.431,291.112z M198.546,212.184
		c5.483,0.477,12.245,1.591,16.119,5.908c0.888,0.99,0.356,2.883-1.158,2.794c-5.251-0.309-10.557-1.95-15.765-2.755
		C194.372,217.611,195.16,211.889,198.546,212.184z M203.302,224.742c3.346,0,6.418,1.688,8.848,4.508
		c1.354,0.809,2.318,2.196,2.549,3.824c1.774,3.461,2.826,7.756,2.826,12.41c0,11.455-6.368,20.741-14.223,20.741
		c-7.855,0-14.223-9.286-14.223-20.741C189.079,234.028,195.446,224.742,203.302,224.742z M282.315,266.226
		c-7.855,0-14.223-9.286-14.223-20.741c0-11.456,6.367-20.742,14.223-20.742c3.345,0,6.418,1.688,8.847,4.508
		c1.354,0.809,2.318,2.196,2.55,3.823c1.775,3.461,2.826,7.757,2.826,12.411C296.538,256.939,290.169,266.226,282.315,266.226z"/>
	<path fill="#FFEBC2" d="M298.589,349.371c-1.585,5.773-2.421,11.859-2.771,17.515C297.525,361.544,298.374,355.606,298.589,349.371
		z"/>
	<path fill="#FFEBC2" d="M208.931,418.916c-8.776-8.401-10.461-17.54-10.083-27.024c-1.247,2-2.553,3.965-3.918,5.856
		c0.354,4.477,0.529,8.1,0.236,9.906c-2.036,12.566-1.298,17.707,0.042,28.043c-4.317,1.506-8.625,4.156-10.116,7.513
		c-6.519,12.445,13.63,7.704,20.741,5.927c13.086-2.183,18.778-4.049,17.566-11.26h0.037c0.717-2.399,1.136-2.162,0.767-4.741
		c-1.594-11.161-2.653-21.029-3.016-30.47C218.705,408.722,215.104,414.342,208.931,418.916z"/>
	<path fill="#FFEBC2" d="M272.561,418.916c-5.64-4.179-9.129-9.229-11.584-14.688c-0.415,8.968-1.447,18.362-2.953,28.907
		c-0.369,2.579,0.05,2.342,0.768,4.741h0.036c-1.212,7.211,4.48,9.077,17.566,11.26c7.111,1.777,27.26,6.519,20.741-5.927
		c-1.491-3.356-5.799-6.007-10.116-7.513c1.34-10.336,2.078-15.477,0.042-28.043c-0.272-1.683-0.141-4.943,0.167-9
		c-1.609-2.167-3.137-4.44-4.584-6.763C283.022,401.376,281.337,410.515,272.561,418.916z"/>
	<path fill="#FFEBC2" d="M170.604,329.843c-7.079,7.136-13.121,15.916-17.015,25.227c-1.045,0.705-1.998,1.605-2.947,2.438
		c-2.56,2.243-4.228,6.212-4.83,9.48c-1.057,5.722,0.927,13.949,7.592,15.4c5.871,1.28,9.103-2.593,10.95-7.746
		c2.608,2.785,8.277,1.782,8.381-3.136c0.077-3.672-1.295-10.906-4.388-15.369c2.847-5.396,6.274-10.429,10.116-15.208
		C176.488,336.63,173.915,332.803,170.604,329.843z"/>
	<path fill="#FFEBC2" d="M302.892,338.385c4.534,1.058,9.233,1.552,14.055,1.686c10.077,0.277,20.648-1.341,30.126-4.897
		c1.229,0.278,2.538,0.354,3.794,0.476c2.509,0.242,5.369-0.521,7.82-1.665v-21.461c-1.54,0.197-3.141,0.7-4.74,1.396
		c0.242-3.808-4.374-7.249-8.026-3.952c-2.727,2.459-7.055,8.418-8.185,13.729c-6.353,1.755-12.858,2.734-19.479,3.169
		c-1.635,0.107-3.256,0.134-4.872,0.121C308.893,329.622,305.472,333.633,302.892,338.385z"/>
	<path fill="#FFEBC2" d="M367.094,316.585c-1.103-1.837-2.455-2.97-3.963-3.582v18.092
		C367.125,327.521,370.104,321.6,367.094,316.585z"/>
	<path fill="#403829" d="M293.771,233.829c0,2.945-2.388,5.333-5.333,5.333c-2.946,0-5.334-2.388-5.334-5.333
		s2.388-5.333,5.334-5.333c0.996,0,1.926,0.278,2.724,0.754c-2.429-2.819-5.502-4.508-8.847-4.508
		c-7.855,0-14.223,9.286-14.223,20.742c0,11.455,6.367,20.741,14.223,20.741c7.854,0,14.223-9.286,14.223-20.741
		c0-4.654-1.051-8.95-2.826-12.411C293.747,233.321,293.771,233.572,293.771,233.829z M295.55,245.683
		c0,1.744-1.416,3.159-3.161,3.159s-3.159-1.415-3.159-3.159c0-1.747,1.414-3.16,3.159-3.16S295.55,243.936,295.55,245.683z"/>
	<path fill="#FFFFFF" d="M283.104,233.829c0,2.945,2.388,5.333,5.334,5.333c2.945,0,5.333-2.388,5.333-5.333
		c0-0.257-0.024-0.508-0.06-0.756c-0.231-1.627-1.195-3.015-2.55-3.823c-0.798-0.476-1.728-0.754-2.724-0.754
		C285.492,228.496,283.104,230.884,283.104,233.829z"/>
	<circle fill="#9D9B93" cx="292.39" cy="245.683" r="3.16"/>
	<path fill="#403829" d="M203.302,266.226c7.854,0,14.223-9.286,14.223-20.741c0-4.654-1.052-8.949-2.826-12.41
		c0.036,0.248,0.061,0.498,0.061,0.755c0,2.945-2.389,5.333-5.334,5.333s-5.333-2.388-5.333-5.333s2.388-5.333,5.333-5.333
		c0.997,0,1.926,0.278,2.725,0.754c-2.43-2.819-5.502-4.508-8.848-4.508c-7.855,0-14.223,9.286-14.223,20.742
		C189.079,256.939,195.446,266.226,203.302,266.226z M213.376,242.522c1.746,0,3.16,1.413,3.16,3.16c0,1.744-1.414,3.159-3.16,3.159
		s-3.16-1.415-3.16-3.159C210.216,243.936,211.63,242.522,213.376,242.522z"/>
	<path fill="#FFFFFF" d="M204.092,233.829c0,2.945,2.388,5.333,5.333,5.333s5.334-2.388,5.334-5.333
		c0-0.257-0.024-0.507-0.061-0.755c-0.23-1.628-1.194-3.016-2.549-3.824c-0.799-0.476-1.728-0.754-2.725-0.754
		C206.479,228.496,204.092,230.884,204.092,233.829z"/>
	<circle fill="#9D9B93" cx="213.376" cy="245.682" r="3.16"/>
	<path fill="#F8B3AD" d="M242.413,276.891c6.982,0,12.642-3.891,12.642-8.69c0-3.75-3.46-6.936-8.301-8.154l0.005-0.143
		c0-3.49-1.945-6.32-4.346-6.32c-2.399,0-4.347,2.83-4.347,6.32l0.005,0.143c-4.84,1.219-8.3,4.404-8.3,8.154
		C229.771,273,235.431,276.891,242.413,276.891z"/>
	<path fill="#F37D6B" d="M249.257,285.005c-5.883-0.768-14.423-1.863-19.195,2.619c-0.483,0.453-0.247,1.331,0.394,1.489
		c2.677,0.662,5.679,0.643,8.437,0.812c3.173,0.194,6.394,0.732,9.539,1.187C252.909,291.758,253.732,285.588,249.257,285.005z"/>
	<path fill="#F59E2B" d="M334.575,203.214h-46.803c0.842,1.722,1.891,3.385,4.208,4.775c5.333,3.556,13.63-1.777,18.37,1.186
		c8.297,4.74,1.186,12.444,7.704,18.371c5.926,5.333,12.444,1.777,11.853,13.037c0,3.556-4.148,5.333-3.556,9.481
		c0.593,4.74,4.147,4.74,5.926,8.889c2.963,7.704-4.148,22.519-9.481,27.853c2.959-1.732,5.759-3.669,8.371-5.777
		c18.831-15.197,27.822-39.401,15.332-61.779c-2.917-5.403-6.114-10.249-9.584-14.592c-0.889-1.112-1.797-2.188-2.722-3.233
		C334.323,202.019,334.453,202.615,334.575,203.214z"/>
	<path fill="#F59E2B" d="M150.011,258.953c1.778-4.148,5.334-4.148,5.926-8.889c0.593-4.148-3.555-5.926-3.555-9.481
		c-0.593-11.26,5.926-7.704,11.852-13.037c6.519-5.927-0.593-13.631,7.704-18.371c4.74-2.963,13.037,2.37,18.37-1.186
		c2.318-1.391,3.366-3.054,4.209-4.775h-42.317c0.543-2.67,1.177-5.3,1.889-7.889c-1.479,1.352-2.922,2.77-4.322,4.261
		c-5.205,5.542-9.867,12.051-13.978,19.663c-12.971,23.239-2.773,48.447,17.552,63.494c1.961,1.451,4.015,2.81,6.152,4.062
		C154.159,281.472,147.048,266.657,150.011,258.953z"/>
	<path fill="#F59E2B" d="M271.239,220.886c5.251-0.309,10.557-1.95,15.766-2.755c3.369-0.52,2.581-6.242-0.805-5.947
		c-5.483,0.477-12.244,1.591-16.118,5.908C269.193,219.082,269.725,220.975,271.239,220.886z"/>
	<path fill="#F59E2B" d="M197.742,218.131c5.208,0.805,10.514,2.446,15.765,2.755c1.515,0.089,2.046-1.804,1.158-2.794
		c-3.874-4.317-10.636-5.432-16.119-5.908C195.16,211.889,194.372,217.611,197.742,218.131z"/>
	<path fill="#F8C036" d="M194.517,203.214h39.827c3.376-0.208,6.786-0.314,10.229-0.314c3.437,0,6.841,0.106,10.212,0.314h32.988
		h46.803c-0.122-0.599-0.252-1.195-0.382-1.79c-10.215-46.633-46.993-81.165-90.807-81.165c-41.879,0-77.33,31.552-89.299,75.065
		c-0.712,2.589-1.346,5.219-1.889,7.889H194.517z M318.843,191.003c-1.291,0.329-2.559,0.745-3.791,1.245
		c-1.06-3.424-2.223-6.815-3.455-10.171c1.541-0.776,3.105-1.512,4.688-2.198C317.416,183.527,318.234,187.246,318.843,191.003z
		 M279.226,137.301c3.834,2.165,7.768,3.961,11.469,6.386c4.887,3.201,9.284,7.306,12.882,11.907
		c4.234,5.414,7.661,11.425,10.315,17.76c-1.623,0.689-3.227,1.423-4.812,2.2c-2.546-6.165-5.689-12.103-9.747-17.412
		c-5.8-7.59-12.967-14.261-20.85-19.653C277.825,138.04,278.529,136.908,279.226,137.301z"/>
	<path fill="#FFFFFF" d="M254.217,75.739c11.485,5.421,22.3,12.67,31.514,21.417c6.444,6.117,11.821,13.252,16.462,20.812
		c1.918-1.353,3.87-2.655,5.855-3.902c-4.818-7.759-10.584-14.932-17.283-21.148c-5.692-5.285-12.33-9.75-19.421-12.924
		c-5.37-2.404-10.912-3.937-16.402-5.972C253.943,73.652,253.257,75.286,254.217,75.739z"/>
	<path fill="#FFFFFF" d="M313.546,138.632c1.515-0.917,3.091-1.729,4.717-2.432c-1.589-4.807-3.446-9.517-5.699-14.068
		c-1.935,1.233-3.832,2.528-5.694,3.873C309.194,130.152,311.436,134.36,313.546,138.632z"/>
	<path fill="#B96B43" d="M246.717,376.225l-0.025,0.025c-2.228,0-4.443,0-6.651-0.004c-2.209,0.004-4.425,0.004-6.652,0.004
		l-0.026-0.025c-16.241-0.092-32.064-0.521-47.878-2.516c-4.155,11.021-4.494,25.68-1.013,35.429
		c3.842-3.073,7.312-7.033,10.459-11.39c1.365-1.892,2.671-3.856,3.918-5.856c-0.378,9.484,1.307,18.623,10.083,27.024
		c6.174-4.574,9.774-10.194,12.257-16.25c0.83-2.025,1.536-4.1,2.171-6.199c3.848,6.925,9.346,13.689,16.432,21.561
		c0.322-0.218,0.639-0.45,0.956-0.68c0.317,0.229,0.633,0.462,0.955,0.68c7.087-7.872,12.584-14.637,16.433-21.561
		c0.799,2.644,1.711,5.245,2.843,7.762c2.455,5.458,5.944,10.509,11.584,14.688c8.776-8.401,10.462-17.54,10.083-27.024
		c1.447,2.322,2.975,4.596,4.584,6.763c2.968,3.998,6.22,7.625,9.793,10.483c3.588-10.047,3.117-25.308-1.407-36.429
		c-0.002,0.293-0.006,0.587-0.006,0.875C279.458,375.689,263.306,376.131,246.717,376.225z"/>
	<path fill="#FFFFFF" d="M278.483,138.49c7.883,5.392,15.05,12.062,20.85,19.653c4.058,5.309,7.201,11.247,9.747,17.412
		c1.585-0.777,3.188-1.511,4.812-2.2c-2.654-6.335-6.081-12.346-10.315-17.76c-3.598-4.601-7.995-8.707-12.882-11.907
		c-3.701-2.424-7.635-4.221-11.469-6.386C278.529,136.908,277.825,138.04,278.483,138.49z"/>
	<path fill="#FFFFFF" d="M315.052,192.248c1.232-0.5,2.5-0.916,3.791-1.245c-0.608-3.757-1.427-7.476-2.558-11.124
		c-1.583,0.686-3.147,1.421-4.688,2.198C312.829,185.433,313.992,188.824,315.052,192.248z"/>
	<path fill="#F8C036" d="M290.274,310.475l0.89,1.778c-6.223,3.556-14.222,5.333-22.222,7.111
		c-5.734,1.638-22.785-0.496-28.902,1.247c-6.118-1.743-23.168,0.391-28.903-1.247c-7.999-1.778-15.999-3.556-22.222-7.111
		l0.89-1.778c-0.316,0.211-0.633,0.418-0.949,0.626c-7.684,5.06-15.366,9.397-23.05,15.374c1.753,0.929,3.345,2.067,4.799,3.368
		c3.311,2.96,5.884,6.787,7.859,11.086c4.638,10.09,6.008,22.737,6.008,32.655c0.337,0.044,0.675,0.083,1.012,0.125
		c15.813,1.995,31.637,2.424,47.878,2.516l0.026,0.025c2.228,0,4.443,0,6.652-0.004c2.208,0.004,4.424,0.004,6.651,0.004
		l0.025-0.025c16.589-0.094,32.741-0.535,48.891-2.641c0-0.288,0.004-0.582,0.006-0.875c0.016-1.864,0.079-3.815,0.204-5.823
		c0.351-5.655,1.187-11.741,2.771-17.515c1.066-3.882,2.474-7.618,4.303-10.986c2.58-4.752,6.001-8.763,10.492-11.399
		c0.294-0.173,0.586-0.35,0.891-0.511c-6.539-5.085-13.077-8.983-19.614-13.149C293.198,312.394,291.736,311.449,290.274,310.475z"
		/>
	<polygon fill="#F8C036" points="363.131,313.003 363.131,228.29 372.02,209.146 361.353,164.014 361.353,160.258 360.908,162.136 
		360.465,160.258 360.465,164.014 349.797,209.146 358.687,228.292 358.687,312.522 358.687,333.983 358.687,446.646 
		358.687,458.025 363.131,458.025 363.131,443.319 363.131,364.413 363.131,331.095 	"/>
</g>
<g>
</g>
<g>
</g>
<g>
</g>
<g>
</g>
<g>
</g>
<g>
</g>
</svg>
