<?xml version="1.0" encoding="utf-8"?>
<!-- Generator: Adobe Illustrator 16.0.4, SVG Export Plug-In . SVG Version: 6.00 Build 0)  -->
<!DOCTYPE svg PUBLIC "-//W3C//DTD SVG 1.1//EN" "http://www.w3.org/Graphics/SVG/1.1/DTD/svg11.dtd">
<svg version="1.1" id="Poseidon_1_" xmlns="http://www.w3.org/2000/svg" xmlns:xlink="http://www.w3.org/1999/xlink" x="0px"
	 y="0px" width="490px" height="490px" viewBox="0 0 490 490" enable-background="new 0 0 490 490" xml:space="preserve">
<path fill="#023A31" d="M63.653,171.3c4.331-4.309,7.115-9.844,8.834-15.666c4.12-13.949,4.933-29.243,15.884-40.076
	c6.071-6.006,13.245-10,21.065-13.257c7.752-3.229,16.364-6.344,22.879-11.834c4.211-3.551,6.032-7.771,7.139-13.078
	c1.401-6.725,2.53-13.549,6.113-19.548c6.104-10.214,16.853-13.869,27.919-16.211c6.945-1.469,14.048-2.336,20.906-4.188
	c6.622-1.787,13.917-4.28,18.61-9.565c3.587-4.041,7.194-11.516,4.062-16.736c-0.725-1.207-1.638-2.206-2.671-3.064
	C122.679,21.449,48.636,94.066,27.226,188.613c7.451-3.524,15.338-6.104,23.108-9.274C55.112,177.391,59.957,174.975,63.653,171.3z"
	/>
<path fill="#023A31" d="M163.049,51.714c-5.338,1.78-10.001,4.76-12.963,10.459c-1.022,1.966-1.801,4.051-2.458,6.193
	c1.074-2.403,2.37-4.697,4.03-6.816C155.031,57.24,158.871,54.052,163.049,51.714z"/>
<path fill="#023A31" d="M218.93,33.804c-6.254,6.627-14.672,9.921-23.463,11.959c13.034,0.333,26.447,2.197,38.156,1.035
	c8.208-0.814,16.891-3.513,23.103-9.177c4.66-4.25,9.729-9.903,10.989-16.291c1.425-7.229-5.107-9.58-11.205-9.341
	c-1.933,0.076-6.682,0.081-7.881,1.984c-2.176,3.455-1.697,7.215-2.877,10.955c-0.559,1.774-3.039,1.78-3.595,0
	c-1.674-5.346-0.422-14.178,5.299-16.742c2.591-1.162,5.461-1.862,8.364-2.05c-3.584-0.182-7.192-0.277-10.818-0.277
	c-7.23,0-14.377,0.37-21.432,1.085c0.292,0.454,0.559,0.926,0.797,1.416C228.431,16.729,225.081,27.285,218.93,33.804z"/>
<path fill="#023A31" d="M344.179,448.576c-2.704,5.771-6.312,11.053-10.356,16.03c1.245-0.574,2.483-1.159,3.715-1.757
	c3.275-3.254,5.657-7.229,6.408-12.258C344.046,449.924,344.122,449.252,344.179,448.576z"/>
<path fill="#023A31" d="M367.401,224.259c2.083,3.839,2.987,8.038,1.248,12.646c-0.47,1.243-1.054,2.375-1.718,3.429
	c-0.284,1.382-0.731,2.751-1.389,4.099c-1.425,2.915-3.727,5.073-6.309,6.949c-3.402,6.457-7.371,10.989-15.067,13.188
	c-0.185,0.053-0.362,0.1-0.542,0.148c-0.394,0.827-0.756,1.731-1.112,2.763c-0.158,0.461-0.294,0.939-0.42,1.424
	c4.296,0.121,8.584-0.006,12.864-0.445c2.191-5.53,7.954-11.178,11.349-13.338c2.54-1.617,5.021-0.906,6.551,0.747l17.579-47.163
	c-1.726-0.064-3.456-0.218-5.159-0.514c-0.448,2.223-1.343,4.379-2.799,6.379C378.948,219.108,371.897,220.515,367.401,224.259z"/>
<path fill="#023A31" d="M330.527,267.971c0.929,0.139,1.862,0.262,2.804,0.357c0.521,0.055,1.042,0.098,1.564,0.145
	c0.096-0.73,0.188-1.459,0.287-2.186C333.536,266.596,332.052,267.035,330.527,267.971z"/>
<path fill="#023A31" d="M445.675,138.586c-6.366,11.729-7.82,24.706-6.355,37.829c0.588,5.269,1.441,10.354,0.562,15.648
	c-0.757,4.554-2.125,8.842-4.446,12.847c-4.061,7.01-10.916,12.487-19.21,13.062c-4.478,0.311-8.992-0.687-12.964-2.769
	c-2.255-1.18-4.392-2.554-6.322-4.209c-0.325,0.789-0.651,1.577-0.986,2.362c-0.565,1.334-1.139,2.795-1.854,4.159l-15.924,42.718
	c4.258-0.252,7.948,1.178,9.797,5.903c2.725,6.958-3.572,13.766-9.431,16.278c-2.667,1.146-6.15,1.941-9.277,1.725l-42.397,113.74
	l-6.1-2.271L362.9,282.573c-8.641,1.672-17.801,1.895-26.628,0.846c-4.942,3.576-12.393,2.035-18.08,1.934
	c-0.488-0.01-0.88-0.162-1.179-0.4c-2.389,2.942-5.243,5.472-9.21,6.888c-0.13,0.061-0.26,0.105-0.39,0.162
	c-0.136,4.272-0.541,8.422-1.276,12.361c0.121-0.062,0.248-0.121,0.368-0.186c-0.195,0.389-0.379,0.778-0.559,1.169
	c-0.771,3.809-1.862,7.417-3.327,10.748c-1.793,10.165-0.374,20.372-1.309,31.589c-1.299,15.583-9.74,31.168-20.779,42.205
	c-24.024,22.727-61.686,35.064-92.204,19.479c-8.914-4.8-17.284-9.781-24.633-15.802c-2.042,6.495-2.695,13.415-1.738,19.85
	c0.976,6.563,2.104,13.629-0.797,19.866c-2.334,5.022-6.376,8.695-11.558,10.633c-5.132,1.918-10.694,2.191-16.1,2.688
	c-2.398,0.221-5.035,0.434-7.529,1.029c34.486,23.129,75.293,36.508,119.028,36.508c18.659,0,36.783-2.438,54.112-7.026
	c0.883-0.77,1.735-1.576,2.545-2.44c4.39-4.668,8.249-9.892,11.293-15.537c2.982-5.53,5.797-11.787,5.682-18.206
	c-0.22-12.271-12.729-18.57-23.783-16.417c-9.425,1.836-21.643,8.712-20.468,19.968c0.557,5.335,3.652,10.273,8.864,12.051
	c5.565,1.897,10.267-0.408,12.015-6.136c0.896-2.932,5.039-1.689,4.52,1.246c-2.304,13.058-18.475,15.038-26.754,5.905
	c-8.554-9.435-7.013-23.562,2.409-31.737c8.485-7.362,21.541-11.396,32.553-7.951c12.89,4.034,19.833,15.997,17.1,29.135
	c-1.363,6.554-4.314,12.805-7.995,18.37c-1.817,2.746-3.79,5.548-5.946,8.181c5.991-1.975,11.875-4.209,17.64-6.692
	c6.893-8.39,12.89-17.478,15.245-28.171c-0.472-6.403-1.194-12.857,0.55-18.94c-0.314-2.673-0.736-5.345-1.195-8.029
	c-1.06-6.204-2.173-12.598-1.07-18.878c2.441-13.891,14.851-21.254,25.074-29.296c3.701-2.913,7.426-6.286,8.957-10.891
	c2.087-6.276,1.412-12.871,0.617-19.315c-1.398-11.35-3.298-24.71,4.096-34.53c4.097-5.445,9.759-9.683,15.693-12.967
	c5.878-3.254,12.272-5.146,18.353-7.921c5.916-2.7,10.881-6.528,12.762-13.039c1.326-4.587,1.386-10.237-2.053-13.996
	c-2.403-2.626-6.032-4.563-9-3.841c-3.994,0.973-5.323,5.01-6.191,9.061c-0.793,3.707-5.915,2.505-6.208-0.84
	c-0.361-4.126,0.675-8.508,3.491-11.671c6.687-7.514,18.619-4.888,24.303,2.44c7.988,10.298,4.474,25.967-5.421,33.739
	c-10.925,8.584-26.34,8.273-36.954,17.567c-4.358,3.817-7.324,8.377-8.161,14.181c-0.88,6.101,0.113,12.355,0.993,18.392
	c1.866,12.812,3.142,25.845-7.198,35.463c-9.349,8.699-25.23,14.28-28.053,28.026c-1.289,6.28-0.241,12.729,0.637,19.027
	c6.016-8.855,16.793-13.638,26.623-17.373c6.312-2.396,13.438-4.684,18.724-9.05c2.685-2.22,5.327-4.981,6.294-8.439
	c1.158-4.125,0.394-8.128-0.967-12.119c-2.804-8.22-6.528-15.958-6.962-24.791c-0.319-6.493,0.945-13.137,4.35-18.745
	c6.9-11.365,19.324-17.785,31.069-23.051c6.943-3.114,13.964-5.998,21.05-8.762c6.323-2.469,12.807-5.304,18.322-9.385
	c1.635-11.648,2.485-23.572,2.485-35.708C469.041,206.768,460.622,170.638,445.675,138.586z"/>
<path fill="#023A31" d="M181.185,299.633c-4.771-2.386-6.04-7.223-9.723-10.908c-2.485,3.506-4.758,7.146-6.766,10.951
	c3.388,4.891,4.891,12.818,4.807,16.841c-0.083,3.934-3.416,5.571-6.321,4.986c4.343,7.42,13.583,13.747,19.301,3.454
	c2.597-4.546,0-14.285,0-19.479l1.243-0.416c-0.312-1.577-0.574-3.185-0.781-4.823C182.311,300.086,181.711,299.895,181.185,299.633
	z"/>
<path fill="#023A31" d="M151.217,284.726c-3.415,0.312-6.806,0.623-9.885,0.385c3.549,3.308,6.375,6.503,8.783,9.854
	c1.747-3.661,3.79-7.222,6.065-10.633C154.543,284.421,152.878,284.573,151.217,284.726z"/>
<path fill="#023A31" d="M155.148,428.096c1.701-6.583-0.487-13.703-0.284-20.401c0.179-5.909,1.86-12.088,4.604-17.821
	c-3.241-3.026-6.239-6.316-8.943-9.959c-0.407,4.104-0.71,8.21-1.219,12.189c-1.38,10.797-3.649,22.777-12.259,30.347
	c-9.934,8.736-22.544,6.763-34.755,6.905c5.253,4.64,10.708,9.025,16.349,13.144c7.377-3.692,16.417-2.888,24.875-4.808
	C148.698,436.516,153.714,433.653,155.148,428.096z"/>
<path fill="#023A31" d="M110.425,195.749c-3.631,1.501-5.516,4.24-7.605,7.464c-1.934,2.981-4.443,7.021-4.169,10.714
	c0.197,2.658,1.581,4.479,3.232,6.208c3.752-7.104,11.315-13.444,12.419-23.746c0.13-1.205,0.145-2.352,0.069-3.451
	C113.4,194.089,112.108,195.054,110.425,195.749z"/>
<path fill="#023A31" d="M375.04,174.939c-0.534,1.494-0.979,3.03-1.297,4.59c1.237,2.312,2.843,4.259,4.549,6.491
	C377.911,182.312,376.639,178.589,375.04,174.939z"/>
<path fill="#023A31" d="M325.14,281.391c-1.578-0.387-3.132-0.82-4.664-1.297c-0.296,0.451-0.595,0.9-0.897,1.346
	C321.354,281.449,323.263,281.504,325.14,281.391z"/>
<path fill="#023A31" d="M117.305,420.962c6.546-0.473,12.848-2.197,16.782-7.802c2.989-4.259,4.632-9.096,5.762-14.14
	c1.968-8.778,2.754-18.866,4.858-28.21c-8.09-14.053-14.271-29.675-15.47-45.854c-1.298-12.986-4.544-30.519-16.233-38.312
	c-1.682-1.15-3.461-2.018-5.292-2.637c1.735,8.524,1.499,17.517-1.397,25.623c-7.585,17.446-28.825,25.034-27.308,47.792
	c-9.18-21.639-10.414-43.277-0.295-63.935c-0.754,0.686-1.477,1.424-2.154,2.24c0.13-1.062,0.29-2.113,0.482-3.153
	c-17.227,3.397-33.339-11.213-51.694-2.035c6.493-16.882,22.727-24.023,39.608-25.322c12.606-1.351,19.594,1.047,27.456,5.673
	c0.769-0.396,1.572-0.772,2.414-1.128c13.75-5.817,24.485-1.727,34.66,5.603c-0.087-0.342-0.17-0.693-0.246-1.057
	c-1.948-8.442,3.896-11.689-4.544-19.48c-5.845-5.844-14.936-7.792-20.13-14.935c-5.147-7.02-5.573-12.269-3.92-16.961
	c-1.889-1.556-3.608-3.292-4.561-5.592c-1.278-3.079-2.621-7.811-2.175-11.144c0.517-3.871,2.295-6.705,4.788-9.645
	c2.229-2.629,6.037-4.071,9.178-5.199c3.09-1.11,4.221-3.513,4.13-6.559c-5.135-10.099-15.894-16.793-6.14-31.911
	c4.67-7.545,13.911-10.716,22.336-14.245c3.066-3.367,6.977-4.987,11.137-6.159c-0.128-3.853-0.95-7.798-0.517-11.896
	c0.47-4.459,2.504-8.348,5.526-11.322c0.053-1.051,0.195-2.098,0.478-3.13c2.597-8.442,9.739-11.038,18.181-12.986
	c13.311-3.729,20.948-2.658,30.785-8.952c-0.335-2.731-0.578-5.087-0.679-6.808c0,0,1.45,1.88,3.631,4.742
	c1.26-0.957,2.561-2.034,3.924-3.268c9.524-8.733,26.329-6.545,37.361,1.812c1.938-9.751,3.961-19.825,6.295-23.89l0.589,0.589
	c2.333,4.065,4.604,13.98,6.779,23.58c6.816-8.458,18.289-11.393,30.141-7.936c4.331,1.182,7.948,4.031,11.858,6.527
	c2.825-4.069,4.787-6.867,4.787-6.867c-0.119,2.037-0.518,5.22-1.074,9c1.435,0.716,2.938,1.323,4.558,1.728
	c4.065,0.679,7.07-0.765,10.213-2.208c2.881-1.322,5.878-2.646,9.916-2.336c18.831,1.299,16.232,22.727,25.325,35.062
	c5.843,7.794,16.233,5.846,22.076,12.987c3.896,5.195,3.247,16.233,3.247,22.726c0,0.585-0.017,1.17-0.04,1.754
	c0.039,0.137,0.07,0.271,0.112,0.408c0.866,2.796,1.925,5.502,3.077,8.185c1.991-1.993,4.116-3.855,6.215-5.838
	c9.512-8.979,16.687-19.722,19.38-32.693c0.19-0.916,1.598-0.844,1.484,0.13c-1.289,10.995-4.949,20.689-11.194,29.825
	c-3.787,5.542-8.917,10.351-12.75,15.919c1.957,4.883,3.576,9.967,3.939,15.147c0.217,3.089-0.233,5.941-1.21,8.591
	c0.026,0.045,0.053,0.086,0.079,0.131c1.47,2.696,2.663,5.67,3.298,8.711c0.971,0.293,1.958,0.534,2.96,0.684
	c0.948,0.141,1.895,0.238,2.846,0.327l0.086-0.062c0.482-0.325,0.985-0.614,1.508-0.863c0.406-0.21,0.837-0.299,1.27-0.306
	l6.352-17.039l0.176,0.064c0.477-1.193,0.952-2.389,1.437-3.578c5.604-13.78,11.736-27.51,18.197-40.898
	c0.281-0.583,1.108-0.275,0.939,0.35c-3.879,14.352-8.229,28.745-13.013,42.831c-2.355,6.937-4.833,13.831-7.439,20.68
	c0.382,0.303,0.693,0.695,0.885,1.178c0.224,0.565,0.424,1.115,0.565,1.693c0.09,0.073,0.191,0.161,0.311,0.268
	c0.904,0.636,1.817,1.267,2.779,1.812c1.588,0.899,3.319,1.676,5.074,2.186c2.837,0.825,6.119,1.004,8.922-0.089
	c6.442-2.506,10.391-8.294,12.451-14.694c2.929-9.103,1.255-18.967,2.384-28.357c1.278-10.636,4.933-20.082,10.945-28.928
	c0.051-0.075,0.106-0.131,0.165-0.179C410.375,64.272,342.045,12.938,261.971,6.536c0.709,0.145,1.408,0.323,2.095,0.538
	c5.757,1.805,10.227,6.383,9.698,12.817c-0.557,6.787-4.354,12.765-8.661,17.854c-10.837,12.812-26.529,16.439-42.736,15.827
	c-15.864-0.601-31.535-2.877-47.357-0.306c-5.926,0.964-12.016,2.758-16.703,6.686c-5.232,4.384-9.247,10.312-12.124,16.449
	c-0.15,0.318-0.459,0.387-0.737,0.308c-1.667,6.632-3.656,13.05-9.385,17.502c-6.375,4.954-13.793,8.446-21.225,11.502
	c-8.179,3.361-16.374,7.205-22.121,14.187c-9.634,11.706-8.431,27.698-13.501,41.281c-2.195,5.879-5.199,11.508-9.867,15.812
	c-4.217,3.891-9.116,6.604-14.386,8.794c-9.544,3.966-19.921,6.256-29.355,10.543c-3.043,15.715-4.646,31.993-4.646,48.671
	c0,56.05,18.068,107.594,48.324,148.364c6.002-4.335,12.993-6.837,19.996-9.167c8.021-2.671,16.09-5.011,22.294-11.053
	c8.712-8.486,15.425-19.818,16-32.182c0.087-1.867,2.874-1.883,2.912,0c0.233,11.691-3.909,23.621-11.164,32.77
	c-3.219,4.057-6.945,8.034-11.504,10.598c-3.217,1.811-6.697,3.158-10.164,4.408c-7.351,2.649-15.192,4.712-21.887,8.859
	c-0.728,0.451-1.446,0.93-2.142,1.439c6.27,7.939,13.016,15.435,20.189,22.439C101.634,420.603,109.453,421.526,117.305,420.962z"/>
<path fill="#023A31" d="M426.091,308.708c-10.382,5.251-22.33,12.199-24.86,24.56c-1.492,7.294,0.43,14.689,3.06,21.485
	c3.267,8.439,6.909,17.185,3.722,26.241c-5.128,14.583-21.906,19.024-34.727,24.195c-5.774,2.329-12.04,5.519-16.294,10.191
	c-2.832,3.11-4.064,6.735-4.323,10.598c-0.637,9.525,1.115,20.5-1.839,29.849c58.288-33.406,101.121-93.543,114.108-165.05
	c-6.105,3.618-12.702,6.31-19.299,8.928C439.019,302.33,432.443,305.493,426.091,308.708z"/>
<path fill="#074C3E" d="M427.184,298.855c-11.745,5.266-24.169,11.686-31.069,23.051c-3.405,5.608-4.669,12.252-4.35,18.745
	c0.434,8.833,4.158,16.571,6.962,24.791c1.361,3.991,2.125,7.994,0.967,12.119c-0.967,3.458-3.609,6.22-6.294,8.439
	c-5.286,4.366-12.412,6.653-18.724,9.05c-9.83,3.735-20.607,8.518-26.623,17.373c-0.878-6.299-1.926-12.747-0.637-19.027
	c2.823-13.746,18.704-19.327,28.053-28.026c10.34-9.618,9.064-22.65,7.198-35.463c-0.88-6.036-1.873-12.291-0.993-18.392
	c0.837-5.804,3.803-10.363,8.161-14.181c10.613-9.294,26.029-8.983,36.954-17.567c9.895-7.772,13.409-23.441,5.421-33.739
	c-5.685-7.328-17.616-9.954-24.303-2.44c-2.816,3.163-3.852,7.545-3.491,11.671c0.293,3.345,5.415,4.547,6.208,0.84
	c0.868-4.051,2.197-8.088,6.191-9.061c2.967-0.723,6.597,1.215,9,3.841c3.439,3.759,3.378,9.409,2.053,13.996
	c-1.881,6.511-6.846,10.339-12.762,13.039c-6.08,2.775-12.475,4.667-18.353,7.921c-5.934,3.284-11.596,7.521-15.693,12.967
	c-7.394,9.82-5.494,23.181-4.096,34.53c0.794,6.444,1.47,13.039-0.617,19.315c-1.53,4.604-5.256,7.978-8.957,10.891
	c-10.223,8.042-22.633,15.405-25.074,29.296c-1.104,6.28,0.01,12.674,1.07,18.878c0.459,2.685,0.881,5.356,1.195,8.029
	c-1.744,6.083-1.021,12.537-0.55,18.94c-2.355,10.693-8.352,19.781-15.245,28.171c1.689-0.729,3.368-1.477,5.037-2.246
	c4.045-4.978,7.653-10.26,10.356-16.03c-0.058,0.676-0.133,1.348-0.233,2.016c-0.751,5.028-3.133,9.004-6.408,12.258
	c4.513-2.186,8.946-4.531,13.292-7.022c2.955-9.349,1.203-20.323,1.839-29.849c0.259-3.862,1.491-7.487,4.323-10.598
	c4.254-4.673,10.52-7.862,16.294-10.191c12.821-5.171,29.598-9.612,34.727-24.195c3.187-9.057-0.455-17.802-3.722-26.241
	c-2.63-6.796-4.552-14.191-3.06-21.485c2.53-12.36,14.478-19.309,24.86-24.56c6.353-3.215,12.928-6.378,19.547-9.003
	c6.598-2.618,13.194-5.31,19.299-8.928c0.605-3.333,1.145-6.688,1.618-10.068c-5.516,4.081-11.999,6.916-18.322,9.385
	C441.148,292.857,434.126,295.741,427.184,298.855z"/>
<path fill="#074C3E" d="M325.087,446.994c2.733-13.138-4.209-25.101-17.1-29.135c-11.013-3.445-24.068,0.589-32.553,7.951
	c-9.422,8.175-10.963,22.303-2.409,31.737c8.28,9.133,24.45,7.152,26.754-5.905c0.519-2.936-3.625-4.178-4.52-1.246
	c-1.748,5.728-6.45,8.033-12.015,6.136c-5.212-1.777-8.307-6.716-8.864-12.051c-1.175-11.256,11.043-18.132,20.468-19.968
	c11.054-2.153,23.563,4.146,23.783,16.417c0.115,6.419-2.7,12.676-5.682,18.206c-3.044,5.646-6.903,10.869-11.293,15.537
	c-0.811,0.864-1.663,1.671-2.545,2.44c4.057-1.072,8.07-2.265,12.034-3.569c2.157-2.633,4.129-5.435,5.946-8.181
	C320.773,459.799,323.724,453.548,325.087,446.994z"/>
<path fill="#074C3E" d="M69.347,176.993c4.668-4.304,7.672-9.933,9.867-15.812c5.07-13.583,3.867-29.575,13.501-41.281
	c5.747-6.981,13.942-10.825,22.121-14.187c7.431-3.056,14.849-6.548,21.225-11.502c5.729-4.452,7.719-10.87,9.385-17.502
	c0.278,0.079,0.587,0.011,0.737-0.308c2.877-6.138,6.892-12.065,12.124-16.449c4.688-3.928,10.777-5.722,16.703-6.686
	c15.822-2.571,31.493-0.295,47.357,0.306c16.207,0.612,31.899-3.016,42.736-15.827c4.307-5.09,8.104-11.067,8.661-17.854
	c0.529-6.435-3.941-11.013-9.698-12.817c-0.687-0.215-1.386-0.394-2.095-0.538c-2.008-0.408-4.087-0.533-6.152-0.399
	c-2.903,0.188-5.772,0.888-8.364,2.05c-5.721,2.564-6.973,11.396-5.299,16.742c0.557,1.78,3.037,1.774,3.595,0
	c1.18-3.74,0.701-7.5,2.877-10.955c1.2-1.903,5.948-1.908,7.881-1.984c6.098-0.239,12.63,2.112,11.205,9.341
	c-1.26,6.388-6.329,12.041-10.989,16.291c-6.212,5.664-14.895,8.362-23.103,9.177c-11.709,1.162-25.122-0.702-38.156-1.035
	c8.791-2.038,17.209-5.332,23.463-11.959c6.15-6.519,9.5-17.074,5.436-25.443c-0.238-0.49-0.505-0.962-0.797-1.416
	c-3.077,0.311-6.136,0.688-9.175,1.131c1.034,0.858,1.947,1.857,2.671,3.064c3.132,5.221-0.475,12.695-4.062,16.736
	c-4.693,5.285-11.988,7.778-18.61,9.565c-6.857,1.853-13.96,2.72-20.906,4.188c-11.066,2.342-21.815,5.997-27.919,16.211
	c-3.583,5.999-4.712,12.823-6.113,19.548c-1.107,5.307-2.928,9.527-7.139,13.078c-6.515,5.49-15.126,8.605-22.879,11.834
	c-7.82,3.257-14.994,7.251-21.065,13.257c-10.951,10.833-11.764,26.127-15.884,40.076c-1.72,5.822-4.503,11.357-8.834,15.666
	c-3.697,3.675-8.542,6.091-13.319,8.039c-7.771,3.17-15.658,5.75-23.108,9.274c-0.578,2.556-1.119,5.129-1.621,7.717
	c9.434-4.287,19.811-6.577,29.355-10.543C60.231,183.598,65.129,180.884,69.347,176.993z M150.086,62.173
	c2.961-5.699,7.625-8.679,12.963-10.459c-4.178,2.338-8.018,5.526-11.392,9.836c-1.66,2.119-2.956,4.413-4.03,6.816
	C148.285,66.224,149.064,64.139,150.086,62.173z"/>
<path fill="#074C3E" d="M137.047,422.45c8.61-7.569,10.879-19.55,12.259-30.347c0.509-3.979,0.812-8.086,1.219-12.189
	c-1.323-1.782-2.578-3.647-3.755-5.608c-0.701-1.152-1.386-2.321-2.062-3.495c-2.104,9.344-2.89,19.432-4.858,28.21
	c-1.13,5.044-2.773,9.881-5.762,14.14c-3.934,5.604-10.236,7.329-16.782,7.802c-7.852,0.564-15.671-0.359-23.492,0.516
	c2.763,2.7,5.59,5.329,8.479,7.878C114.503,429.213,127.113,431.187,137.047,422.45z"/>
<path fill="#074C3E" d="M149.601,443.915c5.182-1.938,9.224-5.61,11.558-10.633c2.901-6.237,1.773-13.303,0.797-19.866
	c-0.957-6.435-0.304-13.354,1.738-19.85c-1.45-1.189-2.86-2.418-4.226-3.693c-2.744,5.733-4.425,11.912-4.604,17.821
	c-0.203,6.698,1.985,13.818,0.284,20.401c-1.435,5.558-6.45,8.42-11.632,9.596c-8.458,1.92-17.498,1.115-24.875,4.808
	c2.41,1.76,4.854,3.473,7.331,5.134c2.494-0.596,5.131-0.809,7.529-1.029C138.907,446.106,144.468,445.833,149.601,443.915z"/>
<path fill="#074C3E" d="M97.652,388.739c3.467-1.25,6.947-2.598,10.164-4.408c4.559-2.563,8.285-6.541,11.504-10.598
	c7.255-9.148,11.397-21.078,11.164-32.77c-0.038-1.883-2.825-1.867-2.912,0c-0.575,12.363-7.288,23.695-16,32.182
	c-6.204,6.042-14.273,8.382-22.294,11.053c-7.003,2.33-13.994,4.832-19.996,9.167c1.421,1.914,2.867,3.808,4.341,5.673
	c0.695-0.51,1.414-0.988,2.142-1.439C82.46,393.451,90.301,391.389,97.652,388.739z"/>
<path fill="#4DA487" d="M81.666,291.203c-1.036,0.67-2.019,1.434-2.954,2.286c-10.119,20.657-8.885,42.296,0.295,63.935
	c-1.518-22.758,19.722-30.346,27.308-47.792c2.896-8.106,3.132-17.099,1.397-25.623C98.441,280.877,87.84,284.271,81.666,291.203z"
	/>
<path fill="#4DA487" d="M92.41,270.892c-7.862-4.626-14.849-7.023-27.456-5.673c-16.882,1.299-33.115,8.44-39.608,25.322
	c18.355-9.178,34.468,5.433,51.694,2.035C78.678,283.716,82.733,275.847,92.41,270.892z"/>
<path fill="#783B23" d="M313.813,92.717c3.694,1.789,7.07,4.127,10.442,6.448c2.649,1.821,5.35,3.712,7.474,6.151
	c1.305,1.499,2.511,3.088,3.687,4.696c-0.14-0.905-0.276-1.812-0.43-2.713c-0.39-2.285-0.833-5.09-2.412-6.893
	c-2.226-2.54-5.032-2.791-7.724-4.484c-0.697-0.439-0.588-1.523,0.229-1.753c5.684-1.603,11.638,3.257,13.818,8.14
	c2.216,4.965,2.08,11.493,5.24,15.958c0.682,0.963,1.507,1.761,2.431,2.44c5.903,1.653,12.086,1.521,17.513,4.892
	c2.516,1.562,4.183,3.531,5.306,5.77c0.868,1.087,1.574,2.338,2.051,3.804c0.145,0.445-0.148,0.737-0.498,0.801
	c0.426,2.044,0.618,4.21,0.712,6.439c0.13,3.104,0.188,5.99,1.042,8.978c0.023-0.584,0.04-1.169,0.04-1.754
	c0-6.492,0.649-17.53-3.247-22.726c-5.843-7.142-16.233-5.193-22.076-12.987c-9.092-12.336-6.494-33.764-25.325-35.062
	c-4.038-0.311-7.034,1.014-9.916,2.336c-3.143,1.443-6.147,2.887-10.213,2.208c-1.619-0.404-3.123-1.012-4.558-1.728
	c-0.489,3.323-1.101,7.105-1.76,11.001C301.171,89.235,307.748,89.777,313.813,92.717z"/>
<path fill="#783B23" d="M318.192,281.445c0.45-0.008,0.915-0.008,1.387-0.006c0.302-0.445,0.601-0.895,0.897-1.346
	c-4.901-1.525-9.556-3.543-13.878-6.274c0.678,6.157,1.002,12.287,0.815,18.183c0.13-0.057,0.26-0.102,0.39-0.162
	c3.968-1.416,6.822-3.945,9.21-6.888C315.772,283.966,316.163,281.482,318.192,281.445z"/>
<path fill="#783B23" d="M364.049,144.052c0.29-5.728,1.839-11.805-4.28-14.951c-0.075-0.039-0.15-0.067-0.226-0.104
	c-1.521-0.152-3.081-0.241-4.602-0.397c-3.041-0.314-6.009-0.748-8.713-1.776c-1.242-0.174-2.476-0.436-3.696-0.882
	c-6.632-2.428-9.646-7.864-12.665-13.823c-3.091-6.103-7.746-10.062-13.465-13.731c-6.703-4.3-13.758-6.388-21.157-3.369
	c-1.723,10.026-3.643,20.272-4.453,24.714c2.636,3.453,2.75,8.885,3.478,12.941c0.464,2.589,1.228,5.072,2.343,7.359
	c1.417,2.906,3.403,5.496,6.075,7.579c1.658,1.293,3.475,2.183,5.361,2.899c4.436,1.684,9.266,2.383,13.364,4.922
	c6.292,3.897,6.025,11.342,6.95,17.758c0.079,0.547,0.177,1.091,0.285,1.633c-2.947,6.211-5.052,11.715,2.948,20.917
	c9.27,10.592,12.53,14.589,8.778,20.954c-6.223,0.925-15.51,3.606-17.373,4.062c-15.622,3.812-31.458-0.322-45.475-7.421
	c-2.069-1.05-4.628-3.312-7.106-3.233c-1.099,0.034-2.14,0.223-3.072,0.599c-0.079-0.034-0.15-0.068-0.233-0.103
	c-1.871-0.719-5.755-1.23-10.49-1.535c-2.495,1.664-5.891,2.694-9.642,2.694c-3.876,0-7.376-1.099-9.891-2.862
	c-3.174,0.136-6.111,0.351-8.524,0.65c-0.192-0.113-0.409-0.182-0.632-0.168c-1.899,0.112-3.537,0.674-5.458,0.633
	c-14.618-0.326-25.719,10.857-41.192,9.014c-6.876-0.818-22.987-0.256-31.695,1.694c-1.562-1.658-3.024-3.362-4.382-5.104
	c-2.775-5.768,0.621-9.892,9.354-19.873c12.987-14.935-0.648-20.129-1.298-34.414c-0.828-13.229,10.189-13.562,19.98-15.744
	c0.611,0.033,1.223,0.058,1.833,0.066c5.862,0.095,12.014-1.001,16.63-4.833c3.749-3.111,5.74-7.529,7.615-11.905
	c1.454-3.394,2.752-6.901,5.003-9.369l-4.981,0.229c-0.088-0.483-0.186-1.026-0.29-1.611c-5.581,7.026-7.584,16.948-16.094,21.347
	c-6.725,3.476-14.287,3.41-21.34,5.835c-3.918,1.349-7.632,3.37-9.213,6.695c-3.719,7.827,0.582,19.555-0.382,28.636
	c-0.73,6.891-3.214,12.509-7.995,17.536c-0.246,0.259-0.498,0.517-0.753,0.773c-0.674,1.155-1.461,2.293-2.34,3.434
	c-1.654,2.146-3.748,4.115-5.628,6.214c-0.654,1.566-0.984,3.274-0.81,5.188c0.54,5.897,5.519,10.332,9.185,14.527
	c3.704,4.238,7.053,8.897,6.891,14.798c-0.037,1.352-2.007,1.657-2.372,0.32c-2.732-10.03-14.567-16.122-17.467-25.938
	c-0.21,4.522,2.433,9.388,4.875,12.865c3.038,4.325,6.812,8.047,9.061,12.899c2.348,5.068,2.778,11.27,0.064,16.29
	c-2.807,5.191-8.931,9.812-8.995,16.164c-0.023,2.272,0.836,4.14,1.853,6.067c1.331,1.118,2.574,2.216,3.738,3.3
	c3.079,0.238,6.47-0.072,9.885-0.385c1.661-0.152,3.326-0.305,4.964-0.395c3.263-4.888,7.005-9.463,11.062-13.539
	c4.834-4.862,9.998-9.107,15.783-12.315c1.815,1.524,4.136,2.7,6.311,4.12c0.033,1.875,0.287,3.825,0.629,5.62
	c0.898-2.109,2.288-3.886,3.417-6.032c0.482-0.918,1.334-2.779,0.386-3.706c-1.129-1.102-1.092-2.862-1.845-4.18
	c-1.807-3.16-4.489-6.042-5.244-9.71c-0.729-3.537,0.021-6.737,1.798-9.849c3.647-6.379,8.998-11.407,16.732-11.424
	c1.294-0.004,1.268,1.905,0,1.988c-7.314,0.481-16.411,8.138-13.458,16.274c0.331,0.914,0.819,1.751,1.37,2.557
	c0.036-0.208,0.078-0.415,0.13-0.622c1.812-7.353,9.827-10.704,15.335-14.897c0.94-0.715,2.092,0.834,1.249,1.617
	c-3.806,3.532-13.5,10.555-10.113,16.861c2.6,4.842,9.471,6.643,10.654,12.535c0.724,3.607-0.495,6.671-2.298,9.774
	c-1.424,2.45-3.671,4.849-4.075,7.75c-1.047,7.517,7.326,8.866,10.958,13.652c0.525,0.689-0.638,1.578-1.199,0.924
	c-4.429-5.155-12.968-6.228-14.052-13.857c-0.48-3.384,1.216-6.284,2.795-9.135c1.718-3.102,1.926-5.603-0.299-8.522
	c-0.887-1.167-1.952-2.165-3.026-3.159c-0.024,0.225-0.047,0.455-0.062,0.701c-0.156,2.546-1.97,5.36-3.353,7.432
	c-1.456,2.174-3.91,5.215-2.884,8.038c1.564,4.302,8.882,7.614,6.847,13.047c-0.246,0.656-1.209,1.135-1.751,0.463
	c-1.06-1.314-1.648-2.9-2.868-4.105c-0.079-0.08-0.159-0.158-0.239-0.238c0.502,7.3,4.39,9.503,9.242,10.589
	c-0.151,6.369,8.667,9.717,14.385,10.361c1.819,0.207,3.424,0.242,5.005,0.697c0.1,2.407-0.568,4.56,1.3,6.846
	c0.85,1.041,2.224,2.107,4.433,3.24c4.354,2.093,8.252,0.24,12.077,2.894c0.479,0.551,0.997,1.004,1.556,1.354
	c0.218,0.23,0.435,0.473,0.653,0.742c0.607,0.107,1.184,0.127,1.732,0.072c0.549,0.055,1.125,0.035,1.733-0.072
	c0.218-0.27,0.436-0.512,0.653-0.742c0.559-0.35,1.076-0.803,1.555-1.354c3.825-2.653,7.722-0.801,12.078-2.894
	c1.283-0.658,2.269-1.293,3.049-1.914c0.12-0.098,0.249-0.193,0.359-0.289l0.047-0.033c2.584-1.956,3.875-5.128,5.895-7.549
	c2.931-3.512,6.426-3.051,10.602-3.758c5.01-0.848,9.022-4.817,10.216-9.576c2.427-1.637,4.062-4.378,4.246-9.312
	c0-1.561-0.159-2.877-0.39-4.016c1.913-1.357,3.986-2.528,5.56-4.308c2.438-2.757,3.174-6.181,2.736-9.654
	c-1.49,2.71-3.661,5.147-6.146,6.604c-2.41,1.413-3.83,0.587-4.479,3.628c-0.915,4.288-0.098,8.674-0.966,12.926
	c-0.757,3.71-3.727,6.525-6.645,8.686c-0.503,0.373-1.135-0.457-0.667-0.863c3.664-3.194,4.956-6.308,4.104-11.064
	c-0.662-3.7-1.015-7.181-0.294-10.916c0.483-2.505,0.935-4.698,3.146-6.233c2.078-1.443,3.94-3.269,5.321-5.651
	c4.064-7.014-3.357-13.29-4.807-20.039c-0.397-1.851-0.75-3.796-0.616-5.69c0.128-1.816,0.965-3.394,1.258-5.151
	c0.896-5.372-4.397-5.618-8.373-5.874c-1.04-0.067-1.478-1.413-0.538-1.986c2.987-1.82,8.817-1.083,11.272,1.417
	c3.061,3.122,2.364,6.843,2.432,10.849c0.076,4.467,3.266,8.802,5.247,12.646c1.906,3.704,3.454,7.665,2.575,11.896
	c-0.134,0.647-0.322,1.302-0.548,1.954c4.064,2.334,8.496,3.672,13.076,4.636c4.216,0.887,8.342,1.863,12.584,2.48
	c1.525-0.936,3.008-1.375,4.655-1.684c0.606-4.476,1.451-8.826,4.962-12.184c3.337-3.191,7.23-5.702,11.122-8.151
	c2.673-1.685,5.737-3.527,7.442-6.288c3.54-5.728,1.826-11.387-0.955-16.641c-2.692-2.878-5.643-5.562-7.559-9.04
	c-4.233-7.689-4.5-14.987,0.226-22.55c0.527-0.844,1.101-1.688,1.696-2.538c0.657-1.778,1.396-3.522,1.912-5.17
	c1.461-4.657,2.987-9.752,0.684-14.446c-3.591-7.321-11.898-10.018-18.456-13.99c-1.038-0.629-2.022-1.287-2.96-1.971
	c-4.503-2.43-7.458-5.922-9.493-10.777c-0.16-0.383-0.308-0.774-0.458-1.164c-1.005-2.223-1.754-4.629-2.243-7.237
	c-0.531-2.13-0.987-4.275-1.401-6.383c-1.938-9.902-5.245-22.096-17.741-21.456c-0.911,0.046-1.132-1.454-0.218-1.604
	c7.177-1.177,12.651,1.999,16.741,7.731c-0.699-2.863-1.794-5.679-3.566-7.565c-0.721-0.768,0.23-2.138,1.162-1.505
	c1.74,1.183,3.91,1.979,5.392,3.518c1.613,1.676,2.8,3.795,3.729,5.916c2.035,4.644,2.577,9.465,3.208,14.454
	c0.146,1.153,0.311,2.319,0.515,3.481c1.44,2.357,3.169,4.438,5.597,6.077c4.984,3.368,10.732,5.524,16.295,7.715
	c10.626,4.183,17.98,13.013,18.98,23.296c0.313-0.551,0.642-1.094,0.985-1.627c-0.745-1.478-1.466-2.928-2.116-4.341
	C366.087,156.24,363.73,150.354,364.049,144.052z M216.745,271.063c0.051,0.557-0.881,0.682-0.977,0.131
	c-0.644-3.735-0.023-6.977,1.069-10.541c1.286-4.194,1.345-8.508-0.842-12.461c-2.695-4.867-6.357-12.639,1.472-14.821
	c0.732-0.204,1.661,0.113,2.014,0.82c0.069,0.139,0.128,0.279,0.18,0.426c0.203,0.566-0.02,1.337-0.458,1.735
	c-2.674,2.432-1.69,4.619-0.341,7.604c1.045,2.314,1.93,4.791,1.984,7.362C220.994,258.201,216.117,264.2,216.745,271.063z
	 M239.02,298.85c-1.068,1.619-3.683,1.467-4.219-0.552c-1.104-4.166-3.407-5.937-6.95-8.161c-3.38-2.121-7.318-4.931-8.057-9.172
	c-1.759-10.075,5.927-20.231,11.973-27.502c0.733-0.881,2.252,0.292,1.589,1.228c-4.035,5.686-13.936,21.02-5.613,26.806
	C233.258,285.329,244.665,290.291,239.02,298.85z M225.814,216.925c-0.433-1.552,0.359-0.935,1.473,0.026
	c5.363,4.631,12.691,7.039,20.073,6.476c3.328-0.254,6.504-0.761,9.653-1.907c3.487-1.272,5.726-3.882,8.822-5.706
	c0.589-0.347,1.439,0.229,1.2,0.922c-1.312,3.805-5.223,6.826-8.304,9.238c-3.442,2.693-7.763,4.446-12.125,4.707
	C237.283,231.241,228.407,226.218,225.814,216.925z M256.599,279.859c2.169,7.73,7.167,15.175,2.821,23.203
	c-1.824,3.37-4.083,4.981-7.578,6.329c-3.483,1.347-3.067,3.231-4.387,6.37c-0.819,1.95-3.154,1.95-3.973,0
	c-1.323-3.145-0.905-7.384,1.705-9.802c1.833-1.698,4.642-2.327,6.272-4.155c4.693-5.263-2.32-15.013-3.366-20.504
	c-1.461-7.673,1.551-14.273,6.032-20.333c4.222-5.707,8.622-10.649,6.275-18.297c-0.261-0.853,0.985-1.143,1.301-0.359
	c1.384,3.418,3.16,7.043,2.811,10.869c-0.28,3.072-0.877,5.792-2.247,8.57C259.418,267.527,254.67,272.983,256.599,279.859z
	 M284.263,244.712c0.721,5.424-0.512,10.991-1.42,16.318c-0.997,5.845-0.135,11.568-0.536,17.403
	c-0.169,2.463-0.359,5.202-1.569,7.415c-1.292,2.364-3.094,5.448-5.827,6.146c-0.665,0.17-1.127-0.408-1.027-1.025
	c0.508-3.119,3.417-5.325,3.929-8.649c0.345-2.247-0.747-4.175-1.476-6.217c-1.359-3.803-2.047-7.228-1.632-10.88
	c-1.251,2.08-2.577,4.129-3.532,6.315c-2.182,5.003,0.151,10.717-0.487,16.015c-0.419,3.477-4.192,10.731-8.683,8.78
	c-0.299-0.129-0.366-0.5-0.318-0.779c0.419-2.446,3.514-3.208,3.512-6.009c-0.002-2.163-0.425-3.983-1.094-6.04
	c-1.508-4.63-2.439-9.777-0.169-14.341c1.198-2.412,2.716-4.597,4.449-6.651c1.221-1.447,2.894-2.662,3.963-4.206
	c3.399-4.907,0.788-9.039-2.904-13.164c-0.85-0.948,0.51-2.336,1.405-1.406c3.03,3.146,6.888,6.934,7.299,11.462
	c1.208-2.549,2.39-5.121,2.864-7.821c1.062-6.04-3.996-10.489-8.671-13.286c-0.905-0.541-0.115-1.789,0.806-1.379
	C278.569,235.121,283.426,238.407,284.263,244.712z"/>
<path fill="#783B23" d="M343.624,264.718c0.18-0.049,0.357-0.096,0.542-0.148c7.696-2.199,11.665-6.731,15.067-13.188
	c-2.875,2.09-6.095,3.831-8.85,5.863C346.871,259.837,345.037,261.745,343.624,264.718z"/>
<path fill="#783B23" d="M181.185,299.633c0.526,0.262,1.126,0.453,1.761,0.605c-1.001-7.906-0.836-16.481,0.048-25.136
	c-2.15,2.124-4.249,4.288-6.197,6.651c-1.871,2.267-3.649,4.589-5.334,6.971C175.145,292.41,176.414,297.247,181.185,299.633z"/>
<path fill="#783B23" d="M126.548,169.425c0.021-5.179-2.361-9.792-3.245-14.812c-2.192,0.967-4.233,2.137-5.854,3.656
	c-2.389,2.242-4.131,5.467-4.088,8.831c0.052,4.149,1.733,7.928,2.721,11.899c0.714,2.868,1.046,5.924,0.591,8.686
	c0.818-2.142,1.887-4.069,3.283-5.912C122.87,177.925,126.525,174.669,126.548,169.425z"/>
<path fill="#783B23" d="M359.862,193.46c-1.689,2.424-3.413,5.014-4.047,7.87c-1.637,7.371,3.661,12.473,7.919,17.633
	c1.391,1.684,2.664,3.449,3.667,5.296c4.496-3.744,11.547-5.15,15.075-9.688c1.457-2,2.351-4.156,2.799-6.379
	c-0.926-0.161-1.843-0.361-2.749-0.616c-4.26-1.198-8.261-3.402-11.31-6.645c-3.417-3.634-5.281-8.195-5.869-12.977
	c-0.342,0.506-0.718,0.995-1.143,1.464C362.89,190.87,361.349,192.164,359.862,193.46z"/>
<path fill="#783B23" d="M171.734,101.149c1.656-0.363,3.312-0.784,4.834-1.549c1.852-0.933,2.977-2.407,4.519-3.724
	c3.008-2.562,5.744-5.376,8.77-7.943c1.299-1.104,2.649-2.062,4.036-2.899c-0.036-0.285-0.07-0.563-0.104-0.84
	c-9.837,6.294-17.474,5.224-30.785,8.952c-8.442,1.948-15.583,4.544-18.181,12.986c-0.282,1.032-0.425,2.079-0.478,3.13
	c2.183-2.148,4.876-3.823,7.883-4.876C158.513,102.187,165.286,102.56,171.734,101.149z"/>
<path fill="#783B23" d="M133.045,277.129c-0.795-6.042,2.712-11.457,5.568-16.45c3.17-5.543,2.763-11.659-1.039-16.841
	c-3.309-4.51-7.631-8.301-10.177-13.352c-2.562-5.084-2.476-12.07-0.265-17.277c0.851-2.004,2.166-3.637,3.661-5.126
	c1.182-4.262,3.727-8.033,6.54-11.544c1.89-2.357,4.165-4.518,5.592-7.208c0.219-0.414,0.402-0.828,0.561-1.245
	c-0.163-1.603-0.496-3.192-0.862-4.788c-1.28-5.565-4.501-11.113-0.689-16.299c0.252-0.342,0.817-0.036,0.583,0.341
	c-2.955,4.748-0.759,7.839,1.17,12.341c0.16,0.373,0.304,0.77,0.44,1.175c-0.03-0.318-0.063-0.638-0.101-0.96
	c-0.638-5.647-0.686-11.341-0.924-17.018c-0.181-4.322-0.334-9.154,1.226-13.268c4.722-12.458,17.562-13.435,29.007-15.712
	c5.961-1.187,10.109-4,13.785-8.762c3.189-4.133,7.042-7.744,11.267-10.798c-1.221-7.123-2.912-17.562-4.06-25.996
	c-0.51,0.388-1.013,0.795-1.5,1.237c-5.142,4.671-5.729,12.482-11.597,16.479c-2.097,1.429-4.413,2.36-6.822,3.011
	c-2.403,1.518-3.977,3.298-5.069,6.013c-0.873,2.171-1.836,4.11-3.128,6.071c-2.446,3.713-5.407,7.049-9.398,9.139
	c-2.837,1.486-5.854,2.565-8.924,3.467c0.033,1.311-0.046,2.599-0.338,3.846c-1.057,4.511-3.423,6.531-6.898,9.257
	c-2.238,1.752-4.691,3.386-7.413,4.291c-1.055,0.351-2.175,0.699-3.322,1.062c0.238,1.632,0.706,3.316,1.341,5.128
	c1.636,4.67,3.201,9.876,1.707,14.818c-1.326,4.392-4.864,7.292-7.796,10.627c-3.715,4.226-5.785,9.3-6.377,14.9
	c-0.168,1.597-2.322,1.602-2.486,0c-0.255-2.493-0.68-5.003-0.327-7.465c-0.389,0.981-0.917,1.896-1.608,2.714
	c0.075,1.1,0.061,2.246-0.069,3.451c-1.104,10.302-8.667,16.643-12.419,23.746c0.64,0.669,1.317,1.324,1.984,2.009
	c2.202,2.256,4.134,4.391,5.885,6.985c0.471,0.697-0.637,1.562-1.172,0.904c-2.314-2.854-4.895-4.628-7.722-6.921
	c-0.073-0.059-0.144-0.12-0.216-0.179c-1.652,4.692-1.227,9.941,3.92,16.961c5.194,7.143,14.285,9.091,20.13,14.935
	c8.441,7.791,2.597,11.038,4.544,19.48c0.076,0.363,0.159,0.715,0.246,1.057c1.269,0.915,2.529,1.88,3.785,2.882
	C133.175,277.881,133.096,277.512,133.045,277.129z"/>
<path fill="#783B23" d="M382.656,199.051c0.81,0.314,1.634,0.604,2.469,0.855c-0.636-3.041-1.828-6.015-3.298-8.711
	c-0.026-0.045-0.053-0.086-0.079-0.131c-0.74,2.012-1.79,3.902-3.083,5.691C379.882,197.724,381.251,198.504,382.656,199.051z"/>
<path fill="#783B23" d="M109.485,161.467c2.217-5.531,6.462-8.874,11.852-11.153c0.576-0.242,1.167-0.469,1.765-0.689
	c0.378-3.74,1.958-7.178,4.479-10.269c0.202-0.247,0.408-0.484,0.618-0.716c-8.425,3.529-17.666,6.7-22.336,14.245
	c-9.754,15.118,1.005,21.812,6.14,31.911c-0.013-0.413-0.046-0.84-0.103-1.276C110.947,176.053,106.428,169.091,109.485,161.467z"/>
<path fill="#783B23" d="M378.292,186.021c-1.706-2.232-3.312-4.18-4.549-6.491c-0.96,4.705-0.74,9.578,1.883,13.852
	c0.403,0.657,0.879,1.276,1.407,1.854C378.297,192.211,378.611,189.121,378.292,186.021z"/>
<path fill="#783B23" d="M199.299,85.498c6.193,8.188,15.078,20.146,17.046,23.935c2.547-6.813,7.608-14.852,8.216-21.996
	C216.686,83.731,207.259,82.239,199.299,85.498z"/>
<path fill="#783B23" d="M229.835,87.574c1.246,0.86,0.124,2.865-1.202,2.055c-1.244-0.761-2.552-1.468-3.905-2.11
	c2.102,4.863,6.086,8.875,8.102,14.084c1.772-3.636,3.45-12.151,5.195-20.929c-11.032-8.357-27.837-10.546-37.361-1.812
	c-1.363,1.233-2.665,2.311-3.924,3.268c0.254,0.333,0.519,0.681,0.791,1.039C207.988,78.701,220.027,80.81,229.835,87.574z"/>
<path fill="#FFEBC2" d="M191.707,140.815c-4.616,3.832-10.768,4.928-16.63,4.833c-0.61-0.009-1.222-0.033-1.833-0.066
	c-9.791,2.182-20.808,2.516-19.98,15.744c0.649,14.285,14.285,19.479,1.298,34.414c-8.733,9.981-12.129,14.105-9.354,19.873
	c1.358,1.742,2.821,3.446,4.382,5.104c8.708-1.95,24.819-2.513,31.695-1.694c15.473,1.844,26.575-9.34,41.192-9.014
	c1.921,0.041,3.559-0.521,5.458-0.633c0.223-0.014,0.439,0.055,0.632,0.168c2.413-0.3,5.35-0.515,8.524-0.65
	c-2.448-1.717-3.96-4.067-3.96-6.661c0-4.109,3.792-7.599,9.094-8.935l-0.005-0.155c0-3.825,2.133-6.927,4.762-6.927
	c2.63,0,4.762,3.102,4.762,6.927l-0.005,0.155c5.304,1.336,9.096,4.825,9.096,8.935c0,2.682-1.617,5.099-4.211,6.829
	c4.735,0.305,8.62,0.816,10.49,1.535c0.083,0.034,0.154,0.068,0.233,0.103c0.932-0.376,1.973-0.564,3.072-0.599
	c2.478-0.078,5.037,2.184,7.106,3.233c14.017,7.099,29.853,11.232,45.475,7.421c1.863-0.455,11.15-3.137,17.373-4.062
	c3.751-6.365,0.491-10.362-8.778-20.954c-8-9.202-5.896-14.706-2.948-20.917c-0.108-0.542-0.206-1.086-0.285-1.633
	c-0.925-6.416-0.658-13.86-6.95-17.758c-4.098-2.539-8.928-3.238-13.364-4.922c-1.013,0.887-2.481,1.215-4.03,0.322
	c-1.29-0.743-2.69-1.26-4.078-1.805c-0.704,0.34-1.384,0.781-2.19,0.938c-1.166,0.229-2.548,0.025-3.472-0.771
	c-0.244,0.156-0.481,0.319-0.7,0.502c-1.403,1.173-3.183,1.324-4.535,0.553l-0.056,0.053c-0.902,0.887-2.082,1.163-3.179,0.981
	c-0.524,0.305-1.036,0.585-1.492,0.848c-1.341,0.771-2.922,0.554-4.04-0.28c-0.26,0.312-0.465,0.519-0.464,0.384
	c0.295,4.059-6.31,4.124-6.356,0c-0.043-3.892,4.061-7.62,6.528-10.287c1.735-1.876,4.442-1.044,5.536,0.851
	c0.182-0.035,0.365-0.061,0.551-0.072c0.518-0.527,1.036-1.054,1.552-1.58c1.681-1.71,4.195-1.269,5.542,0.366
	c0.576-0.293,1.151-0.598,1.72-0.934c0.589-0.349,1.172-0.519,1.726-0.547c-1.115-2.287-1.879-4.771-2.343-7.359
	c-0.729-4.057-0.842-9.488-3.478-12.941c-0.002,0.011-0.005,0.026-0.007,0.038l-45.722-2.093l-40.738,1.864
	c-2.25,2.468-3.549,5.976-5.003,9.369C197.447,133.286,195.456,137.704,191.707,140.815z M290.704,154.617
	c3.665,0,7.031,1.85,9.692,4.936c1.485,0.886,2.542,2.407,2.796,4.193c1.945,3.791,3.097,8.497,3.097,13.597
	c0,12.553-6.979,22.726-15.585,22.726c-8.608,0-15.583-10.173-15.583-22.726C275.121,164.791,282.096,154.617,290.704,154.617z
	 M204.127,200.068c-8.606,0-15.585-10.173-15.585-22.726c0-12.552,6.979-22.726,15.585-22.726c3.666,0,7.032,1.85,9.694,4.938
	c1.485,0.885,2.541,2.405,2.794,4.189c1.945,3.793,3.096,8.499,3.096,13.599C219.711,189.896,212.735,200.068,204.127,200.068z
	 M206.288,141.146c0.517,0.526,1.035,1.053,1.551,1.58c0.186,0.012,0.369,0.037,0.551,0.072c1.094-1.895,3.802-2.727,5.537-0.851
	c2.466,2.667,6.57,6.396,6.527,10.287c-0.046,4.124-6.65,4.059-6.356,0c0.001,0.135-0.203-0.072-0.463-0.384
	c-1.118,0.834-2.7,1.051-4.041,0.28c-0.457-0.263-0.968-0.543-1.493-0.848c-1.096,0.182-2.276-0.095-3.178-0.981l-0.055-0.053
	c-1.352,0.771-3.132,0.62-4.535-0.553c-0.219-0.183-0.456-0.346-0.701-0.502c-0.922,0.797-2.305,1-3.471,0.771
	c-0.806-0.157-1.486-0.599-2.191-0.938c-1.388,0.545-2.788,1.062-4.077,1.805c-4.087,2.356-7.623-3.781-3.675-6.285
	c1.824-1.158,3.881-1.724,5.819-2.641c0.896-0.424,1.63-0.486,2.306-0.375c1.015-1.384,2.817-2.057,4.682-0.953
	c0.567,0.336,1.144,0.641,1.719,0.934C202.092,139.878,204.607,139.437,206.288,141.146z"/>
<path fill="#FFEBC2" d="M223.501,304.041c-1.581-0.455-3.186-0.49-5.005-0.697c-5.718-0.645-14.537-3.992-14.385-10.361
	c-4.853-1.086-8.74-3.289-9.242-10.589c-1.127-1.118-2.276-2.286-3.273-3.513c-1.875-2.307-2.886-4.983-2.418-7.983
	c0.152-0.978,0.436-1.853,0.789-2.681c-0.342-1.795-0.596-3.745-0.629-5.62c-2.175-1.42-4.496-2.596-6.311-4.12
	c-5.785,3.208-10.948,7.453-15.783,12.315c-4.057,4.076-7.798,8.651-11.062,13.539c-2.276,3.411-4.318,6.972-6.065,10.633
	c-0.56,1.172-1.093,2.354-1.59,3.543c-1.146,0.772-2.189,1.759-3.229,2.671c-2.804,2.457-4.633,6.806-5.293,10.389
	c-1.157,6.269,1.016,15.283,8.318,16.874c6.434,1.402,9.975-2.841,11.999-8.488c0.771,0.822,1.789,1.334,2.862,1.551
	c2.906,0.585,6.238-1.053,6.321-4.986c0.084-4.022-1.419-11.95-4.807-16.841c2.008-3.806,4.281-7.445,6.766-10.951
	c1.685-2.382,3.463-4.704,5.334-6.971c1.949-2.363,4.047-4.527,6.197-6.651c-0.884,8.654-1.049,17.229-0.048,25.136
	c0.207,1.639,0.47,3.246,0.781,4.823l0.705-0.234c13.632,2.35,26.925,4.695,40.37,6.06
	C222.933,308.601,223.601,306.448,223.501,304.041z"/>
<path fill="#FFEBC2" d="M305.946,305.347c-1.667,3.605-2.697,7.173-3.327,10.748C304.084,312.764,305.175,309.155,305.946,305.347z"
	/>
<path fill="#70BFA7" d="M223.708,355.425c0.03,0.021,0.059,0.041,0.108,0.082c-0.065-0.053-0.101-0.086-0.12-0.105
	C223.699,355.409,223.705,355.419,223.708,355.425z"/>
<path fill="#70BFA7" d="M261.271,314.127c-4.355,2.093-8.252,0.24-12.078,2.894c-0.479,0.551-0.996,1.004-1.555,1.354
	c-0.218,0.23-0.436,0.473-0.653,0.742c-0.608,0.107-1.184,0.127-1.733,0.072c-0.548,0.055-1.125,0.035-1.732-0.072
	c-0.219-0.27-0.436-0.512-0.653-0.742c-0.559-0.35-1.077-0.803-1.556-1.354c-3.824-2.653-7.722-0.801-12.077-2.894
	c-2.209-1.133-3.583-2.199-4.433-3.24c-13.445-1.364-26.738-3.71-40.37-6.06l-0.705,0.234l-1.243,0.416
	c0,5.194,2.597,14.934,0,19.479c-5.719,10.293-14.958,3.966-19.301-3.454c-1.073-0.217-2.09-0.729-2.862-1.551
	c-2.024,5.647-5.565,9.891-11.999,8.488c-7.302-1.591-9.475-10.605-8.318-16.874c0.66-3.583,2.489-7.932,5.293-10.389
	c1.04-0.912,2.083-1.898,3.229-2.671c0.497-1.189,1.03-2.371,1.59-3.543c-2.409-3.351-5.234-6.546-8.783-9.854
	c-1.164-1.084-2.407-2.182-3.738-3.3c0.143,0.271,0.289,0.542,0.436,0.815c1.242,2.312,2.251,4.73,3.153,7.196
	c0.104,0.285-0.346,0.467-0.486,0.205c-2.14-3.987-6.285-7.28-7.428-11.779c-1.256-1.002-2.516-1.967-3.785-2.882
	c-10.175-7.329-20.91-11.42-34.66-5.603c-0.842,0.355-1.645,0.732-2.414,1.128c-9.677,4.955-13.732,12.824-15.37,21.685
	c-0.192,1.04-0.353,2.091-0.482,3.153c0.678-0.816,1.4-1.555,2.154-2.24c0.935-0.853,1.917-1.616,2.954-2.286
	c6.174-6.933,16.775-10.326,26.046-7.194c1.831,0.619,3.611,1.486,5.292,2.637c11.689,7.793,14.936,25.325,16.233,38.312
	c1.199,16.179,7.379,31.801,15.47,45.854c0.677,1.174,1.361,2.343,2.062,3.495c1.177,1.961,2.432,3.826,3.755,5.608
	c2.704,3.643,5.702,6.933,8.943,9.959c1.366,1.275,2.776,2.504,4.226,3.693c7.349,6.021,15.72,11.002,24.633,15.802
	c30.518,15.585,68.18,3.247,92.204-19.479c11.039-11.037,19.48-26.622,20.779-42.205c0.935-11.217-0.484-21.424,1.309-31.589
	c0.63-3.575,1.661-7.143,3.327-10.748c0.18-0.391,0.363-0.78,0.559-1.169c-0.12,0.064-0.247,0.123-0.368,0.186
	c-10.787,5.661-26.689,7.459-41.817,7.85C263.54,312.834,262.554,313.469,261.271,314.127z M219.482,337.871
	c0.395-1.873,1.998-3.279,3.625-4.119c1.919-0.993,3.587,1.305,2.238,2.898c-1.209,1.432-0.325,2.214,0.604,3.606
	c1.525,2.285-1.386,4.714-3.56,3.559C220.237,342.673,218.971,340.298,219.482,337.871z M199.093,327.307
	c0.217-1.971,1.497-3.611,2.738-5.08c1.492-1.771,4.405,0.533,3.178,2.451c-0.33,0.518-0.667,1.043-0.924,1.602
	c-0.082,0.178-0.096,0.531-0.143,0.449c0.051,0.133,0.15,0.365,0.122,0.336c0.008,0.012,0.011,0.02,0.016,0.027
	c0.351,0.354,0.636,0.729,0.773,1.226c0.092,0.73,0.115,0.889,0.068,0.475c0.302,0.959-0.35,2.363-1.426,2.512
	c-1.415,0.195-2.433,0.061-3.403-1.1C199.418,329.397,198.975,328.38,199.093,327.307z M175.779,347.389
	c1.618,0.359,1.54,2.778,0,3.185c-1.518,0.4-3.479,1.162-4.151,2.568c-0.167,0.352-0.308,1.07-0.264,1.648
	c0.094,1.272,0.12,2.271-0.467,3.46c-0.615,1.246-2.37,1.594-3.506,0.92c-3.333-1.977-2.59-7.429-0.124-9.822
	C169.613,347.072,172.689,346.701,175.779,347.389z M163.943,335.697c1.302-1.314,3.963-2.584,5.485-0.932
	c0.755,0.82,0.669,2.24-0.142,3.008c-0.117,0.105-0.228,0.219-0.333,0.336c-0.021,0.033-0.046,0.068-0.08,0.119
	c-0.128,0.221-0.276,0.422-0.407,0.64c-0.087,0.137-0.167,0.279-0.242,0.424c-0.006,0.018-0.009,0.025-0.017,0.047
	c-0.072,0.242-0.503,1.475-0.265,0.719c-0.34,1.078-0.642,1.861-1.641,2.525c-1.01,0.67-2.391,0.371-3.225-0.416
	C161.183,340.38,162.384,337.273,163.943,335.697z M148.844,356.076c-3.194-0.71-4.031-4.78-3.102-7.551
	c0.885-2.635,2.829-4.479,5.273-5.716c1.511-0.764,3.812,0.941,2.575,2.577c-0.93,1.227-2.066,2.803-2.093,4.426
	c-0.032,1.938,0.532,3.54-0.428,5.358C150.644,355.975,149.683,356.264,148.844,356.076z M174.155,384.014
	c-2.567-1.283-4.101-4.414-3.263-7.233c0.742-2.498,2.894-4.347,4.914-5.849c1.545-1.15,3.27,1.293,2.001,2.593
	c-1.124,1.15-1.963,2.277-1.82,3.945c0.096,1.106,1.157,2.091,1.778,2.933C179.469,382.715,176.289,385.081,174.155,384.014z
	 M188.083,357.596c-1.58,0.664-2.708,2.307-2.689,4.06c0.019,1.652,1.196,2.893,1.178,4.514c-0.018,1.659-1.551,2.718-3.115,2.372
	c-3.316-0.73-4.159-5.7-3.17-8.445c1.118-3.107,3.78-4.923,6.985-5.444C189.242,354.331,189.889,356.838,188.083,357.596z
	 M184.07,340.95c1.115-3.376,3.887-6.079,7.504-6.429c1.235-0.119,2.018,1.729,1.042,2.514c-1.438,1.16-3.342,2.46-3.797,4.376
	c-0.412,1.736,1.692,2.236,2.375,3.554c0.69,1.328,0.146,3.199-1.448,3.561C185.616,349.457,182.9,344.488,184.07,340.95z
	 M198.629,380.785c-3.179,1.969-7.972-0.805-8.6-4.292c-0.642-3.561,1.525-6.536,4.16-8.663c1.466-1.185,4.176,0.418,2.844,2.193
	c-0.864,1.156-2.102,3.347-1.774,4.692c0.184,0.752,0.133,0.758,0.898,1.123c1.056,0.504,1.986,0.611,2.93,1.4
	C200.238,378.204,199.779,380.074,198.629,380.785z M205.268,347.596c-1.343,0.969-2.792,2.404-2.862,4.198
	c-0.053,1.355,0.612,1.861,1.502,2.84c1.64,1.804,0.076,5.257-2.534,4.351c-3.284-1.141-5.168-4.491-3.939-7.862
	c1.008-2.763,3.881-4.696,6.417-5.948C205.493,344.363,206.725,346.545,205.268,347.596z M215.771,381.605
	c-1.25-0.332-2.59-0.574-3.604-1.432c-1.202-1.016-1.004-2.36-0.785-3.753c0.302-1.926,0.817-3.968,2.274-5.358
	c1.448-1.379,4.155,0.498,2.873,2.218c-0.701,0.941-0.7,2.139-0.584,3.311c0.562,0.211,1.157,0.377,1.684,0.613
	C220.178,378.354,218.335,382.287,215.771,381.605z M224.619,360.977c-2.396,0.332-5.625-1.076-6.018-3.811
	c-0.322-2.245,0.383-4.167,1.636-6.022c1.556-2.304,4.924-0.322,3.711,2.168c-0.213,0.438-0.441,0.895-0.438,1.35
	c0.001,0.162-0.007,0.236-0.018,0.264c0.011,0.031,0.022,0.068,0.037,0.119c0.017,0.057,0.028,0.098,0.037,0.135
	c0.021,0.031,0.043,0.066,0.074,0.117c0.022,0.039,0.03,0.059,0.044,0.084c0.064,0.012,0.89,0.599,0.446,0.343
	c0.57,0.328,1.081,0.645,1.591,1.074C227.062,357.926,226.442,360.723,224.619,360.977z M239.202,381.172
	c-2.802,0.752-6.062-0.98-7.391-3.493c-1.299-2.457-0.389-5.388,0.825-7.669c1.113-2.096,4.453-0.648,3.796,1.6
	c-0.194,0.666-0.518,1.544-0.345,2.253c-0.003-0.012,0.229,0.592,0.19,0.584c0.087,0.113,0.31,0.414,0.295,0.428
	c0.781,0.756,2.178,0.982,3.222,1.766C241.419,377.86,241.462,380.566,239.202,381.172z M248.619,351.292
	c-0.063,0.523-0.116,0.914-0.375,1.385c-0.565,1.035-1.965,1.641-3.101,1.262c-2.555-0.848-5.161-2.438-5.312-5.417
	c-0.109-2.172,1.215-4.287,2.497-5.929c1.235-1.578,3.479,0.43,2.65,2.046c-0.3,0.582-0.651,1.229-0.662,1.902
	c0.021,0.074,0.073,0.307,0.162,0.441c-0.139-0.139-0.096-0.094,0.128,0.133c0.754,0.883,1.566,1.332,2.655,1.805
	C248.042,349.26,248.721,350.446,248.619,351.292z"/>
<path fill="#783B23" d="M265.538,87.197c0.515,7.204,5.667,15.346,8.244,22.235c2.16-4.156,13.357-20.448,19.908-29.888
	c-3.911-2.496-7.528-5.346-11.858-6.527c-11.853-3.457-23.325-0.522-30.141,7.936c1.956,8.635,3.833,17.016,5.604,20.649
	C259.355,96.279,263.477,92.208,265.538,87.197z"/>
<path fill="#914831" d="M343.624,264.718c1.413-2.973,3.248-4.881,6.759-7.474c2.755-2.032,5.976-3.773,8.85-5.863
	c2.582-1.876,4.884-4.034,6.309-6.949c0.658-1.348,1.105-2.717,1.389-4.099c-3.15,4.991-8.246,8.122-12.984,11.781
	c-1.324,1.021-2.55-1.044-1.656-2.148c0.735-0.908,1.487-1.805,2.259-2.686c4.732-5.392,11.844-10.676,7.528-18.581
	c-1.152-2.111-2.691-3.928-4.325-5.676c2.781,5.254,4.495,10.913,0.955,16.641c-1.705,2.761-4.769,4.604-7.442,6.288
	c-3.891,2.449-7.784,4.96-11.122,8.151c-3.511,3.357-4.355,7.708-4.962,12.184c-0.099,0.727-0.191,1.455-0.287,2.186
	c2.4,0.215,4.799,0.363,7.196,0.432c0.126-0.484,0.262-0.963,0.42-1.424C342.867,266.449,343.23,265.545,343.624,264.718z"/>
<path fill="#914831" d="M325.14,281.391c-1.877,0.113-3.786,0.059-5.561,0.049c-0.472-0.002-0.937-0.002-1.387,0.006
	c-2.03,0.037-2.42,2.521-1.179,3.507c0.299,0.238,0.691,0.391,1.179,0.4c5.688,0.102,13.138,1.643,18.08-1.934
	c-2.283-0.27-4.543-0.621-6.767-1.061C328.034,282.067,326.579,281.746,325.14,281.391z"/>
<path fill="#914831" d="M359.862,193.46c1.487-1.296,3.027-2.59,4.343-4.042c0.425-0.469,0.801-0.958,1.143-1.464
	c-0.096-0.774-0.163-1.552-0.192-2.334c-1.336,2.188-2.828,4.284-4.291,6.4C360.539,192.493,360.202,192.975,359.862,193.46z"/>
<path fill="#914831" d="M319.482,118.349c-0.195-1.78-0.496-3.863-0.999-5.921c-4.09-5.732-9.564-8.908-16.741-7.731
	c-0.914,0.15-0.693,1.65,0.218,1.604c12.496-0.64,15.803,11.554,17.741,21.456c0.414,2.107,0.87,4.253,1.401,6.383
	c-0.105-0.562-0.203-1.132-0.284-1.714C320.165,127.753,319.996,123.036,319.482,118.349z"/>
<path fill="#914831" d="M323.345,141.377c0.15,0.39,0.298,0.781,0.458,1.164c2.034,4.855,4.989,8.348,9.493,10.777
	C328.821,150.052,325.495,146.134,323.345,141.377z"/>
<path fill="#FFEBC2" d="M366.304,255.121c-3.395,2.16-9.158,7.808-11.349,13.338c-4.279,0.439-8.568,0.566-12.864,0.445
	c-2.397-0.068-4.796-0.217-7.196-0.432c-0.521-0.047-1.042-0.09-1.564-0.145c-0.942-0.096-1.875-0.219-2.804-0.357
	c-4.242-0.617-8.368-1.594-12.584-2.48c-4.58-0.964-9.011-2.302-13.076-4.636c-0.336,0.967-0.765,1.932-1.277,2.863
	c0.438,3.474-0.298,6.897-2.736,9.654c-1.574,1.779-3.646,2.95-5.56,4.308c0.23,1.139,0.39,2.455,0.39,4.016
	c-0.185,4.935-1.819,7.676-4.246,9.312c-1.194,4.759-5.206,8.729-10.216,9.576c-4.176,0.707-7.67,0.246-10.602,3.758
	c-2.019,2.421-3.31,5.593-5.895,7.549l-0.047,0.033c-0.11,0.096-0.239,0.191-0.359,0.289c15.127-0.391,31.03-2.188,41.817-7.85
	c0.735-3.939,1.141-8.089,1.276-12.361c0.187-5.896-0.138-12.025-0.815-18.183c4.323,2.731,8.977,4.749,13.878,6.274
	c1.531,0.477,3.085,0.91,4.664,1.297c1.439,0.355,2.894,0.677,4.366,0.968c2.223,0.439,4.484,0.791,6.767,1.061
	c8.827,1.049,17.987,0.826,26.628-0.846l9.955-26.705C371.325,254.215,368.844,253.504,366.304,255.121z"/>
<path fill="#FFEBC2" d="M378.542,282.415c5.859-2.513,12.156-9.32,9.431-16.278c-1.85-4.726-5.539-6.155-9.797-5.903l-8.911,23.906
	C372.391,284.356,375.874,283.562,378.542,282.415z"/>
<path fill="#403829" d="M290.704,200.068c8.606,0,15.585-10.173,15.585-22.726c0-5.1-1.152-9.806-3.097-13.597
	c0.038,0.27,0.065,0.545,0.065,0.827c0,3.228-2.616,5.844-5.844,5.844c-3.227,0-5.844-2.616-5.844-5.844
	c0-3.229,2.617-5.845,5.844-5.845c1.091,0,2.109,0.305,2.983,0.824c-2.662-3.086-6.028-4.936-9.692-4.936
	c-8.608,0-15.583,10.174-15.583,22.726C275.121,189.896,282.096,200.068,290.704,200.068z M301.742,174.097
	c1.915,0,3.463,1.551,3.463,3.463s-1.549,3.462-3.463,3.462c-1.913,0-3.461-1.55-3.461-3.462S299.83,174.097,301.742,174.097z"/>
<path fill="#FFFFFF" d="M291.569,164.573c0,3.228,2.617,5.844,5.844,5.844c3.229,0,5.844-2.616,5.844-5.844
	c0-0.282-0.027-0.558-0.065-0.827c-0.254-1.786-1.311-3.308-2.796-4.193c-0.875-0.52-1.892-0.824-2.983-0.824
	C294.186,158.729,291.569,161.345,291.569,164.573z"/>
<circle fill="#9D9B93" cx="301.742" cy="177.559" r="3.462"/>
<path fill="#403829" d="M216.681,164.573c0,3.228-2.617,5.844-5.844,5.844c-3.228,0-5.845-2.616-5.845-5.844
	c0-3.229,2.617-5.845,5.845-5.845c1.092,0,2.11,0.305,2.984,0.826c-2.662-3.088-6.028-4.938-9.694-4.938
	c-8.606,0-15.585,10.174-15.585,22.726c0,12.553,6.979,22.726,15.585,22.726c8.608,0,15.584-10.173,15.584-22.726
	c0-5.1-1.151-9.806-3.096-13.599C216.654,164.016,216.681,164.291,216.681,164.573z M218.628,177.56c0,1.912-1.55,3.462-3.464,3.462
	c-1.912,0-3.462-1.55-3.462-3.462s1.55-3.463,3.462-3.463C217.078,174.097,218.628,175.647,218.628,177.56z"/>
<path fill="#FFFFFF" d="M204.992,164.573c0,3.228,2.617,5.844,5.845,5.844c3.227,0,5.844-2.616,5.844-5.844
	c0-0.282-0.026-0.558-0.065-0.829c-0.254-1.784-1.31-3.305-2.794-4.189c-0.874-0.521-1.892-0.826-2.984-0.826
	C207.609,158.729,204.992,161.345,204.992,164.573z"/>
<circle fill="#9D9B93" cx="215.165" cy="177.56" r="3.463"/>
<path fill="#DA5243" d="M246.605,230.681c4.362-0.261,8.683-2.014,12.125-4.707c3.082-2.412,6.992-5.434,8.304-9.238
	c0.239-0.693-0.61-1.269-1.2-0.922c-3.096,1.824-5.335,4.434-8.822,5.706c-3.149,1.146-6.325,1.653-9.653,1.907
	c-7.381,0.563-14.709-1.845-20.073-6.476c-1.114-0.961-1.906-1.578-1.473-0.026C228.407,226.218,237.283,231.241,246.605,230.681z"
	/>
<path fill="#F8B3AD" d="M260.835,202.233c0-4.109-3.792-7.599-9.096-8.935l0.005-0.155c0-3.825-2.132-6.927-4.762-6.927
	c-2.628,0-4.762,3.102-4.762,6.927l0.005,0.155c-5.303,1.336-9.094,4.825-9.094,8.935c0,2.594,1.513,4.944,3.96,6.661
	c2.514,1.764,6.015,2.862,9.891,2.862c3.751,0,7.147-1.03,9.642-2.694C259.218,207.332,260.835,204.915,260.835,202.233z"/>
<path fill="#6D2D19" d="M293.167,141.513c-1.347-1.635-3.861-2.076-5.542-0.366c-0.517,0.526-1.034,1.053-1.552,1.58
	c-0.186,0.012-0.369,0.037-0.551,0.072c-1.094-1.895-3.801-2.727-5.536-0.851c-2.467,2.667-6.571,6.396-6.528,10.287
	c0.047,4.124,6.651,4.059,6.356,0c-0.001,0.135,0.204-0.072,0.464-0.384c1.118,0.834,2.699,1.051,4.04,0.28
	c0.456-0.263,0.968-0.543,1.492-0.848c1.097,0.182,2.277-0.095,3.179-0.981l0.056-0.053c1.352,0.771,3.131,0.62,4.535-0.553
	c0.219-0.183,0.456-0.346,0.7-0.502c0.923,0.797,2.306,1,3.472,0.771c0.807-0.157,1.486-0.599,2.19-0.938
	c1.388,0.545,2.789,1.062,4.078,1.805c1.549,0.893,3.017,0.564,4.03-0.322c-1.887-0.717-3.704-1.606-5.361-2.899
	c-2.672-2.083-4.658-4.673-6.075-7.579c-0.554,0.028-1.137,0.198-1.726,0.547C294.318,140.915,293.743,141.22,293.167,141.513z"/>
<path fill="#6D2D19" d="M194.345,141.532c-0.676-0.111-1.41-0.049-2.306,0.375c-1.938,0.917-3.996,1.482-5.819,2.641
	c-3.948,2.504-0.412,8.642,3.675,6.285c1.289-0.743,2.689-1.26,4.077-1.805c0.705,0.34,1.385,0.781,2.191,0.938
	c1.166,0.229,2.549,0.025,3.471-0.771c0.245,0.156,0.482,0.319,0.701,0.502c1.403,1.173,3.183,1.324,4.535,0.553l0.055,0.053
	c0.902,0.887,2.083,1.163,3.178,0.981c0.524,0.305,1.036,0.585,1.493,0.848c1.341,0.771,2.922,0.554,4.041-0.28
	c0.26,0.312,0.464,0.519,0.463,0.384c-0.294,4.059,6.311,4.124,6.356,0c0.043-3.892-4.061-7.62-6.527-10.287
	c-1.735-1.876-4.443-1.044-5.537,0.851c-0.182-0.035-0.365-0.061-0.551-0.072c-0.517-0.527-1.034-1.054-1.551-1.58
	c-1.681-1.71-4.196-1.269-5.543,0.366c-0.575-0.293-1.151-0.598-1.719-0.934C197.162,139.476,195.359,140.148,194.345,141.532z"/>
<path fill="#783B23" d="M136.917,142.21c1.288-1.933,1.943-3.877,2.235-5.841c-2.74,1.164-5.201,2.861-6.869,5.486
	c-1.073,1.688-1.767,3.288-2.154,4.864C132.309,145.538,135.534,144.286,136.917,142.21z"/>
<path fill="#783B23" d="M149.326,116.136c-3.455,4.119-2.329,9.229-1.714,14.267c2.377-0.642,4.711-1.407,6.896-2.528
	c4.805-2.465,8.456-6.462,11.124-11.126c1.522-2.66,3.059-5.019,5.181-6.899c-1.409,0.241-2.827,0.427-4.232,0.591
	C160.769,111.113,153.406,111.271,149.326,116.136z"/>
<path fill="#914831" d="M108.581,230.033c0.535,0.658,1.643-0.207,1.172-0.904c-1.751-2.595-3.683-4.729-5.885-6.985
	c-0.667-0.685-1.345-1.34-1.984-2.009c-1.652-1.729-3.035-3.55-3.232-6.208c-0.274-3.693,2.235-7.732,4.169-10.714
	c2.089-3.224,3.974-5.963,7.605-7.464c1.683-0.695,2.975-1.66,3.947-2.812c0.691-0.818,1.219-1.732,1.608-2.714
	c0.101-0.696,0.259-1.39,0.507-2.078c0.057-0.157,0.126-0.306,0.186-0.461c0.455-2.762,0.123-5.817-0.591-8.686
	c-0.988-3.972-2.669-7.75-2.721-11.899c-0.043-3.364,1.699-6.589,4.088-8.831c1.622-1.52,3.663-2.689,5.854-3.656
	c-0.011-0.059-0.023-0.117-0.033-0.175c-0.279-1.655-0.325-3.26-0.168-4.813c-0.598,0.221-1.189,0.447-1.765,0.689
	c-5.389,2.279-9.634,5.622-11.852,11.153c-3.057,7.624,1.461,14.586,2.415,22.053c0.057,0.437,0.09,0.863,0.103,1.276
	c0.091,3.046-1.04,5.448-4.13,6.559c-3.141,1.128-6.949,2.57-9.178,5.199c-2.492,2.939-4.271,5.773-4.788,9.645
	c-0.445,3.333,0.897,8.064,2.175,11.144c0.953,2.3,2.672,4.036,4.561,5.592c0.072,0.059,0.143,0.12,0.216,0.179
	C103.687,225.405,106.267,227.179,108.581,230.033z"/>
<path fill="#914831" d="M139.152,136.369c-0.292,1.964-0.947,3.908-2.235,5.841c-1.383,2.076-4.608,3.328-6.788,4.51
	c-0.45,1.828-0.485,3.625-0.211,5.495c1.147-0.362,2.267-0.711,3.322-1.062c2.722-0.905,5.175-2.539,7.413-4.291
	c3.475-2.726,5.841-4.746,6.898-9.257c0.292-1.247,0.371-2.535,0.338-3.846c-1.486,0.437-2.983,0.835-4.479,1.211
	C141.963,135.334,140.523,135.786,139.152,136.369z"/>
<path fill="#914831" d="M149.326,116.136c4.08-4.865,11.442-5.022,17.254-5.696c1.406-0.164,2.824-0.35,4.232-0.591
	c1.02-0.905,2.174-1.701,3.529-2.366c0.795-0.39,1.48,0.745,0.699,1.196c-0.221,0.128-0.425,0.26-0.632,0.392
	c2.409-0.65,4.725-1.582,6.822-3.011c5.868-3.997,6.455-11.809,11.597-16.479c0.487-0.442,0.99-0.85,1.5-1.237
	c-0.155-1.145-0.302-2.252-0.435-3.309c-1.387,0.837-2.737,1.795-4.036,2.899c-3.026,2.567-5.762,5.381-8.77,7.943
	c-1.542,1.316-2.667,2.791-4.519,3.724c-1.522,0.765-3.178,1.186-4.834,1.549c-6.448,1.41-13.222,1.037-19.506,3.237
	c-3.006,1.053-5.7,2.728-7.883,4.876c-3.022,2.975-5.057,6.863-5.526,11.322c-0.433,4.098,0.389,8.043,0.517,11.896
	c2.708-0.764,5.521-1.337,8.277-2.078C146.998,125.364,145.872,120.255,149.326,116.136z"/>
<path fill="#914831" d="M229.835,87.574c-9.809-6.765-21.848-8.873-32.304-4.406c0.555,0.73,1.148,1.512,1.767,2.33
	c7.96-3.259,17.387-1.767,25.262,1.938c0.008-0.079,0.021-0.16,0.027-0.239c0.044,0.107,0.095,0.213,0.141,0.321
	c1.353,0.643,2.661,1.35,3.905,2.11C229.959,90.439,231.082,88.435,229.835,87.574z"/>
<path fill="#914831" d="M144.737,259.579c2.713-5.021,2.283-11.222-0.064-16.29c-2.249-4.853-6.023-8.574-9.061-12.899
	c-2.442-3.478-5.085-8.343-4.875-12.865c-0.407-1.38-0.641-2.833-0.645-4.382c-0.005-1.767,0.254-3.446,0.701-5.06
	c-1.496,1.489-2.81,3.122-3.661,5.126c-2.211,5.207-2.297,12.193,0.265,17.277c2.546,5.051,6.868,8.842,10.177,13.352
	c3.802,5.182,4.209,11.298,1.039,16.841c-2.855,4.993-6.363,10.408-5.568,16.45c0.051,0.383,0.13,0.752,0.224,1.119
	c1.143,4.499,5.288,7.792,7.428,11.779c0.141,0.262,0.591,0.08,0.486-0.205c-0.901-2.466-1.911-4.884-3.153-7.196
	c-0.146-0.273-0.293-0.545-0.436-0.815c-1.017-1.928-1.875-3.795-1.853-6.067C135.806,269.391,141.93,264.771,144.737,259.579z"/>
<path fill="#914831" d="M135.308,208.628c1.88-2.099,3.974-4.067,5.628-6.214c0.879-1.141,1.667-2.278,2.34-3.434
	C140.359,201.919,136.886,204.856,135.308,208.628z"/>
<path fill="#914831" d="M144.127,180.855c-0.137-0.405-0.28-0.802-0.44-1.175c-1.929-4.502-4.125-7.593-1.17-12.341
	c0.234-0.377-0.331-0.683-0.583-0.341c-3.812,5.186-0.59,10.733,0.689,16.299c0.366,1.596,0.699,3.186,0.862,4.788
	C144.37,185.755,144.365,183.354,144.127,180.855z"/>
<path fill="#914831" d="M375.04,174.939c1.599,3.649,2.871,7.373,3.251,11.081c0.319,3.101,0.006,6.19-1.259,9.214
	c0.5,0.547,1.048,1.057,1.632,1.521c1.293-1.789,2.343-3.68,3.083-5.691c0.977-2.649,1.427-5.502,1.21-8.591
	c-0.364-5.181-1.983-10.265-3.939-15.147c-1.49,2.166-2.792,4.442-3.732,6.928C375.201,174.479,375.122,174.711,375.04,174.939z"/>
<path fill="#914831" d="M316.401,98.387c5.72,3.669,10.374,7.629,13.465,13.731c3.019,5.959,6.033,11.396,12.665,13.823
	c1.22,0.446,2.455,0.708,3.696,0.882c-2.352-0.896-4.505-2.241-6.322-4.368c-3.06-3.581-3.806-8.005-4.489-12.442
	c-1.176-1.608-2.382-3.197-3.687-4.696c-2.125-2.439-4.825-4.33-7.474-6.151c-3.373-2.321-6.748-4.659-10.442-6.448
	c-6.065-2.939-12.643-3.481-18.171-0.038c-0.131,0.776-0.264,1.557-0.398,2.339C302.643,91.999,309.698,94.087,316.401,98.387z"/>
<path fill="#914831" d="M370.941,135.974c-0.31,0.056-0.663-0.064-0.804-0.442c-1.89-5.067-6.076-6.085-10.595-6.534
	c0.075,0.036,0.15,0.064,0.226,0.104c6.12,3.146,4.57,9.224,4.28,14.951c-0.318,6.302,2.039,12.188,4.615,17.795
	c0.65,1.413,1.371,2.863,2.116,4.341c0.106-0.168,0.208-0.339,0.318-0.505c1.411-2.119,3.048-3.958,4.786-5.699
	c-1.151-2.683-2.21-5.389-3.077-8.185c-0.042-0.137-0.073-0.271-0.112-0.408c-0.854-2.987-0.912-5.873-1.042-8.978
	C371.559,140.184,371.368,138.018,370.941,135.974z"/>
<path fill="#914831" d="M369.388,131.369c-1.123-2.238-2.79-4.208-5.306-5.77c-5.427-3.371-11.609-3.238-17.513-4.892
	c3.831,2.817,9.379,3.532,13.675,4.987C363.813,126.905,367.156,128.578,369.388,131.369z"/>
<path fill="#914831" d="M199.152,253.723c0.323,1.282,0.146,2.199,0.026,3.334c1.074,0.994,2.139,1.992,3.026,3.159
	c2.225,2.92,2.017,5.421,0.299,8.522c-1.58,2.851-3.276,5.751-2.795,9.135c1.084,7.63,9.624,8.702,14.052,13.857
	c0.562,0.654,1.724-0.234,1.199-0.924c-3.631-4.786-12.005-6.136-10.958-13.652c0.403-2.901,2.65-5.3,4.075-7.75
	c1.803-3.104,3.022-6.167,2.298-9.774c-1.183-5.893-8.054-7.693-10.654-12.535c-3.387-6.307,6.308-13.329,10.113-16.861
	c0.844-0.783-0.309-2.332-1.249-1.617c-5.509,4.193-13.523,7.545-15.335,14.897c-0.052,0.207-0.094,0.414-0.13,0.622
	c1.248,1.825,2.863,3.461,4.007,5.314C197.936,250.76,198.773,252.217,199.152,253.723z"/>
<path fill="#914831" d="M278.145,255.198c-0.411-4.528-4.27-8.315-7.299-11.462c-0.896-0.93-2.255,0.458-1.405,1.406
	c3.692,4.125,6.303,8.257,2.904,13.164c-1.069,1.544-2.742,2.759-3.963,4.206c-1.732,2.055-3.25,4.239-4.449,6.651
	c-2.27,4.563-1.339,9.711,0.169,14.341c0.669,2.057,1.092,3.877,1.094,6.04c0.002,2.801-3.093,3.562-3.512,6.009
	c-0.048,0.279,0.02,0.65,0.318,0.779c4.491,1.951,8.264-5.304,8.683-8.78c0.639-5.298-1.695-11.012,0.487-16.015
	c0.955-2.187,2.281-4.235,3.532-6.315c0.166-1.476,0.508-2.987,1.067-4.577C276.412,258.814,277.284,257.014,278.145,255.198z"/>
<path fill="#914831" d="M302.841,247.004c-1.98-3.845-5.17-8.18-5.247-12.646c-0.068-4.006,0.629-7.727-2.432-10.849
	c-2.456-2.5-8.286-3.237-11.272-1.417c-0.94,0.573-0.502,1.919,0.538,1.986c3.975,0.256,9.268,0.502,8.373,5.874
	c-0.293,1.758-1.13,3.335-1.258,5.151c-0.134,1.895,0.219,3.84,0.616,5.69c1.45,6.749,8.872,13.025,4.807,20.039
	c-1.381,2.383-3.244,4.208-5.321,5.651c-2.211,1.535-2.663,3.729-3.146,6.233c-0.721,3.735-0.368,7.216,0.294,10.916
	c0.852,4.757-0.44,7.87-4.104,11.064c-0.468,0.406,0.164,1.236,0.667,0.863c2.918-2.16,5.888-4.976,6.645-8.686
	c0.868-4.252,0.051-8.638,0.966-12.926c0.649-3.041,2.069-2.215,4.479-3.628c2.485-1.457,4.656-3.895,6.146-6.604
	c0.513-0.932,0.941-1.896,1.277-2.863c0.226-0.652,0.414-1.307,0.548-1.954C306.295,254.669,304.747,250.708,302.841,247.004z"/>
<path fill="#914831" d="M227.742,281.496c-8.323-5.786,1.578-21.12,5.613-26.806c0.663-0.936-0.856-2.108-1.589-1.228
	c-6.046,7.271-13.732,17.427-11.973,27.502c0.739,4.241,4.677,7.051,8.057,9.172c3.543,2.225,5.846,3.995,6.95,8.161
	c0.536,2.019,3.15,2.171,4.219,0.552C244.665,290.291,233.258,285.329,227.742,281.496z"/>
<path fill="#E9B346" d="M194.327,88.343c1.148,8.435,2.838,18.873,4.06,25.996c0.741-0.536,1.491-1.062,2.255-1.564
	c1.253-0.822,2.79,1.131,1.614,2.092c-1.206,0.985-2.254,2.099-3.203,3.292c0.104,0.585,0.202,1.128,0.29,1.611l4.981-0.229
	l40.738-1.864l45.722,2.093c0.002-0.012,0.005-0.027,0.007-0.038c0.811-4.441,2.73-14.688,4.453-24.714
	c0.135-0.782,0.268-1.562,0.398-2.339c0.659-3.896,1.271-7.678,1.76-11.001c0.556-3.78,0.955-6.963,1.074-9
	c0,0-1.962,2.798-4.787,6.867c-6.551,9.439-17.748,25.731-19.908,29.888c-2.577-6.89-7.729-15.031-8.244-22.235
	c-2.061,5.011-6.183,9.082-8.244,14.405c-1.771-3.634-3.649-12.015-5.604-20.649c-2.175-9.6-4.446-19.515-6.779-23.58l-0.589-0.589
	c-2.333,4.064-4.356,14.139-6.295,23.89c-1.746,8.777-3.423,17.293-5.195,20.929c-2.016-5.209-6-9.221-8.102-14.084
	c-0.046-0.108-0.097-0.214-0.141-0.321c-0.006,0.079-0.02,0.16-0.027,0.239c-0.608,7.145-5.669,15.183-8.216,21.996
	c-1.968-3.789-10.853-15.747-17.046-23.935c-0.619-0.818-1.212-1.6-1.767-2.33c-0.272-0.358-0.537-0.706-0.791-1.039
	c-2.181-2.862-3.631-4.742-3.631-4.742c0.101,1.721,0.344,4.076,0.679,6.808c0.034,0.276,0.068,0.555,0.104,0.84
	C194.025,86.091,194.172,87.198,194.327,88.343z"/>
<path fill="#616161" d="M130.736,217.524c2.9,9.815,14.735,15.907,17.467,25.938c0.364,1.337,2.334,1.031,2.372-0.32
	c0.162-5.9-3.187-10.56-6.891-14.798c-3.667-4.195-8.645-8.63-9.185-14.527c-0.175-1.914,0.155-3.622,0.81-5.188
	c1.578-3.771,5.051-6.709,7.968-9.647c0.255-0.257,0.507-0.515,0.753-0.773c4.78-5.027,7.264-10.646,7.995-17.536
	c0.963-9.081-3.337-20.809,0.382-28.636c1.581-3.325,5.295-5.347,9.213-6.695c7.054-2.425,14.616-2.359,21.34-5.835
	c8.509-4.398,10.513-14.32,16.094-21.347c0.948-1.193,1.997-2.307,3.203-3.292c1.176-0.961-0.36-2.914-1.614-2.092
	c-0.764,0.503-1.514,1.028-2.255,1.564c-4.225,3.054-8.078,6.665-11.267,10.798c-3.676,4.762-7.824,7.575-13.785,8.762
	c-11.445,2.277-24.286,3.254-29.007,15.712c-1.56,4.113-1.406,8.945-1.226,13.268c0.238,5.677,0.286,11.37,0.924,17.018
	c0.037,0.322,0.07,0.642,0.101,0.96c0.238,2.499,0.243,4.899-0.642,7.23c-0.158,0.417-0.342,0.831-0.561,1.245
	c-1.427,2.69-3.702,4.851-5.592,7.208c-2.813,3.511-5.358,7.282-6.54,11.544c-0.447,1.613-0.706,3.293-0.701,5.06
	C130.096,214.691,130.329,216.145,130.736,217.524z"/>
<path fill="#616161" d="M350.815,144.519c-5.563-2.19-11.312-4.347-16.295-7.715c-2.427-1.64-4.156-3.72-5.597-6.077
	c-0.204-1.162-0.369-2.328-0.515-3.481c-0.631-4.989-1.173-9.811-3.208-14.454c-0.929-2.121-2.116-4.24-3.729-5.916
	c-1.482-1.539-3.652-2.335-5.392-3.518c-0.932-0.633-1.883,0.737-1.162,1.505c1.771,1.887,2.867,4.702,3.566,7.565
	c0.503,2.058,0.804,4.141,0.999,5.921c0.514,4.688,0.683,9.404,1.335,14.077c0.081,0.582,0.179,1.151,0.284,1.714
	c0.488,2.608,1.237,5.015,2.243,7.237c2.15,4.757,5.477,8.675,9.951,11.941c0.938,0.684,1.922,1.342,2.96,1.971
	c6.558,3.973,14.865,6.669,18.456,13.99c2.303,4.694,0.777,9.789-0.684,14.446c-0.517,1.647-1.255,3.392-1.912,5.17
	c-0.595,0.851-1.168,1.694-1.696,2.538c-4.726,7.562-4.458,14.86-0.226,22.55c1.917,3.479,4.867,6.162,7.559,9.04
	c1.634,1.748,3.172,3.564,4.325,5.676c4.315,7.905-2.796,13.189-7.528,18.581c-0.772,0.881-1.524,1.777-2.259,2.686
	c-0.894,1.104,0.332,3.17,1.656,2.148c4.738-3.659,9.834-6.79,12.984-11.781c0.664-1.054,1.248-2.186,1.718-3.429
	c1.739-4.607,0.836-8.807-1.248-12.646c-1.003-1.847-2.276-3.612-3.667-5.296c-4.259-5.16-9.557-10.262-7.919-17.633
	c0.635-2.856,2.358-5.446,4.047-7.87c0.339-0.485,0.676-0.967,1.002-1.439c1.463-2.116,2.955-4.213,4.291-6.4
	c-0.091-2.454,0.133-4.935,0.649-7.354c0.786-3.684,2.13-7.194,3.991-10.452C368.795,157.531,361.441,148.701,350.815,144.519z"/>
<path fill="#616161" d="M264.513,253.181c0.349-3.826-1.427-7.451-2.811-10.869c-0.316-0.783-1.562-0.493-1.301,0.359
	c2.346,7.647-2.054,12.59-6.275,18.297c-4.481,6.06-7.493,12.66-6.032,20.333c1.046,5.491,8.059,15.241,3.366,20.504
	c-1.631,1.828-4.44,2.457-6.272,4.155c-2.61,2.418-3.028,6.657-1.705,9.802c0.819,1.95,3.153,1.95,3.973,0
	c1.32-3.139,0.904-5.023,4.387-6.37c3.494-1.348,5.754-2.959,7.578-6.329c4.346-8.028-0.651-15.473-2.821-23.203
	c-1.928-6.876,2.82-12.332,5.668-18.108C263.636,258.973,264.233,256.253,264.513,253.181z"/>
<path fill="#616161" d="M273.143,232.712c-0.921-0.41-1.71,0.838-0.806,1.379c4.675,2.797,9.734,7.246,8.671,13.286
	c-0.474,2.7-1.656,5.272-2.864,7.821c-0.861,1.815-1.733,3.616-2.375,5.447c-0.559,1.59-0.901,3.102-1.067,4.577
	c-0.415,3.652,0.273,7.077,1.632,10.88c0.729,2.042,1.821,3.97,1.476,6.217c-0.511,3.324-3.421,5.53-3.929,8.649
	c-0.101,0.617,0.362,1.195,1.027,1.025c2.733-0.697,4.535-3.781,5.827-6.146c1.21-2.213,1.4-4.952,1.569-7.415
	c0.401-5.835-0.461-11.559,0.536-17.403c0.909-5.327,2.141-10.895,1.42-16.318C283.426,238.407,278.569,235.121,273.143,232.712z"/>
<path fill="#616161" d="M191.595,278.881c0.997,1.227,2.146,2.395,3.273,3.513c0.08,0.08,0.16,0.158,0.239,0.238
	c1.219,1.205,1.808,2.791,2.868,4.105c0.542,0.672,1.505,0.193,1.751-0.463c2.036-5.433-5.282-8.745-6.847-13.047
	c-1.026-2.823,1.429-5.864,2.884-8.038c1.383-2.071,3.197-4.886,3.353-7.432c0.015-0.246,0.037-0.477,0.062-0.701
	c0.12-1.135,0.297-2.052-0.026-3.334c-0.379-1.506-1.216-2.963-2.025-4.272c-1.145-1.854-2.759-3.489-4.007-5.314
	c-0.551-0.806-1.039-1.643-1.37-2.557c-2.953-8.137,6.145-15.793,13.458-16.274c1.268-0.083,1.294-1.992,0-1.988
	c-7.735,0.017-13.085,5.045-16.732,11.424c-1.778,3.111-2.527,6.312-1.798,9.849c0.755,3.668,3.438,6.55,5.244,9.71
	c0.753,1.317,0.716,3.078,1.845,4.18c0.948,0.927,0.097,2.788-0.386,3.706c-1.128,2.146-2.518,3.923-3.417,6.032
	c-0.353,0.828-0.636,1.703-0.789,2.681C188.709,273.897,189.721,276.574,191.595,278.881z"/>
<path fill="#616161" d="M218.863,243.957c-1.349-2.985-2.333-5.173,0.341-7.604c0.438-0.398,0.661-1.169,0.458-1.735
	c-0.052-0.146-0.11-0.287-0.18-0.426c-0.354-0.707-1.282-1.024-2.014-0.82c-7.829,2.183-4.167,9.954-1.472,14.821
	c2.187,3.953,2.127,8.267,0.842,12.461c-1.093,3.564-1.713,6.806-1.069,10.541c0.096,0.551,1.027,0.426,0.977-0.131
	c-0.628-6.863,4.249-12.862,4.102-19.744C220.792,248.748,219.908,246.271,218.863,243.957z"/>
<path fill="#616161" d="M123.102,149.624c-0.157,1.554-0.111,3.158,0.168,4.813c0.01,0.058,0.022,0.116,0.033,0.175
	c0.884,5.021,3.266,9.634,3.245,14.812c-0.022,5.244-3.678,8.5-6.593,12.348c-1.396,1.843-2.464,3.771-3.283,5.912
	c-0.06,0.155-0.129,0.304-0.186,0.461c-0.248,0.688-0.406,1.382-0.507,2.078c-0.353,2.462,0.072,4.972,0.327,7.465
	c0.164,1.602,2.317,1.597,2.486,0c0.592-5.601,2.662-10.675,6.377-14.9c2.932-3.335,6.47-6.235,7.796-10.627
	c1.494-4.942-0.071-10.148-1.707-14.818c-0.636-1.812-1.104-3.496-1.341-5.128c-0.273-1.87-0.238-3.667,0.211-5.495
	c0.388-1.576,1.081-3.176,2.154-4.864c1.667-2.625,4.129-4.322,6.869-5.486c1.371-0.583,2.811-1.035,4.257-1.398
	c1.497-0.376,2.994-0.774,4.479-1.211c3.07-0.901,6.087-1.98,8.924-3.467c3.991-2.09,6.952-5.426,9.398-9.139
	c1.292-1.961,2.255-3.9,3.128-6.071c1.092-2.715,2.667-4.495,5.069-6.013c0.207-0.132,0.411-0.264,0.632-0.392
	c0.781-0.451,0.096-1.586-0.699-1.196c-1.354,0.665-2.509,1.461-3.529,2.366c-2.122,1.881-3.659,4.239-5.181,6.899
	c-2.668,4.664-6.319,8.661-11.124,11.126c-2.184,1.121-4.519,1.887-6.896,2.528c-2.755,0.741-5.568,1.314-8.277,2.078
	c-4.16,1.172-8.071,2.792-11.137,6.159c-0.21,0.231-0.416,0.469-0.618,0.716C125.06,142.446,123.48,145.884,123.102,149.624z"/>
<path fill="#616161" d="M346.228,126.823c2.705,1.028,5.673,1.462,8.713,1.776c1.521,0.156,3.082,0.245,4.602,0.397
	c4.519,0.449,8.705,1.467,10.595,6.534c0.141,0.378,0.494,0.498,0.804,0.442c0.35-0.063,0.642-0.355,0.498-0.801
	c-0.477-1.466-1.183-2.717-2.051-3.804c-2.232-2.791-5.574-4.464-9.143-5.674c-4.296-1.455-9.845-2.17-13.675-4.987
	c-0.924-0.68-1.75-1.478-2.431-2.44c-3.161-4.465-3.024-10.993-5.24-15.958c-2.18-4.883-8.134-9.742-13.818-8.14
	c-0.816,0.229-0.926,1.313-0.229,1.753c2.692,1.693,5.498,1.944,7.724,4.484c1.578,1.803,2.022,4.607,2.412,6.893
	c0.153,0.9,0.29,1.808,0.43,2.713c0.683,4.438,1.429,8.861,4.489,12.442C341.723,124.582,343.875,125.927,346.228,126.823z"/>
<path fill="#4DA487" d="M191.195,344.965c-0.684-1.317-2.788-1.817-2.375-3.554c0.455-1.916,2.359-3.216,3.797-4.376
	c0.976-0.785,0.192-2.633-1.042-2.514c-3.617,0.35-6.389,3.053-7.504,6.429c-1.169,3.538,1.546,8.507,5.677,7.575
	C191.34,348.164,191.885,346.293,191.195,344.965z"/>
<path fill="#4DA487" d="M203.853,345.174c-2.537,1.252-5.409,3.186-6.417,5.948c-1.229,3.371,0.655,6.722,3.939,7.862
	c2.61,0.906,4.173-2.547,2.534-4.351c-0.89-0.979-1.555-1.484-1.502-2.84c0.07-1.794,1.519-3.229,2.862-4.198
	C206.725,346.545,205.493,344.363,203.853,345.174z"/>
<path fill="#4DA487" d="M187.271,354.651c-3.205,0.521-5.867,2.337-6.985,5.444c-0.988,2.745-0.146,7.715,3.17,8.445
	c1.564,0.346,3.097-0.713,3.115-2.372c0.019-1.621-1.159-2.861-1.178-4.514c-0.02-1.753,1.109-3.396,2.689-4.06
	C189.889,356.838,189.242,354.331,187.271,354.651z"/>
<path fill="#4DA487" d="M167.391,359.17c1.137,0.674,2.891,0.326,3.506-0.92c0.587-1.189,0.561-2.188,0.467-3.46
	c-0.044-0.578,0.097-1.297,0.264-1.648c0.673-1.406,2.633-2.168,4.151-2.568c1.54-0.406,1.618-2.825,0-3.185
	c-3.09-0.688-6.167-0.316-8.512,1.959C164.801,351.741,164.058,357.193,167.391,359.17z"/>
<path fill="#4DA487" d="M199.087,377.239c-0.944-0.789-1.875-0.896-2.93-1.4c-0.765-0.365-0.714-0.371-0.898-1.123
	c-0.328-1.346,0.91-3.536,1.774-4.692c1.332-1.775-1.378-3.378-2.844-2.193c-2.634,2.127-4.802,5.103-4.16,8.663
	c0.628,3.487,5.421,6.261,8.6,4.292C199.779,380.074,200.238,378.204,199.087,377.239z"/>
<path fill="#4DA487" d="M175.986,377.47c-0.143-1.668,0.696-2.795,1.82-3.945c1.269-1.3-0.456-3.743-2.001-2.593
	c-2.02,1.502-4.172,3.351-4.914,5.849c-0.838,2.819,0.696,5.95,3.263,7.233c2.134,1.067,5.314-1.299,3.61-3.611
	C177.144,379.561,176.082,378.576,175.986,377.47z"/>
<path fill="#4DA487" d="M217.628,377.204c-0.526-0.236-1.121-0.402-1.684-0.613c-0.116-1.172-0.117-2.369,0.584-3.311
	c1.282-1.72-1.424-3.597-2.873-2.218c-1.457,1.391-1.972,3.433-2.274,5.358c-0.219,1.393-0.417,2.737,0.785,3.753
	c1.014,0.857,2.354,1.1,3.604,1.432C218.335,382.287,220.178,378.354,217.628,377.204z"/>
<path fill="#4DA487" d="M224.13,355.723c0.444,0.256-0.381-0.331-0.446-0.343c-0.014-0.025-0.021-0.045-0.044-0.084
	c-0.031-0.051-0.054-0.086-0.074-0.117c-0.009-0.037-0.021-0.078-0.037-0.135c-0.015-0.051-0.026-0.088-0.037-0.119
	c0.011-0.027,0.019-0.102,0.018-0.264c-0.003-0.455,0.225-0.912,0.438-1.35c1.213-2.49-2.155-4.472-3.711-2.168
	c-1.253,1.855-1.958,3.777-1.636,6.022c0.393,2.734,3.622,4.143,6.018,3.811c1.823-0.254,2.444-3.051,1.103-4.18
	C225.211,356.367,224.701,356.051,224.13,355.723z M223.708,355.425c-0.003-0.006-0.009-0.016-0.012-0.023
	c0.019,0.02,0.055,0.053,0.12,0.105C223.767,355.466,223.738,355.446,223.708,355.425z"/>
<path fill="#4DA487" d="M222.389,343.815c2.174,1.155,5.085-1.273,3.56-3.559c-0.929-1.393-1.812-2.175-0.604-3.606
	c1.349-1.594-0.318-3.892-2.238-2.898c-1.628,0.84-3.231,2.246-3.625,4.119C218.971,340.298,220.237,342.673,222.389,343.815z"/>
<path fill="#4DA487" d="M247.259,348.92c-1.088-0.473-1.901-0.922-2.655-1.805c-0.224-0.227-0.267-0.271-0.128-0.133
	c-0.089-0.135-0.142-0.367-0.162-0.441c0.011-0.674,0.362-1.32,0.662-1.902c0.829-1.616-1.415-3.624-2.65-2.046
	c-1.281,1.642-2.606,3.757-2.497,5.929c0.151,2.979,2.757,4.569,5.312,5.417c1.136,0.379,2.536-0.227,3.101-1.262
	c0.259-0.471,0.312-0.861,0.375-1.385C248.721,350.446,248.042,349.26,247.259,348.92z"/>
<path fill="#4DA487" d="M239.795,376.64c-1.044-0.783-2.441-1.01-3.222-1.766c0.015-0.014-0.208-0.314-0.295-0.428
	c0.038,0.008-0.193-0.596-0.19-0.584c-0.173-0.709,0.15-1.587,0.345-2.253c0.656-2.248-2.683-3.695-3.796-1.6
	c-1.213,2.281-2.124,5.212-0.825,7.669c1.329,2.513,4.589,4.245,7.391,3.493C241.462,380.566,241.419,377.86,239.795,376.64z"/>
<path fill="#4DA487" d="M203.496,331.304c1.077-0.148,1.728-1.553,1.426-2.512c0.047,0.414,0.023,0.256-0.068-0.475
	c-0.138-0.496-0.423-0.871-0.773-1.226c-0.005-0.008-0.008-0.016-0.016-0.027c0.028,0.029-0.071-0.203-0.122-0.336
	c0.047,0.082,0.061-0.271,0.143-0.449c0.257-0.559,0.594-1.084,0.924-1.602c1.227-1.918-1.686-4.222-3.178-2.451
	c-1.241,1.469-2.521,3.109-2.738,5.08c-0.118,1.073,0.325,2.091,1,2.897C201.062,331.364,202.081,331.499,203.496,331.304z"/>
<path fill="#4DA487" d="M166.302,342.583c1-0.664,1.301-1.447,1.641-2.525c-0.238,0.756,0.192-0.477,0.265-0.719
	c0.008-0.021,0.011-0.029,0.017-0.047c0.075-0.145,0.155-0.287,0.242-0.424c0.131-0.218,0.279-0.419,0.407-0.64
	c0.034-0.051,0.059-0.086,0.08-0.119c0.105-0.117,0.216-0.23,0.333-0.336c0.811-0.768,0.897-2.188,0.142-3.008
	c-1.522-1.652-4.183-0.383-5.485,0.932c-1.559,1.576-2.76,4.683-0.866,6.47C163.911,342.954,165.292,343.253,166.302,342.583z"/>
<path fill="#4DA487" d="M151.069,355.171c0.96-1.818,0.396-3.42,0.428-5.358c0.027-1.623,1.163-3.199,2.093-4.426
	c1.237-1.636-1.064-3.341-2.575-2.577c-2.445,1.236-4.389,3.081-5.273,5.716c-0.929,2.771-0.092,6.841,3.102,7.551
	C149.683,356.264,150.644,355.975,151.069,355.171z"/>
<path fill="#E9B346" d="M444.76,137.163c-6.012,8.846-9.667,18.292-10.945,28.928c-1.129,9.391,0.545,19.255-2.384,28.357
	c-2.06,6.4-6.009,12.188-12.451,14.694c-2.803,1.093-6.085,0.914-8.922,0.089c-1.755-0.51-3.486-1.286-5.074-2.186
	c-0.962-0.546-1.875-1.177-2.779-1.812c-0.119-0.106-0.221-0.194-0.311-0.268c-0.142-0.578-0.342-1.128-0.565-1.693
	c-0.191-0.482-0.503-0.875-0.885-1.178c2.607-6.849,5.084-13.743,7.439-20.68c4.784-14.086,9.134-28.479,13.013-42.831
	c0.169-0.625-0.658-0.933-0.939-0.35c-6.46,13.389-12.592,27.118-18.197,40.898c-0.484,1.189-0.96,2.385-1.437,3.578l-0.176-0.064
	l-6.352,17.039c-0.433,0.007-0.863,0.096-1.27,0.306c-0.523,0.249-1.026,0.538-1.508,0.863l-0.086,0.062
	c-0.951-0.089-1.898-0.187-2.846-0.327c-1.002-0.149-1.989-0.391-2.96-0.684c-0.835-0.252-1.659-0.541-2.469-0.855
	c-1.405-0.547-2.774-1.327-3.992-2.295c-0.584-0.465-1.132-0.975-1.632-1.521c-0.528-0.577-1.003-1.196-1.407-1.854
	c-2.624-4.273-2.843-9.146-1.883-13.852c0.318-1.56,0.763-3.096,1.297-4.59c0.082-0.229,0.161-0.46,0.247-0.686
	c0.94-2.485,2.242-4.762,3.732-6.928c3.834-5.568,8.963-10.377,12.75-15.919c6.245-9.136,9.906-18.83,11.194-29.825
	c0.114-0.974-1.293-1.046-1.484-0.13c-2.694,12.972-9.869,23.715-19.38,32.693c-2.099,1.982-4.224,3.845-6.215,5.838
	c-1.738,1.741-3.375,3.58-4.786,5.699c-0.11,0.166-0.212,0.337-0.318,0.505c-0.344,0.533-0.672,1.076-0.985,1.627
	c-1.861,3.258-3.205,6.769-3.991,10.452c-0.516,2.419-0.74,4.899-0.649,7.354c0.029,0.782,0.097,1.56,0.192,2.334
	c0.588,4.781,2.453,9.343,5.869,12.977c3.049,3.242,7.049,5.446,11.31,6.645c0.906,0.255,1.823,0.455,2.749,0.616
	c1.704,0.296,3.434,0.449,5.159,0.514l-17.579,47.163l-9.955,26.705l-42.132,113.035l6.1,2.271l42.397-113.74l8.911-23.906
	l15.924-42.718c0.716-1.364,1.289-2.825,1.854-4.159c0.335-0.785,0.661-1.573,0.986-2.362c1.931,1.655,4.067,3.029,6.322,4.209
	c3.972,2.082,8.486,3.079,12.964,2.769c8.294-0.574,15.149-6.052,19.21-13.062c2.321-4.005,3.689-8.293,4.446-12.847
	c0.879-5.295,0.026-10.38-0.562-15.648c-1.465-13.123-0.011-26.101,6.355-37.829c0.1-0.184,0.188-0.369,0.291-0.552
	c0.414-0.742-0.464-1.521-1.042-1.05C444.866,137.032,444.811,137.088,444.76,137.163z"/>
<g>
</g>
<g>
</g>
<g>
</g>
<g>
</g>
<g>
</g>
<g>
</g>
</svg>
