<?xml version="1.0" encoding="utf-8"?>
<!-- Generator: Adobe Illustrator 16.0.4, SVG Export Plug-In . SVG Version: 6.00 Build 0)  -->
<!DOCTYPE svg PUBLIC "-//W3C//DTD SVG 1.1//EN" "http://www.w3.org/Graphics/SVG/1.1/DTD/svg11.dtd">
<svg version="1.1" id="Zeus" xmlns="http://www.w3.org/2000/svg" xmlns:xlink="http://www.w3.org/1999/xlink" x="0px" y="0px"
	 width="490px" height="490px" viewBox="0 0 490 490" enable-background="new 0 0 490 490" xml:space="preserve">
<path fill="#3A657A" d="M363.866,41.755c-0.894,7.799-1.852,15.929-2.483,20.605c-0.315,2.33-0.66,4.657-1.02,6.981
	c-0.256,1.659-0.519,3.317-0.788,4.974c-0.241,1.473-0.484,2.943-0.732,4.415c1.154-0.825,2.302-1.661,3.452-2.493
	c0.796-0.576,1.597-1.145,2.39-1.726c0.656-0.483,1.473-1.048,2.397-1.669c1.794-1.205,4.01-2.622,6.349-4.068
	c5.085-3.145,10.737-6.427,13.834-7.954c0.136-0.067,0.231-0.001,0.29,0.189c0.581,1.853-2.361,15.517-6.108,31.438
	c-0.08,0.338-0.16,0.678-0.239,1.018c-0.344,1.457-0.694,2.929-1.048,4.413c-3.75,15.709-7.963,32.519-10.208,41.9
	c-0.029,0.105-0.051,0.163-0.067,0.175c-0.224,0.189,0.754-8.363,2.066-19.698c0.213-1.836,0.434-3.742,0.661-5.698
	c1.473-12.707,3.161-27.426,4.064-37.229c-2.442,1.748-4.951,3.411-7.344,5.135c-4.913,3.542-18.954,11.415-20.336,10.033
	c-0.201-0.202-0.286-0.99-0.278-2.22c0.026-4.085,1.081-13.033,2.284-21.419c0.172-1.198,0.348-2.384,0.522-3.543
	c0.591-3.905,1.188-7.501,1.69-10.184c0.652-3.475,1.306-6.95,1.958-10.425c0.14-0.744,0.279-1.489,0.419-2.233
	c0.169-0.899,0.337-1.796,0.506-2.696c0.073-0.387,0.146-0.775,0.218-1.161c-1.13,0.776-2.273,1.536-3.422,2.29
	c-0.729,0.479-1.458,0.958-2.192,1.433c-3.692,2.391-17.238,9.695-19.771,8.398c-0.362-0.186-0.499-0.547-0.352-1.123
	c0.131-0.503,0.286-1.134,0.46-1.856c1.071-4.44,2.933-12.75,4.928-21.686c0,0,0,0,0,0c0.001,0,0.001,0,0.001-0.001
	C311.011,14.349,283.675,7.302,254.94,5.976l0,0l0,0c-0.062,2.519-0.142,5.054-0.221,7.271c-0.011,0.311-0.021,0.612-0.032,0.909
	c-0.125,3.403-0.238,5.864-0.263,5.976c0.49-0.329,0.98-0.657,1.472-0.985c0.344-0.231,1.857-1.242,3.746-2.438
	c0.242-0.154,0.491-0.31,0.744-0.468c1.791-1.121,3.807-2.331,5.461-3.189c1.852-0.961,3.25-1.482,3.361-0.936
	c0.011,0.052,0.01,0.115-0.004,0.189c-0.023,0.123-2.18,19.85-3.156,27.074c-0.487,3.605-1.07,7.197-1.673,10.786
	c1.289-0.919,2.571-1.843,3.849-2.779c3.101-2.275,11.415-7.314,14.879-9.022c0.119-0.059,0.191,0.039,0.223,0.276
	c0.237,1.826-2.006,11.958-4.671,23.16c-1.709,7.187-3.591,14.811-5.103,20.968c9.241-1.404,20.308-1.151,28.212,1.484
	c12.661,2.922,14.608,11.687,26.295,16.556c8.765,3.896,22.399,0,30.188,8.765c9.741,10.712-2.92,18.503,0.975,30.189
	c2.922,8.765,19.479,13.634,24.347,23.374c7.792,13.634,0,18.503-2.92,31.164c-2.923,12.66,1.947,19.477,5.843,30.19
	c4.869,16.555-0.976,14.608-6.818,28.242c-4.869,10.711,0.976,20.45-4.869,28.243c-3.7,4.164-8.28,5.688-13.113,5.934
	c0.371,0.355,0.445,0.631,0.094,0.785c-0.097,0.043-12.181,6.555-19.992,10.645c0.561,0.475,1.106,0.973,1.65,1.447
	c2.805,2.459,4.632,6.809,5.293,10.389c1.157,6.27-1.016,15.283-8.317,16.875c-4.976,1.084-8.215-1.215-10.367-4.922
	c-6.581,2.578-13.938,5.373-20.267,7.77c0.809,12.164,0.642,24.682,2.091,36.537c-4.241-0.695-9.838-2.195-15.716-3.58
	c-0.899-0.213-1.806-0.418-2.714-0.621c0.871,8.789,0.12,14.201-1.049,23.225c4.729,1.648,9.448,4.553,11.083,8.23
	c7.143,13.635-14.934,8.439-22.725,6.492c-14.338-2.389-20.574-4.436-19.247-12.336h-0.04c-0.785-2.629-1.244-2.369-0.841-5.195
	c1.045-7.309,1.879-14.109,2.468-20.611c-2.525,0.551-5.021,1.143-7.5,1.746c-2.096,0.51-4.182,1.023-6.271,1.523
	c-3.366,0.803-6.74,1.564-10.169,2.189c-0.162,0.025-0.321,0.043-0.482,0.066c-3.119,0.445-6.07,0.482-8.916,0.285
	c-2.812-0.197-5.521-0.617-8.188-1.09c0.536,5.064,1.209,10.33,2.003,15.891c0.404,2.826-0.055,2.566-0.841,5.195h-0.039
	c1.326,7.9-4.91,9.947-19.248,12.336c-7.792,1.947-29.867,7.143-22.725-6.492c1.635-3.678,6.354-6.582,11.083-8.23
	c-0.939-7.252-1.608-12.172-1.382-18.385c-4.807,0.887-9.559,1.348-14.895-0.107c6.493-7.439,3.896-24.975,3.896-34.539
	s-0.649-19.66,0-29.225v-1.062c0.583,0.121,1.17,0.232,1.754,0.348c-1.292-7.223-1.493-15.119-0.973-23.197
	c-1.149-0.52-2.349-0.975-3.612-1.354c-0.72,0.791-1.43,1.596-2.118,2.43c-4.625,5.607-8.729,11.533-12.099,17.92
	c3.388,4.889,4.891,12.816,4.807,16.84c-0.113,5.387-6.325,6.486-9.182,3.436c-2.024,5.645-5.565,9.889-11.998,8.488
	c-7.302-1.592-9.475-10.605-8.318-16.875c0.661-3.58,2.488-7.93,5.292-10.389c1.04-0.91,2.083-1.896,3.229-2.67
	c2.675-6.395,6.274-12.562,10.5-18.201c-5.36,1.848-10.42,4.432-16.011,5.955c-9.738,1.949-21.425,4.869-29.216-3.895
	c-5.842-7.793,0-17.531-4.869-28.243c-5.843-13.634-11.686-11.687-6.817-28.242c3.896-10.713,8.765-17.53,5.843-30.19
	c-2.921-12.66-10.712-17.53-2.921-31.164c4.868-9.74,21.424-14.609,24.346-23.374c3.896-11.686-8.765-19.477,0.974-30.189
	c7.792-8.765,21.425-4.87,30.19-8.765c2.574-1.072,4.675-2.334,6.523-3.682c1.097-9.566,2.66-22.776,3.931-34.401
	c0.605-5.524,1.143-10.691,1.534-14.935c-2.442,1.749-4.95,3.411-7.343,5.136c-4.914,3.542-18.955,11.415-20.336,10.033v0h0
	c-0.571-0.571-0.205-5.856,0.556-12.499c0.75-6.547,1.881-14.413,2.876-20.391c-22.693,11.827-43.238,27.589-60.848,46.453
	c-0.036,0.781-0.062,1.252-0.072,1.3c0.491-0.327,0.98-0.655,1.472-0.984c1.051-0.704,12.976-8.67,13.312-7.032
	c0.011,0.053,0.01,0.115-0.004,0.189c-0.001,0.008-0.011,0.092-0.028,0.246c-0.26,2.295-2.212,20.057-3.127,26.83
	c-0.487,3.604-1.07,7.197-1.673,10.787c1.289-0.919,2.572-1.843,3.849-2.78c3.101-2.276,11.416-7.314,14.879-9.022
	c0.089-0.044,0.152,0,0.191,0.124c0.619,1.977-4.832,24.293-8.778,40.355c-0.092,0.373-0.183,0.742-0.273,1.108
	c-0.053,0.215-0.106,0.43-0.158,0.643c-0.118,0.479-0.234,0.952-0.349,1.417c-0.799,3.258-1.506,6.14-2.042,8.38
	c-0.262,0.958,0.301-4.071,1.127-11.214c0.088-0.765,0.18-1.555,0.274-2.363c0.031-0.27,0.062-0.542,0.094-0.816
	c0.991-8.55,2.209-19.039,2.874-26.088c0.021-0.226,0.042-0.449,0.062-0.668c-1.608,1.151-3.262,2.247-4.838,3.383
	c-2.749,1.981-9.829,6.018-12.463,6.635c-0.469,0.11-0.8,0.114-0.938-0.024c-0.262-0.261-0.224-2.032-0.008-4.56
	c0.485-5.673,1.87-15.17,2.788-20.062c0.225-1.196,0.45-2.392,0.674-3.588c0.205-1.093,0.409-2.187,0.615-3.281
	c0.103-0.541,0.204-1.083,0.306-1.624c0.102-0.541,0.204-1.083,0.305-1.624c0.048-0.255,0.096-0.51,0.145-0.765
	c-0.476,0.326-0.956,0.646-1.435,0.965c-0.75,0.5-1.505,0.996-2.266,1.488c-1.2,0.777-3.981,2.341-6.691,3.626
	c-0.377,0.178-0.751,0.35-1.121,0.514c-0.232,0.104-0.463,0.204-0.69,0.301c-2.826,1.2-5.126,1.782-4.758,0.354
	c0.139-0.537,0.319-1.279,0.532-2.182c0.071-0.302,0.146-0.62,0.224-0.956c-35.639,42.325-57.312,98.207-57.312,159.468
	c0,108.19,67.589,199.608,160.349,229.188l0,0c1.374-11.889,2.857-24.965,3.683-33.93c-0.837,0.6-1.681,1.186-2.526,1.771
	c-0.887,0.611-1.771,1.223-2.65,1.834c-0.728,0.506-1.453,1.014-2.166,1.529c-1.011,0.729-2.411,1.641-4.005,2.617
	c-5.911,3.623-14.524,8.143-16.166,7.518c-0.067-0.025-0.123-0.059-0.166-0.102c-0.202-0.203-0.287-0.992-0.278-2.221
	c0.044-6.635,2.797-26.094,4.498-35.146c0.652-3.475,1.305-6.949,1.957-10.424c0.162-0.863,0.324-1.725,0.486-2.586
	c0.146-0.781,0.293-1.562,0.439-2.344c0.074-0.387,0.146-0.775,0.218-1.162c-1.85,1.27-3.723,2.498-5.615,3.723
	c-1.451,0.941-4.425,2.639-7.655,4.277c-5.865,2.975-12.573,5.744-12.526,3.391c0.002-0.117,0.021-0.248,0.059-0.391
	c0.428-1.658,1.115-4.592,1.958-8.289c0.048-0.211,0.097-0.426,0.146-0.641c0.311-1.369,0.642-2.83,0.988-4.369
	c0.108-0.48,0.218-0.971,0.33-1.465c3.449-15.35,8.17-36.842,9.76-42.584c0.193-0.695,0.351-0.906,0.478-0.717
	c1.202,1.785-0.31,39.348-0.487,41.502c-0.003,0.049-0.007,0.086-0.01,0.098c0.372-0.25,0.744-0.498,1.116-0.746
	c0.373-0.25,0.745-0.5,1.117-0.75c1.597-1.066,19.694-13.158,20.204-10.67c0.017,0.08,0.016,0.176-0.006,0.287
	c-0.035,0.188-3.307,30.125-4.789,41.09c-0.309,2.285-0.647,4.566-0.999,6.848c-0.489,3.176-1.007,6.35-1.541,9.521
	c1.954-1.396,3.903-2.797,5.841-4.219c0.548-0.402,1.206-0.863,1.944-1.363c5.604-3.803,15.993-10.039,20.636-12.328
	c0.25-0.125,0.366,0.207,0.364,0.93c-0.006,2.865-1.856,11.885-4.407,23.047c-0.104,0.455-0.209,0.914-0.315,1.377
	c-0.108,0.469-0.217,0.943-0.328,1.42c-0.223,0.963-0.449,1.938-0.68,2.924c-0.086,0.371-0.174,0.742-0.261,1.115
	c-1.579,6.727-3.311,13.889-4.988,20.758c19.454,5.822,39.973,8.938,61.178,8.938c39.424,0,76.479-10.766,108.708-29.68
	c0.144-1.414,0.277-2.768,0.401-4.055c0.055-0.578,0.109-1.15,0.16-1.699c-2.442,1.748-4.951,3.41-7.344,5.135
	c-0.71,0.512-1.615,1.117-2.642,1.768c-5.622,3.574-14.995,8.633-17.287,8.42c-0.182-0.018-0.319-0.066-0.407-0.154
	c-1.291-1.291,2.204-26.637,4.219-37.367c0.652-3.475,1.305-6.949,1.957-10.424c0.31-1.643,0.617-3.287,0.926-4.93
	c0.073-0.387,0.146-0.773,0.219-1.16c-0.619,0.424-1.245,0.838-1.87,1.256c-0.519,0.348-1.037,0.693-1.56,1.037
	c-0.727,0.479-1.453,0.955-2.186,1.43c-1.538,0.996-4.788,2.844-8.238,4.568c-5.127,2.562-10.698,4.85-11.762,3.656
	c-0.186-0.207-0.235-0.518-0.123-0.951c0.446-1.73,1.177-4.852,2.072-8.783c0.059-0.264,0.12-0.529,0.181-0.799
	c3.451-15.193,9.151-41.338,10.93-47.762c0.707-2.549,0.94,1.414,0.938,7.738c-0.001,1.744-0.021,3.672-0.052,5.689
	c-0.009,0.6-0.02,1.203-0.031,1.816c-0.001,0.033-0.001,0.066-0.002,0.1c-0.204,10.689-0.715,23.123-0.848,25.232
	c-0.011,0.176-0.02,0.281-0.024,0.305c0.744-0.498,1.488-0.996,2.232-1.494c1.359-0.91,14.669-9.799,18.913-10.891
	c0.259-0.066,0.493-0.111,0.68-0.115c0.064-0.002,0.114,0.01,0.17,0.016c0.043,0.006,0.095,0.002,0.132,0.014
	c0.256,0.068,0.366,0.258,0.304,0.592c-0.036,0.188-3.308,30.125-4.789,41.09c-0.526,3.891-1.128,7.773-1.76,11.65
	c-0.047,0.291-0.094,0.582-0.141,0.873c-0.211,1.283-0.424,2.564-0.64,3.846c1.954-1.396,3.903-2.797,5.841-4.219
	c0.436-0.32,0.94-0.674,1.499-1.059c3.996-2.746,10.834-6.951,16.095-9.939c0.733-0.418,1.437-0.811,2.097-1.174
	c1.101-0.604,2.082-1.121,2.89-1.52c0.257-0.125,0.371,0.223,0.364,0.977c-0.011,1.133-0.295,3.178-0.787,5.908
	c-0.492,2.729-1.192,6.143-2.034,10.006c64.646-42.047,107.784-117.771,107.784-204.204
	C470.185,159.222,427.698,83.988,363.866,41.755z M76.809,317.473c-0.071,0.262-0.102,0.23-0.098-0.059
	c0.003-0.289,0.043-0.836,0.114-1.607c0.028-0.309,0.061-0.654,0.098-1.031c0.487-4.916,1.741-15.529,3.073-27.076
	c0.103-0.887,0.206-1.781,0.309-2.678c1.236-10.766,2.494-22.012,3.229-29.998c-1.148,0.822-2.311,1.625-3.47,2.423
	c-1.306,0.9-2.605,1.799-3.873,2.711c-1.228,0.887-3.027,2.043-5.056,3.258c-0.697,0.416-1.421,0.84-2.158,1.262
	c-5.161,2.957-10.976,5.828-12.715,5.668c-0.182-0.016-0.32-0.066-0.408-0.154c-0.202-0.201-0.287-0.99-0.278-2.219
	c0.003-0.578,0.03-1.262,0.073-2.018c0.021-0.383,0.047-0.783,0.078-1.205c0.052-0.729,0.116-1.512,0.192-2.342
	c0.05-0.543,0.104-1.105,0.163-1.684c0.882-8.688,2.727-21.167,3.991-27.9c0.653-3.473,1.306-6.95,1.958-10.424
	c0.147-0.784,0.295-1.568,0.442-2.354c0.161-0.858,0.322-1.717,0.484-2.575c0.073-0.387,0.145-0.774,0.218-1.162
	c-1.851,1.27-3.724,2.499-5.615,3.723c-0.309,0.201-0.694,0.438-1.129,0.7c-0.272,0.164-0.565,0.336-0.88,0.519
	c-5.389,3.13-16.446,8.743-17.991,7.006c-0.185-0.206-0.233-0.517-0.122-0.949c1.468-5.692,5.983-26.367,9.439-41.6
	c0.231-1.018,0.458-2.011,0.679-2.975c0.081-0.359,0.162-0.712,0.243-1.062c0.405-1.763,0.787-3.413,1.138-4.906
	c0.129-0.546,0.254-1.073,0.374-1.576c0.541-2.264,0.989-4.066,1.31-5.226c1.281-4.628,1.007,12.205,0.587,25.663
	c-0.252,8.104-0.558,14.984-0.607,15.218c0.744-0.497,1.488-0.996,2.232-1.493c1.03-0.689,8.928-5.966,14.541-8.957
	c3.086-1.645,5.482-2.598,5.663-1.715c0.017,0.08,0.015,0.175-0.006,0.286c-0.006,0.033-0.114,1.003-0.295,2.633
	c-0.021,0.19-0.044,0.391-0.067,0.599c-0.011,0.106-0.024,0.214-0.035,0.323c-0.923,8.29-3.217,28.855-4.391,37.535
	c-0.47,3.473-1.001,6.938-1.558,10.4c-0.205,1.266-0.411,2.532-0.621,3.797c-0.12,0.725-0.239,1.449-0.361,2.173
	c1.53-1.093,3.051-2.196,4.572-3.302c0.422-0.308,0.849-0.609,1.27-0.918c0.136-0.1,0.287-0.207,0.437-0.313
	c0.287-0.206,0.589-0.419,0.918-0.646c1.923-1.327,4.536-3.011,7.329-4.739c5.1-3.156,10.785-6.458,13.895-7.993
	c0.09-0.045,0.163-0.03,0.219,0.042C96.081,240.742,81.728,296.928,76.809,317.473z M123.476,366.125
	c-1.984,9.561-6.385,26.922-8.234,34.645c-0.015,0.055-0.026,0.084-0.035,0.092c-0.155,0.129,0.792-7.758,1.789-16.42
	c0.669-5.812,1.361-11.975,1.76-16.303c-0.169,0.121-0.341,0.236-0.511,0.357c-0.99,0.695-1.986,1.377-2.958,2.068
	c-0.122,0.086-0.248,0.17-0.369,0.258c-1.878,1.354-6.306,3.916-8.832,4.914c-0.927,0.365-1.601,0.521-1.794,0.328l0,0h0
	c-0.173-0.174-0.181-1.178-0.08-2.666c0.1-1.461,0.305-3.395,0.562-5.471c0.502-4.043,1.204-8.635,1.721-11.389
	c0.288-1.529,0.575-3.057,0.862-4.584c0.053-0.287,0.108-0.574,0.162-0.863c0.162-0.857,0.322-1.717,0.483-2.574
	c0.038-0.203,0.077-0.406,0.115-0.607c-0.966,0.664-1.946,1.305-2.934,1.945c-0.051,0.033-0.109,0.07-0.168,0.107
	c-1.941,1.221-7.679,4.299-9.678,4.357c-0.442,0.012-0.707-0.121-0.7-0.459c0.001-0.061,0.011-0.129,0.031-0.205
	c0.254-0.986,0.684-2.836,1.21-5.154c1.807-7.959,4.754-21.473,5.678-24.809c0.05-0.184,0.096-0.301,0.137-0.361
	c0.158-0.23,0.254,0.381,0.305,1.525c0.221,4.955-0.4,19.951-0.452,20.197c0.056-0.039,0.112-0.074,0.168-0.113
	c0.333-0.223,0.666-0.445,0.999-0.668c0.268-0.18,1.422-0.949,2.875-1.873c0.156-0.1,0.314-0.199,0.477-0.301
	c0.213-0.135,0.432-0.271,0.654-0.408c0.233-0.145,0.469-0.289,0.707-0.434c0.046-0.027,0.09-0.055,0.135-0.082
	c0.968-0.588,1.953-1.16,2.827-1.623c1.72-0.91,3.009-1.393,2.878-0.705c-0.007,0.035-0.229,2.051-0.546,4.885
	c-0.035,0.32-0.073,0.65-0.111,0.988c-0.571,5.082-1.378,12.141-1.845,15.598c-0.386,2.857-0.849,5.707-1.327,8.553
	c1.021-0.73,2.04-1.463,3.052-2.205c0.271-0.199,0.6-0.428,0.961-0.674c1.899-1.293,4.888-3.141,7.419-4.607
	c1.35-0.781,2.569-1.453,3.418-1.873c0.047-0.023,0.085-0.016,0.115,0.021C124.658,359.854,124.25,362.396,123.476,366.125z
	 M248.661,479.652c-0.03,0.109-0.046,0.121-0.05,0.043c-0.005-0.076,0.004-0.242,0.021-0.486c0.264-3.434,2.646-22.451,3.542-32.186
	c-1.276,0.912-2.587,1.781-3.837,2.682c-2.566,1.852-9.904,5.965-10.626,5.242c-0.446-0.445,0.202-6.391,0.996-11.988
	c0.212-1.496,0.436-2.967,0.651-4.303c0.015-0.092,0.03-0.182,0.044-0.271c0.181-1.113,0.355-2.123,0.513-2.963
	c0.341-1.814,0.682-3.631,1.023-5.445c0.162-0.859,0.322-1.717,0.483-2.576c0.019-0.102,0.038-0.201,0.057-0.303
	s0.039-0.203,0.058-0.305c-0.322,0.221-0.653,0.432-0.979,0.648c-0.649,0.434-1.297,0.871-1.956,1.297
	c-2.137,1.383-10.583,5.914-10.546,4.008c0.001-0.062,0.012-0.131,0.031-0.205c0.036-0.137,0.074-0.291,0.115-0.459
	c0.084-0.338,0.18-0.736,0.287-1.189c0.097-0.41,0.203-0.865,0.317-1.355c1.422-6.154,4.054-18.232,5.479-24.205
	c0.285-1.195,0.522-2.145,0.69-2.756c0.369-1.332,0.491,0.738,0.49,4.043c-0.002,4.955-0.282,12.688-0.424,15.875
	c-0.038,0.869-0.066,1.4-0.076,1.443c0.194-0.131,0.389-0.26,0.583-0.391c0.195-0.131,0.39-0.26,0.583-0.391
	c0.108-0.072,0.359-0.238,0.715-0.475c1.96-1.293,7.106-4.617,9.069-5.191c0.224-0.064,0.406-0.096,0.538-0.082
	c0.132,0.012,0.213,0.068,0.234,0.172c0.008,0.043,0.008,0.092-0.004,0.15c-0.009,0.049-0.454,4.1-0.99,8.822
	c-0.032,0.279-0.063,0.559-0.095,0.842c-0.482,4.227-1.02,8.824-1.379,11.523c-0.012,0.094-0.025,0.193-0.038,0.283
	c-0.123,0.906-0.263,1.811-0.399,2.717c-0.292,1.947-0.601,3.893-0.927,5.836c1.021-0.73,2.04-1.461,3.051-2.203
	c0.624-0.459,1.516-1.059,2.541-1.719c2.955-1.904,7.027-4.318,9.12-5.367c0.044-0.021,0.096-0.049,0.138-0.07c0,0,0,0,0.001,0
	C259.22,437.65,251.315,468.572,248.661,479.652z M402.141,381.162c-1.583,6.518-3.151,12.811-4.078,16.682
	c-0.016,0.055-0.026,0.086-0.035,0.092c-0.045,0.039,0.005-0.617,0.122-1.764c0.549-5.42,2.607-22.061,3.427-30.957
	c-1.275,0.912-2.587,1.781-3.837,2.682c-0.36,0.26-0.817,0.566-1.334,0.895c-2.56,1.631-6.642,3.869-8.443,4.34
	c-0.428,0.113-0.729,0.127-0.849,0.008c-0.675-0.674,1.151-13.918,2.204-19.523c0.178-0.945,0.355-1.893,0.532-2.836
	c0.164-0.871,0.328-1.742,0.49-2.611c0.15-0.793,0.299-1.582,0.446-2.373c0.013-0.066,0.025-0.135,0.038-0.203
	c0.038-0.201,0.076-0.404,0.114-0.605c-0.804,0.551-1.621,1.082-2.438,1.615c-0.167,0.109-0.328,0.221-0.495,0.328
	c-1.86,1.205-8.51,4.797-10.169,4.443c-0.307-0.064-0.444-0.264-0.347-0.641c1.092-4.234,5.413-24.342,6.767-29.512
	c0.044-0.166,0.085-0.318,0.122-0.453c0.067-0.242,0.126-0.371,0.178-0.402c0.013-0.008,0.025-0.008,0.037-0.004
	c0.013,0.004,0.023,0.016,0.034,0.031c0.022,0.033,0.043,0.09,0.062,0.168s0.036,0.176,0.051,0.297
	c0.009,0.064,0.017,0.137,0.024,0.211c0.013,0.131,0.024,0.277,0.034,0.438c0.012,0.188,0.021,0.393,0.03,0.617
	c0.012,0.305,0.021,0.641,0.026,1.006c0.007,0.385,0.011,0.799,0.013,1.24c0.02,6.225-0.453,17.529-0.499,17.758
	c0.389-0.258,0.777-0.518,1.166-0.779c0.783-0.523,9.142-6.107,10.404-5.732c0.083,0.025,0.137,0.076,0.153,0.156
	c0.008,0.043,0.008,0.092-0.004,0.15c0,0.002-0.002,0.018-0.003,0.023c-0.04,0.33-0.75,6.795-1.454,12.869
	c-0.388,3.346-0.773,6.57-1.045,8.578c-0.387,2.857-0.849,5.707-1.326,8.551c1.021-0.729,2.039-1.459,3.051-2.203
	c2.458-1.803,9.053-5.799,11.799-7.154C408.094,356.102,405.09,369.023,402.141,381.162z M433.023,205.012
	c-2.408,10.052-5.051,20.61-6.483,26.59c-0.019,0.068-0.034,0.106-0.044,0.115c-0.095,0.079,0.143-2.266,0.557-5.961
	c0.033-0.29,0.066-0.589,0.102-0.896c0.02-0.165,0.037-0.331,0.057-0.501c0.212-1.868,0.46-4.001,0.725-6.292
	c0.006-0.049,0.012-0.099,0.018-0.148c0.056-0.487,0.113-0.98,0.172-1.48c0.949-8.191,2.08-17.971,2.734-24.792
	c0.038-0.409,0.076-0.809,0.112-1.195c-1.139,0.815-2.291,1.604-3.431,2.398c-0.472,0.327-0.947,0.653-1.408,0.987
	c-1.502,1.082-4.3,2.78-6.957,4.196c-0.38,0.203-0.757,0.399-1.127,0.588c-0.007,0.003-0.015,0.007-0.022,0.011
	c-0.261,0.132-0.516,0.26-0.769,0.383c-2.273,1.114-4.142,1.815-4.525,1.431c-0.667-0.666,0.603-11.065,1.823-18.937
	c0.337-2.173,0.67-4.155,0.957-5.684c0.205-1.094,0.41-2.188,0.615-3.281c0.225-1.196,0.449-2.393,0.674-3.589
	c0.117-0.622,0.234-1.243,0.351-1.864c0.087-0.461,0.173-0.922,0.26-1.383c0.048-0.255,0.097-0.511,0.145-0.766
	c-1.219,0.836-2.454,1.646-3.7,2.454c-1.487,0.963-5.403,3.137-8.603,4.484c-0.348,0.146-0.687,0.284-1.014,0.408
	c-0.204,0.078-0.402,0.149-0.597,0.217c-0.271,0.095-0.53,0.18-0.775,0.251c-0.255,0.073-0.491,0.132-0.712,0.177
	c-0.046,0.01-0.091,0.018-0.135,0.026c-1.033,0.188-1.626,0.008-1.426-0.769c0.954-3.699,3.86-16.995,6.125-26.987
	c0.103-0.452,0.203-0.897,0.304-1.334c0.092-0.407,0.183-0.806,0.272-1.197c0.18-0.783,0.354-1.539,0.519-2.251
	c0.628-2.706,1.146-4.854,1.468-6.017c0.084-0.306,0.159-0.47,0.224-0.507c0.96-0.568-0.121,26.211-0.232,27.408
	c-0.002,0.019-0.003,0.032-0.005,0.038c0.49-0.329,0.981-0.657,1.473-0.985c0.746-0.5,6.969-4.657,10.639-6.442
	c0.166-0.082,0.328-0.158,0.484-0.229c1.244-0.567,2.103-0.784,2.189-0.361c0.011,0.053,0.01,0.116-0.005,0.189
	c-0.023,0.124-2.179,19.85-3.155,27.075c-0.488,3.604-1.07,7.197-1.674,10.786c1.289-0.919,2.572-1.843,3.849-2.78
	c3.102-2.276,11.416-7.314,14.879-9.023c0.12-0.058,0.192,0.039,0.223,0.277c0.238,1.825-2.005,11.957-4.67,23.16
	C433.343,203.674,433.183,204.342,433.023,205.012z"/>
<path fill="#3A657A" d="M154.806,47.439c1.139-0.82,2.283-1.636,3.416-2.468c2.359-1.731,6.707-4.516,11.118-7.189
	c0.274-0.166,0.549-0.332,0.823-0.497c0.461-0.277,0.92-0.552,1.378-0.824c0.137-0.081,0.273-0.163,0.41-0.244
	c0.413-0.245,0.822-0.485,1.228-0.723c0.288-0.168,0.572-0.334,0.854-0.499c0.109-0.063,0.218-0.126,0.326-0.189
	c0.338-0.195,0.67-0.386,0.998-0.573c2.142-1.224,4.053-2.268,5.445-2.955c0.653-0.323,0.384,2.462-0.482,7.204
	c-0.125,0.678-0.26,1.395-0.407,2.148c-0.711,3.646-1.685,8.148-2.815,13.135c-0.111,0.493-0.224,0.99-0.339,1.493
	c-0.517,2.262-1.061,4.608-1.626,7.013c-0.253,1.079-0.51,2.17-0.771,3.268c-0.584,2.461-1.183,4.963-1.787,7.471
	c-0.14,0.579-0.28,1.158-0.419,1.738c-0.131,0.542-0.262,1.083-0.393,1.625c-0.139,0.577-0.279,1.151-0.419,1.726
	c-0.131,0.542-0.263,1.085-0.395,1.625c-1.312,5.394-2.61,10.674-3.797,15.501c5.116-4.32,8.775-8.993,17.367-10.976
	c8.765-2.922,21.423-2.922,31.164-0.974c10.598,1.63,20.511,5.311,27.459,13.893c6.948-8.582,16.861-12.263,27.458-13.893
	c0.585-0.117,1.183-0.226,1.788-0.329c0.316-2.782,0.707-6.133,1.121-9.707c0.896-7.745,1.902-16.527,2.504-22.805
	c0.039-0.408,0.077-0.809,0.112-1.194c-0.473,0.338-0.952,0.667-1.43,0.998c-1.147,0.796-2.296,1.583-3.409,2.386
	c-1.502,1.083-4.299,2.78-6.957,4.197c-0.379,0.203-0.757,0.399-1.126,0.588c-0.008,0.003-0.016,0.008-0.023,0.012
	c-0.26,0.132-0.516,0.26-0.769,0.383c-2.273,1.113-4.142,1.814-4.524,1.431c-0.673-0.673,0.624-11.247,1.854-19.143
	c0.326-2.092,0.646-3.998,0.925-5.48c0.194-1.038,0.39-2.075,0.584-3.112c0.235-1.252,0.47-2.505,0.705-3.757
	c0.118-0.622,0.234-1.243,0.351-1.864c0.087-0.461,0.173-0.922,0.26-1.383c0.049-0.256,0.097-0.511,0.145-0.766
	c-1.219,0.836-2.453,1.646-3.7,2.453c-2.259,1.463-10.117,5.717-12.564,5.634c-0.565-0.02-0.842-0.27-0.695-0.839
	c0.896-3.475,3.515-15.418,5.706-25.138c-2.146-0.063-4.298-0.1-6.458-0.1c-31.658,0-61.788,6.946-89.12,19.474
	c-0.358,2.969-0.689,5.604-0.96,7.606c-0.573,4.243-1.235,8.477-1.931,12.706c-0.2,1.222-0.403,2.442-0.608,3.664
	C153.192,48.611,153.996,48.022,154.806,47.439z"/>
<path fill="#869EAC" d="M341.789,298.332c-0.12-0.121-0.24-0.246-0.367-0.363c-0.446-0.42-0.912-0.816-1.368-1.227
	c0.053,0.125,0.109,0.248,0.161,0.371C340.76,297.48,341.28,297.898,341.789,298.332z"/>
<path fill="#3A657A" d="M309.66,328.133c4.516-2.396,9.857-5.225,14.862-7.91c-2.607,0.051-5.212-1.629-5.284-5.1
	c-0.084-4.023,1.419-11.951,4.807-16.84c-3.368-6.387-7.473-12.312-12.099-17.92c-0.697-0.846-1.417-1.662-2.147-2.465
	c-1.741,0.518-3.357,1.182-4.894,1.947c0.469,7.789,0.259,15.396-0.964,22.383c0.264-0.031,0.528-0.061,0.792-0.092
	C307.699,310.301,308.983,319.105,309.66,328.133z"/>
<path fill="#869EAC" d="M338.568,293.318c2.129-0.945,4.259-1.891,6.389-2.834c1.007-0.447,2.014-0.895,3.021-1.342
	c0.237-0.104,0.476-0.209,0.713-0.314c-1.38-0.529-2.748-1.088-4.12-1.656c-2.438-1.01-10.136-4.93-11.676-7.027
	c-1.037-0.408-2.079-0.801-3.132-1.168c3.368,4.504,6.337,9.342,8.755,14.363C338.534,293.332,338.552,293.326,338.568,293.318z"/>
<path fill="#869EAC" d="M345.975,31.656c0.097-0.064,0.259-0.173,0.47-0.313c-0.844-0.453-1.69-0.9-2.54-1.342
	c-0.082,1.888-0.144,3.059-0.163,3.15C344.485,32.652,345.229,32.154,345.975,31.656z"/>
<path fill="#4E8298" d="M94.123,238.515c-3.109,1.533-8.794,4.835-13.895,7.992c-2.793,1.729-5.406,3.412-7.329,4.739
	c-0.33,0.228-0.631,0.44-0.918,0.646c-0.15,0.106-0.302,0.214-0.438,0.314c-0.421,0.309-0.847,0.61-1.27,0.917
	c-1.521,1.105-3.042,2.209-4.572,3.302c0.122-0.724,0.241-1.448,0.361-2.173c0.21-1.265,0.417-2.531,0.621-3.797
	c0.557-3.463,1.088-6.927,1.558-10.4c1.173-8.68,3.468-29.246,4.391-37.535c0.011-0.109,0.024-0.217,0.035-0.323
	c0.023-0.208,0.046-0.408,0.067-0.599c0.182-1.629,0.289-2.6,0.295-2.633c0.021-0.111,0.023-0.207,0.006-0.286
	c-0.181-0.883-2.577,0.071-5.663,1.715c-5.613,2.99-13.511,8.267-14.541,8.957c-0.745,0.498-1.488,0.996-2.232,1.493l-0.001,0
	c0.05-0.227,0.354-7.11,0.608-15.218c0.419-13.458,0.694-30.291-0.587-25.663c-0.321,1.16-0.77,2.962-1.31,5.226
	c-0.12,0.503-0.245,1.029-0.374,1.576c-0.351,1.493-0.733,3.143-1.138,4.906c-0.081,0.35-0.162,0.704-0.243,1.062
	c-0.221,0.964-0.447,1.957-0.679,2.975c-3.456,15.233-7.971,35.908-9.439,41.6c-0.111,0.432-0.062,0.743,0.122,0.949
	c1.548,1.735,12.604-3.877,17.991-7.006c0.314-0.183,0.607-0.355,0.88-0.519c0.435-0.261,0.82-0.499,1.129-0.7
	c1.891-1.225,3.766-2.454,5.615-3.723c-0.073,0.388-0.146,0.775-0.218,1.162c-0.162,0.858-0.323,1.717-0.484,2.575
	c-0.147,0.785-0.294,1.569-0.442,2.354c-0.652,3.475-1.305,6.95-1.958,10.425c-1.264,6.732-3.109,19.211-3.991,27.899
	c-0.059,0.578-0.113,1.141-0.163,1.684c-0.076,0.83-0.141,1.613-0.192,2.342c-0.031,0.422-0.057,0.822-0.078,1.205
	c-0.043,0.756-0.07,1.439-0.073,2.018c-0.008,1.229,0.077,2.018,0.278,2.219c0.087,0.088,0.226,0.139,0.408,0.154
	c1.738,0.16,7.554-2.711,12.715-5.668c0.737-0.422,1.461-0.846,2.158-1.262c2.028-1.215,3.828-2.371,5.056-3.258
	c1.268-0.912,2.567-1.811,3.873-2.711c1.159-0.799,2.322-1.601,3.47-2.423l0,0c-0.735,7.986-1.993,19.232-3.229,29.998
	c-0.104,0.896-0.206,1.791-0.309,2.678c-1.332,11.547-2.585,22.16-3.073,27.076c-0.037,0.377-0.069,0.723-0.098,1.031
	c-0.07,0.771-0.11,1.318-0.114,1.607c-0.004,0.289,0.026,0.32,0.098,0.059c4.919-20.545,19.271-76.73,17.532-78.917
	C94.285,238.485,94.212,238.47,94.123,238.515z"/>
<path fill="#4E8298" d="M365.222,433.291c0.007-0.754-0.107-1.102-0.364-0.977c-0.808,0.398-1.789,0.916-2.89,1.52
	c-0.66,0.363-1.363,0.756-2.097,1.174c-5.261,2.988-12.099,7.193-16.095,9.939c-0.559,0.385-1.063,0.74-1.499,1.059
	c-1.938,1.422-3.887,2.822-5.841,4.221c0-0.002,0-0.002,0-0.002c0.216-1.281,0.429-2.562,0.64-3.846
	c0.047-0.291,0.094-0.582,0.141-0.873c0.632-3.877,1.233-7.76,1.76-11.65c1.481-10.965,4.753-40.902,4.789-41.09
	c0.062-0.334-0.048-0.523-0.304-0.592c-0.037-0.012-0.089-0.008-0.132-0.014c-0.056-0.006-0.105-0.018-0.17-0.016
	c-0.187,0.004-0.421,0.049-0.68,0.115c-4.244,1.092-17.554,9.98-18.913,10.891c-0.744,0.498-1.488,0.996-2.232,1.494
	c0.005-0.023,0.014-0.129,0.024-0.305c0.133-2.109,0.644-14.543,0.848-25.232c0.001-0.033,0.001-0.066,0.002-0.1
	c0.012-0.613,0.022-1.217,0.031-1.816c0.031-2.018,0.051-3.945,0.052-5.689c0.003-6.324-0.23-10.287-0.938-7.738
	c-1.778,6.424-7.479,32.568-10.93,47.762c-0.061,0.27-0.122,0.535-0.181,0.799c-0.896,3.932-1.626,7.053-2.072,8.785
	c-0.11,0.432-0.062,0.742,0.123,0.949c1.063,1.193,6.635-1.094,11.762-3.656c3.449-1.725,6.7-3.572,8.238-4.568
	c0.732-0.475,1.459-0.951,2.186-1.43c0.522-0.344,1.041-0.689,1.56-1.037c0.625-0.418,1.251-0.832,1.87-1.258v0.002
	c-0.073,0.387-0.146,0.773-0.219,1.16c-0.309,1.643-0.616,3.287-0.926,4.93c-0.652,3.475-1.305,6.949-1.957,10.424
	c-2.015,10.73-5.51,36.076-4.219,37.367c0.088,0.088,0.226,0.137,0.407,0.154c2.292,0.211,11.664-4.846,17.287-8.42
	c1.026-0.65,1.932-1.256,2.642-1.768c2.393-1.725,4.901-3.387,7.344-5.135c-0.051,0.549-0.105,1.121-0.16,1.699
	c-0.124,1.287-0.258,2.641-0.4,4.055c2.938-1.725,5.836-3.516,8.691-5.373c0.842-3.863,1.542-7.277,2.034-10.006
	C364.927,436.469,365.211,434.424,365.222,433.291z"/>
<path fill="#4E8298" d="M331.038,47.758c-0.174,0.723-0.329,1.354-0.46,1.856c-0.147,0.576-0.011,0.937,0.352,1.123
	c2.533,1.297,16.079-6.007,19.771-8.398c0.734-0.476,1.464-0.954,2.192-1.433c1.148-0.754,2.292-1.513,3.423-2.29
	c-0.073,0.387-0.146,0.775-0.218,1.162c-0.17,0.898-0.338,1.797-0.507,2.696c-0.14,0.744-0.279,1.489-0.419,2.233
	c-0.652,3.475-1.306,6.95-1.958,10.425c-0.503,2.683-1.1,6.278-1.69,10.184c-0.175,1.16-0.351,2.346-0.522,3.543
	c-1.203,8.387-2.258,17.334-2.284,21.419c-0.008,1.229,0.077,2.018,0.278,2.22c1.382,1.382,15.423-6.491,20.336-10.033
	c2.393-1.725,4.901-3.387,7.344-5.135c-0.903,9.803-2.592,24.522-4.064,37.229c-0.228,1.956-0.448,3.862-0.661,5.698
	c-1.311,11.323-2.287,19.87-2.066,19.698c0.017-0.013,0.038-0.07,0.067-0.175c2.245-9.381,6.458-26.191,10.208-41.9
	c0.354-1.484,0.704-2.956,1.048-4.413c0.079-0.34,0.159-0.68,0.239-1.018c3.746-15.92,6.689-29.583,6.108-31.438
	c-0.059-0.19-0.154-0.256-0.29-0.189c-3.097,1.527-8.749,4.809-13.834,7.954c-2.339,1.447-4.555,2.863-6.349,4.068
	c-0.925,0.621-1.741,1.187-2.397,1.669c-0.793,0.581-1.594,1.15-2.39,1.726c-1.15,0.832-2.298,1.668-3.452,2.493v0
	c0.248-1.471,0.491-2.942,0.732-4.415c0.27-1.657,0.532-3.314,0.788-4.974c0.359-2.325,0.704-4.651,1.02-6.981
	c0.632-4.677,1.59-12.806,2.483-20.605v-0.001c-5.646-3.734-11.458-7.209-17.422-10.412c-0.211,0.14-0.373,0.249-0.47,0.313
	c-0.745,0.498-1.489,0.996-2.233,1.494c0.02-0.091,0.081-1.262,0.163-3.15c-2.617-1.362-5.264-2.673-7.938-3.928c0,0,0,0,0,0
	C333.971,35.008,332.109,43.318,331.038,47.758z"/>
<path fill="#4E8298" d="M142.534,62.958L142.534,62.958c1.384,1.381,15.424-6.492,20.336-10.033
	c2.392-1.725,4.901-3.387,7.343-5.135c-0.391,4.244-0.929,9.41-1.534,14.935c-1.271,11.625-2.834,24.833-3.93,34.4
	c0.848-0.618,1.641-1.254,2.403-1.898c1.187-4.828,2.484-10.108,3.797-15.501c0.132-0.54,0.264-1.083,0.395-1.625
	c0.14-0.575,0.28-1.149,0.419-1.726c0.131-0.542,0.262-1.083,0.393-1.625c0.14-0.58,0.28-1.159,0.419-1.738
	c0.604-2.508,1.203-5.01,1.787-7.471c0.261-1.098,0.518-2.189,0.771-3.268c0.565-2.405,1.109-4.751,1.626-7.013
	c0.115-0.502,0.228-1,0.339-1.493c1.131-4.986,2.104-9.488,2.815-13.135c0.147-0.753,0.283-1.471,0.407-2.148
	c0.865-4.741,1.135-7.526,0.481-7.203c-1.392,0.687-3.303,1.73-5.444,2.954c-0.328,0.187-0.66,0.378-0.998,0.573
	c-0.108,0.062-0.217,0.125-0.326,0.189c-0.282,0.164-0.567,0.33-0.854,0.499c-0.406,0.238-0.815,0.479-1.228,0.723
	c-0.137,0.081-0.273,0.163-0.41,0.244c-0.458,0.272-0.917,0.546-1.378,0.824c-0.274,0.166-0.549,0.331-0.823,0.497
	c-4.412,2.674-8.759,5.458-11.118,7.189c-1.133,0.832-2.277,1.647-3.416,2.468c-0.81,0.583-1.614,1.172-2.425,1.752v0
	c0.205-1.221,0.408-2.442,0.608-3.664c0.695-4.229,1.357-8.462,1.931-12.706c0.271-2.001,0.602-4.636,0.96-7.605
	c-3.348,1.534-6.652,3.152-9.913,4.852c-0.996,5.978-2.127,13.844-2.877,20.391C142.329,57.102,141.962,62.386,142.534,62.958z"/>
<path fill="#4E8298" d="M189.071,453.447c0.231-0.986,0.457-1.961,0.68-2.924c0.11-0.477,0.22-0.951,0.328-1.42
	c0.106-0.463,0.211-0.922,0.315-1.377c2.55-11.162,4.399-20.182,4.407-23.047c0.001-0.723-0.114-1.055-0.364-0.93
	c-4.644,2.289-15.032,8.525-20.636,12.328c-0.738,0.5-1.396,0.961-1.944,1.363c-1.938,1.422-3.887,2.822-5.841,4.219
	c0.533-3.172,1.051-6.346,1.541-9.521c0.352-2.281,0.69-4.562,0.999-6.848c1.482-10.965,4.754-40.902,4.789-41.09
	c0.022-0.111,0.023-0.207,0.006-0.287c-0.512-2.486-18.607,9.604-20.204,10.672c-0.372,0.248-0.744,0.498-1.117,0.748
	c-0.372,0.248-0.744,0.496-1.116,0.746c0.002-0.012,0.006-0.049,0.01-0.098c0.178-2.154,1.689-39.717,0.487-41.502
	c-0.127-0.188-0.284,0.023-0.477,0.717c-1.59,5.742-6.312,27.234-9.761,42.584c-0.111,0.494-0.221,0.984-0.33,1.465
	c-0.346,1.539-0.677,3-0.988,4.369c-0.049,0.215-0.098,0.43-0.146,0.641c-0.843,3.697-1.53,6.631-1.958,8.289
	c-0.038,0.143-0.057,0.273-0.059,0.391c-0.047,2.354,6.661-0.416,12.526-3.391c3.23-1.639,6.204-3.336,7.655-4.277
	c1.892-1.225,3.765-2.453,5.615-3.723c0,0,0,0,0,0c-0.073,0.387-0.145,0.775-0.218,1.162c-0.146,0.781-0.293,1.562-0.44,2.344
	c-0.162,0.861-0.324,1.723-0.486,2.586c-0.652,3.475-1.305,6.949-1.957,10.424c-1.701,9.053-4.454,28.512-4.498,35.146
	c-0.008,1.229,0.077,2.018,0.278,2.221c0.043,0.043,0.099,0.076,0.166,0.102c1.642,0.625,10.255-3.895,16.166-7.518
	c1.594-0.977,2.994-1.889,4.004-2.617c0.713-0.516,1.438-1.023,2.167-1.529c0.879-0.611,1.764-1.223,2.65-1.834
	c0.845-0.586,1.689-1.174,2.526-1.771l0,0c-0.825,8.965-2.309,22.041-3.683,33.93c1.215,0.389,2.434,0.766,3.657,1.131l0,0
	c1.677-6.869,3.409-14.031,4.988-20.758C188.897,454.189,188.984,453.818,189.071,453.447z"/>
<path fill="#4E8298" d="M81.129,88.317c0.227-0.097,0.458-0.197,0.69-0.301c0.37-0.165,0.744-0.336,1.121-0.514
	c2.71-1.285,5.491-2.849,6.691-3.626c0.76-0.493,1.515-0.989,2.266-1.488c0.48-0.319,0.96-0.639,1.435-0.966v0.001
	c-0.048,0.255-0.097,0.51-0.145,0.765c-0.102,0.542-0.204,1.083-0.305,1.624c-0.102,0.541-0.203,1.083-0.305,1.624
	c-0.205,1.094-0.41,2.187-0.615,3.281c-0.225,1.196-0.45,2.392-0.674,3.588c-0.918,4.892-2.303,14.39-2.788,20.062
	c-0.215,2.527-0.253,4.297,0.008,4.56c0.138,0.138,0.469,0.134,0.938,0.024c2.634-0.617,9.714-4.653,12.463-6.635
	c1.576-1.136,3.23-2.232,4.838-3.383c-0.02,0.219-0.041,0.443-0.062,0.668c-0.665,7.049-1.882,17.538-2.874,26.088
	c-0.032,0.274-0.063,0.546-0.094,0.816c-0.094,0.809-0.186,1.599-0.274,2.363c-0.825,7.143-1.388,12.172-1.127,11.213
	c0.536-2.239,1.243-5.122,2.042-8.379c0.115-0.465,0.231-0.938,0.349-1.417c0.052-0.213,0.105-0.428,0.158-0.643
	c0.09-0.367,0.181-0.735,0.273-1.108c3.946-16.062,9.396-38.378,8.778-40.355c-0.04-0.124-0.102-0.168-0.191-0.124
	c-3.463,1.708-11.778,6.746-14.879,9.022c-1.277,0.937-2.561,1.86-3.849,2.78c0.603-3.589,1.186-7.182,1.673-10.787
	c0.916-6.773,2.867-24.535,3.127-26.83c0.017-0.154,0.027-0.238,0.028-0.246c0.014-0.074,0.015-0.136,0.004-0.189
	c-0.336-1.638-12.261,6.328-13.312,7.032c-0.491,0.328-0.981,0.656-1.472,0.984V77.82c0.01-0.048,0.037-0.519,0.072-1.3
	c-2.735,2.931-5.4,5.936-7.991,9.013c-0.078,0.335-0.152,0.654-0.224,0.956c-0.212,0.903-0.393,1.645-0.531,2.181
	C76.003,90.098,78.304,89.517,81.129,88.317z"/>
<path fill="#4E8298" d="M262.711,23.732c-0.048,0.255-0.096,0.51-0.145,0.766c-0.087,0.461-0.173,0.922-0.26,1.383
	c-0.116,0.621-0.232,1.243-0.35,1.865c-0.235,1.251-0.471,2.504-0.706,3.756c-0.194,1.037-0.39,2.074-0.584,3.112
	c-0.278,1.482-0.599,3.388-0.925,5.48c-1.229,7.895-2.527,18.47-1.854,19.143c0.383,0.383,2.251-0.318,4.524-1.431
	c0.253-0.124,0.509-0.251,0.769-0.383c0.008-0.004,0.016-0.008,0.023-0.012c0.369-0.189,0.747-0.385,1.126-0.588
	c2.658-1.417,5.455-3.115,6.957-4.198c1.113-0.802,2.262-1.589,3.409-2.385c0.478-0.331,0.957-0.66,1.43-0.998
	c-0.035,0.386-0.073,0.786-0.112,1.194c-0.602,6.278-1.607,15.06-2.504,22.805c-0.414,3.574-0.805,6.925-1.121,9.707
	c0.383-0.065,0.773-0.123,1.163-0.181c1.513-6.158,3.395-13.782,5.104-20.969c2.665-11.203,4.908-21.334,4.671-23.16
	c-0.031-0.237-0.104-0.334-0.223-0.275c-3.464,1.708-11.778,6.747-14.879,9.022c-1.276,0.937-2.562,1.86-3.849,2.78l0,0
	c0.603-3.589,1.186-7.182,1.673-10.787c0.977-7.225,3.133-26.951,3.156-27.074c0.014-0.074,0.015-0.137,0.004-0.189
	c-0.112-0.545-1.51-0.025-3.361,0.936c-1.654,0.858-3.67,2.068-5.461,3.189c-0.253,0.158-0.502,0.314-0.744,0.468
	c-1.889,1.196-3.402,2.208-3.746,2.438c-0.491,0.328-0.981,0.656-1.472,0.985c0.023-0.11,0.138-2.571,0.263-5.976
	c0.011-0.297,0.021-0.598,0.032-0.909c0.079-2.217,0.159-4.753,0.221-7.271l0,0c-1.159-0.053-2.32-0.099-3.483-0.134
	c-2.191,9.72-4.81,21.663-5.706,25.138c-0.146,0.569,0.13,0.82,0.695,0.839c2.447,0.083,10.306-4.17,12.564-5.634
	C260.258,25.378,261.492,24.568,262.711,23.732z"/>
<path fill="#4E8298" d="M438.171,179.85c-0.03-0.237-0.103-0.334-0.223-0.276c-3.463,1.708-11.777,6.746-14.879,9.022
	c-1.276,0.937-2.561,1.86-3.849,2.78l0,0c0.604-3.589,1.186-7.182,1.674-10.786c0.977-7.225,3.132-26.952,3.155-27.075
	c0.015-0.073,0.016-0.136,0.005-0.189c-0.087-0.422-0.945-0.206-2.189,0.361c-0.156,0.07-0.318,0.147-0.484,0.229
	c-3.67,1.785-9.893,5.943-10.639,6.442c-0.491,0.328-0.982,0.656-1.473,0.985c0.002-0.006,0.003-0.019,0.005-0.038
	c0.11-1.194,1.191-27.964,0.232-27.408c-0.064,0.038-0.14,0.202-0.224,0.507c-0.322,1.163-0.84,3.311-1.468,6.017
	c-0.165,0.712-0.339,1.468-0.519,2.251c-0.09,0.392-0.181,0.791-0.272,1.197c-0.101,0.437-0.201,0.882-0.304,1.334
	c-2.265,9.992-5.17,23.288-6.124,26.987c-0.2,0.777,0.392,0.958,1.425,0.77c0.044-0.008,0.089-0.016,0.135-0.026
	c0.221-0.045,0.457-0.104,0.712-0.177c0.245-0.072,0.506-0.157,0.775-0.251c0.194-0.068,0.393-0.139,0.597-0.217
	c0.327-0.124,0.666-0.261,1.014-0.408c3.199-1.348,7.115-3.521,8.603-4.484c1.246-0.807,2.481-1.617,3.7-2.454
	c-0.048,0.255-0.097,0.511-0.145,0.766c-0.087,0.461-0.173,0.922-0.26,1.383c-0.116,0.622-0.233,1.244-0.351,1.865
	c-0.224,1.196-0.449,2.392-0.674,3.588c-0.205,1.093-0.41,2.187-0.615,3.281c-0.287,1.529-0.62,3.511-0.957,5.684
	c-1.22,7.872-2.489,18.271-1.823,18.937c0.384,0.384,2.252-0.317,4.525-1.431c0.253-0.123,0.508-0.25,0.769-0.383
	c0.008-0.004,0.016-0.008,0.022-0.011c0.37-0.189,0.747-0.386,1.127-0.588c2.657-1.417,5.455-3.115,6.957-4.198
	c0.461-0.332,0.937-0.658,1.408-0.985c1.14-0.794,2.292-1.583,3.431-2.398c-0.036,0.386-0.074,0.786-0.112,1.195
	c-0.654,6.821-1.785,16.6-2.734,24.792c-0.059,0.5-0.116,0.993-0.172,1.48c-0.006,0.049-0.012,0.099-0.018,0.148
	c-0.265,2.292-0.513,4.424-0.725,6.292c-0.02,0.17-0.037,0.336-0.057,0.501c-0.035,0.306-0.068,0.606-0.102,0.896
	c-0.414,3.694-0.651,6.038-0.557,5.961c0.01-0.009,0.025-0.047,0.044-0.115c1.433-5.979,4.075-16.538,6.483-26.59
	c0.159-0.67,0.319-1.338,0.478-2.002C436.166,191.807,438.409,181.675,438.171,179.85z"/>
<path fill="#4E8298" d="M407.109,356.586c-2.746,1.355-9.34,5.352-11.799,7.156c-1.012,0.742-2.03,1.475-3.052,2.203
	c0,0,0,0,0.001-0.002c0.478-2.844,0.939-5.693,1.326-8.551c0.271-2.008,0.657-5.232,1.045-8.578
	c0.704-6.076,1.414-12.543,1.454-12.869c0.001-0.006,0.003-0.021,0.003-0.023c0.012-0.059,0.012-0.107,0.004-0.15
	c-0.017-0.08-0.07-0.131-0.153-0.156c-1.263-0.375-9.621,5.211-10.404,5.732c-0.389,0.262-0.778,0.521-1.166,0.781c0,0,0,0,0-0.002
	c0.046-0.229,0.519-11.533,0.499-17.758c-0.002-0.441-0.006-0.855-0.013-1.24c-0.006-0.365-0.015-0.701-0.026-1.006
	c-0.009-0.225-0.019-0.43-0.03-0.617c-0.01-0.16-0.021-0.307-0.034-0.438c-0.008-0.074-0.016-0.146-0.024-0.211
	c-0.015-0.121-0.032-0.219-0.051-0.297s-0.039-0.135-0.062-0.168c-0.011-0.016-0.021-0.027-0.034-0.031
	c-0.012-0.004-0.024-0.004-0.037,0.004c-0.052,0.031-0.11,0.16-0.178,0.402c-0.037,0.135-0.078,0.287-0.122,0.453
	c-1.354,5.17-5.675,25.275-6.767,29.512c-0.097,0.375,0.04,0.576,0.347,0.641c1.659,0.354,8.309-3.238,10.169-4.443
	c0.167-0.107,0.328-0.219,0.495-0.328c0.818-0.533,1.636-1.064,2.438-1.617v0.002c-0.038,0.201-0.076,0.404-0.114,0.605
	c-0.013,0.068-0.025,0.137-0.038,0.203c-0.148,0.791-0.296,1.582-0.445,2.373c-0.163,0.869-0.327,1.74-0.491,2.611
	c-0.177,0.943-0.354,1.891-0.532,2.836c-1.053,5.605-2.879,18.85-2.204,19.523c0.119,0.119,0.421,0.105,0.849-0.008
	c1.802-0.473,5.885-2.709,8.443-4.34c0.517-0.328,0.974-0.635,1.334-0.895c1.25-0.9,2.562-1.77,3.837-2.682
	c-0.819,8.896-2.878,25.537-3.427,30.957c-0.116,1.143-0.166,1.799-0.122,1.764c0.009-0.006,0.02-0.037,0.035-0.092
	c0.927-3.871,2.495-10.164,4.078-16.682C405.09,369.023,408.093,356.102,407.109,356.586z"/>
<path fill="#4E8298" d="M124.403,359.533c-0.029-0.037-0.067-0.045-0.115-0.021c-0.85,0.42-2.068,1.092-3.418,1.873
	c-2.531,1.467-5.52,3.314-7.419,4.607c-0.361,0.246-0.689,0.475-0.961,0.674c-1.012,0.742-2.03,1.475-3.052,2.205
	c0.479-2.846,0.94-5.695,1.327-8.553c0.467-3.457,1.274-10.516,1.845-15.598c0.038-0.338,0.076-0.668,0.111-0.988
	c0.317-2.834,0.539-4.85,0.546-4.885c0.131-0.688-1.158-0.205-2.878,0.705c-0.874,0.463-1.859,1.035-2.827,1.623
	c-0.045,0.027-0.089,0.055-0.135,0.082c-0.238,0.145-0.474,0.289-0.707,0.434c-0.222,0.137-0.44,0.273-0.654,0.408
	c-0.163,0.102-0.321,0.201-0.477,0.301c-1.453,0.924-2.608,1.693-2.875,1.873c-0.333,0.223-0.666,0.445-0.999,0.668
	c-0.056,0.039-0.112,0.074-0.168,0.113c0.052-0.246,0.673-15.242,0.452-20.197c-0.051-1.143-0.146-1.754-0.305-1.525
	c-0.041,0.061-0.087,0.178-0.137,0.361c-0.924,3.336-3.871,16.85-5.678,24.809c-0.526,2.318-0.956,4.168-1.21,5.156
	c-0.02,0.074-0.03,0.143-0.031,0.203c-0.007,0.338,0.257,0.471,0.7,0.459c1.999-0.059,7.736-3.137,9.678-4.357
	c0.059-0.037,0.117-0.074,0.168-0.107c0.988-0.641,1.968-1.281,2.934-1.945c-0.038,0.201-0.077,0.404-0.115,0.607
	c-0.161,0.857-0.322,1.717-0.483,2.574c-0.054,0.289-0.108,0.576-0.162,0.863c-0.288,1.527-0.574,3.055-0.862,4.584
	c-0.517,2.754-1.219,7.346-1.721,11.389c-0.257,2.076-0.463,4.01-0.562,5.471c-0.101,1.488-0.093,2.492,0.08,2.666h0
	c0.194,0.193,0.867,0.037,1.794-0.328c2.526-0.998,6.954-3.561,8.832-4.914c0.121-0.088,0.247-0.172,0.369-0.258
	c0.972-0.691,1.968-1.373,2.958-2.068c0.17-0.121,0.341-0.236,0.511-0.357c-0.398,4.328-1.091,10.49-1.76,16.303
	c-0.997,8.662-1.943,16.547-1.789,16.42c0.009-0.008,0.02-0.037,0.035-0.092c1.85-7.723,6.25-25.084,8.234-34.645
	C124.25,362.4,124.657,359.857,124.403,359.533z"/>
<path fill="#4E8298" d="M248.661,479.652c2.653-11.08,10.559-42.002,9.047-41.258c-0.042,0.021-0.094,0.049-0.138,0.07
	c-2.092,1.049-6.164,3.463-9.12,5.367c-1.025,0.66-1.917,1.26-2.541,1.719c-1.012,0.742-2.03,1.473-3.051,2.203c0,0,0,0,0,0
	c0.327-1.943,0.635-3.889,0.928-5.836c0.136-0.906,0.276-1.811,0.399-2.717c0.012-0.09,0.025-0.189,0.038-0.283
	c0.359-2.699,0.897-7.297,1.379-11.523c0.032-0.283,0.063-0.562,0.095-0.842c0.536-4.723,0.981-8.773,0.99-8.822
	c0.012-0.059,0.012-0.107,0.004-0.15c-0.021-0.104-0.103-0.16-0.234-0.172c-0.132-0.014-0.314,0.018-0.538,0.082
	c-1.963,0.574-7.109,3.898-9.069,5.191c-0.356,0.236-0.607,0.402-0.715,0.475c-0.195,0.131-0.389,0.26-0.583,0.391
	c-0.194,0.131-0.389,0.26-0.583,0.391c0.009-0.043,0.038-0.574,0.076-1.443c0.142-3.188,0.421-10.92,0.424-15.875
	c0.001-3.305-0.121-5.375-0.49-4.043c-0.168,0.611-0.406,1.561-0.69,2.756c-1.425,5.973-4.057,18.051-5.479,24.205
	c-0.114,0.49-0.22,0.945-0.317,1.355c-0.106,0.453-0.203,0.852-0.287,1.189c-0.042,0.168-0.08,0.322-0.115,0.459
	c-0.019,0.074-0.029,0.143-0.031,0.205c-0.038,1.906,8.409-2.625,10.546-4.008c0.658-0.426,1.306-0.863,1.956-1.297
	c0.325-0.217,0.656-0.428,0.979-0.648l0,0c-0.019,0.102-0.039,0.203-0.058,0.305s-0.038,0.203-0.057,0.303
	c-0.161,0.859-0.322,1.717-0.483,2.576c-0.341,1.814-0.682,3.631-1.023,5.445c-0.157,0.84-0.332,1.85-0.513,2.963
	c-0.015,0.09-0.03,0.18-0.044,0.271c-0.215,1.336-0.438,2.807-0.651,4.303c-0.794,5.598-1.442,11.543-0.996,11.988
	c0.722,0.723,8.06-3.391,10.626-5.242c1.25-0.9,2.561-1.77,3.837-2.682v-0.002c-0.896,9.736-3.278,28.754-3.542,32.188
	c-0.018,0.244-0.026,0.41-0.021,0.486C248.615,479.773,248.631,479.762,248.661,479.652z"/>
<path fill="#FFFFFF" d="M176.592,277.934c1.263,0.379,2.463,0.834,3.612,1.354c0.119-1.85,0.276-3.711,0.467-5.574
	C179.28,275.086,177.913,276.48,176.592,277.934z"/>
<path fill="#FFFFFF" d="M304.246,272.238c0.283,2.545,0.507,5.084,0.659,7.607c1.536-0.766,3.152-1.43,4.894-1.947
	C308.013,275.939,306.144,274.082,304.246,272.238z"/>
<path fill="#FFFFFF" d="M272.389,82.948c-0.605,0.103-1.203,0.212-1.788,0.329c-10.598,1.63-20.511,5.311-27.458,13.893
	c-6.948-8.582-16.861-12.263-27.459-13.893c-9.74-1.949-22.399-1.949-31.164,0.974c-8.592,1.983-12.251,6.655-17.367,10.976
	c-0.762,0.645-1.555,1.281-2.403,1.898c0,0,0,0-0.001,0c-1.848,1.347-3.949,2.609-6.523,3.682c-8.766,3.896-22.399,0-30.19,8.765
	c-9.739,10.712,2.922,18.503-0.974,30.189c-2.921,8.765-19.478,13.634-24.346,23.374c-7.792,13.634,0,18.503,2.921,31.164
	c2.922,12.66-1.948,19.477-5.843,30.19c-4.869,16.555,0.974,14.608,6.817,28.242c4.869,10.711-0.974,20.45,4.869,28.243
	c7.792,8.764,19.479,5.844,29.216,3.895c5.591-1.523,10.651-4.107,16.011-5.955c2.535-3.383,5.296-6.574,8.216-9.512
	c4.558-4.582,9.405-8.623,14.792-11.758c6.494,7.801,13.543,14.984,20.98,20.576c9.402,6.412,21.152,9.162,28.672,17.406
	c3.246,3.482,6.044,7.834,9.167,11.553c1.399,1.666,2.864,3.207,4.463,4.482h0.47c0.063-0.613,0.145-1.229,0.236-1.844
	c0.091,0.615,0.172,1.23,0.236,1.844h0.469c1.688-1.346,3.223-2.986,4.692-4.76c3.031-3.656,5.772-7.881,8.939-11.275
	c7.521-8.244,19.271-10.994,28.671-17.406c7.312-5.498,14.25-12.535,20.653-20.184c5.125,3.08,9.765,6.971,14.137,11.365
	c2.939,2.955,5.715,6.17,8.263,9.576c1.053,0.367,2.095,0.76,3.132,1.168c-0.393-0.533-0.393-0.953,0.206-1.172
	c5.346-1.957,30.717-12.439,36.046-14.281c4.791-1.658-21.815,15.115-22.192,15.27c0.548,0.217,1.098,0.436,1.646,0.654
	c1.019,0.404,11.153,4.436,13.091,6.291c4.833-0.246,9.413-1.77,13.113-5.934c5.845-7.793,0-17.531,4.869-28.243
	c5.843-13.634,11.688-11.687,6.818-28.242c-3.896-10.713-8.766-17.53-5.843-30.19c2.92-12.66,10.712-17.53,2.92-31.164
	c-4.868-9.74-21.425-14.609-24.347-23.374c-3.895-11.686,8.767-19.477-0.975-30.189c-7.789-8.765-21.424-4.87-30.188-8.765
	c-11.687-4.869-13.634-13.634-26.295-16.556c-7.904-2.635-18.971-2.888-28.212-1.484c-0.001,0-0.001,0.001-0.001,0.001
	C273.162,82.825,272.771,82.882,272.389,82.948z M138.728,149.458c-1.945,2.941-3.927,5.875-6.12,8.639
	c-3.519,4.432-8.357,8.869-9.681,14.583c-0.856,3.695-0.447,7.436,0.528,11.072c0.585,2.183,1.162,4.391,2.53,6.236
	c1.101,1.483,2.44,2.896,3.333,4.521c3.788,6.896-0.372,13.652-3.995,19.598c-1.942,3.189-3.92,6.938-3.741,10.801
	c0.153,3.312,1.829,6.201,3.292,9.087c1.429,2.819,2.91,5.935,3.59,9.038c0.662,3.029,0.276,5.748-0.226,8.779
	c-0.039,0.236-0.44,0.182-0.418-0.057c0.873-9.412-8.028-16.096-10.273-24.718c-0.947-3.638-1.29-6.986-0.002-10.615
	c1.155-3.254,2.969-6.104,4.694-9.07c1.805-3.104,4.129-7.552,2.321-11.113c-1.806-3.555-2.97-6.74-3.853-10.642
	c-1.314-5.803-1.891-12.066,0.935-17.533c2.769-5.356,7.333-9.557,10.769-14.465c2.505-3.579,4.072-7.29,5.368-11.446
	c1-3.207,2.263-6.289,4.321-8.968c5.557-7.234,13.917-9.248,22.55-9.992c4.28-0.369,9.151-0.449,12.847-2.895
	c2.882-1.907,4.959-4.82,6.762-7.711c3.585-5.747,7.278-11.245,13.472-14.452c0.956-0.495,1.751,0.862,0.842,1.442
	c-6.76,4.309-8.71,12.282-12.351,18.975c-1.571,2.89-3.838,6.887-6.808,8.556c-3.616,2.032-7.59,3.201-11.705,3.68
	c-8.199,0.953-18.625,0.618-23.522,8.623C142.192,142.674,140.839,146.266,138.728,149.458z M205.271,272.383
	c-2.413-1.664-3.883-4.697-5.575-7.055c-1.917-2.672-3.92-5.311-5.627-8.125c-3.224-5.312-5.215-10.884-5.48-17.134
	c-0.038-0.888,1.437-1.11,1.569-0.212c0.907,6.148,3.765,11.453,7.276,16.5c1.702,2.447,3.513,4.81,5.304,7.191
	c1.638,2.18,3.99,4.594,4.489,7.33C207.417,271.918,206.326,273.111,205.271,272.383z M230.84,284.314
	c-0.364,0.867-1.391,1.582-2.321,0.943c-3.433-2.359-4.625-8.182-6.693-11.711c-2.343-3.996-4.926-7.824-7.5-11.676
	c-5.274-7.887-9.712-15.961-11.1-25.484c-0.145-0.994,1.336-1.452,1.541-0.425c1.956,9.825,8.677,17.757,14.675,25.474
	c2.765,3.559,5.573,7.145,7.84,11.049C229.101,275.621,232.41,280.568,230.84,284.314z M237.041,270.51
	c-0.158,0.637-1.124,0.975-1.573,0.416c-2.771-3.451-3.126-8.445-3.964-12.678c-0.917-4.636-1.321-9.361-2.189-14.014
	c-0.236-1.266,1.621-1.817,1.952-0.538c1.286,4.969,3.011,9.8,4.239,14.776C236.452,262.311,238.013,266.574,237.041,270.51z
	 M258.826,251.339c-0.2,4.568,0.208,12.497-3.323,15.891c-0.695,0.668-1.744,0.326-2.047-0.541c-0.971-2.777,0.206-6.225,0.505-9.09
	c0.303-2.914,0.499-5.835,0.555-8.765c0.112-5.851,0.367-11.687,0.666-17.53c0.093-1.811,2.702-1.805,2.805,0
	C258.367,237.995,259.12,244.625,258.826,251.339z M263.535,213.619c-1.312,3.804-5.223,6.825-8.304,9.237
	c-3.442,2.693-7.763,4.446-12.125,4.708c-9.32,0.561-18.195-4.463-20.788-13.756c-0.433-1.552,0.359-0.935,1.472,0.027
	c5.363,4.629,12.691,7.038,20.072,6.475c3.328-0.254,6.504-0.76,9.651-1.908c3.488-1.271,5.726-3.881,8.821-5.705
	C262.925,212.349,263.774,212.925,263.535,213.619z M267.176,250.111c-0.657-1.984-0.238-3.825,0.044-5.853
	c0.323-2.319,0.484-4.642,0.717-6.971c0.455-4.587,1.114-9.176,1.377-13.773c0.066-1.167,1.744-1.167,1.811,0
	c0.284,5.024,1.145,9.972,0.757,15.025c-0.295,3.837-0.092,9.082-2.807,12.073C268.471,251.278,267.431,250.879,267.176,250.111z
	 M270.908,270.467c-0.729,0.359-1.837,0.105-2.008-0.818c-0.621-3.35,1.591-6.742,2.906-9.723c1.476-3.344,3.058-6.63,4.258-10.088
	c2.39-6.887,4.566-14.123,4.74-21.454c0.033-1.459,2.026-1.369,2.201,0c1.002,7.856,0.871,15.337-1.774,22.878
	c-1.236,3.523-2.597,7.084-4.266,10.43C275.501,264.627,274.01,268.932,270.908,270.467z M291.789,253.283
	c-2.317,4.643-5.059,10.833-9.472,13.788c-0.644,0.43-1.329-0.275-1.2-0.924c0.975-4.889,5.143-9.105,7.44-13.491
	c2.567-4.9,4.659-9.932,5.014-15.508c0.08-1.271,1.961-1.291,1.988,0C295.68,242.769,294.295,248.263,291.789,253.283z
	 M304.049,248.472c-0.804,2.182-1.945,4.964-4.175,5.982c-0.52,0.237-1.401-0.025-1.31-0.751c0.269-2.105,1.756-3.693,2.623-5.596
	c1.049-2.296,1.347-4.566,1.024-7.065c-0.161-1.254,1.944-1.521,2.197-0.296C304.937,243.309,304.967,245.982,304.049,248.472z
	 M349.001,266.256c-5.274-2.846-9.219-10.804-8.108-16.76c1.186-6.366,5.266-11.686,6.135-18.191c0.182-1.359,2.216-1.464,2.201,0
	c-0.058,6.034-1.447,11.129-2.959,16.875c-0.548,2.082-0.775,4.181-0.017,6.248c1.254,3.412,4.251,5.66,5.662,8.912
	C352.737,265.234,351.019,267.344,349.001,266.256z M295.281,104.959c4.002,4.546,7.919,9.384,12.815,13.02
	c5.794,4.301,12.496,7.008,19.689,7.831c5.806,0.665,12.317,0.786,17.256,4.355c2.822,2.039,5.33,4.635,6.722,7.875
	c1.768,4.117,1.775,7.522,1.501,11.898c-0.466,7.428-3.179,15.331-0.601,22.646c1.182,3.351,3.021,6.302,5.651,8.682
	c1.863,1.686,4.091,3.03,5.733,4.953c3.168,3.708,4.817,10.166,1.521,14.36c-1.98,2.52-5.057,3.581-7.292,5.792
	c-2.895,2.864-1.405,7.417,0.219,10.653c3.207,6.39,7.041,14.377,5.354,21.674c-0.495,2.143-3.603,1.997-4.177,0
	c-1.305-4.541-3.234-8.692-5.135-13.006c-2.521-5.721-4.804-14.858-0.222-20.292c2.048-2.428,4.84-3.62,7.367-5.435
	c3.038-2.183,3.774-6.121,1.982-9.51c-2.613-4.946-8.33-6.588-11.676-10.836c-4.761-6.048-5.192-12.727-4.19-20.067
	c1.043-7.637,0.496-16.621-5.635-22.227c-4.206-3.846-10.688-4.195-15.907-5.876c-6.582-2.121-13.358-4.503-18.678-9.091
	c-5.319-4.588-9.414-10.472-13.731-15.966C293.063,105.391,294.401,103.961,295.281,104.959z M279.918,112.831
	c2.472,1.198,4.802,2.812,6.9,4.911c7.792,7.792,6.493,15.15,19.912,19.479c9.955,3.463,22.508,3.03,29,12.985
	c6.493,10.822-3.896,17.314-6.06,26.837c-2.597,12.12,11.688,15.149,12.12,26.403c0.432,12.115-12.972,14.715-16.443,24.66
	c-15.625-0.944-26.447-2.742-40.988-12.189c-3.354-2.18-17.936-10.69-28.049-13.209c-2.062,3.479-7.024,5.933-12.826,5.933
	c-5.75,0-10.68-2.41-12.774-5.839c-10.095,2.636-24.353,10.964-27.665,13.116c-14.982,9.735-26.02,11.349-42.428,12.273
	c-0.009-0.024-0.013-0.046-0.022-0.07c-3.463-9.956-16.881-12.553-16.449-24.673c0.433-11.254,14.717-14.284,12.12-26.403
	c-2.164-9.523-12.553-16.016-6.06-26.837c6.493-9.956,19.045-9.522,29-12.985c13.419-4.328,12.12-11.687,19.912-19.479
	c2.33-2.329,4.943-4.067,7.721-5.294c4.258-0.935,8.63-1.708,13.101-2.305c5.944,0.276,11.857,2.129,16.837,5.002l5.194-0.433
	c0.08-0.198,0.147-0.392,0.217-0.587c0.069,0.195,0.136,0.39,0.216,0.587l6.758,0.433c4.81-2.774,10.489-4.596,16.228-4.967
	C270.361,110.852,275.211,111.742,279.918,112.831z"/>
<path fill="#FFEBC2" d="M249.161,115.145l-6.758-0.433c-0.08-0.198-0.147-0.392-0.216-0.587c-0.069,0.195-0.137,0.39-0.217,0.587
	l-5.194,0.433c-4.98-2.873-10.893-4.726-16.837-5.002c-4.47,0.598-8.843,1.37-13.101,2.305c-2.778,1.227-5.391,2.965-7.721,5.294
	c-7.792,7.792-6.493,15.15-19.912,19.479c-9.956,3.463-22.508,3.03-29,12.985c-6.493,10.822,3.896,17.314,6.06,26.837
	c2.597,12.12-11.687,15.149-12.12,26.403c-0.433,12.12,12.986,14.717,16.449,24.673c0.009,0.024,0.014,0.046,0.022,0.07
	c16.409-0.924,27.446-2.538,42.428-12.273c3.312-2.152,17.57-10.479,27.665-13.116c-0.691-1.133-1.076-2.377-1.076-3.683
	c0-4.108,3.792-7.599,9.094-8.934l-0.005-0.156c0-3.825,2.133-6.925,4.762-6.925c2.63,0,4.762,3.101,4.762,6.925l-0.005,0.156
	c5.304,1.335,9.095,4.826,9.095,8.934c0,1.271-0.369,2.481-1.025,3.589c10.113,2.519,24.694,11.03,28.049,13.209
	c14.541,9.448,25.363,11.246,40.988,12.189c3.472-9.945,16.875-12.545,16.443-24.66c-0.433-11.254-14.717-14.284-12.12-26.403
	c2.164-9.523,12.553-16.016,6.06-26.837c-6.492-9.956-19.045-9.522-29-12.985c-13.419-4.328-12.12-11.687-19.912-19.479
	c-2.099-2.099-4.429-3.713-6.9-4.911c-4.707-1.089-9.557-1.979-14.529-2.653C259.65,110.548,253.971,112.37,249.161,115.145z
	 M200.632,196.953c-8.605,0-15.583-10.173-15.583-22.724c0-12.55,6.978-22.725,15.583-22.725c3.665,0,7.032,1.849,9.692,4.937
	c1.486,0.885,2.543,2.408,2.796,4.194c1.943,3.791,3.094,8.497,3.094,13.594C216.215,186.78,209.238,196.953,200.632,196.953z
	 M221.968,145.938c-0.83,2.148-3.622,3.466-5.658,2.458c-2.022,2.021-5.647,2.287-6.837-1.15c-0.013-0.039-0.032-0.072-0.046-0.111
	c-1.487,0.993-3.441,1.228-4.851,0.103c-1.237,0.434-2.66,0.329-3.915-0.617c-0.127-0.096-0.257-0.184-0.385-0.276
	c-1.481,1.281-3.764,1.613-5.475,0.284c-0.138-0.107-0.282-0.205-0.421-0.308c-1.447,0.691-3.31,0.668-4.631-0.202
	c-0.983,0.354-2.149,0.36-3.602-0.055c-2.245-0.641-3.21-3.533-2.422-5.547c0.43-1.098,1.17-1.818,2.063-2.222
	c0.643-0.807,1.533-1.465,2.53-1.664c1.371-1.75,4.351-2.263,6.156-0.91c1.11-0.756,2.562-1.072,3.873-0.752
	c1.602-1.886,4.901-2.261,6.863-0.184c1.282-0.997,2.983-1.377,4.457-0.5c1.601-1.285,4.124-1.298,5.967,0.51
	c1.661-0.713,4.06,0.017,5.099,1.797c0.03-0.019,0.062-0.038,0.091-0.057c0.197,0.535,0.34,1.069,0.46,1.603
	c0.465,1.754,0.824,3.502,1.451,5.227C223.101,144.365,222.675,145.356,221.968,145.938z M287.204,196.953
	c-8.607,0-15.584-10.173-15.584-22.724c0-12.55,6.977-22.725,15.584-22.725c3.665,0,7.032,1.85,9.693,4.938
	c1.484,0.885,2.539,2.406,2.793,4.19c1.944,3.791,3.096,8.498,3.096,13.596C302.786,186.78,295.81,196.953,287.204,196.953z
	 M268.644,143.365c0.627-1.725,0.986-3.473,1.451-5.227c0.12-0.534,0.264-1.068,0.46-1.603c0.03,0.019,0.062,0.038,0.092,0.057
	c1.04-1.78,3.438-2.511,5.1-1.797c1.844-1.808,4.365-1.794,5.967-0.51c1.474-0.877,3.175-0.497,4.457,0.5
	c1.961-2.077,5.261-1.702,6.863,0.184c1.31-0.319,2.762-0.004,3.872,0.752c1.805-1.353,4.785-0.84,6.155,0.91
	c0.997,0.199,1.888,0.856,2.53,1.664c0.893,0.404,1.634,1.124,2.063,2.222c0.788,2.014-0.178,4.906-2.422,5.547
	c-1.452,0.415-2.619,0.41-3.602,0.055c-1.321,0.87-3.185,0.893-4.632,0.202c-0.14,0.104-0.283,0.201-0.421,0.308
	c-1.711,1.329-3.994,0.997-5.475-0.284c-0.129,0.092-0.259,0.18-0.385,0.276c-1.255,0.946-2.678,1.051-3.915,0.617
	c-1.409,1.125-3.363,0.89-4.851-0.103c-0.014,0.039-0.032,0.073-0.046,0.111c-1.189,3.437-4.814,3.17-6.837,1.15
	c-2.036,1.008-4.828-0.31-5.658-2.458C268.706,145.356,268.28,144.365,268.644,143.365z"/>
<path fill="#FFEBC2" d="M202.797,364.838c-0.928,0.1-1.837,0.227-2.733,0.367c-3.355,0.531-6.51,1.287-9.642,1.865
	c-0.226,6.213,0.443,11.133,1.382,18.385c-4.73,1.648-9.449,4.553-11.083,8.23c-7.142,13.635,14.934,8.439,22.725,6.492
	c14.338-2.389,20.574-4.436,19.248-12.336h0.039c0.786-2.629,1.245-2.369,0.841-5.195c-0.794-5.561-1.467-10.826-2.003-15.891
	c-4.147-0.734-8.195-1.588-12.37-1.912C207.108,364.68,204.983,364.648,202.797,364.838z"/>
<path fill="#FFEBC2" d="M238.534,307.178c-3.123-3.719-5.921-8.07-9.167-11.553c-7.521-8.244-19.271-10.994-28.672-17.406
	c-7.437-5.592-14.486-12.775-20.98-20.576c-5.388,3.135-10.234,7.176-14.792,11.758c-2.92,2.938-5.681,6.129-8.216,9.512
	c-4.225,5.639-7.825,11.807-10.5,18.201c-1.145,0.773-2.188,1.76-3.229,2.67c-2.804,2.459-4.632,6.809-5.292,10.389
	c-1.157,6.27,1.016,15.283,8.318,16.875c6.433,1.4,9.974-2.844,11.998-8.488c2.857,3.051,9.069,1.951,9.182-3.436
	c0.084-4.023-1.419-11.951-4.807-16.84c3.369-6.387,7.473-12.312,12.099-17.92c0.688-0.834,1.397-1.639,2.118-2.43
	c1.321-1.453,2.688-2.848,4.079-4.221c-0.19,1.863-0.348,3.725-0.467,5.574c-0.52,8.078-0.319,15.975,0.973,23.197
	C199.935,306.217,219.218,307.43,238.534,307.178z"/>
<path fill="#FFEBC2" d="M274.218,360.055c-3.813,0.492-7.5,1.191-11.122,1.98c-0.589,6.502-1.423,13.303-2.468,20.611
	c-0.403,2.826,0.056,2.566,0.841,5.195h0.04c-1.327,7.9,4.909,9.947,19.247,12.336c7.791,1.947,29.867,7.143,22.725-6.492
	c-1.635-3.678-6.354-6.582-11.083-8.23c1.169-9.023,1.92-14.436,1.049-23.225c-2.159-0.484-4.332-0.934-6.472-1.305
	C282.388,360.131,277.966,359.693,274.218,360.055z"/>
<path fill="#FFEBC2" d="M341.789,298.332c-0.509-0.434-1.029-0.852-1.574-1.219c-0.052-0.123-0.108-0.246-0.161-0.371
	c-0.102-0.09-0.206-0.18-0.306-0.273c-0.068-0.064-0.274-0.32-0.419-0.494c-0.031-0.076-0.065-0.15-0.102-0.227
	c-0.206-0.84-0.546-1.615-1.018-2.27c0.103-0.047,0.208-0.094,0.308-0.139c-2.418-5.021-5.387-9.859-8.755-14.363
	c-2.548-3.406-5.323-6.621-8.263-9.576c-4.372-4.395-9.012-8.285-14.137-11.365c-6.403,7.648-13.342,14.686-20.653,20.184
	c-9.4,6.412-21.149,9.162-28.671,17.406c-3.167,3.395-5.908,7.619-8.939,11.275c18.481-0.715,36.907-2.584,54.842-4.672
	c1.223-6.986,1.433-14.594,0.964-22.383c-0.152-2.523-0.376-5.062-0.659-7.607c1.897,1.844,3.767,3.701,5.553,5.66
	c0.73,0.803,1.45,1.619,2.147,2.465c4.626,5.607,8.73,11.533,12.099,17.92c-3.388,4.889-4.891,12.816-4.807,16.84
	c0.072,3.471,2.677,5.15,5.284,5.1c3.814-2.047,7.432-4.01,10.333-5.631c1.461,0.949,2.607,2.584,3.237,4.322
	c-2.429,0.994-5.161,2.082-8.041,3.211c2.152,3.707,5.392,6.006,10.367,4.922c7.302-1.592,9.475-10.605,8.317-16.875
	c-0.661-3.58-2.488-7.93-5.293-10.389c-0.544-0.475-1.09-0.973-1.65-1.447l0,0C341.792,298.334,341.791,298.334,341.789,298.332z"/>
<path fill="#FFFDF3" d="M309.66,328.133c-0.677-9.027-1.961-17.832-4.927-25.996c-0.264,0.031-0.528,0.061-0.792,0.092
	c-17.935,2.088-36.36,3.957-54.842,4.672c-1.469,1.773-3.004,3.414-4.692,4.76h-0.469c-0.063-0.613-0.145-1.229-0.236-1.844
	c-0.091,0.615-0.172,1.23-0.236,1.844h-0.47c-1.599-1.275-3.064-2.816-4.463-4.482c-19.316,0.252-38.599-0.961-57.356-4.693
	c-0.584-0.115-1.171-0.227-1.754-0.348v1.062c-0.649,9.564,0,19.66,0,29.225s2.597,27.1-3.896,34.539
	c5.336,1.455,10.088,0.994,14.895,0.107c3.131-0.578,6.286-1.334,9.642-1.865c0.828-4.236,1.735-8.461,2.622-12.689
	c1.096-5.227,2.141-10.506,2.623-15.799c0.443-4.877,1.49-10.043,0.694-14.92c-0.308-1.881,3.276-2.113,3.906-0.432
	c1.906,5.088,3.561,9.959,3.482,15.352c-0.078,5.365-0.81,10.65-1.755,15.955c-0.726,4.07-1.607,8.117-2.435,12.172
	c4.174,0.324,8.222,1.178,12.37,1.912c2.667,0.473,5.375,0.893,8.188,1.09c-0.042-4.381,0.008-8.756,0.097-13.137
	c0.104-5.197,1.073-10.262,1.492-15.445c0.413-5.104,0.505-10.229,0.698-15.342c0.076-2.023,3.759-2.023,3.835,0
	c0.192,5.113,0.285,10.24,0.72,15.342c0.441,5.186,1.455,10.248,1.65,15.445c0.16,4.285,0.311,8.566,0.424,12.852
	c0.161-0.023,0.32-0.041,0.482-0.066c3.429-0.625,6.803-1.387,10.169-2.189c0.158-3.51,0.397-7.016,0.688-10.52
	c0.7-8.457,2.868-16.639,4.187-25.018c0.189-1.209,2.488-1.277,2.379,0c-0.735,8.637-0.217,17.371-0.643,26.035
	c-0.131,2.658-0.24,5.318-0.34,7.979c2.479-0.604,4.975-1.195,7.5-1.746c3.622-0.789,7.309-1.488,11.122-1.98
	c3.748-0.361,8.17,0.076,12.757,0.871c-0.393-3.842-0.711-7.689-0.96-11.539c-0.745-11.525-0.728-22.961,1.185-34.406
	c0.266-1.59,3.635-1.588,3.903,0c1.932,11.428,2.578,22.908,3.611,34.406c0.405,4.494,0.896,8.98,1.446,13.465
	c5.878,1.385,11.475,2.885,15.716,3.58c-1.449-11.855-1.282-24.373-2.091-36.537c-4.296,1.629-8.118,3.076-10.894,4.146
	C297.91,334.385,302.841,331.752,309.66,328.133z"/>
<path fill="#F9F0D9" d="M236.6,339.264c-0.435-5.102-0.528-10.229-0.72-15.342c-0.076-2.023-3.759-2.023-3.835,0
	c-0.193,5.113-0.285,10.238-0.698,15.342c-0.419,5.184-1.388,10.248-1.492,15.445c-0.089,4.381-0.138,8.756-0.097,13.137
	c2.845,0.197,5.797,0.16,8.916-0.285c-0.113-4.285-0.264-8.566-0.424-12.852C238.055,349.512,237.041,344.449,236.6,339.264z"/>
<path fill="#F9F0D9" d="M209.201,364.844c0.828-4.055,1.709-8.102,2.435-12.172c0.945-5.305,1.677-10.59,1.755-15.955
	c0.079-5.393-1.576-10.264-3.482-15.352c-0.63-1.682-4.213-1.449-3.906,0.432c0.796,4.877-0.251,10.043-0.694,14.92
	c-0.481,5.293-1.526,10.572-2.623,15.799c-0.887,4.229-1.794,8.453-2.622,12.689c0.896-0.141,1.805-0.268,2.733-0.367
	C204.983,364.648,207.108,364.68,209.201,364.844z"/>
<path fill="#F9F0D9" d="M256.578,329.768c0.109-1.277-2.189-1.209-2.379,0c-1.318,8.379-3.486,16.561-4.187,25.018
	c-0.29,3.504-0.529,7.01-0.688,10.52c2.089-0.5,4.175-1.014,6.271-1.523c0.1-2.66,0.209-5.32,0.34-7.979
	C256.361,347.139,255.843,338.404,256.578,329.768z"/>
<path fill="#F9F0D9" d="M291.103,314.98c-0.269-1.588-3.638-1.59-3.903,0c-1.912,11.445-1.93,22.881-1.185,34.406
	c0.249,3.85,0.567,7.697,0.96,11.539c2.14,0.371,4.312,0.82,6.472,1.305c0.908,0.203,1.814,0.408,2.714,0.621
	c-0.55-4.484-1.041-8.971-1.446-13.465C293.681,337.889,293.034,326.408,291.103,314.98z"/>
<path fill="#403829" d="M299.756,161.46c0,3.227-2.616,5.843-5.844,5.843s-5.844-2.616-5.844-5.843c0-3.228,2.616-5.844,5.844-5.844
	c1.093,0,2.111,0.305,2.985,0.826c-2.661-3.088-6.028-4.938-9.693-4.938c-8.607,0-15.584,10.175-15.584,22.725
	c0,12.551,6.977,22.724,15.584,22.724c8.605,0,15.582-10.173,15.582-22.724c0-5.099-1.151-9.805-3.096-13.596
	C299.729,160.903,299.756,161.178,299.756,161.46z M301.703,174.446c0,1.912-1.55,3.462-3.462,3.462
	c-1.913,0-3.463-1.55-3.463-3.462c0-1.913,1.55-3.462,3.463-3.462C300.153,170.984,301.703,172.533,301.703,174.446z"/>
<path fill="#FFFFFF" d="M288.068,161.46c0,3.227,2.616,5.843,5.844,5.843s5.844-2.616,5.844-5.843c0-0.282-0.027-0.557-0.065-0.828
	c-0.254-1.784-1.309-3.305-2.793-4.19c-0.874-0.521-1.893-0.826-2.985-0.826C290.685,155.617,288.068,158.233,288.068,161.46z"/>
<circle fill="#9D9B93" cx="298.241" cy="174.446" r="3.462"/>
<path fill="#403829" d="M213.186,161.46c0,3.227-2.616,5.843-5.844,5.843s-5.843-2.616-5.843-5.843c0-3.228,2.616-5.844,5.843-5.844
	c1.091,0,2.109,0.304,2.982,0.825c-2.66-3.088-6.027-4.937-9.692-4.937c-8.605,0-15.583,10.175-15.583,22.725
	c0,12.551,6.978,22.724,15.583,22.724c8.606,0,15.583-10.173,15.583-22.724c0-5.097-1.151-9.803-3.094-13.594
	C213.159,160.905,213.186,161.179,213.186,161.46z M215.134,174.446c0,1.912-1.55,3.462-3.464,3.462
	c-1.911,0-3.462-1.55-3.462-3.462c0-1.913,1.551-3.462,3.462-3.462C213.583,170.984,215.134,172.533,215.134,174.446z"/>
<path fill="#FFFFFF" d="M201.499,161.46c0,3.227,2.616,5.843,5.843,5.843s5.844-2.616,5.844-5.843c0-0.281-0.027-0.555-0.065-0.825
	c-0.253-1.786-1.31-3.309-2.796-4.194c-0.874-0.521-1.891-0.825-2.982-0.825C204.114,155.617,201.499,158.233,201.499,161.46z"/>
<circle fill="#9D9B93" cx="211.671" cy="174.446" r="3.463"/>
<path fill="#F37D6B" d="M262.335,212.697c-3.096,1.824-5.333,4.434-8.821,5.705c-3.147,1.147-6.323,1.654-9.651,1.908
	c-7.381,0.563-14.709-1.845-20.072-6.475c-1.113-0.962-1.905-1.58-1.472-0.027c2.593,9.293,11.468,14.316,20.788,13.756
	c4.362-0.262,8.683-2.014,12.125-4.708c3.081-2.412,6.992-5.433,8.304-9.237C263.774,212.925,262.925,212.349,262.335,212.697z"/>
<path fill="#F8B3AD" d="M248.241,190.184l0.005-0.156c0-3.825-2.132-6.925-4.762-6.925c-2.628,0-4.762,3.101-4.762,6.925
	l0.005,0.156c-5.302,1.335-9.094,4.826-9.094,8.934c0,1.306,0.384,2.55,1.076,3.683c2.095,3.43,7.025,5.839,12.774,5.839
	c5.802,0,10.764-2.454,12.826-5.933c0.656-1.108,1.025-2.319,1.025-3.589C257.336,195.009,253.545,191.519,248.241,190.184z"/>
<path fill="#F0E7E7" d="M167.71,130.79c4.114-0.479,8.088-1.648,11.705-3.68c2.97-1.668,5.237-5.666,6.808-8.556
	c3.64-6.693,5.591-14.666,12.351-18.975c0.909-0.58,0.114-1.937-0.842-1.442c-6.194,3.207-9.887,8.705-13.472,14.452
	c-1.803,2.891-3.88,5.804-6.762,7.711c-3.696,2.446-8.567,2.526-12.847,2.895c-8.633,0.744-16.993,2.757-22.55,9.992
	c-2.058,2.679-3.322,5.761-4.321,8.968c-1.295,4.156-2.863,7.867-5.368,11.446c-3.435,4.908-8,9.109-10.769,14.465
	c-2.826,5.467-2.249,11.729-0.935,17.533c0.882,3.902,2.047,7.087,3.853,10.642c1.808,3.561-0.516,8.008-2.321,11.113
	c-1.725,2.966-3.539,5.816-4.694,9.07c-1.288,3.628-0.945,6.977,0.002,10.615c2.245,8.622,11.146,15.306,10.273,24.718
	c-0.022,0.238,0.379,0.293,0.418,0.057c0.502-3.031,0.888-5.75,0.226-8.779c-0.68-3.103-2.161-6.219-3.59-9.038
	c-1.463-2.886-3.139-5.775-3.292-9.087c-0.179-3.864,1.798-7.612,3.741-10.801c3.623-5.946,7.783-12.702,3.995-19.598
	c-0.893-1.626-2.232-3.038-3.333-4.521c-1.368-1.845-1.945-4.054-2.53-6.236c-0.976-3.636-1.385-7.377-0.528-11.072
	c1.324-5.714,6.162-10.151,9.681-14.583c2.193-2.763,4.175-5.698,6.12-8.639c2.112-3.193,3.464-6.784,5.46-10.045
	C149.085,131.408,159.511,131.743,167.71,130.79z"/>
<path fill="#F0E7E7" d="M202.738,263.549c-1.791-2.381-3.602-4.744-5.304-7.191c-3.511-5.048-6.369-10.352-7.276-16.5
	c-0.133-0.898-1.607-0.676-1.569,0.212c0.265,6.25,2.256,11.822,5.48,17.134c1.708,2.814,3.71,5.453,5.627,8.125
	c1.692,2.357,3.162,5.391,5.575,7.055c1.055,0.729,2.146-0.465,1.956-1.504C206.728,268.143,204.375,265.729,202.738,263.549z"/>
<path fill="#F0E7E7" d="M219.441,261.436c-5.998-7.716-12.719-15.648-14.675-25.474c-0.204-1.027-1.685-0.569-1.541,0.425
	c1.387,9.523,5.826,17.597,11.1,25.484c2.574,3.852,5.157,7.68,7.5,11.676c2.069,3.529,3.26,9.352,6.693,11.711
	c0.93,0.639,1.958-0.076,2.321-0.943c1.57-3.746-1.739-8.693-3.559-11.83C225.014,268.58,222.206,264.994,219.441,261.436z"/>
<path fill="#F0E7E7" d="M231.266,243.696c-0.331-1.279-2.188-0.728-1.952,0.538c0.868,4.653,1.271,9.378,2.189,14.014
	c0.838,4.232,1.193,9.227,3.964,12.678c0.449,0.559,1.415,0.221,1.573-0.416c0.972-3.936-0.589-8.199-1.536-12.037
	C234.277,253.497,232.552,248.666,231.266,243.696z"/>
<path fill="#F0E7E7" d="M255.182,231.305c-0.299,5.843-0.554,11.679-0.666,17.53c-0.056,2.93-0.252,5.852-0.555,8.765
	c-0.299,2.865-1.476,6.312-0.505,9.09c0.303,0.867,1.352,1.209,2.047,0.541c3.531-3.395,3.123-11.323,3.323-15.891
	c0.294-6.715-0.459-13.344-0.84-20.035C257.884,229.5,255.274,229.494,255.182,231.305z"/>
<path fill="#F0E7E7" d="M271.881,238.539c0.388-5.054-0.473-10.001-0.757-15.025c-0.066-1.167-1.744-1.167-1.811,0
	c-0.263,4.598-0.922,9.186-1.377,13.773c-0.232,2.329-0.394,4.651-0.717,6.971c-0.282,2.028-0.701,3.869-0.044,5.853
	c0.255,0.769,1.295,1.167,1.898,0.501C271.789,247.621,271.586,242.376,271.881,238.539z"/>
<path fill="#F0E7E7" d="M283.006,228.383c-0.175-1.369-2.168-1.459-2.201,0c-0.174,7.331-2.351,14.567-4.74,21.454
	c-1.2,3.458-2.782,6.745-4.258,10.088c-1.315,2.98-3.527,6.373-2.906,9.723c0.171,0.924,1.279,1.178,2.008,0.818
	c3.102-1.535,4.593-5.84,6.058-8.775c1.669-3.346,3.029-6.907,4.266-10.43C283.877,243.72,284.008,236.24,283.006,228.383z"/>
<path fill="#F0E7E7" d="M293.571,237.148c-0.354,5.576-2.446,10.607-5.014,15.508c-2.298,4.385-6.466,8.602-7.44,13.491
	c-0.129,0.648,0.557,1.354,1.2,0.924c4.413-2.955,7.154-9.145,9.472-13.788c2.506-5.02,3.891-10.514,3.771-16.135
	C295.532,235.857,293.651,235.877,293.571,237.148z"/>
<path fill="#F0E7E7" d="M302.212,241.043c0.322,2.499,0.024,4.769-1.024,7.065c-0.867,1.902-2.354,3.49-2.623,5.596
	c-0.092,0.726,0.79,0.988,1.31,0.751c2.229-1.019,3.371-3.801,4.175-5.982c0.918-2.49,0.888-5.164,0.36-7.726
	C304.156,239.522,302.051,239.789,302.212,241.043z"/>
<path fill="#F0E7E7" d="M307.581,122.357c5.319,4.587,12.096,6.97,18.678,9.091c5.219,1.681,11.701,2.031,15.907,5.876
	c6.131,5.606,6.678,14.59,5.635,22.227c-1.002,7.34-0.57,14.02,4.19,20.067c3.346,4.248,9.062,5.89,11.676,10.836
	c1.792,3.39,1.056,7.328-1.982,9.51c-2.527,1.815-5.319,3.007-7.367,5.435c-4.582,5.434-2.299,14.571,0.222,20.292
	c1.9,4.314,3.83,8.466,5.135,13.006c0.574,1.997,3.682,2.143,4.177,0c1.687-7.297-2.147-15.284-5.354-21.674
	c-1.624-3.236-3.113-7.789-0.219-10.653c2.235-2.212,5.312-3.272,7.292-5.792c3.297-4.194,1.647-10.652-1.521-14.36
	c-1.643-1.923-3.87-3.267-5.733-4.953c-2.631-2.38-4.47-5.332-5.651-8.682c-2.578-7.314,0.135-15.217,0.601-22.646
	c0.274-4.375,0.267-7.781-1.501-11.898c-1.392-3.24-3.899-5.836-6.722-7.875c-4.938-3.569-11.45-3.691-17.256-4.355
	c-7.193-0.823-13.896-3.53-19.689-7.831c-4.896-3.636-8.813-8.474-12.815-13.02c-0.88-0.998-2.218,0.431-1.432,1.431
	C298.167,111.885,302.262,117.769,307.581,122.357z"/>
<path fill="#F0E7E7" d="M346.253,254.428c-0.759-2.067-0.531-4.166,0.017-6.248c1.512-5.746,2.901-10.841,2.959-16.875
	c0.015-1.464-2.02-1.359-2.201,0c-0.869,6.505-4.949,11.825-6.135,18.191c-1.11,5.956,2.834,13.915,8.108,16.76
	c2.018,1.088,3.736-1.021,2.914-2.916C350.504,260.088,347.507,257.84,346.253,254.428z"/>
<path fill="#F68E1E" d="M334.855,314.592c-2.901,1.621-6.519,3.584-10.333,5.631c-5.005,2.686-10.347,5.514-14.862,7.91
	c-6.819,3.619-11.75,6.252-10.769,5.908c2.775-1.07,6.598-2.518,10.894-4.146c6.328-2.396,13.686-5.191,20.267-7.77
	c2.88-1.129,5.612-2.217,8.041-3.211C337.463,317.176,336.316,315.541,334.855,314.592z"/>
<path fill="#F68E1E" d="M346.954,279.961c0.377-0.154,26.983-16.928,22.192-15.27c-5.329,1.842-30.7,12.324-36.046,14.281
	c-0.599,0.219-0.599,0.639-0.206,1.172c1.54,2.098,9.237,6.018,11.676,7.027c1.372,0.568,2.74,1.127,4.12,1.656
	c-0.237,0.105-0.476,0.211-0.713,0.314c-1.007,0.447-2.014,0.895-3.021,1.342c-2.13,0.943-4.26,1.889-6.389,2.834
	c-0.017,0.008-0.034,0.014-0.051,0.021c-0.1,0.045-0.205,0.092-0.308,0.139c0.472,0.654,0.812,1.43,1.018,2.27
	c0.036,0.076,0.07,0.15,0.102,0.227c0.145,0.174,0.351,0.43,0.419,0.494c0.1,0.094,0.204,0.184,0.306,0.273
	c0.456,0.41,0.922,0.807,1.368,1.227c0.127,0.117,0.247,0.242,0.367,0.363c0.002,0.002,0.003,0.002,0.004,0.004l0,0
	c7.812-4.09,19.896-10.602,19.992-10.645c0.352-0.154,0.277-0.43-0.094-0.785c-1.938-1.855-12.072-5.887-13.091-6.291
	C348.052,280.396,347.502,280.178,346.954,279.961z"/>
<path fill="#FFFFFF" d="M269.412,145.938c0.83,2.148,3.622,3.466,5.658,2.458c2.022,2.021,5.647,2.287,6.837-1.15
	c0.014-0.039,0.032-0.072,0.046-0.111c1.487,0.993,3.441,1.228,4.851,0.103c1.237,0.434,2.66,0.329,3.915-0.617
	c0.126-0.096,0.256-0.184,0.385-0.276c1.48,1.281,3.764,1.613,5.475,0.284c0.138-0.107,0.281-0.205,0.421-0.308
	c1.447,0.691,3.311,0.668,4.632-0.202c0.982,0.354,2.149,0.36,3.602-0.055c2.244-0.641,3.21-3.533,2.422-5.547
	c-0.43-1.098-1.171-1.818-2.063-2.222c-0.643-0.807-1.533-1.465-2.53-1.664c-1.37-1.75-4.351-2.263-6.155-0.91
	c-1.11-0.756-2.562-1.072-3.872-0.752c-1.603-1.886-4.902-2.261-6.863-0.184c-1.282-0.997-2.983-1.377-4.457-0.5
	c-1.602-1.285-4.123-1.298-5.967,0.51c-1.662-0.713-4.06,0.017-5.1,1.797c-0.03-0.019-0.062-0.038-0.092-0.057
	c-0.196,0.535-0.34,1.069-0.46,1.603c-0.465,1.754-0.824,3.502-1.451,5.227C268.28,144.365,268.706,145.356,269.412,145.938z"/>
<path fill="#FFFFFF" d="M221.286,138.138c-0.12-0.534-0.263-1.068-0.46-1.603c-0.03,0.019-0.061,0.038-0.091,0.057
	c-1.04-1.78-3.438-2.511-5.099-1.797c-1.844-1.808-4.366-1.794-5.967-0.51c-1.473-0.877-3.174-0.497-4.457,0.5
	c-1.962-2.077-5.261-1.702-6.863,0.184c-1.31-0.319-2.762-0.004-3.873,0.752c-1.805-1.353-4.785-0.84-6.156,0.91
	c-0.997,0.199-1.887,0.856-2.53,1.664c-0.893,0.404-1.633,1.124-2.063,2.222c-0.789,2.014,0.177,4.906,2.422,5.547
	c1.452,0.415,2.619,0.41,3.602,0.055c1.321,0.87,3.184,0.893,4.631,0.202c0.139,0.104,0.283,0.201,0.421,0.308
	c1.71,1.329,3.994,0.997,5.475-0.284c0.128,0.092,0.258,0.18,0.385,0.276c1.254,0.946,2.677,1.051,3.915,0.617
	c1.409,1.125,3.363,0.89,4.851-0.103c0.014,0.039,0.033,0.073,0.046,0.111c1.189,3.437,4.815,3.17,6.837,1.15
	c2.036,1.008,4.828-0.31,5.658-2.458c0.707-0.582,1.132-1.574,0.769-2.573C222.11,141.64,221.751,139.892,221.286,138.138z"/>
<g>
</g>
<g>
</g>
<g>
</g>
<g>
</g>
<g>
</g>
<g>
</g>
</svg>
