<?xml version="1.0" encoding="utf-8"?>
<!-- Generator: Adobe Illustrator 16.0.4, SVG Export Plug-In . SVG Version: 6.00 Build 0)  -->
<!DOCTYPE svg PUBLIC "-//W3C//DTD SVG 1.1//EN" "http://www.w3.org/Graphics/SVG/1.1/DTD/svg11.dtd">
<svg version="1.1" id="Athena" xmlns="http://www.w3.org/2000/svg" xmlns:xlink="http://www.w3.org/1999/xlink" x="0px" y="0px"
	 width="490px" height="490px" viewBox="0 0 490 490" enable-background="new 0 0 490 490" xml:space="preserve">
<ellipse fill="#681A0E" cx="245" cy="244.999" rx="219.854" ry="239.14"/>
<path fill="#8E5C3A" d="M383.605,262.113c-3.858-12.535-17.536-18.215-18.324-32.79c-1.929-35.684-10.893-31.15-31.173-44.059
	c-3.199-2.036-6.2-4.426-8.925-7.399c-4.834-5.275-8.846-10.919-11.625-17.458c-0.499-1.174-0.986-2.348-1.47-3.522l-108.83-10.501
	c-9.645,1.929-17.359,6.751-26.039,9.645c-1.331,0.333-2.779,0.549-4.296,0.712c-3.466,7.445-7.496,14.239-13.752,20.287
	c-1.92,1.855-3.889,3.543-5.914,5.092c-4.898,3.746-17.99,12.845-21.366,18.272c-5.532,8.893,1.677,19.728-5.697,28.282
	c-2.033,2.358-4.51,4.287-6.533,6.65c-0.045,0.053-0.075,0.086-0.113,0.13c-0.045,0.079-0.088,0.157-0.149,0.261
	c-0.359,0.612-0.964,2.678-0.313,0.409c-0.433,1.511-0.976,2.986-1.303,4.527c-0.075,0.353-0.149,0.705-0.218,1.06
	c-0.03,0.282-0.061,0.59-0.07,0.78c-0.061,1.168-0.082,2.34-0.015,3.509c0.033,0.561,0.079,1.119,0.134,1.678
	c2.523,7.099,7.995,13.563,6.563,22.151c-1.93,14.466-10.608,11.574-4.822,27.004c3.857,13.502,5.786,19.289,5.786,32.791
	c0,17.359,3.857,18.323,11.573,29.896c7.452,8.281,17.3,13.975,24.77,22.192c7.367,8.104,7.508,22.49,17.529,28.03
	c8.148,4.504,19.327,0.89,28.114,1.856c8.671,0.956,10.603-6.749,18.313-3.857c12.538,6.751,23.146,0.964,36.648-4.822
	c13.502-6.751,14.466-10.609,31.825-6.751c10.608,1.929,27.004,8.68,36.648,0.964c11.572-8.68,1.929-24.109,12.537-34.719
	c9.645-11.573,28.933-7.715,31.826-25.075c2.894-14.466-12.537-24.11-10.608-37.612C367.21,283.331,387.463,281.403,383.605,262.113
	z"/>
<path fill="#FFEBC2" d="M154.943,183.493c-0.035-0.027-0.07-0.055-0.104-0.082c-0.672,0.981-1.38,1.966-2.123,2.965
	C153.458,185.415,154.201,184.454,154.943,183.493z"/>
<path fill="#FFEBC2" d="M354.873,207.951c-2.369-2.415-3.711-5.341-4.98-8.428c-0.585-1.422-1.273-2.799-2.002-4.157
	c-1.797-0.628-3.721-1.498-6.098-2.782c-5.645-3.051-9.678-7.62-13.07-12.946c-3.885-6.1-5.192-13.146-4.415-19.988
	c-19.98-12.891-47.471-20.855-77.82-20.855c-28.53,0-54.536,7.037-74.152,18.588c-1.666,4.547-3.909,8.878-6.732,12.81
	c-4.521,6.298-9.571,12.097-14.376,18.146c-0.487,0.629-0.983,1.265-1.502,1.918c-2.864,3.608-7.336,6.209-12.106,7.819
	c-1.133,4.133-1.724,8.388-1.724,12.732c0,39.771,49.514,72.014,110.593,72.014c61.078,0,110.592-32.242,110.592-72.014
	c0-0.494-0.013-0.986-0.028-1.479C356.299,209.091,355.56,208.649,354.873,207.951z"/>
<path fill="#FFEBC2" d="M295.086,246.815l-48.599,5.477l-48.6-5.477c-8.634,27.342-26.275,88.342,2.072,109.94
	c8.165,6.22,28.097,8.352,44.974,8.64v0.033c0.514-0.002,1.032-0.006,1.554-0.012c0.521,0.006,1.039,0.01,1.553,0.012v-0.033
	c16.877-0.288,36.809-2.42,44.974-8.64C321.361,335.157,303.72,274.157,295.086,246.815z"/>
<g>
	<path fill="#FFEBC2" d="M226.874,415.275c0.778-2.602,1.232-2.345,0.833-5.144c-3.215-22.504-4.451-40.185-2.481-58.998
		c0.057-0.539,0.119-1.078,0.187-1.616c-0.57,4.731,0.32-2.854,0.343-2.53c0.153-2.531-0.233-5.052-0.309-7.583
		c-0.165-5.59-6.148-9.206-11.111-6.376c-6.32,3.605-15.946-7.618-19.42-1.34c-3.729,6.742,2.505,43.27,1.286,50.795
		c-2.359,14.561-1.286,19.933,0.35,32.792H226.874z"/>
</g>
<path fill="#FFEBC2" d="M203.011,414.157c-5.786,0-16.074,3.857-18.646,9.645c-7.072,13.502,14.789,8.358,22.505,6.43
	c19.289-3.215,23.79-5.787,14.788-23.147"/>
<g>
	<path fill="#FFEBC2" d="M265.234,415.275c-0.778-2.602-1.232-2.345-0.833-5.144c3.216-22.504,4.451-40.185,2.481-58.998
		c-0.057-0.539-0.119-1.078-0.187-1.616c0.57,4.731-0.32-2.854-0.343-2.53c-0.153-2.531,0.234-5.052,0.309-7.583
		c0.165-5.59,6.148-9.206,11.111-6.376c6.32,3.605,15.946-7.618,19.42-1.34c3.729,6.742-2.505,43.27-1.285,50.795
		c2.358,14.561,1.285,19.933-0.351,32.792H265.234z"/>
</g>
<path fill="#FFEBC2" d="M287.286,414.157c5.787,0,16.075,3.857,18.646,9.645c7.073,13.502-14.788,8.358-22.504,6.43
	c-19.289-3.215-23.79-5.787-14.788-23.147"/>
<path fill="#FFEBC2" d="M294.018,280.952c11.117,2.689,19.963,9.027,27.925,17.032c7.713,7.755,14.296,17.311,18.534,27.444
	c1.134,0.765,2.167,1.741,3.197,2.645c2.777,2.434,4.587,6.74,5.241,10.286c1.146,6.21-1.007,15.136-8.237,16.711
	c-6.371,1.389-9.877-2.814-11.882-8.406c-2.829,3.022-8.981,1.935-9.093-3.402c-0.084-3.983,1.405-11.833,4.76-16.675
	c-3.336-6.325-7.4-12.192-11.98-17.746c-3.322-4.029-7.077-7.48-10.79-11.121c-3.368-3.306-6.97-6.275-11.224-8.348
	C285.619,287.008,289.107,279.765,294.018,280.952z"/>
<g>
	<ellipse fill="#8E5C3A" cx="291.026" cy="207.25" rx="15.432" ry="22.504"/>
	<circle fill="#FFFFFF" cx="297.67" cy="194.604" r="5.787"/>
	<circle opacity="0.5" fill="#FFFFFF" cx="301.957" cy="207.464" r="3.429"/>
	<ellipse fill="#8E5C3A" cx="205.296" cy="207.25" rx="15.432" ry="22.504"/>
	<circle fill="#FFFFFF" cx="211.94" cy="194.604" r="5.787"/>
	<circle opacity="0.5" fill="#FFFFFF" cx="216.227" cy="207.464" r="3.429"/>
	<g>
		<path fill="#F37D6B" d="M226.771,246.444c2.567,9.203,11.356,14.178,20.586,13.622c4.32-0.259,8.599-1.994,12.007-4.661
			c3.052-2.389,6.925-5.38,8.224-9.146c0.237-0.688-0.604-1.258-1.188-0.914c-3.065,1.806-5.281,4.391-8.735,5.65
			c-3.117,1.135-6.263,1.637-9.558,1.889c-7.31,0.557-14.566-1.827-19.877-6.412C227.127,245.52,226.342,244.907,226.771,246.444
			L226.771,246.444z"/>
	</g>
	<path fill="#F8B3AD" d="M252.442,223.05c0.001-0.052,0.005-0.102,0.005-0.154c0-3.787-2.11-6.857-4.715-6.857
		c-2.604,0-4.716,3.07-4.716,6.857c0,0.053,0.005,0.104,0.005,0.154c-5.251,1.322-9.006,4.778-9.006,8.848
		c0,5.208,6.142,9.431,13.717,9.431c7.576,0,13.717-4.223,13.717-9.431C261.449,227.828,257.694,224.372,252.442,223.05z"/>
</g>
<g>
	<path fill="#8E5C3A" d="M179.658,167.885c-6.561,1.85-12.695,5.164-16.735,10.794c-3.784,5.272-2.183,12.719,0.407,18.018
		c2.219,4.542,5.254,9.633,0.918,13.931c-4.269,4.229-10.396,5.646-13.575,11.144c-3.663,6.335-0.753,13.957,3.235,19.233
		c3.641,4.817,7.854,10.651,8.338,16.901c0.127,1.645-0.152,2.176-0.764,2.901c-1.172,1.391-2.695,2.493-4.092,3.641
		c-4.638,3.808-7.989,8.356-10.285,13.902c2.767,0.374,5.533,0.748,8.299,1.122c-0.234-8.056-1.978-15.585-4.729-23.13
		c-2.692-7.382-5.738-14.534-7.175-22.307c-0.94,1.656-1.881,3.312-2.82,4.968c7.634-1.239,11.987,9.793,13.326,15.512
		c2.267-1.319,4.534-2.64,6.801-3.959c-4.367-3.641-7.652-8.266-9.536-13.643c-2.282,1.329-4.563,2.657-6.846,3.986
		c6.107,5.243,14.119,11.689,15.203,20.249c2.326-0.964,4.652-1.928,6.979-2.891c-10.621-10.035-22.156-30.56-9.754-43.513
		c-2.192-1.276-4.384-2.552-6.575-3.828c-1.06,3.192-2.428,5.978-4.403,8.718c2.25,1.314,4.499,2.63,6.749,3.944
		c2.693-6.179,6.209-11.77,10.926-16.604c-2.194-0.909-4.389-1.817-6.583-2.727c0.212,1.626,0.848,3.196,0.965,4.821
		c0.357,4.931,7.495,5.003,7.711,0c0.126-2.933,0.93-5.884-0.124-8.743c-2.356,0.993-4.715,1.987-7.073,2.981
		c0.663,1.119,1.297,2.225,1.695,3.464c0.292,0.91,0.156,0.458,0.167,0.862c-0.011-0.427,0.007-0.428,0.562-1.091
		c0.542-0.646,1.135-0.478,1.302-0.451c-0.194-0.03-1.388-0.44-0.519-0.072c-0.414-0.176-0.8-0.411-1.18-0.649
		c-0.832-0.522-1.618-1.522-1.905-2.952c0.185,0.916,0.186-1.073,0.047-0.288c0.108-0.615,0.184-0.739,0.407-1.17
		c0.629-1.208,1.736-2.172,2.819-2.962c-1.792-0.471-3.585-0.94-5.377-1.41c1.702,2.87,3.09,5.13,2.474,8.538
		c2.409-0.315,4.818-0.63,7.228-0.945c-2.465-4.431-2.392-9.465-2.414-14.399c-1.643,1.252-3.286,2.504-4.929,3.755
		c0.088,0.036,0.174,0.071,0.262,0.107c-0.775-0.597-1.551-1.193-2.326-1.789c-0.008-0.012,0.178,1.148,0.187,1.784
		c0.063,4.998,7.778,5.005,7.755,0c-0.015-3.12-0.161-5.846-1.525-8.689c-1.23-2.565-5.368-2.448-6.633,0
		c-1.191,2.305-2.626,4.471-3.817,6.775c-2.248,4.352,3.894,7.943,6.552,3.829c1.646-2.548,3.127-5.195,4.773-7.744
		c-2.277-0.959-4.554-1.919-6.831-2.88c-1.092,3.073-2.862,5.92-4.179,8.908c-1.739,3.949,3.634,7.366,5.921,3.461
		c1.993-3.404,4.092-6.661,5.466-10.382c1.54-4.17-4.604-6.235-6.831-2.88c-1.678,2.529-3.192,5.159-4.871,7.688
		c2.184,1.276,4.368,2.553,6.552,3.829c1.218-2.289,2.68-4.438,3.898-6.727c-2.211,0-4.422,0-6.633,0
		c0.671,1.444,0.407,3.275,0.403,4.812c2.585,0,5.17,0,7.755,0c-0.017-3.246-0.54-6.247-3.807-7.611
		c-2.395-1-4.922,1.469-4.929,3.754c-0.021,6.372,0.2,12.693,3.372,18.392c1.567,2.815,6.619,2.499,7.229-0.945
		c1.007-5.696-0.394-9.729-3.313-14.607c-1.012-1.692-3.636-2.69-5.377-1.411c-3.842,2.823-7.46,6.735-7.042,11.869
		c0.32,3.915,2.726,7.167,5.999,9.205c2.916,1.814,6.884,2.243,9.534-0.244c3.635-3.408,0.786-9.254-1.237-12.638
		c-2.188-3.659-8.646-1.237-7.073,2.982c0.771,2.068-0.039,4.536-0.124,6.686c2.57,0,5.141,0,7.711,0
		c-0.128-1.671-0.762-3.212-0.964-4.821c-0.395-3.139-3.989-5.359-6.583-2.727c-5.181,5.259-9.24,11.368-12.221,18.113
		c-2.036,4.612,3.761,8.05,6.749,3.944c2.375-3.262,3.957-6.763,5.24-10.57c1.277-3.785-3.911-6.583-6.575-3.827
		c-15.822,16.365-4.582,41.504,9.536,54.857c2.32,2.195,7.455,0.886,6.979-2.891c-1.412-11.205-9.405-19.011-17.587-26.042
		c-2.851-2.449-8.325-0.197-6.848,3.985c2.354,6.659,6.216,12.689,11.682,17.219c3.077,2.55,7.79,0.211,6.802-3.959
		c-2.59-10.922-10.598-23.216-23.321-21.137c-2.302,0.376-3.188,2.992-2.82,4.969c2.758,14.853,11.387,27.83,11.242,43.288
		c-0.038,3.979,6.063,6.073,7.873,2.133c2.156-4.696,5.026-8.184,8.991-11.44c3.023-2.485,5.999-5.147,6.729-9.203
		c1.082-6.016-1.935-12.079-4.535-17.301c-2.527-5.076-9.222-9.816-8.311-16.046c0.363-2.479,2.028-3.707,4.021-5.018
		c2.525-1.66,5.092-3.146,7.474-5.023c5.241-4.131,6.657-10.942,4.783-17.135c-1.491-4.925-5.655-9.147-5.796-14.429
		c-0.181-6.785,7.588-12.074,12.789-15.009C182.664,170.047,181.521,167.36,179.658,167.885L179.658,167.885z"/>
</g>
<path fill="#8E5C3A" d="M244.15,140.597c-4.822-11.573-29.897-4.822-38.577-2.894c-10.872,2.289-20.57,6.017-29.141,10.919
	c-0.163,0.417-0.323,0.836-0.497,1.251c-4.257,10.176-8.633,19.293-16.764,27.154c-1.924,1.859-3.896,3.553-5.925,5.104
	c-3.165,6.075-7.7,10.704-13.896,14.318c-1.183,0.689-2.384,1.352-3.545,2.079c-0.521,0.326-1.045,0.654-1.549,1.008
	c-0.886,2.325-1.703,4.688-2.452,7.086c0.125,0.949,0.279,2.138,0.344,2.628c-0.008-0.06-0.015-0.12-0.022-0.181
	c0.067,0.523,0.063,0.499,0.022,0.181c0.239,1.913,0.371,3.762,0.13,5.686c-0.601,4.793-2.276,8.884-5.188,12.621
	c-1.041,7.197-1.565,14.567-1.565,22.02c0,27.004,3.858,59.794,19.289,83.903c6.75,9.645,10.608,9.645,14.466-4.821
	c4.822-12.537-2.893-21.218-3.857-32.79c-0.965-11.574,8.68-17.359,8.68-27.969c0-12.537-17.359-18.323-17.359-29.896
	c0-13.502,14.466-15.431,13.501-29.896c-0.964-11.574-11.572-19.289,2.894-27.969c0.85-0.51,1.79-0.807,2.793-0.977
	c0.71-2.432,1.734-4.763,3.312-6.874c4.897-6.551,6.827-9.335,13.975-13.753c3.441-2.127,7.515-3.534,11.193-4.933
	c3.555-1.353,7.312-2.167,11.054-2.8c12.683-2.146,25.497-3.374,38.354-3.593C244.827,145.534,245.076,143.374,244.15,140.597z"/>
<g>
	<path fill="#844824" d="M198.237,171.412c-12.293,3.352-31.896,6.496-30.666,23.57c0.402,5.58,3.031,11.097-1.118,15.841
		c-3.209,3.67-7.558,6.141-10.934,9.647c-3.68,3.82-5.309,8.68-3.869,13.871c1.715,6.19,6.799,10.57,11.082,15.006
		c4.609,4.776,5.662,10.214,1.742,15.887c-3.67,5.31-8.757,9.429-9.646,16.217c-0.36,2.747-0.382,5.317,0.452,7.979
		c0.907,2.897,2.448,5.4,2.977,8.385c0.229,1.293,2.309,1.57,2.86,0.374c1.45-3.151,1.205-6.26-0.005-9.433
		c-1.515-3.97-1.945-7.358,0.191-11.167c3.229-5.761,9.251-9.428,11.624-15.802c2.462-6.607-0.044-12.143-4.436-17.177
		c-3.363-3.855-9.207-8.053-9.742-13.583c-0.394-4.068,4.217-7.043,6.975-9.279c3.921-3.18,8.005-6.486,9.825-11.369
		c1.098-2.945,0.996-5.966,0.436-9.019c-0.663-3.606-2.748-6.911-2.171-10.693c1.187-7.765,9.912-11.992,16.319-14.752
		c2.789-1.201,5.517-2.541,8.318-3.722C198.916,171.996,198.756,171.27,198.237,171.412L198.237,171.412z"/>
</g>
<path fill="#FFFFFF" d="M192.65,345.054c-7.716,15.432-10.609,50.15-9.645,66.546c14.466-0.965,21.217,9.645,33.755,9.645
	c10.608,0.965,20.252-5.787,32.79-3.858c16.395,1.93,20.253-5.786,34.719-6.751c11.573-0.964,20.253,5.787,33.755,2.894
	c-2.894-10.608-6.751-21.218-10.608-31.827c-2.894-11.571-2.894-26.038-6.751-35.683c-9.645-24.109-57.865-1.929-79.083-14.467"/>
<g>
	<path fill="#844824" d="M157.615,277.439c-2.861,9.274,1.154,18.713-1.672,27.883c-2.414,7.828-6.654,14.788-4.077,23.233
		c1.931,6.328,7.904,9.521,11.979,14.251c2.703,3.139,3.741,7.241,1.927,11.024c-1.701,3.543-5.567,6.505-6.246,10.443
		c-0.218,1.272,1.047,2.598,2.325,1.787c2.926-1.855,5.263-5.55,7.225-8.385c2.104-3.042,3.188-6.706,2.579-10.394
		c-1.257-7.617-6.837-11.51-11.615-16.869c-5.758-6.456-0.949-15.725,1.158-22.646c3.141-10.316-1.855-19.795-1.821-30.09
		C159.38,276.647,157.911,276.482,157.615,277.439L157.615,277.439z"/>
</g>
<path fill="#FFEBC2" d="M198.283,292.993c-8.044,8.13-18.039,12.433-29.006,15.117c-10.624,2.601-22.207,3.303-33.072,1.698
	c-1.24,0.576-2.612,0.957-3.916,1.373c-3.519,1.121-8.141,0.446-11.516-0.825c-5.908-2.225-12.441-8.677-10.057-15.684
	c2.102-6.172,7.512-7.005,13.335-5.833c-1.127-3.984,2.982-8.69,7.608-6.03c3.455,1.985,9.409,7.315,11.822,12.688
	c7.139,0.409,14.263-0.041,21.385-1.095c5.165-0.765,10.06-2.197,15.096-3.496c4.568-1.178,8.972-2.729,12.943-5.301
	C197.436,282.674,201.836,289.401,198.283,292.993z"/>
<polygon fill="#F8C036" points="126.862,296.483 126.862,204.568 136.506,183.798 124.932,134.829 124.932,130.754 124.45,132.792 
	123.969,130.754 123.969,134.829 112.395,183.798 122.04,204.571 122.04,295.963 122.04,319.248 122.04,441.487 122.04,453.835 
	126.862,453.835 126.862,437.879 126.862,352.264 126.862,316.114 "/>
<path fill="#8E5C3A" d="M353.968,198.846c-0.721-0.533-1.444-1.062-2.18-1.574c-2.974-2.064-6.06-3.946-9.122-5.872
	c-2.949-1.855-5.933-3.873-8.624-6.192c-1.099-0.702-2.182-1.432-3.229-2.228c0.067,0.459,0.127,0.919,0.175,1.378
	c5.991,7.099-1.549,14.076-2.354,23.75c-0.965,14.466,13.501,16.395,13.501,29.896c0,11.573-17.359,17.359-17.359,29.896
	c0,10.609,9.645,16.395,8.68,27.969c-0.964,11.572-8.68,20.253-3.857,32.79c3.857,14.466,7.716,14.466,14.467,4.821
	c15.431-24.109,19.288-56.899,19.288-83.903c0-17.624-2.883-34.801-8.814-50.27C354.348,199.154,354.159,198.998,353.968,198.846z"
	/>
<g>
	<path fill="#FFCC5C" d="M303.559,280.438c-51.115,21.218-114.767-2.893-114.767-2.893l-11.573,27.968
		c1.118,2.98,3.244,11.291,5.432,20.364c7.718,1.221,15.546,1.054,23.43-0.276c5.589-0.942,11.037-2.199,16.664-2.874
		c2.532-0.303,5.149-0.356,7.647-0.724c1.98-0.292,4.02-0.793,6.003-0.385c1.207,0.247,1.143,1.78,0.311,2.378
		c-2.086,1.499-4.87,1.689-7.126,2.898c-2.418,1.294-5.191,2.157-7.769,3.087c-5.6,2.02-11.827,2.841-17.729,3.478
		c-6.519,0.702-13.463,0.688-19.861-0.99c2.918,12.377,5.536,24.158,5.536,24.158h115.73l10.608-63.651L303.559,280.438z
		 M303.059,332.982c-2.455,2.645-7.653,1.952-10.886,1.538c-4.303-0.551-8.607-1.23-12.788-2.412
		c-6.92-1.953-16.636-4.701-20.304-11.499c-0.558-1.033,0.349-2.005,1.41-1.834c3.609,0.583,6.806,2.275,10.245,3.466
		c3.789,1.311,7.545,2.589,11.469,3.45c3.947,0.864,7.891,1.565,11.917,1.944c2.789,0.263,6.934,0.277,8.937,2.487
		C303.819,330.962,303.837,332.145,303.059,332.982z"/>
	<path fill="#F8C036" d="M204.082,333.459c5.901-0.637,12.129-1.458,17.729-3.478c2.577-0.93,5.351-1.793,7.769-3.087
		c2.256-1.209,5.04-1.399,7.126-2.898c0.832-0.598,0.896-2.131-0.311-2.378c-1.983-0.408-4.022,0.093-6.003,0.385
		c-2.498,0.367-5.115,0.421-7.647,0.724c-5.627,0.675-11.075,1.932-16.664,2.874c-7.884,1.33-15.712,1.497-23.43,0.276
		c0.524,2.175,1.053,4.392,1.57,6.592C190.619,334.147,197.563,334.161,204.082,333.459z"/>
	<path fill="#F8C036" d="M294.122,327.636c-4.026-0.379-7.97-1.08-11.917-1.944c-3.924-0.861-7.68-2.14-11.469-3.45
		c-3.439-1.19-6.636-2.883-10.245-3.466c-1.062-0.171-1.968,0.801-1.41,1.834c3.668,6.798,13.384,9.546,20.304,11.499
		c4.181,1.182,8.485,1.861,12.788,2.412c3.232,0.414,8.431,1.106,10.886-1.538c0.778-0.838,0.761-2.021,0-2.859
		C301.056,327.913,296.911,327.898,294.122,327.636z"/>
</g>
<path fill="#8E5C3A" d="M307.887,146.181c-7.41-3.708-15.594-6.585-24.581-8.478c-8.68-1.928-49.186-12.537-54.008-0.964
	c-1.531,4.593,2.561,8.121,8.532,10.648c2.499-0.104,4.999-0.183,7.502-0.21c10.938-0.119,21.957,0.234,32.809,1.688
	c6.943,0.931,14.156,1.586,20.949,3.5c4.452,1.254,9.212,2.7,13.236,5.1C310.778,153.716,309.312,149.958,307.887,146.181z"/>
<ellipse fill="#F8C036" cx="340.538" cy="338.945" rx="53.676" ry="55.937"/>
<g>
	<path fill="#FFCC5C" d="M340.538,393.596c-28.889,0-52.391-24.516-52.391-54.65c0-30.134,23.502-54.65,52.391-54.65
		c28.888,0,52.39,24.517,52.39,54.65C392.928,369.08,369.426,393.596,340.538,393.596z M340.538,289.439
		c-26.053,0-47.247,22.208-47.247,49.506s21.194,49.507,47.247,49.507c26.052,0,47.246-22.209,47.246-49.507
		S366.59,289.439,340.538,289.439z"/>
</g>
<g>
	<ellipse fill="#FFCC5C" cx="345.993" cy="339.268" rx="17.276" ry="18.004"/>
</g>
<g>
	<path fill="#8E5C3A" d="M322.277,174.284c1.932,3.148,3.262,6.788,4.431,10.283c1.177,3.523,2.125,7.452,0.251,10.874
		c-1.631,2.976-4.286,5.362-6.334,8.043c-2.424,3.177-3.635,6.338-3.953,10.32c-0.491,6.15,2.443,11.363,7.067,15.16
		c1.907,1.566,3.879,3.013,5.583,4.809c2.183,2.298,3.211,5.678,3.934,8.684c0.465,1.933,0.197,2.637-0.859,3.559
		c-1.138,0.994-3.713,2.058-5.322,3.053c-5.304,3.277-9.666,9.124-11.689,14.969c-2.121,6.127,0.528,12.354,6.168,15.334
		c5.792,3.062,12.745,2.749,18.619,0.251c8.159-3.47,12.618-12.573,14.993-20.579c1.337-4.506,1.951-9.224,2.127-13.911
		c0.155-4.122,0.246-8.422-1.429-12.245c-1.079-2.465-4.516-0.97-4.651,1.26c-0.322,5.269,0.271,10.312-0.711,15.59
		c-1.048,5.63-2.792,11.104-5.879,15.959c-2.485,3.906-6.438,7.472-11.198,8.068c-4.708,0.588-12.246-0.808-10.803-6.992
		c1.267-5.426,6.108-9.82,10.828-12.317c4.424-2.34,7.76-5.08,7.97-10.451c0.239-6.179-3.284-13.157-7.636-17.356
		c-3.19-3.079-8.332-5.511-8.918-10.394c-1.017-8.485,8.176-13.11,10.076-20.86c2.181-8.896-4.07-17.358-9.875-23.26
		C323.655,170.697,321.215,172.551,322.277,174.284L322.277,174.284z"/>
</g>
<g>
	<path fill="#8E5C3A" d="M326.276,202.856c-4.461,4.383-5.884,12.991,1.513,15.064c1.692,0.474,3.416-0.565,3.907-2.219
		c0.552-1.854,1.034-3.734,1.208-5.667c0.336-3.727-5.734-4.504-6.497-0.879c-0.807,3.832-1.181,7.577-1.222,11.487
		c-0.042,4.115,5.448,4.396,6.771,0.917c1.897-4.986,2.218-10.165,1.076-15.366c-0.632-2.872-5.222-3.655-6.513-0.851
		c-3.984,8.648,0.134,18.455,7.963,23.312c2.45,1.521,5.486-0.471,5.56-3.189c0.115-4.25,0.37-7.538-1.437-11.529
		c-1.575-3.483-7.01-1.632-6.956,1.884c0.069,4.501,0.947,17.455,8.588,15.189c-1.412-0.574-2.822-1.149-4.234-1.723
		c1.771,2.807,3.041,5.878,4.812,8.686c2.593,4.11,8.745,0.502,6.496-3.798c-1.202-2.299-2.646-4.457-3.849-6.755
		c-2.013-3.849-8.008-1.165-6.894,2.905c2.509,9.163,5.975,19.056-1.018,27.134c2.147,1.25,4.295,2.5,6.442,3.75
		c0.202-1.132,1.141-2.282,1.897-3.126c2.655-2.954,0.049-7.172-3.744-6.433c-6.203,1.211-11.608,4.378-16.122,8.748
		c1.786,1.786,3.571,3.571,5.357,5.357c1.932-1.927,3.863-3.852,5.793-5.78c-1.791-1.789-3.58-3.579-5.37-5.37
		c-2.499,2.588-4.411,5.494-6.375,8.486c-1.704,2.599,1.167,6.868,4.281,5.57c11.241-4.685,20.955-14.118,21.955-26.802
		c0.324-4.106-6.617-5.075-7.218-0.978c-1.39,9.472-7.997,16.832-16.753,20.468c1.428,1.856,2.854,3.713,4.281,5.569
		c1.619-2.46,3.14-4.816,5.198-6.944c3.406-3.518-1.903-8.84-5.37-5.37c-1.929,1.931-3.854,3.862-5.78,5.793
		c-3.456,3.464,1.855,8.766,5.357,5.357c3.653-3.556,7.782-5.774,12.811-6.684c-1.248-2.144-2.496-4.287-3.744-6.432
		c-1.605,1.736-3.483,4.121-3.889,6.519c-0.576,3.408,3.686,6.996,6.441,3.75c4.164-4.905,6.352-10.366,6.4-16.823
		c0.046-6.039-1.969-12.015-3.56-17.766c-2.298,0.969-4.596,1.938-6.894,2.906c1.208,2.295,2.658,4.45,3.866,6.746
		c2.165-1.267,4.33-2.531,6.496-3.798c-1.777-2.802-3.055-5.871-4.832-8.673c-0.889-1.401-2.585-2.217-4.234-1.723
		c1.807,1.174,2.564,1.333,2.273,0.477c-0.363-0.586-0.497-1.332-0.68-1.985c-0.585-2.097-0.684-4.287-0.722-6.45
		c-2.318,0.628-4.639,1.257-6.956,1.885c1.132,2.486,0.53,5.125,0.492,7.761c1.854-1.064,3.707-2.128,5.56-3.191
		c-4.211-2.541-7.758-8.358-5.539-13.335c-2.171-0.283-4.342-0.567-6.513-0.851c0.928,3.987,0.524,7.804-0.853,11.638
		c2.257,0.306,4.515,0.611,6.771,0.916c-0.03-3.299,0.135-6.474,0.707-9.729c-2.166-0.294-4.332-0.586-6.498-0.88
		c-0.074,1.326-0.46,2.675-0.719,3.979c1.302-0.74,2.604-1.479,3.907-2.22c-2.599-0.475-1.704-4.55-0.416-6.152
		C330.616,203.705,328.13,201.036,326.276,202.856L326.276,202.856z"/>
</g>
<g>
	<path fill="#8E5C3A" d="M201.602,156.772c-4.45,3.347-8.408,6.515-13.632,8.689c-5.027,2.093-10.256,3.663-15.123,6.143
		c-4.711,2.4-8.88,6.125-11.188,10.938c-1.558,3.247-2.267,6.647-2.722,10.196c-0.513,4.012-0.936,9.298,1.815,12.547
		c1.224,1.447,3.536,0.862,4.445-0.573c2.049-3.236,1.051-7.979,1.569-11.666c0.395-2.806,1.198-5.487,2.55-7.976
		c2.185-4.022,6.126-6.338,10.145-8.223c8.854-4.153,21.182-7.808,24.155-18.527C203.911,157.257,202.607,156.017,201.602,156.772
		L201.602,156.772z"/>
</g>
<path fill="#FFCC5C" d="M204.813,151.968c0.244-0.174,0.492-0.345,0.747-0.509c11.842-7.632,28.133-8.428,41.761-7.029
	c7.637,0.784,15.383,1.866,22.73,4.179c4.173,1.313,8.515,2.839,12.45,4.965c16.259-11.648,26.844-30.614,26.844-52.036
	c0-4.513-0.481-8.914-1.376-13.163c-0.077-0.074-0.157-0.146-0.233-0.221c-0.829-0.71-1.639-1.44-2.432-2.188
	c-1.284,0.807-3.182,0.815-4.302-0.776c-2.076-2.952-4.023-5.234-4.838-8.454c-1.14-1.079-2.156-2.31-2.998-3.722
	c-3.257-5.464-4.023-11.894-4.129-18.152c-11.568-10.823-27.157-17.458-44.309-17.458c-15.002,0-28.808,5.079-39.774,13.594
	c-0.018,1.097-0.114,2.208-0.289,3.319c-2.92,18.609-12.234,35.287-24.515,49.309C180.784,123.24,190.291,140.626,204.813,151.968z"
	/>
<g>
	<path fill="#8E5C3A" d="M213.313,155.141c-3.491,4.777-9.427,7.075-14.692,9.331c-5.903,2.53-12.044,4.46-17.933,7.031
		c-5.504,2.403-10.582,5.647-14.072,10.626c-3.146,4.486-5.976,15.129-0.506,18.838c0.974,0.661,2.764,0.512,3.516-0.453
		c2.063-2.651,1.199-5.754,1.629-8.871c0.323-2.341,1.193-4.629,2.687-6.477c3.376-4.175,8.67-6.558,13.506-8.58
		c11.072-4.631,22.994-8.27,28.902-19.671C217.411,154.866,214.633,153.335,213.313,155.141L213.313,155.141z"/>
</g>
<g>
	<path fill="#8E5C3A" d="M281.08,153.363c-2.063,3.729-2.575,6.895-0.866,10.854c1.547,3.585,6.095,5.882,9.253,7.736
		c6.287,3.69,13.241,6.06,19.883,9.008c4.707,2.089,8.649,4.363,11.012,8.701c1.375,2.524,1.914,5.497,2.387,8.314
		c0.724,4.313,0.016,9.644,2.807,13.208c1.316,1.681,3.657,0.743,4.694-0.604c2.492-3.237,1.486-9.198,0.991-13.006
		c-0.461-3.544-1.269-6.936-2.713-10.212c-2.195-4.982-6.038-8.697-10.761-11.311c-5.392-2.983-11.412-4.791-17.067-7.196
		c-3.828-1.627-7.547-3.472-11.128-5.59c-3.671-2.169-6.114-4.638-5.771-9.166C283.911,152.628,281.759,152.137,281.08,153.363
		L281.08,153.363z"/>
</g>
<g>
	<path fill="#FFCC5C" d="M213.971,161.337c9.882-3.021,20.156-4.596,30.537-4.596c8.234,0,16.399,0.998,24.354,2.915
		c22.026,3.599,43.018,12.274,61.153,25.268c0.358-4.545,0.547-9.164,0.547-13.847c0-39.775-13.211-75.119-33.677-97.521
		c2.044,8.102,3.193,16.816,3.27,25.903c-16.938-8.614-35.54-13.238-54.454-13.238c-19.393,0-38.45,4.855-55.729,13.89
		c0.025-9.319,1.183-18.257,3.271-26.55c-20.465,22.401-33.673,57.744-33.673,97.515c0,5.004,0.22,9.934,0.63,14.78
		C176.249,174.088,194.604,165.731,213.971,161.337z"/>
	<path fill="#F8C036" d="M245.067,48.468c19.481,0,37.439,9.352,51.818,25.088c-7.67-30.403-27.971-52.133-51.818-52.133
		c-23.85,0-44.153,21.732-51.823,52.139C207.624,57.822,225.582,48.468,245.067,48.468z"/>
	<path fill="#FFCC5C" d="M245.701,86.221c18.914,0,37.516,4.624,54.454,13.238c-0.076-9.087-1.226-17.801-3.27-25.903
		c-14.379-15.736-32.337-25.088-51.818-25.088c-19.485,0-37.443,9.354-51.823,25.093c-2.089,8.293-3.246,17.23-3.271,26.55
		C207.251,91.077,226.309,86.221,245.701,86.221z"/>
</g>
<g>
	<path fill="#FFFFFF" d="M314.562,140.539c2.439,0.008,4.879,0.026,7.318,0.063c-0.224-1.135-0.458-2.266-0.7-3.392
		c-2.34-10.862-6.14-21.199-11.178-31.092c-9.741-19.126-24.457-35.001-42.658-46.312c-0.817-0.509-1.812,0.729-1.043,1.353
		c15.702,12.75,27.426,30.103,36.367,48.089c4.592,9.237,8.314,19.042,11.238,28.929
		C314.138,138.961,314.346,139.751,314.562,140.539z"/>
	<path fill="#FFFFFF" d="M322.91,146.543c-2.281-0.041-4.564-0.065-6.848-0.077c0.558,2.388,1.081,4.783,1.6,7.18
		c0.447,2.067,0.655,4.26,0.878,6.458c0.703,0.085,1.406,0.168,2.108,0.258c1.175,0.152,2.361,0.294,3.548,0.45
		c-0.152-2.38-0.454-4.76-0.558-6.985C323.527,151.393,323.263,148.963,322.91,146.543z"/>
</g>
<g>
	<path fill="#FFFFFF" d="M355.812,343.584c0.1,0.84,0.116,1.626,0.278,2.367h3.761c1.488-3.03,0.278-8.303-0.575-10.775
		c-1.737-5.033-5.207-7.948-10.138-9.36c-1.081-0.311-1.591,1.145-0.731,1.734c3.018,2.069,5.059,6.498,6.203,9.816
		C355.305,339.377,355.562,341.485,355.812,343.584z"/>
</g>
<g>
	<path fill="#FFFFFF" d="M379.258,330.917c1.811-0.117,3.622-0.2,5.436-0.258c-0.423-3.557-1.373-7.021-2.716-10.46
		c-2.147-5.499-5.343-10.443-9.005-15.045c-1.95-2.451-4.303-4.594-6.721-6.574c-2.229-1.823-4.828-2.952-7.296-4.404
		c-0.812-0.478-1.761,0.688-1.022,1.325c3.621,3.133,6.929,7.445,9.814,11.282c3.302,4.389,6.202,8.765,8.475,13.785
		C377.713,323.859,378.664,327.359,379.258,330.917z"/>
	<path fill="#FFFFFF" d="M379.905,336.802c0.044,2.101-0.218,4.188-0.641,6.248c-0.448,2.184-1.353,4.613-1.538,6.874
		c0.546-0.09,1.072-0.178,1.549-0.286c0.849-0.194,1.697-0.393,2.544-0.597c2.117-3.404,2.759-8.188,3.025-11.788
		c0.017-0.228,0.027-0.453,0.039-0.681C383.224,336.624,381.564,336.702,379.905,336.802z"/>
</g>
<g>
	<path fill="#F37D6B" d="M234.117,253.236c2.078,0.349,3.951,0.482,6.046,0.321c2.766-0.213,3.973,0.932,5.347,3.254
		c1.301,2.196,4.818,0.108,3.4-1.988c-1.614-2.387-3.504-4.064-6.428-4.379c-2.727-0.294-5.38,1.243-8.132,1.065
		C233.368,251.445,233.137,253.071,234.117,253.236L234.117,253.236z"/>
</g>
<g>
	<path fill="#F37D6B" d="M246.403,254.923c2.192-1.172,4.101-1.478,6.517-0.895c1.818,0.438,3.381,1.563,5.182,0.679
		c0.59-0.29,0.733-1.101,0.429-1.637c-1.187-2.083-4.943-2.354-7.14-2.535c-2.703-0.223-4.852,0.914-6.286,3.088
		C244.555,254.458,245.607,255.348,246.403,254.923L246.403,254.923z"/>
</g>
<g>
	<path fill="#F37D6B" d="M235.167,256.064c1.039,2.544,1.548,3.97,3.932,5.599c2.134,1.459,4.985,1.92,7.511,1.78
		c3.804-0.21,10.84-3.686,9.864-8.363c-0.128-0.613-0.849-0.979-1.428-0.811c-1.536,0.446-2.057,1.68-3.308,2.608
		c-1.52,1.129-3.101,1.937-4.955,2.335c-3.343,0.716-7.776-1.733-10.059-4.056C236.112,254.536,234.8,255.168,235.167,256.064
		L235.167,256.064z"/>
</g>
<g>
	<path fill="#844824" d="M305.215,178.095c2.665,3.288,6.351,5.755,9.805,8.15c3.661,2.535,5.684,5.318,5.403,9.877
		c-0.384,6.26-4.439,11.604-5.997,17.543c-1.764,6.732,1.774,11.319,5.542,16.46c3.544,4.835,7.997,9.167,8.757,15.404
		c0.4,3.285-2.971,7.269-4.939,9.592c-5.735,6.774-9.996,16.03-0.786,22.023c1.56,1.016,3.55-0.993,2.55-2.549
		c-2.188-3.406-3.892-6.705-1.106-10.225c2.662-3.365,5.956-6.147,8.61-9.498c3.396-4.289,3.765-9.112,2.34-14.274
		c-1.729-6.26-6.678-10.647-11.25-14.894c-5.156-4.79-3.602-9.867-1.252-15.595c2.333-5.688,4.463-11.284,3.216-17.516
		c-0.827-4.138-4.382-6.659-7.794-8.488c-4.267-2.286-8.319-3.712-11.655-7.454C305.769,175.657,304.403,177.093,305.215,178.095
		L305.215,178.095z"/>
</g>
<g>
	<path fill="#844824" d="M331.422,204.625c-3.665,13.676,11.247,20.733,14.598,32.329c2.386,8.258-6.17,13.19-10.395,18.796
		c-2.58,3.424-3.255,7.316-1.856,11.383c1.421,4.132,5.771,6.245,8.684,9.179c0.307,0.31,0.833,0.078,0.84-0.348
		c0.077-4.151-3.926-6.387-5.178-10.028c-1.447-4.21,2.63-7.604,5.111-10.35c4.605-5.102,8.287-11.497,6.7-18.576
		c-2.73-12.179-18.922-18.603-17.156-32.201C332.87,204.025,331.617,203.898,331.422,204.625L331.422,204.625z"/>
</g>
<g>
	<path fill="#844824" d="M354.052,210.04c2.429,6.517,5.308,13.361,5.483,20.401c0.181,7.185-5.877,13.01-7.449,19.834
		c-1.131,4.907,0.763,8.071,3.977,11.524c4.78,5.136,5.309,11.45,0.156,16.438c-1.113,1.077,0.02,3.349,1.59,2.733
		c5.853-2.299,7.39-8.661,5.992-14.339c-0.683-2.776-2.397-5.229-4.225-7.37c-1.855-2.177-3.625-3.538-3.539-6.62
		c0.105-3.761,2.349-7.568,3.816-10.933c1.442-3.305,2.287-6.714,2.237-10.325c-0.104-7.623-4.475-14.814-7.429-21.601
		C354.512,209.438,353.92,209.687,354.052,210.04L354.052,210.04z"/>
</g>
<g>
	<path fill="#844824" d="M142.215,218.096c-0.486,6.289-1.431,12.123,1.563,17.925c3.549,6.877,11.878,15.07,5.589,23.101
		c-3.549,4.532-8.895,6.946-10.318,12.977c-0.731,3.101-0.148,6.402,1.375,9.154c0.779,1.409,1.92,2.661,2.984,3.854
		c1.396,1.562,2.598,3.391,4.137,4.793c0.539,0.491,1.636,0.202,1.562-0.646c-0.28-3.18-2.812-5.819-4.478-8.42
		c-2.04-3.188-2.512-7.069-0.637-10.423c1.332-2.381,3.824-4.107,5.818-5.896c2.228-1.998,3.921-4.196,5.041-6.977
		c2.742-6.8-1.416-14.764-5.684-19.878c-2.238-2.683-4.568-5.046-5.621-8.46c-1.081-3.51-0.575-7.495-0.523-11.104
		C143.031,217.568,142.255,217.582,142.215,218.096L142.215,218.096z"/>
</g>
<g>
	<path fill="#844824" d="M143.919,324.402c0.099,3.565-0.878,7.013-1.22,10.549c-0.388,4.016,1.457,7.462,3.682,10.655
		c2.234,3.209,4.669,6.15,5.37,10.096c0.571,3.209-0.924,7.686,1.072,10.4c0.516,0.701,1.365,0.689,1.883,0
		c1.791-2.386,1.387-7.457,1.256-10.385c-0.15-3.368-1.554-6.276-3.401-9.035c-2.575-3.849-6.392-6.742-6.514-11.731
		c-0.092-3.754,0.351-7.023-0.47-10.773C145.372,323.242,143.894,323.457,143.919,324.402L143.919,324.402z"/>
</g>
<g>
</g>
<g>
</g>
<g>
</g>
<g>
</g>
<g>
</g>
<g>
</g>
</svg>
