<?xml version="1.0" encoding="utf-8"?>
<!-- Generator: Adobe Illustrator 16.0.4, SVG Export Plug-In . SVG Version: 6.00 Build 0)  -->
<!DOCTYPE svg PUBLIC "-//W3C//DTD SVG 1.1//EN" "http://www.w3.org/Graphics/SVG/1.1/DTD/svg11.dtd">
<svg version="1.1" id="Artemis" xmlns="http://www.w3.org/2000/svg" xmlns:xlink="http://www.w3.org/1999/xlink" x="0px" y="0px"
	 width="490px" height="490px" viewBox="0 0 490 490" enable-background="new 0 0 490 490" xml:space="preserve">
<ellipse fill="#294720" cx="245" cy="245.001" rx="219.213" ry="239.142"/>
<g>
	<g>
		<path fill="#FFFFFF" d="M332.458,238.462c-0.647,0.506-1.299,1.002-1.956,1.481c0.288-0.604,0.739-1.229,1.267-1.867
			c-1.043-0.587-2.052-1.229-2.99-1.971c-2.279-1.8-4.021-3.877-5.367-6.145c0.198,1.43,0.394,2.854,0.615,4.254
			c0.596,3.775,1.219,7.545,1.837,11.316c2.781-2.055,5.378-4.216,7.778-6.474C333.243,238.865,332.848,238.668,332.458,238.462z"/>
		<path fill="#FFFFFF" d="M334.97,236.404c0.312,0.146,0.627,0.291,0.942,0.431c2.337-2.39,4.456-4.878,6.34-7.454
			C339.95,231.896,337.507,234.245,334.97,236.404z"/>
		<path fill="#FFFFFF" d="M186.101,288.597c-0.045,0.458-0.09,0.917-0.131,1.374c0.216,0.181,0.412,0.378,0.611,0.572
			c-0.121-0.659-0.237-1.316-0.368-1.979C186.176,288.574,186.138,288.585,186.101,288.597z"/>
		<path fill="#FFFFFF" d="M201.308,399.591c-4.467,1.594-8.88,4.348-10.424,7.821c-6.85,13.078,14.324,8.096,21.797,6.228
			c15.401-2.567,21.06-4.719,17.691-14.811c-9.339,0.264-18.738,0.55-28.317,0.748C201.807,399.582,201.556,399.586,201.308,399.591
			z"/>
		<path fill="#FFFFFF" d="M282.01,398.315c-7.087-0.155-14.09-0.172-21.062-0.114c-3.816,10.638,1.761,12.818,17.479,15.438
			c7.473,1.868,28.646,6.851,21.797-6.228c-2.053-4.618-9.174-7.965-14.754-9.002c-0.742-0.021-1.49-0.049-2.23-0.066
			C282.829,398.334,282.419,398.325,282.01,398.315z"/>
		<path fill="#FFFFFF" d="M186.108,288.04c0.018-0.016,0.033-0.031,0.05-0.048c-0.007,0.066-0.013,0.134-0.019,0.199
			c0.023,0.124,0.049,0.248,0.073,0.372c12.149-3.632,30.607-3.66,44.486-6.437c21.5-4.3,44.467-11.547,64.743-20.688
			c0.395-0.777,0.985-1.446,1.793-1.857c1.203-0.614,2.579-0.859,3.814-0.511c8.778-3.474,16.727-7.748,23.612-12.663
			c-0.577-4.008-1.147-8.018-1.747-12.021c-0.408-2.712-0.928-5.475-1.353-8.244c-1.979-5.062-2.586-10.753-3.04-16.34
			c-0.051-0.618,0.814-0.753,0.95-0.146c2.287,10.258,4.366,20.942,14.313,26.168c1.614-1.764,3.156-3.597,3.156-5.43
			c0.46-4.152-3.68-5.812-1.84-10.795c1.84-4.566,8.739-5.396,9.658-10.795c0.921-5.812-5.06-5.396-8.278-9.133
			c-6.899-8.304,9.659-13.286,1.38-20.759c-5.979-5.812-17.939-1.246-19.779-11.21c-0.92-5.397,4.141-9.134-5.061-11.209
			c-5.059-0.83-10.118,1.661-14.718,2.076c-16.1,1.246-10.12-11.625-20.7-15.776c-9.198-3.737-19.778,7.473-28.058-0.415
			c-2.676-2.416-3.445-6.551-3.893-10.024c-0.455,3.474-1.234,7.608-3.949,10.024c-8.399,7.888-19.131-3.322-28.464,0.415
			c-10.731,4.152-4.666,17.022-20.997,15.776c-4.666-0.415-9.799-2.906-14.932-2.076c-9.333,2.076-4.199,5.812-5.134,11.209
			c-1.865,9.964-13.998,5.397-20.062,11.21c-8.4,7.473,8.398,12.455,1.398,20.759c-3.266,3.737-9.332,3.321-8.398,9.133
			c0.933,5.398,7.932,6.229,9.799,10.795c1.866,4.982-2.333,6.643-1.867,10.795c0,3.321,5.133,6.643,6.532,9.549
			c-2.223-1.603-4.396-3.359-6.496-5.241c9.257,10.258,22.423,18.838,38.17,24.872c-0.876,3.597-1.709,7.322-2.457,11.118
			c-6.627,3.184-12.394,7.784-17.745,13.164c-7.471,7.512-13.847,16.768-17.951,26.582c-1.099,0.741-2.1,1.687-3.097,2.562
			c-2.69,2.357-4.442,6.527-5.076,9.963c-1.11,6.014,0.974,14.659,7.978,16.187c6.171,1.343,9.566-2.727,11.509-8.143
			c2.74,2.927,8.698,1.873,8.807-3.295c0.081-3.859-1.361-11.462-4.61-16.151c3.23-6.126,7.168-11.809,11.604-17.188
			c1.779-2.158,3.688-4.145,5.647-6.087v-1.487C185.95,287.215,186.028,287.627,186.108,288.04z M234.154,236.443
			c-0.344-1.231,0.285-0.742,1.168,0.021c1.938,1.673,4.201,2.975,6.643,3.86c1.411-1.494,3.338-2.37,5.418-1.999
			c0.92,0.164,1.726,0.567,2.432,1.111c0.706-0.544,1.512-0.947,2.432-1.111c2.142-0.382,4.125,0.553,5.546,2.129
			c0.37-0.113,0.739-0.233,1.107-0.367c2.767-1.009,4.542-3.079,6.998-4.525c0.468-0.276,1.142,0.181,0.951,0.731
			c-1.04,3.018-4.142,5.413-6.587,7.326c-0.716,0.561-1.481,1.066-2.282,1.517c-0.043,0.604-0.308,1.206-0.895,1.657
			c-5.51,4.229-12.229,4.687-16.659-1.191c-0.268-0.355-0.395-0.708-0.416-1.042C237.261,242.697,235.137,239.961,234.154,236.443z
			 M249.383,229.196c-7.337,0-13.285-4.089-13.285-9.134c0-3.94,3.637-7.288,8.723-8.569c0-0.05-0.005-0.099-0.005-0.149
			c0-3.668,2.046-6.642,4.567-6.642c2.522,0,4.567,2.974,4.567,6.642c0,0.051-0.005,0.1-0.005,0.149
			c5.086,1.281,8.724,4.629,8.724,8.569C262.669,225.107,256.721,229.196,249.383,229.196z M291.315,174.394
			c3.516,0,6.744,1.774,9.297,4.736c1.425,0.849,2.438,2.309,2.681,4.02c0.978,1.908,1.744,4.058,2.254,6.376
			c0.827,0.027,1.676-0.057,2.608-0.388c2.554-0.907,4.997-2.422,6.561-4.67c0.37-0.533,1.229-0.055,0.881,0.516
			c-1.613,2.654-3.988,4.841-6.982,5.818c-0.783,0.256-1.735,0.496-2.716,0.617c0.061,0.398,0.115,0.8,0.161,1.207
			c1.192,0.17,2.402,0.442,3.546,0.401c3.028-0.108,5.629-0.951,7.67-3.276c0.392-0.446,1.174,0.15,0.825,0.637
			c-1.865,2.608-4.264,4.144-7.427,4.708c-1.243,0.222-2.879,0.379-4.427,0.232c0.008,0.287,0.015,0.573,0.015,0.863
			c0,0.22-0.007,0.437-0.011,0.655c1.545,0.671,3.143,1.15,5.005,1.01c2.976-0.224,5.63-1.327,8.242-2.721
			c0.507-0.271,0.937,0.464,0.45,0.769c-4.055,2.54-9.265,4.315-13.807,3.004c-0.918,10.754-7.203,19.079-14.826,19.079
			c-8.255,0-14.946-9.759-14.946-21.797S283.061,174.394,291.315,174.394z M179.415,195.904c-0.487-0.305-0.058-1.04,0.449-0.769
			c2.613,1.394,5.268,2.497,8.243,2.721c1.954,0.146,3.618-0.387,5.236-1.11c-0.003-0.185-0.01-0.369-0.01-0.555
			c0-0.297,0.008-0.592,0.016-0.887c-1.615,0.188-3.354,0.024-4.66-0.208c-3.164-0.564-5.562-2.1-7.428-4.708
			c-0.349-0.486,0.434-1.083,0.825-0.637c2.041,2.325,4.643,3.168,7.67,3.276c1.22,0.043,2.515-0.269,3.783-0.435
			c0.044-0.385,0.096-0.767,0.153-1.145c-1.062-0.11-2.101-0.37-2.945-0.646c-2.993-0.978-5.369-3.165-6.982-5.818
			c-0.348-0.571,0.512-1.049,0.882-0.516c1.562,2.248,4.007,3.763,6.56,4.67c1.021,0.363,1.943,0.428,2.845,0.376
			c1.934-8.771,7.571-15.12,14.229-15.12c3.517,0,6.746,1.774,9.298,4.736c1.424,0.849,2.438,2.309,2.68,4.02
			c1.865,3.637,2.969,8.15,2.969,13.041c0,12.038-6.691,21.797-14.946,21.797c-7.639,0-13.936-8.36-14.832-19.148
			C188.854,200.279,183.537,198.487,179.415,195.904z"/>
		<path fill="#FFFFFF" d="M367.065,256.047c-0.028,0.018-0.058,0.032-0.086,0.049c-1.413,0.422-2.764,0.857-4.065,1.612
			c-0.307,0.177-0.575,0.382-0.815,0.604c-1.783-2.078-3.727-4.035-5.578-5.925c-0.165-0.169-0.334-0.339-0.5-0.509
			c-0.129,0.105-0.258,0.218-0.384,0.338c-2.786,2.671-7.143,9.068-8.161,14.682c-5.773,1.785-11.688,2.953-17.714,3.664
			c0.694,4.663,1.377,9.326,2.048,13.992c8.812-0.607,17.736-2.571,25.84-5.897c1.301,0.254,2.678,0.292,4.001,0.38
			c2.218,0.146,4.674-0.46,6.907-1.414c0.016-0.192,0.033-0.385,0.06-0.575c0.19-0.07,0.378-0.148,0.558-0.252
			c0.513,0.016,1.028-0.066,1.533-0.236c0.557-0.312,1.088-0.641,1.577-0.979c0.331-0.228,0.661-0.474,0.987-0.736
			c1.101-1.078,1.881-2.342,2.722-3.729c0.075,0.252,0.135,0.51,0.206,0.764c3.035-3.844,4.689-9.021,1.888-13.383
			c-2.866-4.465-7.052-4.835-11.4-3.386c0.241,0.253,0.484,0.505,0.72,0.764C367.293,255.931,367.177,255.98,367.065,256.047z"/>
		<path fill="#FFFFFF" d="M327.116,270.847c-5.034,0.483-9.97,0.277-15.006,0.228c-3.311-0.031-6.583-0.274-9.783-0.97
			c0.328,3.434,0.546,7.119,0.684,10.94c7.316,2.803,15.086,3.737,23.149,3.715c1.476-0.003,2.959-0.051,4.446-0.133
			c-0.76-4.635-1.509-9.272-2.245-13.913C327.946,270.758,327.532,270.807,327.116,270.847z"/>
		<path fill="#FFFFFF" d="M276.369,196.19c0,12.038,6.691,21.797,14.946,21.797c7.623,0,13.908-8.324,14.826-19.079
			c4.542,1.311,9.752-0.464,13.807-3.004c0.486-0.305,0.057-1.04-0.45-0.769c-2.612,1.394-5.267,2.497-8.242,2.721
			c-1.862,0.14-3.46-0.339-5.005-1.01c0.004-0.218,0.011-0.436,0.011-0.655c0-0.29-0.007-0.576-0.015-0.863
			c1.548,0.147,3.184-0.011,4.427-0.232c3.163-0.564,5.562-2.1,7.427-4.708c0.349-0.486-0.434-1.083-0.825-0.637
			c-2.041,2.325-4.642,3.168-7.67,3.276c-1.144,0.041-2.354-0.231-3.546-0.401c-0.046-0.406-0.101-0.808-0.161-1.207
			c0.98-0.122,1.933-0.361,2.716-0.617c2.994-0.978,5.369-3.165,6.982-5.818c0.348-0.571-0.511-1.049-0.881-0.516
			c-1.563,2.248-4.007,3.763-6.561,4.67c-0.933,0.331-1.781,0.415-2.608,0.388c-0.51-2.318-1.276-4.468-2.254-6.376
			c0.037,0.26,0.062,0.523,0.062,0.793c0,3.095-2.509,5.604-5.604,5.604s-5.605-2.509-5.605-5.604c0-3.096,2.51-5.605,5.605-5.605
			c1.046,0,2.023,0.292,2.861,0.792c-2.553-2.962-5.781-4.736-9.297-4.736C283.061,174.394,276.369,184.152,276.369,196.19z
			 M305.224,196.398c0,1.834-1.486,3.321-3.321,3.321c-1.834,0-3.321-1.487-3.321-3.321s1.487-3.321,3.321-3.321
			C303.737,193.077,305.224,194.563,305.224,196.398z"/>
		<path fill="#FFFFFF" d="M292.146,183.943c0,3.095,2.51,5.604,5.605,5.604s5.604-2.509,5.604-5.604c0-0.27-0.025-0.534-0.062-0.793
			c-0.243-1.711-1.256-3.17-2.681-4.02c-0.838-0.5-1.815-0.792-2.861-0.792C294.655,178.338,292.146,180.847,292.146,183.943z"/>
		<circle fill="#FFFFFF" cx="301.902" cy="196.398" r="3.321"/>
		<circle opacity="0.5" fill="#FFFFFF" cx="301.902" cy="196.398" r="3.321"/>
		<path fill="#FFFFFF" d="M208.28,217.987c8.255,0,14.946-9.759,14.946-21.797c0-4.891-1.104-9.404-2.969-13.041
			c0.037,0.26,0.062,0.523,0.062,0.793c0,3.095-2.509,5.604-5.604,5.604s-5.605-2.509-5.605-5.604c0-3.096,2.51-5.605,5.605-5.605
			c1.047,0,2.023,0.292,2.862,0.792c-2.552-2.962-5.781-4.736-9.298-4.736c-6.657,0-12.295,6.349-14.229,15.12
			c-0.901,0.052-1.823-0.014-2.845-0.376c-2.553-0.907-4.997-2.422-6.56-4.67c-0.37-0.533-1.229-0.055-0.882,0.516
			c1.613,2.654,3.989,4.841,6.982,5.818c0.845,0.276,1.884,0.536,2.945,0.646c-0.058,0.378-0.109,0.76-0.153,1.145
			c-1.269,0.166-2.563,0.478-3.783,0.435c-3.027-0.108-5.629-0.951-7.67-3.276c-0.392-0.446-1.174,0.15-0.825,0.637
			c1.865,2.608,4.264,4.144,7.428,4.708c1.306,0.233,3.045,0.396,4.66,0.208c-0.008,0.294-0.016,0.589-0.016,0.887
			c0,0.186,0.007,0.37,0.01,0.555c-1.618,0.724-3.282,1.257-5.236,1.11c-2.976-0.224-5.63-1.327-8.243-2.721
			c-0.507-0.271-0.937,0.464-0.449,0.769c4.122,2.583,9.439,4.375,14.033,2.935C194.345,209.627,200.642,217.987,208.28,217.987z
			 M218.868,193.077c1.834,0,3.32,1.486,3.32,3.321s-1.486,3.321-3.32,3.321c-1.835,0-3.321-1.487-3.321-3.321
			S217.033,193.077,218.868,193.077z"/>
		<path fill="#FFFFFF" d="M209.11,183.943c0,3.095,2.51,5.604,5.605,5.604s5.604-2.509,5.604-5.604c0-0.27-0.025-0.534-0.062-0.793
			c-0.242-1.711-1.256-3.17-2.68-4.02c-0.839-0.5-1.815-0.792-2.862-0.792C211.62,178.338,209.11,180.847,209.11,183.943z"/>
		<circle fill="#FFFFFF" cx="218.868" cy="196.398" r="3.321"/>
		<circle opacity="0.5" fill="#FFFFFF" cx="218.868" cy="196.398" r="3.321"/>
		<path fill="#FFFFFF" d="M240.01,244.56c0.021,0.334,0.148,0.687,0.416,1.042c4.43,5.878,11.149,5.42,16.659,1.191
			c0.587-0.451,0.852-1.053,0.895-1.657c0.801-0.45,1.566-0.956,2.282-1.517c2.445-1.913,5.547-4.309,6.587-7.326
			c0.19-0.551-0.483-1.008-0.951-0.731c-2.456,1.446-4.231,3.517-6.998,4.525c-0.368,0.134-0.737,0.254-1.107,0.367
			c-1.421-1.576-3.404-2.511-5.546-2.129c-0.92,0.164-1.726,0.567-2.432,1.111c-0.706-0.544-1.512-0.947-2.432-1.111
			c-2.08-0.371-4.007,0.505-5.418,1.999c-2.441-0.886-4.704-2.188-6.643-3.86c-0.883-0.763-1.512-1.252-1.168-0.021
			C235.137,239.961,237.261,242.697,240.01,244.56z"/>
		<path fill="#FFFFFF" d="M253.945,211.493c0-0.05,0.005-0.099,0.005-0.149c0-3.668-2.045-6.642-4.567-6.642
			c-2.521,0-4.567,2.974-4.567,6.642c0,0.051,0.005,0.1,0.005,0.149c-5.086,1.281-8.723,4.629-8.723,8.569
			c0,5.045,5.948,9.134,13.285,9.134c7.338,0,13.286-4.089,13.286-9.134C262.669,216.122,259.031,212.774,253.945,211.493z"/>
		<path fill="#FFFFFF" d="M332.458,238.462c-0.232-0.123-0.46-0.257-0.689-0.386c-0.527,0.638-0.979,1.263-1.267,1.867
			C331.159,239.464,331.811,238.968,332.458,238.462z"/>
		<path fill="#FFFFFF" d="M153.048,230.395c-0.466-4.152,3.733-5.812,1.867-10.795c-1.867-4.566-8.866-5.396-9.799-10.795
			c-0.934-5.812,5.133-5.396,8.398-9.133c7-8.304-9.799-13.286-1.398-20.759c6.064-5.812,18.197-1.246,20.062-11.21
			c0.935-5.397-4.199-9.134,5.134-11.209c5.133-0.83,10.266,1.661,14.932,2.076c16.331,1.246,10.266-11.625,20.997-15.776
			c9.333-3.737,20.064,7.473,28.464-0.415c2.715-2.416,3.494-6.551,3.949-10.024c0.447,3.474,1.217,7.608,3.893,10.024
			c8.279,7.888,18.859-3.322,28.058,0.415c10.58,4.152,4.601,17.022,20.7,15.776c4.6-0.415,9.659-2.906,14.718-2.076
			c9.201,2.076,4.141,5.812,5.061,11.209c1.84,9.964,13.8,5.397,19.779,11.21c8.279,7.473-8.279,12.455-1.38,20.759
			c3.219,3.737,9.199,3.321,8.278,9.133c-0.919,5.398-7.818,6.229-9.658,10.795c-1.84,4.982,2.3,6.643,1.84,10.795
			c0,1.833-1.542,3.666-3.156,5.43c0.257,0.134,0.515,0.269,0.781,0.396c0.133,0.063,0.269,0.123,0.402,0.185
			c2.537-2.159,4.98-4.509,7.282-7.023c12.889-14.083,21.323-33.165,17.153-50.984c1.805-6.978,1.184-14.534-2.316-20.658
			c-2.075-4.567-6.643-7.888-7.473-13.286c-0.831-6.643-2.906-7.888-8.304-11.209c-5.397-3.737-4.982-3.737-6.643-9.964
			c-1.245-4.982-3.321-10.379-7.059-14.116c-4.566-4.567-8.303-2.076-13.285-4.567c-5.397-2.491-5.812-8.303-8.719-12.87
			c-3.321-5.397-7.474-8.719-13.7-9.134c-4.982-0.415-9.135,2.907-13.701,2.491c-4.982-0.83-9.135-6.643-14.116-8.303
			c-5.397-2.076-9.964-3.737-15.361-2.491c-4.981,1.246-8.304,4.982-12.87,6.643c-4.567,1.246-8.719-0.415-13.701-0.83
			c-12.871-2.076-17.438,1.661-24.495,11.625c-6.228,9.134-18.269,4.152-26.156,12.455c-3.736,4.152-3.321,8.719-5.812,13.286
			c-2.491,5.812-5.812,6.643-11.21,8.719c-4.566,1.661-8.303,3.321-10.794,8.303c-2.076,4.152-0.416,8.719-2.907,13.286
			c-2.49,4.566-7.058,6.643-8.719,12.04c-1.915,4.598-0.649,7.432,0.21,11.757c-0.6,1.724-1.145,3.477-1.623,5.265
			c-5.791,20.611,6.024,43.174,22.434,57.865c2.101,1.882,4.273,3.639,6.496,5.241C158.181,237.037,153.048,233.716,153.048,230.395
			z M204.816,132.409c-4.985-0.248-11.649-0.153-13.299,5.79c-1.26,4.539-2.193,10.066-7.918,10.921
			c-2.924,0.437-5.731-0.154-8.57-0.853c-2.916-0.717-7.219-2.15-9.961-0.215c-5.933,4.188-0.312,11.574-2.977,17.054
			c-1.994,4.102-6.259,5.216-10.347,6.179c-2.21,0.521-4.636,0.965-6.582,2.201c-2.58,1.638-3.553,4.224-4.35,7.06
			c-0.21,0.751-1.306,0.58-1.333-0.18c-0.173-4.926,2.737-8.501,7.297-10.086c3.773-1.311,10.043-1.49,11.934-5.665
			c2.284-5.044-2.711-12.41,2.202-16.733c4.698-4.135,9.917-2.894,15.506-1.702c3.302,0.704,7.755,1.524,9.672-2.166
			c1.196-2.302,1.166-5.006,2.101-7.4c1.866-4.787,6.181-7.377,11.224-7.613c8.384-0.394,24.268,5.832,26.851-6.055
			c0.132-0.605,1.013-0.34,0.915,0.252C225.347,134.289,213.346,132.833,204.816,132.409z M328.239,163.556
			c-3.179-1.505-3.034-3.741-2.197-6.751c1.126-4.053,1.607-12.459-3.719-13.863c-4.613-1.215-10.071,1.465-14.369,2.908
			c-3.991,1.339-9.154,2.846-13.191,0.832c-2.827-1.41-4.852-3.267-6.193-6.148c-1.264-2.717-1.67-6.158-3.787-8.41
			c-3.951-4.203-8.283-1.855-13.098-0.979c-2.644,0.481-5.256,1.287-7.915,1.664c-5.43,0.77-8.29-1.915-9.515-7.109
			c-0.151-0.644,0.785-0.898,0.985-0.272c1.288,4.023,3.62,6.259,7.912,5.142c2.915-0.758,5.843-1.601,8.738-2.413
			c3.038-0.852,6.711-2.487,9.924-1.563c3.13,0.9,5.774,3.178,7.176,6.134c1.242,2.62,1.817,5.664,3.482,8.061
			c7.142,10.284,19.477-0.83,28.709,0.315c4.255,0.527,6.731,3.7,7.468,7.838c0.426,2.395,0.482,4.805-0.039,7.191
			c-0.234,1.073-1.189,3.023-0.805,4.118c0.646,1.833,5.422,2.469,6.955,2.836c2.462,0.59,5.021,0.95,7.422,1.765
			c4.548,1.542,7.441,4.573,5.486,9.494c-0.361,0.912-1.793,0.574-1.505-0.415c0.71-2.443,0.552-4.8-1.911-6.103
			C339.296,165.204,333.289,165.947,328.239,163.556z M317.87,115.278c1.025,2.977,1.145,6.509,2.969,9.159
			c2.592,3.763,6.139,3.797,10.143,4.681c3.068,0.677,4.544,2.91,5.693,5.691c0.154,0.375-0.478,0.637-0.654,0.275
			c-0.926-1.905-2.096-3.976-4.399-4.309c-1.444-0.209-2.897-0.04-4.344-0.184c-2.889-0.288-5.812-1.293-7.76-3.571
			c-3.706-4.336-2.569-11.808-7.524-15.096c-6.06-4.021-16.004-1.136-18.409-9.74c-0.992-3.55-5.962-6.382-9.332-7.238
			c-1.907-0.484-4.04-0.75-5.928-0.001c-1.948,0.772-3.1,2.309-4.725,3.505c-0.252,0.186-0.557-0.119-0.492-0.379
			c1.877-7.69,12.726-5.254,17.354-2.229c1.357,0.887,3.228,1.952,4.25,3.228c1.32,1.648,1.35,4.122,3.231,5.279
			c4.149,2.549,9.185,1.672,13.452,3.824C314.433,109.704,316.749,112.022,317.87,115.278z M264.156,96.762
			c2.128-8.147,11.226-11.634,19.026-10.429c4.045,0.625,6.776,2.681,10.004,5.056c3.671,2.701,7.795,6.07,12.055,2.462
			c0.802-0.679,1.816,0.343,1.146,1.146c-5.452,6.531-12.994-0.734-17.953-4.015c-7.384-4.886-19.591-2.217-23.226,6.224
			C264.944,97.822,263.996,97.375,264.156,96.762z M303.532,120.788c0,2.906,0,1.453,0,4.359
			c-35.031-21.467-79.144-21.467-114.174,0c0-2.907,0-1.453,0-4.359c17.331-10.621,36.886-19.402,56.463-19.513
			C265.815,101.161,285.833,109.942,303.532,120.788z M206.857,89.115c2.881-5.383,12.786-5.107,17.73-3.881
			c5.788,1.436,11.514,5.084,11.336,11.682c-0.018,0.629-0.91,0.611-0.964,0c-0.547-6.236-6.956-9.342-12.54-9.936
			c-5.589-0.593-9.72,0.721-14.675,3.023C207.166,90.273,206.533,89.719,206.857,89.115z M177.18,106.873
			c14.252-3.96,35.309-26.667,48.098-8.335c0.316,0.453-0.424,1.027-0.768,0.592c-13.206-16.69-32.619,7.967-46.64,10.249
			C176.252,109.641,175.532,107.331,177.18,106.873z M159.656,135.044c4.148-1.693,8.627-2.256,13.049-2.748
			c3.251-0.361,5.315-3.525,5.468-6.739c0.113-2.397,0.227-4.458,1.522-6.541c1.272-2.046,2.685-3.902,4.468-5.534
			c3.448-3.155,7.477-5.048,11.986-6.192c0.273-0.07,0.389,0.345,0.117,0.422c-5.423,1.537-10.829,4.978-13.512,10.091
			c-1.397,2.665-1.541,4.821-1.528,7.753c0.01,2.077-0.454,3.535-1.47,5.34c-1.215,2.157-2.688,4.089-5.268,4.54
			c-3.754,0.656-7.54,0.831-11.22,1.939c-3.239,0.975-6.043,2.333-7.143,5.735c-1.075,3.33-1.959,6.724-3.003,10.065
			c-1.003,3.213-2.833,6.131-5.561,8.208c-1.46,1.113-3.057,1.697-4.694,2.471c-2.207,1.043-2.835,2.53-3.393,4.833
			c-0.129,0.534-1.032,0.583-1.126,0c-0.613-3.817,1.236-5.708,4.547-7.161c4.582-2.01,7.337-5.68,8.315-10.496
			C152.514,144.629,152.756,137.859,159.656,135.044z"/>
		<path fill="#FFFFFF" d="M189.358,125.147c35.03-21.467,79.143-21.467,114.174,0c0-2.906,0-1.454,0-4.359
			c-17.699-10.846-37.717-19.627-57.711-19.513c-19.577,0.111-39.132,8.892-56.463,19.513
			C189.358,123.694,189.358,122.241,189.358,125.147z"/>
		<path fill="#FFFFFF" d="M283.603,396.049c0,0.569-0.174,1.403-0.363,2.295c0.74,0.018,1.488,0.046,2.23,0.066
			c1.452,0.041,2.902,0.078,4.363,0.131L283.603,396.049z"/>
		<path fill="#FFFFFF" d="M186.14,288.191c-0.01-0.05-0.021-0.1-0.031-0.151c-0.08-0.413-0.158-0.825-0.246-1.242v1.487v0.381
			c0.078-0.024,0.159-0.047,0.238-0.069c0.037-0.012,0.075-0.022,0.112-0.033C186.188,288.439,186.163,288.315,186.14,288.191z"/>
		<path fill="#FFFFFF" d="M302.327,270.104c-0.021-0.236-0.047-0.47-0.069-0.703c-0.134,0.064-0.262,0.134-0.407,0.187
			c-1.747,0.626-4.135-0.184-5.123-1.802c-0.838-0.802-1.475-1.804-1.722-2.87c-0.264-1.142-0.104-2.412,0.437-3.477
			c-20.276,9.141-43.243,16.388-64.743,20.688c-13.879,2.776-32.337,2.805-44.486,6.437c0.131,0.663,0.247,1.32,0.368,1.979
			c2.987,16.316,2.873,31.539,1.149,46.696c-2.209,19.421-4.419,32.04-7.473,62.585c2.565,0,5.11-0.015,7.643-0.035
			c2.624-8.447,5.587-16.768,6.854-25.329c2.491-13.701,4.152-29.062,10.38-41.518c0.415,12.041,0,23.665-0.83,35.29
			c-0.701,8.064,0.966,22.348-2.25,31.345c9.579-0.198,18.979-0.484,28.317-0.748c1.253-0.036,2.509-0.073,3.76-0.107
			c1.046-10.038,0.743-19.927,1.726-30.075c1.661-17.021,6.643-33.628,9.134-51.064c0.387,27.055,4.009,53.752,5.178,80.759
			c3.587-0.067,7.181-0.111,10.779-0.14c6.972-0.058,13.975-0.041,21.062,0.114c-2.717-12.586-1.313-26.959-1.313-39.217
			c0-18.268,0-37.78,4.152-55.634c3.215,31.346,2.93,65.026,12.321,95.393c4.876,0.244,9.801,0.558,14.796,0.967
			c2.802-22.419-8.407-46.706-9.342-70.058c0-11.893,0.998-31.649,0.387-48.722C302.873,277.224,302.655,273.538,302.327,270.104z"
			/>
		<path fill="#FFFFFF" d="M284.849,303.465c-4.152,17.854-4.152,37.366-4.152,55.634c0,12.258-1.403,26.631,1.313,39.217
			c0.409,0.01,0.819,0.019,1.229,0.028c0.189-0.892,0.363-1.726,0.363-2.295l6.23,2.492c2.434,0.088,4.879,0.193,7.337,0.316
			C287.778,368.491,288.063,334.811,284.849,303.465z"/>
		<path fill="#FFFFFF" d="M244.991,317.582c-2.491,17.437-7.473,34.044-9.134,51.064c-0.982,10.148-0.68,20.037-1.726,30.075
			c5.354-0.146,10.693-0.282,16.037-0.381C249,371.334,245.378,344.637,244.991,317.582z"/>
		<path fill="#FFFFFF" d="M204.305,368.232c0.83-11.625,1.245-23.249,0.83-35.29c-6.228,12.455-7.889,27.816-10.38,41.518
			c-1.268,8.562-4.23,16.882-6.854,25.329c4.517-0.038,8.979-0.109,13.407-0.198c0.248-0.005,0.499-0.009,0.747-0.014
			C205.271,390.58,203.604,376.297,204.305,368.232z"/>
		<path fill="#FFFFFF" d="M302.846,260.157c-0.527-0.555-1.142-0.902-1.796-1.086c-1.235-0.349-2.611-0.104-3.814,0.511
			c-0.808,0.411-1.398,1.08-1.793,1.857c-0.541,1.064-0.7,2.335-0.437,3.477c0.247,1.066,0.884,2.068,1.722,2.87
			c0.988,1.618,3.376,2.428,5.123,1.802c0.146-0.053,0.273-0.122,0.407-0.187C305.607,267.785,305.085,262.514,302.846,260.157z"/>
		<path fill="#FFFFFF" d="M331.999,285.867c-0.062-0.438-0.127-0.876-0.189-1.312c-0.671-4.666-1.354-9.329-2.048-13.992
			c-0.951-6.383-1.925-12.764-2.938-19.137c-0.312-1.967-0.638-3.931-0.96-5.895c-0.618-3.771-1.241-7.541-1.837-11.316
			c-0.222-1.4-0.417-2.824-0.615-4.254c-0.724-1.222-1.332-2.499-1.849-3.818c0.425,2.77,0.944,5.532,1.353,8.244
			c0.6,4.004,1.17,8.014,1.747,12.021c0.251,1.744,0.499,3.489,0.759,5.232c0.945,6.363,1.932,12.721,2.94,19.073
			c0.736,4.641,1.485,9.278,2.245,13.913c0.078,0.474,0.153,0.945,0.231,1.419c3.534,21.517,5.983,43.295,10.173,64.702
			c0.101-0.893,0.245-1.776,0.441-2.649C338.979,327.28,334.976,306.61,331.999,285.867z"/>
		<path fill="#FFFFFF" d="M334.567,236.22c-0.267-0.127-0.524-0.262-0.781-0.396c-9.947-5.226-12.026-15.91-14.313-26.168
			c-0.136-0.606-1.001-0.472-0.95,0.146c0.454,5.587,1.062,11.278,3.04,16.34c0.517,1.319,1.125,2.597,1.849,3.818
			c1.347,2.268,3.088,4.345,5.367,6.145c0.938,0.741,1.947,1.384,2.99,1.971c0.229,0.129,0.457,0.263,0.689,0.386
			c0.39,0.206,0.785,0.403,1.184,0.596c1.77,0.854,3.607,1.581,5.406,2.298c4.253,1.694,8.359,3.603,12.336,5.877
			c1.57,1.531,3.11,3.092,4.637,4.646c0.166,0.17,0.335,0.34,0.5,0.509c1.852,1.89,3.795,3.847,5.578,5.925
			c0.24-0.223,0.509-0.428,0.815-0.604c1.302-0.755,2.652-1.19,4.065-1.612c0.028-0.017,0.058-0.031,0.086-0.049
			c0.111-0.066,0.228-0.116,0.342-0.173c-0.235-0.259-0.479-0.511-0.72-0.764c-2.724-2.856-5.814-5.386-9.067-7.598
			c-3.405-2.317-7.062-4.27-10.768-6.067c-0.56-0.385-1.123-0.767-1.691-1.145c-0.24-0.161-0.48-0.09-0.629,0.069
			c-2.846-1.243-5.779-2.278-8.62-3.535c-0.315-0.14-0.63-0.284-0.942-0.431C334.836,236.343,334.7,236.283,334.567,236.22z"/>
		<path fill="#FFFFFF" d="M376.2,271.879c-0.071-0.254-0.131-0.512-0.206-0.764c-0.841,1.387-1.621,2.65-2.722,3.729
			c-0.483,0.473-1.021,0.914-1.666,1.309c-0.291,0.179-0.593,0.305-0.898,0.407c-0.505,0.17-1.021,0.252-1.533,0.236
			c-0.18,0.104-0.367,0.182-0.558,0.252c-0.026,0.19-0.044,0.383-0.06,0.575c-0.146,1.72,0.089,3.52,0.479,5.277
			c0.199,2.447,0.675,4.881,1.893,6.848c0.948,3.385,1.715,6.748,1.413,10.339c-0.439,5.233-3.35,10.387-5.619,15.029
			c-1.496,3.06-3.066,6.146-4.754,9.152c-2.777,2.924-5.781,5.596-8.91,8.143c-2.999,2.441-5.936,4.945-8.217,8.096
			c-1.729,2.385-2.796,4.941-3.391,7.592c-0.196,0.873-0.341,1.757-0.441,2.649c-0.662,5.906,0.638,12.145,1.958,17.927
			c0.137,0.604,1.003,0.474,0.949-0.146c-0.905-10.512-2.206-21.362,5.944-29.422c2.982-2.949,6.474-5.318,9.564-8.146
			c3.214-2.94,6.265-6.076,9.037-9.438c5.318-6.45,9.229-13.991,10.528-22.298c0.915-5.856,0.3-11.897-0.97-17.808
			C377.657,278.184,377.073,274.985,376.2,271.879z"/>
		<path fill="#FFFFFF" d="M227.181,123.198c0.098-0.592-0.783-0.858-0.915-0.252c-2.583,11.887-18.467,5.662-26.851,6.055
			c-5.043,0.236-9.357,2.827-11.224,7.613c-0.935,2.394-0.904,5.098-2.101,7.4c-1.917,3.69-6.37,2.87-9.672,2.166
			c-5.589-1.192-10.808-2.433-15.506,1.702c-4.913,4.323,0.082,11.689-2.202,16.733c-1.891,4.175-8.16,4.354-11.934,5.665
			c-4.56,1.584-7.47,5.16-7.297,10.086c0.027,0.76,1.123,0.932,1.333,0.18c0.797-2.836,1.77-5.422,4.35-7.06
			c1.946-1.235,4.372-1.68,6.582-2.201c4.088-0.963,8.353-2.078,10.347-6.179c2.665-5.48-2.956-12.866,2.977-17.054
			c2.742-1.936,7.045-0.502,9.961,0.215c2.839,0.699,5.646,1.29,8.57,0.853c5.725-0.855,6.658-6.383,7.918-10.921
			c1.649-5.943,8.313-6.037,13.299-5.79C213.346,132.833,225.347,134.289,227.181,123.198z"/>
		<path fill="#FFFFFF" d="M151.213,151.032c-0.979,4.815-3.733,8.486-8.315,10.496c-3.311,1.453-5.16,3.343-4.547,7.161
			c0.094,0.583,0.997,0.534,1.126,0c0.558-2.303,1.186-3.79,3.393-4.833c1.638-0.773,3.234-1.358,4.694-2.471
			c2.728-2.078,4.558-4.995,5.561-8.208c1.044-3.341,1.928-6.735,3.003-10.065c1.1-3.402,3.903-4.76,7.143-5.735
			c3.68-1.108,7.466-1.283,11.22-1.939c2.58-0.451,4.053-2.383,5.268-4.54c1.016-1.805,1.479-3.263,1.47-5.34
			c-0.013-2.932,0.131-5.088,1.528-7.753c2.683-5.113,8.089-8.555,13.512-10.091c0.271-0.077,0.156-0.492-0.117-0.422
			c-4.51,1.144-8.538,3.037-11.986,6.192c-1.783,1.632-3.195,3.488-4.468,5.534c-1.296,2.083-1.409,4.144-1.522,6.541
			c-0.152,3.213-2.217,6.378-5.468,6.739c-4.422,0.491-8.9,1.055-13.049,2.748C152.756,137.859,152.514,144.629,151.213,151.032z"/>
		<path fill="#FFFFFF" d="M344.253,167.828c2.463,1.303,2.621,3.66,1.911,6.103c-0.288,0.989,1.144,1.327,1.505,0.415
			c1.955-4.921-0.938-7.952-5.486-9.494c-2.401-0.815-4.96-1.175-7.422-1.765c-1.533-0.367-6.31-1.003-6.955-2.836
			c-0.385-1.094,0.57-3.045,0.805-4.118c0.521-2.387,0.465-4.796,0.039-7.191c-0.736-4.139-3.213-7.311-7.468-7.838
			c-9.232-1.145-21.567,9.968-28.709-0.315c-1.665-2.396-2.24-5.441-3.482-8.061c-1.401-2.957-4.046-5.234-7.176-6.134
			c-3.213-0.924-6.886,0.711-9.924,1.563c-2.896,0.812-5.823,1.655-8.738,2.413c-4.292,1.117-6.624-1.119-7.912-5.142
			c-0.2-0.626-1.137-0.372-0.985,0.272c1.225,5.194,4.085,7.878,9.515,7.109c2.659-0.377,5.271-1.183,7.915-1.664
			c4.814-0.876,9.146-3.224,13.098,0.979c2.117,2.252,2.523,5.693,3.787,8.41c1.342,2.881,3.366,4.738,6.193,6.148
			c4.037,2.014,9.2,0.507,13.191-0.832c4.298-1.442,9.756-4.123,14.369-2.908c5.326,1.403,4.845,9.81,3.719,13.863
			c-0.837,3.01-0.981,5.247,2.197,6.751C333.289,165.947,339.296,165.204,344.253,167.828z"/>
		<path fill="#FFFFFF" d="M294.712,99.071c-1.022-1.275-2.893-2.34-4.25-3.228c-4.629-3.025-15.478-5.461-17.354,2.229
			c-0.064,0.26,0.24,0.565,0.492,0.379c1.625-1.196,2.776-2.732,4.725-3.505c1.888-0.749,4.021-0.483,5.928,0.001
			c3.37,0.856,8.34,3.688,9.332,7.238c2.405,8.604,12.35,5.718,18.409,9.74c4.955,3.288,3.818,10.76,7.524,15.096
			c1.947,2.278,4.871,3.283,7.76,3.571c1.446,0.144,2.899-0.025,4.344,0.184c2.304,0.333,3.474,2.403,4.399,4.309
			c0.177,0.362,0.809,0.1,0.654-0.275c-1.149-2.781-2.625-5.014-5.693-5.691c-4.004-0.884-7.551-0.918-10.143-4.681
			c-1.824-2.649-1.943-6.182-2.969-9.159c-1.121-3.256-3.438-5.574-6.475-7.105c-4.268-2.152-9.303-1.275-13.452-3.824
			C296.062,103.193,296.032,100.719,294.712,99.071z"/>
		<path fill="#FFFFFF" d="M265.209,97.207c3.635-8.441,15.842-11.11,23.226-6.224c4.959,3.281,12.501,10.546,17.953,4.015
			c0.67-0.803-0.345-1.825-1.146-1.146c-4.26,3.608-8.384,0.239-12.055-2.462c-3.228-2.375-5.959-4.431-10.004-5.056
			c-7.801-1.205-16.898,2.281-19.026,10.429C263.996,97.375,264.944,97.822,265.209,97.207z"/>
		<path fill="#FFFFFF" d="M207.745,90.003c4.955-2.302,9.086-3.616,14.675-3.023c5.584,0.593,11.993,3.699,12.54,9.936
			c0.054,0.611,0.946,0.629,0.964,0c0.178-6.598-5.548-10.247-11.336-11.682c-4.944-1.226-14.85-1.502-17.73,3.881
			C206.533,89.719,207.166,90.273,207.745,90.003z"/>
		<path fill="#FFFFFF" d="M177.87,109.378c14.021-2.281,33.434-26.938,46.64-10.249c0.344,0.435,1.084-0.139,0.768-0.592
			c-12.789-18.331-33.846,4.375-48.098,8.335C175.532,107.331,176.252,109.641,177.87,109.378z"/>
	</g>
	<g>
		<path fill="#FFEBC2" d="M332.458,238.462c-0.647,0.506-1.299,1.002-1.956,1.481c0.288-0.604,0.739-1.229,1.267-1.867
			c-1.043-0.587-2.052-1.229-2.99-1.971c-2.279-1.8-4.021-3.877-5.367-6.145c0.198,1.43,0.394,2.854,0.615,4.254
			c0.596,3.775,1.219,7.545,1.837,11.316c2.781-2.055,5.378-4.216,7.778-6.474C333.243,238.865,332.848,238.668,332.458,238.462z"/>
		<path fill="#FFEBC2" d="M334.97,236.404c0.312,0.146,0.627,0.291,0.942,0.431c2.337-2.39,4.456-4.878,6.34-7.454
			C339.95,231.896,337.507,234.245,334.97,236.404z"/>
		<path fill="#FFEBC2" d="M186.101,288.597c-0.045,0.458-0.09,0.917-0.131,1.374c0.216,0.181,0.412,0.378,0.611,0.572
			c-0.121-0.659-0.237-1.316-0.368-1.979C186.176,288.574,186.138,288.585,186.101,288.597z"/>
		<path fill="#FFEBC2" d="M201.308,399.591c-4.467,1.594-8.88,4.348-10.424,7.821c-6.85,13.078,14.324,8.096,21.797,6.228
			c15.401-2.567,21.06-4.719,17.691-14.811c-9.339,0.264-18.738,0.55-28.317,0.748C201.807,399.582,201.556,399.586,201.308,399.591
			z"/>
		<path fill="#FFEBC2" d="M282.01,398.315c-7.087-0.155-14.09-0.172-21.062-0.114c-3.816,10.638,1.761,12.818,17.479,15.438
			c7.473,1.868,28.646,6.851,21.797-6.228c-2.053-4.618-9.174-7.965-14.754-9.002c-0.742-0.021-1.49-0.049-2.23-0.066
			C282.829,398.334,282.419,398.325,282.01,398.315z"/>
		<path fill="#FFEBC2" d="M186.108,288.04c0.018-0.016,0.033-0.031,0.05-0.048c-0.007,0.066-0.013,0.134-0.019,0.199
			c0.023,0.124,0.049,0.248,0.073,0.372c12.149-3.632,30.607-3.66,44.486-6.437c21.5-4.3,44.467-11.547,64.743-20.688
			c0.395-0.777,0.985-1.446,1.793-1.857c1.203-0.614,2.579-0.859,3.814-0.511c8.778-3.474,16.727-7.748,23.612-12.663
			c-0.577-4.008-1.147-8.018-1.747-12.021c-0.408-2.712-0.928-5.475-1.353-8.244c-1.979-5.062-2.586-10.753-3.04-16.34
			c-0.051-0.618,0.814-0.753,0.95-0.146c2.287,10.258,4.366,20.942,14.313,26.168c1.614-1.764,3.156-3.597,3.156-5.43
			c0.46-4.152-3.68-5.812-1.84-10.795c1.84-4.566,8.739-5.396,9.658-10.795c0.921-5.812-5.06-5.396-8.278-9.133
			c-6.899-8.304,9.659-13.286,1.38-20.759c-5.979-5.812-17.939-1.246-19.779-11.21c-0.92-5.397,4.141-9.134-5.061-11.209
			c-5.059-0.83-10.118,1.661-14.718,2.076c-16.1,1.246-10.12-11.625-20.7-15.776c-9.198-3.737-19.778,7.473-28.058-0.415
			c-2.676-2.416-3.445-6.551-3.893-10.024c-0.455,3.474-1.234,7.608-3.949,10.024c-8.399,7.888-19.131-3.322-28.464,0.415
			c-10.731,4.152-4.666,17.022-20.997,15.776c-4.666-0.415-9.799-2.906-14.932-2.076c-9.333,2.076-4.199,5.812-5.134,11.209
			c-1.865,9.964-13.998,5.397-20.062,11.21c-8.4,7.473,8.398,12.455,1.398,20.759c-3.266,3.737-9.332,3.321-8.398,9.133
			c0.933,5.398,7.932,6.229,9.799,10.795c1.866,4.982-2.333,6.643-1.867,10.795c0,3.321,5.133,6.643,6.532,9.549
			c-2.223-1.603-4.396-3.359-6.496-5.241c9.257,10.258,22.423,18.838,38.17,24.872c-0.876,3.597-1.709,7.322-2.457,11.118
			c-6.627,3.184-12.394,7.784-17.745,13.164c-7.471,7.512-13.847,16.768-17.951,26.582c-1.099,0.741-2.1,1.687-3.097,2.562
			c-2.69,2.357-4.442,6.527-5.076,9.963c-1.11,6.014,0.974,14.659,7.978,16.187c6.171,1.343,9.566-2.727,11.509-8.143
			c2.74,2.927,8.698,1.873,8.807-3.295c0.081-3.859-1.361-11.462-4.61-16.151c3.23-6.126,7.168-11.809,11.604-17.188
			c1.779-2.158,3.688-4.145,5.647-6.087v-1.487C185.95,287.215,186.028,287.627,186.108,288.04z M234.154,236.443
			c-0.344-1.231,0.285-0.742,1.168,0.021c1.938,1.673,4.201,2.975,6.643,3.86c1.411-1.494,3.338-2.37,5.418-1.999
			c0.92,0.164,1.726,0.567,2.432,1.111c0.706-0.544,1.512-0.947,2.432-1.111c2.142-0.382,4.125,0.553,5.546,2.129
			c0.37-0.113,0.739-0.233,1.107-0.367c2.767-1.009,4.542-3.079,6.998-4.525c0.468-0.276,1.142,0.181,0.951,0.731
			c-1.04,3.018-4.142,5.413-6.587,7.326c-0.716,0.561-1.481,1.066-2.282,1.517c-0.043,0.604-0.308,1.206-0.895,1.657
			c-5.51,4.229-12.229,4.687-16.659-1.191c-0.268-0.355-0.395-0.708-0.416-1.042C237.261,242.697,235.137,239.961,234.154,236.443z
			 M249.383,229.196c-7.337,0-13.285-4.089-13.285-9.134c0-3.94,3.637-7.288,8.723-8.569c0-0.05-0.005-0.099-0.005-0.149
			c0-3.668,2.046-6.642,4.567-6.642c2.522,0,4.567,2.974,4.567,6.642c0,0.051-0.005,0.1-0.005,0.149
			c5.086,1.281,8.724,4.629,8.724,8.569C262.669,225.107,256.721,229.196,249.383,229.196z M291.315,174.394
			c3.516,0,6.744,1.774,9.297,4.736c1.425,0.849,2.438,2.309,2.681,4.02c0.978,1.908,1.744,4.058,2.254,6.376
			c0.827,0.027,1.676-0.057,2.608-0.388c2.554-0.907,4.997-2.422,6.561-4.67c0.37-0.533,1.229-0.055,0.881,0.516
			c-1.613,2.654-3.988,4.841-6.982,5.818c-0.783,0.256-1.735,0.496-2.716,0.617c0.061,0.398,0.115,0.8,0.161,1.207
			c1.192,0.17,2.402,0.442,3.546,0.401c3.028-0.108,5.629-0.951,7.67-3.276c0.392-0.446,1.174,0.15,0.825,0.637
			c-1.865,2.608-4.264,4.144-7.427,4.708c-1.243,0.222-2.879,0.379-4.427,0.232c0.008,0.287,0.015,0.573,0.015,0.863
			c0,0.22-0.007,0.437-0.011,0.655c1.545,0.671,3.143,1.15,5.005,1.01c2.976-0.224,5.63-1.327,8.242-2.721
			c0.507-0.271,0.937,0.464,0.45,0.769c-4.055,2.54-9.265,4.315-13.807,3.004c-0.918,10.754-7.203,19.079-14.826,19.079
			c-8.255,0-14.946-9.759-14.946-21.797S283.061,174.394,291.315,174.394z M179.415,195.904c-0.487-0.305-0.058-1.04,0.449-0.769
			c2.613,1.394,5.268,2.497,8.243,2.721c1.954,0.146,3.618-0.387,5.236-1.11c-0.003-0.185-0.01-0.369-0.01-0.555
			c0-0.297,0.008-0.592,0.016-0.887c-1.615,0.188-3.354,0.024-4.66-0.208c-3.164-0.564-5.562-2.1-7.428-4.708
			c-0.349-0.486,0.434-1.083,0.825-0.637c2.041,2.325,4.643,3.168,7.67,3.276c1.22,0.043,2.515-0.269,3.783-0.435
			c0.044-0.385,0.096-0.767,0.153-1.145c-1.062-0.11-2.101-0.37-2.945-0.646c-2.993-0.978-5.369-3.165-6.982-5.818
			c-0.348-0.571,0.512-1.049,0.882-0.516c1.562,2.248,4.007,3.763,6.56,4.67c1.021,0.363,1.943,0.428,2.845,0.376
			c1.934-8.771,7.571-15.12,14.229-15.12c3.517,0,6.746,1.774,9.298,4.736c1.424,0.849,2.438,2.309,2.68,4.02
			c1.865,3.637,2.969,8.15,2.969,13.041c0,12.038-6.691,21.797-14.946,21.797c-7.639,0-13.936-8.36-14.832-19.148
			C188.854,200.279,183.537,198.487,179.415,195.904z"/>
		<path fill="#FFEBC2" d="M367.065,256.047c-0.028,0.018-0.058,0.032-0.086,0.049c-1.413,0.422-2.764,0.857-4.065,1.612
			c-0.307,0.177-0.575,0.382-0.815,0.604c-1.783-2.078-3.727-4.035-5.578-5.925c-0.165-0.169-0.334-0.339-0.5-0.509
			c-0.129,0.105-0.258,0.218-0.384,0.338c-2.786,2.671-7.143,9.068-8.161,14.682c-5.773,1.785-11.688,2.953-17.714,3.664
			c0.694,4.663,1.377,9.326,2.048,13.992c8.812-0.607,17.736-2.571,25.84-5.897c1.301,0.254,2.678,0.292,4.001,0.38
			c2.218,0.146,4.674-0.46,6.907-1.414c0.016-0.192,0.033-0.385,0.06-0.575c0.19-0.07,0.378-0.148,0.558-0.252
			c0.513,0.016,1.028-0.066,1.533-0.236c0.557-0.312,1.088-0.641,1.577-0.979c0.331-0.228,0.661-0.474,0.987-0.736
			c1.101-1.078,1.881-2.342,2.722-3.729c0.075,0.252,0.135,0.51,0.206,0.764c3.035-3.844,4.689-9.021,1.888-13.383
			c-2.866-4.465-7.052-4.835-11.4-3.386c0.241,0.253,0.484,0.505,0.72,0.764C367.293,255.931,367.177,255.98,367.065,256.047z"/>
		<path fill="#FFEBC2" d="M327.116,270.847c-5.034,0.483-9.97,0.277-15.006,0.228c-3.311-0.031-6.583-0.274-9.783-0.97
			c0.328,3.434,0.546,7.119,0.684,10.94c7.316,2.803,15.086,3.737,23.149,3.715c1.476-0.003,2.959-0.051,4.446-0.133
			c-0.76-4.635-1.509-9.272-2.245-13.913C327.946,270.758,327.532,270.807,327.116,270.847z"/>
		<path fill="#403829" d="M276.369,196.19c0,12.038,6.691,21.797,14.946,21.797c7.623,0,13.908-8.324,14.826-19.079
			c4.542,1.311,9.752-0.464,13.807-3.004c0.486-0.305,0.057-1.04-0.45-0.769c-2.612,1.394-5.267,2.497-8.242,2.721
			c-1.862,0.14-3.46-0.339-5.005-1.01c0.004-0.218,0.011-0.436,0.011-0.655c0-0.29-0.007-0.576-0.015-0.863
			c1.548,0.147,3.184-0.011,4.427-0.232c3.163-0.564,5.562-2.1,7.427-4.708c0.349-0.486-0.434-1.083-0.825-0.637
			c-2.041,2.325-4.642,3.168-7.67,3.276c-1.144,0.041-2.354-0.231-3.546-0.401c-0.046-0.406-0.101-0.808-0.161-1.207
			c0.98-0.122,1.933-0.361,2.716-0.617c2.994-0.978,5.369-3.165,6.982-5.818c0.348-0.571-0.511-1.049-0.881-0.516
			c-1.563,2.248-4.007,3.763-6.561,4.67c-0.933,0.331-1.781,0.415-2.608,0.388c-0.51-2.318-1.276-4.468-2.254-6.376
			c0.037,0.26,0.062,0.523,0.062,0.793c0,3.095-2.509,5.604-5.604,5.604s-5.605-2.509-5.605-5.604c0-3.096,2.51-5.605,5.605-5.605
			c1.046,0,2.023,0.292,2.861,0.792c-2.553-2.962-5.781-4.736-9.297-4.736C283.061,174.394,276.369,184.152,276.369,196.19z
			 M305.224,196.398c0,1.834-1.486,3.321-3.321,3.321c-1.834,0-3.321-1.487-3.321-3.321s1.487-3.321,3.321-3.321
			C303.737,193.077,305.224,194.563,305.224,196.398z"/>
		<path fill="#FFFFFF" d="M292.146,183.943c0,3.095,2.51,5.604,5.605,5.604s5.604-2.509,5.604-5.604c0-0.27-0.025-0.534-0.062-0.793
			c-0.243-1.711-1.256-3.17-2.681-4.02c-0.838-0.5-1.815-0.792-2.861-0.792C294.655,178.338,292.146,180.847,292.146,183.943z"/>
		<circle fill="#403829" cx="301.902" cy="196.398" r="3.321"/>
		<circle opacity="0.5" fill="#FFFFFF" cx="301.902" cy="196.398" r="3.321"/>
		<path fill="#403829" d="M208.28,217.987c8.255,0,14.946-9.759,14.946-21.797c0-4.891-1.104-9.404-2.969-13.041
			c0.037,0.26,0.062,0.523,0.062,0.793c0,3.095-2.509,5.604-5.604,5.604s-5.605-2.509-5.605-5.604c0-3.096,2.51-5.605,5.605-5.605
			c1.047,0,2.023,0.292,2.862,0.792c-2.552-2.962-5.781-4.736-9.298-4.736c-6.657,0-12.295,6.349-14.229,15.12
			c-0.901,0.052-1.823-0.014-2.845-0.376c-2.553-0.907-4.997-2.422-6.56-4.67c-0.37-0.533-1.229-0.055-0.882,0.516
			c1.613,2.654,3.989,4.841,6.982,5.818c0.845,0.276,1.884,0.536,2.945,0.646c-0.058,0.378-0.109,0.76-0.153,1.145
			c-1.269,0.166-2.563,0.478-3.783,0.435c-3.027-0.108-5.629-0.951-7.67-3.276c-0.392-0.446-1.174,0.15-0.825,0.637
			c1.865,2.608,4.264,4.144,7.428,4.708c1.306,0.233,3.045,0.396,4.66,0.208c-0.008,0.294-0.016,0.589-0.016,0.887
			c0,0.186,0.007,0.37,0.01,0.555c-1.618,0.724-3.282,1.257-5.236,1.11c-2.976-0.224-5.63-1.327-8.243-2.721
			c-0.507-0.271-0.937,0.464-0.449,0.769c4.122,2.583,9.439,4.375,14.033,2.935C194.345,209.627,200.642,217.987,208.28,217.987z
			 M218.868,193.077c1.834,0,3.32,1.486,3.32,3.321s-1.486,3.321-3.32,3.321c-1.835,0-3.321-1.487-3.321-3.321
			S217.033,193.077,218.868,193.077z"/>
		<path fill="#FFFFFF" d="M209.11,183.943c0,3.095,2.51,5.604,5.605,5.604s5.604-2.509,5.604-5.604c0-0.27-0.025-0.534-0.062-0.793
			c-0.242-1.711-1.256-3.17-2.68-4.02c-0.839-0.5-1.815-0.792-2.862-0.792C211.62,178.338,209.11,180.847,209.11,183.943z"/>
		<circle fill="#403829" cx="218.868" cy="196.398" r="3.321"/>
		<circle opacity="0.5" fill="#FFFFFF" cx="218.868" cy="196.398" r="3.321"/>
		<path fill="#F37D6B" d="M240.01,244.56c0.021,0.334,0.148,0.687,0.416,1.042c4.43,5.878,11.149,5.42,16.659,1.191
			c0.587-0.451,0.852-1.053,0.895-1.657c0.801-0.45,1.566-0.956,2.282-1.517c2.445-1.913,5.547-4.309,6.587-7.326
			c0.19-0.551-0.483-1.008-0.951-0.731c-2.456,1.446-4.231,3.517-6.998,4.525c-0.368,0.134-0.737,0.254-1.107,0.367
			c-1.421-1.576-3.404-2.511-5.546-2.129c-0.92,0.164-1.726,0.567-2.432,1.111c-0.706-0.544-1.512-0.947-2.432-1.111
			c-2.08-0.371-4.007,0.505-5.418,1.999c-2.441-0.886-4.704-2.188-6.643-3.86c-0.883-0.763-1.512-1.252-1.168-0.021
			C235.137,239.961,237.261,242.697,240.01,244.56z"/>
		<path fill="#F8B3AD" d="M253.945,211.493c0-0.05,0.005-0.099,0.005-0.149c0-3.668-2.045-6.642-4.567-6.642
			c-2.521,0-4.567,2.974-4.567,6.642c0,0.051,0.005,0.1,0.005,0.149c-5.086,1.281-8.723,4.629-8.723,8.569
			c0,5.045,5.948,9.134,13.285,9.134c7.338,0,13.286-4.089,13.286-9.134C262.669,216.122,259.031,212.774,253.945,211.493z"/>
		<path fill="#6E3A17" d="M332.458,238.462c-0.232-0.123-0.46-0.257-0.689-0.386c-0.527,0.638-0.979,1.263-1.267,1.867
			C331.159,239.464,331.811,238.968,332.458,238.462z"/>
		<path fill="#8F583D" d="M153.048,230.395c-0.466-4.152,3.733-5.812,1.867-10.795c-1.867-4.566-8.866-5.396-9.799-10.795
			c-0.934-5.812,5.133-5.396,8.398-9.133c7-8.304-9.799-13.286-1.398-20.759c6.064-5.812,18.197-1.246,20.062-11.21
			c0.935-5.397-4.199-9.134,5.134-11.209c5.133-0.83,10.266,1.661,14.932,2.076c16.331,1.246,10.266-11.625,20.997-15.776
			c9.333-3.737,20.064,7.473,28.464-0.415c2.715-2.416,3.494-6.551,3.949-10.024c0.447,3.474,1.217,7.608,3.893,10.024
			c8.279,7.888,18.859-3.322,28.058,0.415c10.58,4.152,4.601,17.022,20.7,15.776c4.6-0.415,9.659-2.906,14.718-2.076
			c9.201,2.076,4.141,5.812,5.061,11.209c1.84,9.964,13.8,5.397,19.779,11.21c8.279,7.473-8.279,12.455-1.38,20.759
			c3.219,3.737,9.199,3.321,8.278,9.133c-0.919,5.398-7.818,6.229-9.658,10.795c-1.84,4.982,2.3,6.643,1.84,10.795
			c0,1.833-1.542,3.666-3.156,5.43c0.257,0.134,0.515,0.269,0.781,0.396c0.133,0.063,0.269,0.123,0.402,0.185
			c2.537-2.159,4.98-4.509,7.282-7.023c12.889-14.083,21.323-33.165,17.153-50.984c1.805-6.978,1.184-14.534-2.316-20.658
			c-2.075-4.567-6.643-7.888-7.473-13.286c-0.831-6.643-2.906-7.888-8.304-11.209c-5.397-3.737-4.982-3.737-6.643-9.964
			c-1.245-4.982-3.321-10.379-7.059-14.116c-4.566-4.567-8.303-2.076-13.285-4.567c-5.397-2.491-5.812-8.303-8.719-12.87
			c-3.321-5.397-7.474-8.719-13.7-9.134c-4.982-0.415-9.135,2.907-13.701,2.491c-4.982-0.83-9.135-6.643-14.116-8.303
			c-5.397-2.076-9.964-3.737-15.361-2.491c-4.981,1.246-8.304,4.982-12.87,6.643c-4.567,1.246-8.719-0.415-13.701-0.83
			c-12.871-2.076-17.438,1.661-24.495,11.625c-6.228,9.134-18.269,4.152-26.156,12.455c-3.736,4.152-3.321,8.719-5.812,13.286
			c-2.491,5.812-5.812,6.643-11.21,8.719c-4.566,1.661-8.303,3.321-10.794,8.303c-2.076,4.152-0.416,8.719-2.907,13.286
			c-2.49,4.566-7.058,6.643-8.719,12.04c-1.915,4.598-0.649,7.432,0.21,11.757c-0.6,1.724-1.145,3.477-1.623,5.265
			c-5.791,20.611,6.024,43.174,22.434,57.865c2.101,1.882,4.273,3.639,6.496,5.241C158.181,237.037,153.048,233.716,153.048,230.395
			z M204.816,132.409c-4.985-0.248-11.649-0.153-13.299,5.79c-1.26,4.539-2.193,10.066-7.918,10.921
			c-2.924,0.437-5.731-0.154-8.57-0.853c-2.916-0.717-7.219-2.15-9.961-0.215c-5.933,4.188-0.312,11.574-2.977,17.054
			c-1.994,4.102-6.259,5.216-10.347,6.179c-2.21,0.521-4.636,0.965-6.582,2.201c-2.58,1.638-3.553,4.224-4.35,7.06
			c-0.21,0.751-1.306,0.58-1.333-0.18c-0.173-4.926,2.737-8.501,7.297-10.086c3.773-1.311,10.043-1.49,11.934-5.665
			c2.284-5.044-2.711-12.41,2.202-16.733c4.698-4.135,9.917-2.894,15.506-1.702c3.302,0.704,7.755,1.524,9.672-2.166
			c1.196-2.302,1.166-5.006,2.101-7.4c1.866-4.787,6.181-7.377,11.224-7.613c8.384-0.394,24.268,5.832,26.851-6.055
			c0.132-0.605,1.013-0.34,0.915,0.252C225.347,134.289,213.346,132.833,204.816,132.409z M328.239,163.556
			c-3.179-1.505-3.034-3.741-2.197-6.751c1.126-4.053,1.607-12.459-3.719-13.863c-4.613-1.215-10.071,1.465-14.369,2.908
			c-3.991,1.339-9.154,2.846-13.191,0.832c-2.827-1.41-4.852-3.267-6.193-6.148c-1.264-2.717-1.67-6.158-3.787-8.41
			c-3.951-4.203-8.283-1.855-13.098-0.979c-2.644,0.481-5.256,1.287-7.915,1.664c-5.43,0.77-8.29-1.915-9.515-7.109
			c-0.151-0.644,0.785-0.898,0.985-0.272c1.288,4.023,3.62,6.259,7.912,5.142c2.915-0.758,5.843-1.601,8.738-2.413
			c3.038-0.852,6.711-2.487,9.924-1.563c3.13,0.9,5.774,3.178,7.176,6.134c1.242,2.62,1.817,5.664,3.482,8.061
			c7.142,10.284,19.477-0.83,28.709,0.315c4.255,0.527,6.731,3.7,7.468,7.838c0.426,2.395,0.482,4.805-0.039,7.191
			c-0.234,1.073-1.189,3.023-0.805,4.118c0.646,1.833,5.422,2.469,6.955,2.836c2.462,0.59,5.021,0.95,7.422,1.765
			c4.548,1.542,7.441,4.573,5.486,9.494c-0.361,0.912-1.793,0.574-1.505-0.415c0.71-2.443,0.552-4.8-1.911-6.103
			C339.296,165.204,333.289,165.947,328.239,163.556z M317.87,115.278c1.025,2.977,1.145,6.509,2.969,9.159
			c2.592,3.763,6.139,3.797,10.143,4.681c3.068,0.677,4.544,2.91,5.693,5.691c0.154,0.375-0.478,0.637-0.654,0.275
			c-0.926-1.905-2.096-3.976-4.399-4.309c-1.444-0.209-2.897-0.04-4.344-0.184c-2.889-0.288-5.812-1.293-7.76-3.571
			c-3.706-4.336-2.569-11.808-7.524-15.096c-6.06-4.021-16.004-1.136-18.409-9.74c-0.992-3.55-5.962-6.382-9.332-7.238
			c-1.907-0.484-4.04-0.75-5.928-0.001c-1.948,0.772-3.1,2.309-4.725,3.505c-0.252,0.186-0.557-0.119-0.492-0.379
			c1.877-7.69,12.726-5.254,17.354-2.229c1.357,0.887,3.228,1.952,4.25,3.228c1.32,1.648,1.35,4.122,3.231,5.279
			c4.149,2.549,9.185,1.672,13.452,3.824C314.433,109.704,316.749,112.022,317.87,115.278z M264.156,96.762
			c2.128-8.147,11.226-11.634,19.026-10.429c4.045,0.625,6.776,2.681,10.004,5.056c3.671,2.701,7.795,6.07,12.055,2.462
			c0.802-0.679,1.816,0.343,1.146,1.146c-5.452,6.531-12.994-0.734-17.953-4.015c-7.384-4.886-19.591-2.217-23.226,6.224
			C264.944,97.822,263.996,97.375,264.156,96.762z M303.532,120.788c0,2.906,0,1.453,0,4.359
			c-35.031-21.467-79.144-21.467-114.174,0c0-2.907,0-1.453,0-4.359c17.331-10.621,36.886-19.402,56.463-19.513
			C265.815,101.161,285.833,109.942,303.532,120.788z M206.857,89.115c2.881-5.383,12.786-5.107,17.73-3.881
			c5.788,1.436,11.514,5.084,11.336,11.682c-0.018,0.629-0.91,0.611-0.964,0c-0.547-6.236-6.956-9.342-12.54-9.936
			c-5.589-0.593-9.72,0.721-14.675,3.023C207.166,90.273,206.533,89.719,206.857,89.115z M177.18,106.873
			c14.252-3.96,35.309-26.667,48.098-8.335c0.316,0.453-0.424,1.027-0.768,0.592c-13.206-16.69-32.619,7.967-46.64,10.249
			C176.252,109.641,175.532,107.331,177.18,106.873z M159.656,135.044c4.148-1.693,8.627-2.256,13.049-2.748
			c3.251-0.361,5.315-3.525,5.468-6.739c0.113-2.397,0.227-4.458,1.522-6.541c1.272-2.046,2.685-3.902,4.468-5.534
			c3.448-3.155,7.477-5.048,11.986-6.192c0.273-0.07,0.389,0.345,0.117,0.422c-5.423,1.537-10.829,4.978-13.512,10.091
			c-1.397,2.665-1.541,4.821-1.528,7.753c0.01,2.077-0.454,3.535-1.47,5.34c-1.215,2.157-2.688,4.089-5.268,4.54
			c-3.754,0.656-7.54,0.831-11.22,1.939c-3.239,0.975-6.043,2.333-7.143,5.735c-1.075,3.33-1.959,6.724-3.003,10.065
			c-1.003,3.213-2.833,6.131-5.561,8.208c-1.46,1.113-3.057,1.697-4.694,2.471c-2.207,1.043-2.835,2.53-3.393,4.833
			c-0.129,0.534-1.032,0.583-1.126,0c-0.613-3.817,1.236-5.708,4.547-7.161c4.582-2.01,7.337-5.68,8.315-10.496
			C152.514,144.629,152.756,137.859,159.656,135.044z"/>
		<path fill="#FFCD13" d="M189.358,125.147c35.03-21.467,79.143-21.467,114.174,0c0-2.906,0-1.454,0-4.359
			c-17.699-10.846-37.717-19.627-57.711-19.513c-19.577,0.111-39.132,8.892-56.463,19.513
			C189.358,123.694,189.358,122.241,189.358,125.147z"/>
		<path fill="#FFF6D4" d="M283.603,396.049c0,0.569-0.174,1.403-0.363,2.295c0.74,0.018,1.488,0.046,2.23,0.066
			c1.452,0.041,2.902,0.078,4.363,0.131L283.603,396.049z"/>
		<path fill="#FFF6D4" d="M186.14,288.191c-0.01-0.05-0.021-0.1-0.031-0.151c-0.08-0.413-0.158-0.825-0.246-1.242v1.487v0.381
			c0.078-0.024,0.159-0.047,0.238-0.069c0.037-0.012,0.075-0.022,0.112-0.033C186.188,288.439,186.163,288.315,186.14,288.191z"/>
		<path fill="#FFF6D4" d="M302.327,270.104c-0.021-0.236-0.047-0.47-0.069-0.703c-0.134,0.064-0.262,0.134-0.407,0.187
			c-1.747,0.626-4.135-0.184-5.123-1.802c-0.838-0.802-1.475-1.804-1.722-2.87c-0.264-1.142-0.104-2.412,0.437-3.477
			c-20.276,9.141-43.243,16.388-64.743,20.688c-13.879,2.776-32.337,2.805-44.486,6.437c0.131,0.663,0.247,1.32,0.368,1.979
			c2.987,16.316,2.873,31.539,1.149,46.696c-2.209,19.421-4.419,32.04-7.473,62.585c2.565,0,5.11-0.015,7.643-0.035
			c2.624-8.447,5.587-16.768,6.854-25.329c2.491-13.701,4.152-29.062,10.38-41.518c0.415,12.041,0,23.665-0.83,35.29
			c-0.701,8.064,0.966,22.348-2.25,31.345c9.579-0.198,18.979-0.484,28.317-0.748c1.253-0.036,2.509-0.073,3.76-0.107
			c1.046-10.038,0.743-19.927,1.726-30.075c1.661-17.021,6.643-33.628,9.134-51.064c0.387,27.055,4.009,53.752,5.178,80.759
			c3.587-0.067,7.181-0.111,10.779-0.14c6.972-0.058,13.975-0.041,21.062,0.114c-2.717-12.586-1.313-26.959-1.313-39.217
			c0-18.268,0-37.78,4.152-55.634c3.215,31.346,2.93,65.026,12.321,95.393c4.876,0.244,9.801,0.558,14.796,0.967
			c2.802-22.419-8.407-46.706-9.342-70.058c0-11.893,0.998-31.649,0.387-48.722C302.873,277.224,302.655,273.538,302.327,270.104z"
			/>
		<path fill="#FFF9EB" d="M284.849,303.465c-4.152,17.854-4.152,37.366-4.152,55.634c0,12.258-1.403,26.631,1.313,39.217
			c0.409,0.01,0.819,0.019,1.229,0.028c0.189-0.892,0.363-1.726,0.363-2.295l6.23,2.492c2.434,0.088,4.879,0.193,7.337,0.316
			C287.778,368.491,288.063,334.811,284.849,303.465z"/>
		<path fill="#FFF9EB" d="M244.991,317.582c-2.491,17.437-7.473,34.044-9.134,51.064c-0.982,10.148-0.68,20.037-1.726,30.075
			c5.354-0.146,10.693-0.282,16.037-0.381C249,371.334,245.378,344.637,244.991,317.582z"/>
		<path fill="#FFF9EB" d="M204.305,368.232c0.83-11.625,1.245-23.249,0.83-35.29c-6.228,12.455-7.889,27.816-10.38,41.518
			c-1.268,8.562-4.23,16.882-6.854,25.329c4.517-0.038,8.979-0.109,13.407-0.198c0.248-0.005,0.499-0.009,0.747-0.014
			C205.271,390.58,203.604,376.297,204.305,368.232z"/>
		<path fill="#FFCD13" d="M302.846,260.157c-0.527-0.555-1.142-0.902-1.796-1.086c-1.235-0.349-2.611-0.104-3.814,0.511
			c-0.808,0.411-1.398,1.08-1.793,1.857c-0.541,1.064-0.7,2.335-0.437,3.477c0.247,1.066,0.884,2.068,1.722,2.87
			c0.988,1.618,3.376,2.428,5.123,1.802c0.146-0.053,0.273-0.122,0.407-0.187C305.607,267.785,305.085,262.514,302.846,260.157z"/>
		<path fill="#DDD4BB" d="M331.999,285.867c-0.062-0.438-0.127-0.876-0.189-1.312c-0.671-4.666-1.354-9.329-2.048-13.992
			c-0.951-6.383-1.925-12.764-2.938-19.137c-0.312-1.967-0.638-3.931-0.96-5.895c-0.618-3.771-1.241-7.541-1.837-11.316
			c-0.222-1.4-0.417-2.824-0.615-4.254c-0.724-1.222-1.332-2.499-1.849-3.818c0.425,2.77,0.944,5.532,1.353,8.244
			c0.6,4.004,1.17,8.014,1.747,12.021c0.251,1.744,0.499,3.489,0.759,5.232c0.945,6.363,1.932,12.721,2.94,19.073
			c0.736,4.641,1.485,9.278,2.245,13.913c0.078,0.474,0.153,0.945,0.231,1.419c3.534,21.517,5.983,43.295,10.173,64.702
			c0.101-0.893,0.245-1.776,0.441-2.649C338.979,327.28,334.976,306.61,331.999,285.867z"/>
		<path fill="#FFCD13" d="M334.567,236.22c-0.267-0.127-0.524-0.262-0.781-0.396c-9.947-5.226-12.026-15.91-14.313-26.168
			c-0.136-0.606-1.001-0.472-0.95,0.146c0.454,5.587,1.062,11.278,3.04,16.34c0.517,1.319,1.125,2.597,1.849,3.818
			c1.347,2.268,3.088,4.345,5.367,6.145c0.938,0.741,1.947,1.384,2.99,1.971c0.229,0.129,0.457,0.263,0.689,0.386
			c0.39,0.206,0.785,0.403,1.184,0.596c1.77,0.854,3.607,1.581,5.406,2.298c4.253,1.694,8.359,3.603,12.336,5.877
			c1.57,1.531,3.11,3.092,4.637,4.646c0.166,0.17,0.335,0.34,0.5,0.509c1.852,1.89,3.795,3.847,5.578,5.925
			c0.24-0.223,0.509-0.428,0.815-0.604c1.302-0.755,2.652-1.19,4.065-1.612c0.028-0.017,0.058-0.031,0.086-0.049
			c0.111-0.066,0.228-0.116,0.342-0.173c-0.235-0.259-0.479-0.511-0.72-0.764c-2.724-2.856-5.814-5.386-9.067-7.598
			c-3.405-2.317-7.062-4.27-10.768-6.067c-0.56-0.385-1.123-0.767-1.691-1.145c-0.24-0.161-0.48-0.09-0.629,0.069
			c-2.846-1.243-5.779-2.278-8.62-3.535c-0.315-0.14-0.63-0.284-0.942-0.431C334.836,236.343,334.7,236.283,334.567,236.22z"/>
		<path fill="#FFCD13" d="M376.2,271.879c-0.071-0.254-0.131-0.512-0.206-0.764c-0.841,1.387-1.621,2.65-2.722,3.729
			c-0.483,0.473-1.021,0.914-1.666,1.309c-0.291,0.179-0.593,0.305-0.898,0.407c-0.505,0.17-1.021,0.252-1.533,0.236
			c-0.18,0.104-0.367,0.182-0.558,0.252c-0.026,0.19-0.044,0.383-0.06,0.575c-0.146,1.72,0.089,3.52,0.479,5.277
			c0.199,2.447,0.675,4.881,1.893,6.848c0.948,3.385,1.715,6.748,1.413,10.339c-0.439,5.233-3.35,10.387-5.619,15.029
			c-1.496,3.06-3.066,6.146-4.754,9.152c-2.777,2.924-5.781,5.596-8.91,8.143c-2.999,2.441-5.936,4.945-8.217,8.096
			c-1.729,2.385-2.796,4.941-3.391,7.592c-0.196,0.873-0.341,1.757-0.441,2.649c-0.662,5.906,0.638,12.145,1.958,17.927
			c0.137,0.604,1.003,0.474,0.949-0.146c-0.905-10.512-2.206-21.362,5.944-29.422c2.982-2.949,6.474-5.318,9.564-8.146
			c3.214-2.94,6.265-6.076,9.037-9.438c5.318-6.45,9.229-13.991,10.528-22.298c0.915-5.856,0.3-11.897-0.97-17.808
			C377.657,278.184,377.073,274.985,376.2,271.879z"/>
		<path fill="#966C54" d="M227.181,123.198c0.098-0.592-0.783-0.858-0.915-0.252c-2.583,11.887-18.467,5.662-26.851,6.055
			c-5.043,0.236-9.357,2.827-11.224,7.613c-0.935,2.394-0.904,5.098-2.101,7.4c-1.917,3.69-6.37,2.87-9.672,2.166
			c-5.589-1.192-10.808-2.433-15.506,1.702c-4.913,4.323,0.082,11.689-2.202,16.733c-1.891,4.175-8.16,4.354-11.934,5.665
			c-4.56,1.584-7.47,5.16-7.297,10.086c0.027,0.76,1.123,0.932,1.333,0.18c0.797-2.836,1.77-5.422,4.35-7.06
			c1.946-1.235,4.372-1.68,6.582-2.201c4.088-0.963,8.353-2.078,10.347-6.179c2.665-5.48-2.956-12.866,2.977-17.054
			c2.742-1.936,7.045-0.502,9.961,0.215c2.839,0.699,5.646,1.29,8.57,0.853c5.725-0.855,6.658-6.383,7.918-10.921
			c1.649-5.943,8.313-6.037,13.299-5.79C213.346,132.833,225.347,134.289,227.181,123.198z"/>
		<path fill="#966C54" d="M151.213,151.032c-0.979,4.815-3.733,8.486-8.315,10.496c-3.311,1.453-5.16,3.343-4.547,7.161
			c0.094,0.583,0.997,0.534,1.126,0c0.558-2.303,1.186-3.79,3.393-4.833c1.638-0.773,3.234-1.358,4.694-2.471
			c2.728-2.078,4.558-4.995,5.561-8.208c1.044-3.341,1.928-6.735,3.003-10.065c1.1-3.402,3.903-4.76,7.143-5.735
			c3.68-1.108,7.466-1.283,11.22-1.939c2.58-0.451,4.053-2.383,5.268-4.54c1.016-1.805,1.479-3.263,1.47-5.34
			c-0.013-2.932,0.131-5.088,1.528-7.753c2.683-5.113,8.089-8.555,13.512-10.091c0.271-0.077,0.156-0.492-0.117-0.422
			c-4.51,1.144-8.538,3.037-11.986,6.192c-1.783,1.632-3.195,3.488-4.468,5.534c-1.296,2.083-1.409,4.144-1.522,6.541
			c-0.152,3.213-2.217,6.378-5.468,6.739c-4.422,0.491-8.9,1.055-13.049,2.748C152.756,137.859,152.514,144.629,151.213,151.032z"/>
		<path fill="#966C54" d="M344.253,167.828c2.463,1.303,2.621,3.66,1.911,6.103c-0.288,0.989,1.144,1.327,1.505,0.415
			c1.955-4.921-0.938-7.952-5.486-9.494c-2.401-0.815-4.96-1.175-7.422-1.765c-1.533-0.367-6.31-1.003-6.955-2.836
			c-0.385-1.094,0.57-3.045,0.805-4.118c0.521-2.387,0.465-4.796,0.039-7.191c-0.736-4.139-3.213-7.311-7.468-7.838
			c-9.232-1.145-21.567,9.968-28.709-0.315c-1.665-2.396-2.24-5.441-3.482-8.061c-1.401-2.957-4.046-5.234-7.176-6.134
			c-3.213-0.924-6.886,0.711-9.924,1.563c-2.896,0.812-5.823,1.655-8.738,2.413c-4.292,1.117-6.624-1.119-7.912-5.142
			c-0.2-0.626-1.137-0.372-0.985,0.272c1.225,5.194,4.085,7.878,9.515,7.109c2.659-0.377,5.271-1.183,7.915-1.664
			c4.814-0.876,9.146-3.224,13.098,0.979c2.117,2.252,2.523,5.693,3.787,8.41c1.342,2.881,3.366,4.738,6.193,6.148
			c4.037,2.014,9.2,0.507,13.191-0.832c4.298-1.442,9.756-4.123,14.369-2.908c5.326,1.403,4.845,9.81,3.719,13.863
			c-0.837,3.01-0.981,5.247,2.197,6.751C333.289,165.947,339.296,165.204,344.253,167.828z"/>
		<path fill="#966C54" d="M294.712,99.071c-1.022-1.275-2.893-2.34-4.25-3.228c-4.629-3.025-15.478-5.461-17.354,2.229
			c-0.064,0.26,0.24,0.565,0.492,0.379c1.625-1.196,2.776-2.732,4.725-3.505c1.888-0.749,4.021-0.483,5.928,0.001
			c3.37,0.856,8.34,3.688,9.332,7.238c2.405,8.604,12.35,5.718,18.409,9.74c4.955,3.288,3.818,10.76,7.524,15.096
			c1.947,2.278,4.871,3.283,7.76,3.571c1.446,0.144,2.899-0.025,4.344,0.184c2.304,0.333,3.474,2.403,4.399,4.309
			c0.177,0.362,0.809,0.1,0.654-0.275c-1.149-2.781-2.625-5.014-5.693-5.691c-4.004-0.884-7.551-0.918-10.143-4.681
			c-1.824-2.649-1.943-6.182-2.969-9.159c-1.121-3.256-3.438-5.574-6.475-7.105c-4.268-2.152-9.303-1.275-13.452-3.824
			C296.062,103.193,296.032,100.719,294.712,99.071z"/>
		<path fill="#966C54" d="M265.209,97.207c3.635-8.441,15.842-11.11,23.226-6.224c4.959,3.281,12.501,10.546,17.953,4.015
			c0.67-0.803-0.345-1.825-1.146-1.146c-4.26,3.608-8.384,0.239-12.055-2.462c-3.228-2.375-5.959-4.431-10.004-5.056
			c-7.801-1.205-16.898,2.281-19.026,10.429C263.996,97.375,264.944,97.822,265.209,97.207z"/>
		<path fill="#966C54" d="M207.745,90.003c4.955-2.302,9.086-3.616,14.675-3.023c5.584,0.593,11.993,3.699,12.54,9.936
			c0.054,0.611,0.946,0.629,0.964,0c0.178-6.598-5.548-10.247-11.336-11.682c-4.944-1.226-14.85-1.502-17.73,3.881
			C206.533,89.719,207.166,90.273,207.745,90.003z"/>
		<path fill="#966C54" d="M177.87,109.378c14.021-2.281,33.434-26.938,46.64-10.249c0.344,0.435,1.084-0.139,0.768-0.592
			c-12.789-18.331-33.846,4.375-48.098,8.335C175.532,107.331,176.252,109.641,177.87,109.378z"/>
	</g>
</g>
<g>
</g>
<g>
</g>
<g>
</g>
<g>
</g>
<g>
</g>
<g>
</g>
</svg>
