<?xml version="1.0" encoding="utf-8"?>
<!-- Generator: Adobe Illustrator 16.0.4, SVG Export Plug-In . SVG Version: 6.00 Build 0)  -->
<!DOCTYPE svg PUBLIC "-//W3C//DTD SVG 1.1//EN" "http://www.w3.org/Graphics/SVG/1.1/DTD/svg11.dtd">
<svg version="1.1" id="Hera" xmlns="http://www.w3.org/2000/svg" xmlns:xlink="http://www.w3.org/1999/xlink" x="0px" y="0px"
	 width="490px" height="490px" viewBox="0 0 490 490" enable-background="new 0 0 490 490" xml:space="preserve">
<ellipse fill="#4E8298" cx="245" cy="245" rx="224.618" ry="239.141"/>
<g>
	<path fill="#5E3E22" d="M249.511,103.723c-8.391-14.198-40.66-26.461-52.922-11.617c-4.519,5.163-3.228,12.908-10.973,16.135
		c-5.808,2.582-15.488-0.646-21.297,0c-6.454,0.646-15.49,1.937-20.008,7.1c-5.163,5.809-1.936,14.198-6.453,19.361
		c-4.519,5.163-14.845,4.518-20.008,9.035c-5.163,5.163-6.454,12.908-4.518,20.008c1.291,7.099,5.809,12.262,6.454,20.007
		c0.646,9.035-3.228,13.553-6.454,21.298c-5.163,17.426,9.681,23.88,10.972,40.015c1.291,16.779-9.035,26.461,1.291,41.95
		c4.518,6.454,9.681,12.262,9.681,20.652c0,6.454-6.454,12.907-5.163,20.007c3.227,18.717,30.979,7.1,38.078,20.652
		c4.518,7.745-3.228,12.263,8.39,17.426c7.745,3.227,14.844,0.646,22.589-0.646c8.39-1.291,18.071-3.227,26.461-1.291
		c10.972,2.582,12.908,7.745,20.652-5.163c10.326-15.489,12.263-36.787,10.326-54.857c-1.29-11.617,0-23.234-0.646-34.852
		c-0.645-15.489-4.518-29.688-5.163-45.178c-0.646-24.524-1.936-49.694-4.518-74.22c-0.646-10.326,5.809-32.269,0-40.014"/>
	<path fill="#5E3E22" d="M245.865,103.723c8.39-14.198,40.659-26.461,52.922-11.617c4.518,5.163,3.227,12.908,10.972,16.135
		c5.809,2.582,15.489-0.646,21.298,0c6.454,0.646,15.489,1.937,20.007,7.1c5.163,5.809,1.937,14.198,6.454,19.361
		s14.844,4.518,20.007,9.035c5.163,5.163,6.454,12.908,4.518,20.008c-1.291,7.099-5.809,12.262-6.453,20.007
		c-0.646,9.035,3.227,13.553,6.453,21.298c5.163,17.426-9.681,23.88-10.972,40.015c-1.29,16.779,9.036,26.461-1.29,41.95
		c-4.519,6.454-9.682,12.262-9.682,20.652c0,6.454,6.454,12.907,5.163,20.007c-3.227,18.717-30.979,7.1-38.077,20.652
		c-4.519,7.745,3.227,12.263-8.391,17.426c-7.744,3.227-14.844,0.646-22.589-0.646c-8.39-1.291-18.07-3.227-26.461-1.291
		c-10.972,2.582-12.907,7.745-20.652-5.163c-10.326-15.489-12.263-36.787-10.326-54.857c1.291-11.617,0-23.234,0.646-34.852
		c0.646-15.489,4.518-29.688,5.163-45.178c0.646-24.524,1.937-49.694,4.518-74.22c0.646-10.326-5.809-32.269,0-40.014"/>
	<ellipse fill="#FFFFFF" cx="245.96" cy="335.74" rx="48.082" ry="49.372"/>
	<ellipse fill="#FFEBC2" cx="244.993" cy="183.105" rx="111.007" ry="72.284"/>
	<path fill="#FFEBC2" d="M302.333,297.454c-1.098-4.969-1.602-9.987-1.617-15.074c-0.028-9.48,1.138-19.226-0.885-28.573
		c-0.526-2.434,0.482-4.358,2.056-5.516c-2.616-11.235-5.712-21.438-8.113-29.044l-48.78,5.497l-48.781-5.497
		c-2.348,7.435-2.64,18.753-5.217,29.688c3.08,0.169,3.493,1.375,2.602,5.301c-3.985,17.551-5.365,35.678-5.401,53.646
		c-0.004,1.913-0.827,3.295-2.016,4.152c2.432,7.084,6.312,13.146,12.111,17.565c8.196,6.243,28.202,8.383,45.143,8.673v0.033
		c0.516-0.002,1.036-0.007,1.56-0.012c0.522,0.005,1.043,0.01,1.559,0.012v-0.033c16.94-0.29,36.946-2.43,45.143-8.673
		c6.747-5.141,10.895-12.508,13.188-21.118C304.276,304.761,303.147,301.137,302.333,297.454z"/>
	<g>
		<path fill="#FFEBC2" d="M225.307,388.34c0.78-2.612,1.237-2.354,0.835-5.163c-3.227-22.589-4.467-40.336-2.49-59.22
			c0.058-0.542,0.119-1.083,0.188-1.622c-0.572,4.749,0.321-2.864,0.344-2.54c0.154-2.541-0.234-5.071-0.31-7.611
			c-0.165-5.611-6.172-9.241-11.153-6.399c-6.344,3.618-16.006-7.647-19.492-1.346c-3.743,6.767,2.515,43.432,1.29,50.986
			c-2.367,14.614-1.29,20.007,0.352,32.915H225.307z"/>
	</g>
	<path fill="#FFEBC2" d="M202.263,384.468c-5.809,0-16.135,3.872-18.717,9.681c-7.099,13.553,14.845,8.39,22.589,6.454
		c19.362-3.228,23.88-5.809,14.845-23.234"/>
	<g>
		<path fill="#FFEBC2" d="M263.811,388.34c-0.781-2.612-1.237-2.354-0.836-5.163c3.228-22.589,4.468-40.336,2.49-59.22
			c-0.057-0.542-0.119-1.083-0.188-1.622c0.573,4.749-0.321-2.864-0.344-2.54c-0.153-2.541,0.235-5.071,0.31-7.611
			c0.166-5.611,6.172-9.241,11.153-6.399c6.345,3.618,16.006-7.647,19.493-1.346c3.743,6.767-2.515,43.432-1.291,50.986
			c2.368,14.614,1.291,20.007-0.351,32.915H263.811z"/>
	</g>
	<path fill="#FFEBC2" d="M286.854,384.468c5.809,0,16.135,3.872,18.716,9.681c7.1,13.553-14.844,8.39-22.589,6.454
		c-19.361-3.228-23.879-5.809-14.844-23.234"/>
	<g>
		<path fill="#403829" d="M318.364,165.651c-3.723,5.691-9.775,4.435-15.502,4.461c-0.878,0.005-1.375,1.363-0.478,1.762
			c5.909,2.624,13.804-0.155,16.815-5.734C319.498,165.587,318.704,165.13,318.364,165.651L318.364,165.651z"/>
	</g>
	<g>
		<path fill="#403829" d="M314.589,159.551c-2.009,2.143-4.489,3.362-7.285,4.163c-2.098,0.603-4.572,0.572-6.479,1.639
			c-0.446,0.251-0.396,1.05,0.15,1.148c2.421,0.434,5.274-0.57,7.545-1.383c2.754-0.984,4.918-2.631,6.711-4.926
			C315.58,159.745,315,159.112,314.589,159.551L314.589,159.551z"/>
	</g>
	<g>
		<path fill="#403829" d="M308.091,154.608c-1.503,4.005-5.55,5.866-9.311,7.087c-0.98,0.317-0.568,1.678,0.419,1.517
			c4.154-0.68,8.935-4.076,9.621-8.402C308.896,154.329,308.265,154.146,308.091,154.608L308.091,154.608z"/>
	</g>
	<g>
		<path fill="#403829" d="M178.214,165.651c3.723,5.691,9.775,4.435,15.502,4.461c0.878,0.005,1.374,1.363,0.477,1.762
			c-5.909,2.624-13.803-0.155-16.814-5.734C177.08,165.587,177.873,165.13,178.214,165.651L178.214,165.651z"/>
	</g>
	<g>
		<path fill="#403829" d="M181.989,159.551c2.008,2.143,4.489,3.362,7.284,4.163c2.099,0.603,4.573,0.572,6.479,1.639
			c0.447,0.251,0.396,1.05-0.149,1.148c-2.422,0.434-5.274-0.57-7.545-1.383c-2.755-0.984-4.918-2.631-6.711-4.926
			C180.997,159.745,181.578,159.112,181.989,159.551L181.989,159.551z"/>
	</g>
	<g>
		<path fill="#403829" d="M188.487,154.608c1.503,4.005,5.55,5.866,9.31,7.087c0.981,0.317,0.569,1.678-0.418,1.517
			c-4.155-0.68-8.936-4.076-9.622-8.402C187.682,154.329,188.313,154.146,188.487,154.608L188.487,154.608z"/>
	</g>
	<path fill="#FFEBC2" d="M195.87,253.513c-11.158,2.699-20.037,9.061-28.029,17.095c-7.741,7.784-14.35,17.377-18.603,27.548
		c-1.139,0.768-2.176,1.748-3.21,2.654c-2.787,2.443-4.604,6.766-5.261,10.325c-1.15,6.232,1.01,15.192,8.269,16.773
		c6.395,1.394,9.914-2.824,11.926-8.438c2.84,3.034,9.015,1.941,9.127-3.415c0.084-3.998-1.41-11.878-4.778-16.737
		c3.349-6.349,7.429-12.239,12.026-17.813c3.334-4.044,7.104-7.509,10.83-11.163c3.381-3.317,6.996-6.298,11.266-8.378
		C204.301,259.591,200.799,252.32,195.87,253.513z"/>
	<g>
		<ellipse fill="#403829" cx="290.815" cy="176.651" rx="15.489" ry="22.589"/>
		<circle fill="#FFFFFF" cx="297.484" cy="163.959" r="5.809"/>
		<circle opacity="0.5" fill="#FFFFFF" cx="301.787" cy="176.866" r="3.442"/>
		<ellipse fill="#403829" cx="204.764" cy="176.651" rx="15.489" ry="22.589"/>
		<circle fill="#FFFFFF" cx="211.433" cy="163.959" r="5.809"/>
		<circle opacity="0.5" fill="#FFFFFF" cx="215.735" cy="176.866" r="3.442"/>
		<g>
			<path fill="#C9483A" d="M226.319,215.994c2.578,9.236,11.398,14.229,20.664,13.673c4.336-0.261,8.631-2.002,12.052-4.68
				c3.062-2.397,6.95-5.399,8.254-9.181c0.238-0.69-0.606-1.263-1.192-0.917c-3.078,1.812-5.302,4.407-8.769,5.671
				c-3.129,1.14-6.286,1.644-9.594,1.896c-7.337,0.56-14.621-1.833-19.952-6.436C226.676,215.064,225.889,214.451,226.319,215.994
				L226.319,215.994z"/>
		</g>
		<path fill="#F8B3AD" d="M252.087,192.511c0.001-0.052,0.005-0.103,0.005-0.154c0-3.803-2.119-6.884-4.733-6.884
			c-2.613,0-4.733,3.081-4.733,6.884c0,0.052,0.005,0.103,0.005,0.154c-5.27,1.327-9.039,4.797-9.039,8.881
			c0,5.228,6.164,9.466,13.768,9.466c7.605,0,13.77-4.238,13.77-9.466C261.128,197.308,257.358,193.838,252.087,192.511z"/>
	</g>
	<path fill="#5E3E22" d="M240.843,110.823c-4.538-10.538-16.944-10.561-26.813-9.114c-10.978,1.609-21.647,5.514-31.968,9.473
		c-14.266,5.473-28.759,11.149-40.4,21.345c-5.638,4.937-10.584,11.333-13.4,18.31c-3.055,7.566-3.909,15.718-3.926,23.821
		c-0.017,8.317,1.113,16.625,2.475,24.814c1.68,10.105,0.313,20.128,0.101,30.285c-0.103,4.905,0.289,9.792,1.375,14.579
		c1.036,4.568,3.067,8.975,4.896,13.271c1.757,4.125,3.616,8.199,5.09,12.439c1.705,4.906,2.279,9.913,2.957,15.03
		c0.046,0.342,0.188,0.603,0.38,0.787c0.126,1.034,1.137,1.952,2.179,1.169c4.85-3.647,12.393-6.308,13.046-13.229
		c0.573-6.071-4.143-8.533-8.02-12.106c-3.726-3.433-2.8-8.624,0.332-11.995c3.166-3.408,7.303-5.751,10.52-9.119
		c8.619-9.022,3.477-20.242-3.824-28.13c-3.203-3.459-7.775-6.854-8.832-11.692c-1.26-5.769,6.396-10.602,10.417-13.023
		c5.348-3.221,8.972-7.735,8.054-14.344c-0.407-2.926-1.869-5.329-3.67-7.613c-2.03-2.576-4.243-4.978-3.543-8.492
		c2.182-10.951,19.295-7.611,27.12-9.828c5.21-1.476,8.277-5.095,10.138-10.018c1.275-3.378-0.279-8.016,3.843-9.401
		c11.688-3.934,26.19,2.849,36.92-4.25c4.292-2.839,5.981-7.44,6.608-12.324C243.038,110.351,241.407,110.002,240.843,110.823z"/>
	<path fill="#5E3E22" d="M252.895,110.823c4.537-10.538,16.943-10.561,26.813-9.114c10.977,1.609,21.646,5.514,31.967,9.473
		c14.266,5.473,28.759,11.149,40.4,21.345c5.639,4.937,10.584,11.333,13.401,18.31c3.054,7.566,3.909,15.718,3.925,23.821
		c0.017,8.317-1.113,16.625-2.475,24.814c-1.68,10.105-0.313,20.128-0.101,30.285c0.103,4.905-0.288,9.792-1.375,14.579
		c-1.036,4.568-3.067,8.975-4.896,13.271c-1.757,4.125-3.616,8.199-5.089,12.439c-1.706,4.906-2.28,9.913-2.958,15.03
		c-0.045,0.342-0.188,0.603-0.379,0.787c-0.127,1.034-1.138,1.952-2.179,1.169c-4.851-3.647-12.394-6.308-13.047-13.229
		c-0.573-6.071,4.143-8.533,8.021-12.106c3.726-3.433,2.8-8.624-0.333-11.995c-3.166-3.408-7.303-5.751-10.52-9.119
		c-8.619-9.022-3.477-20.242,3.824-28.13c3.203-3.459,7.776-6.854,8.832-11.692c1.26-5.769-6.395-10.602-10.417-13.023
		c-5.348-3.221-8.972-7.735-8.054-14.344c0.407-2.926,1.87-5.329,3.67-7.613c2.031-2.576,4.244-4.978,3.543-8.492
		c-2.181-10.951-19.295-7.611-27.12-9.828c-5.21-1.476-8.277-5.095-10.137-10.018c-1.276-3.378,0.278-8.016-3.844-9.401
		c-11.688-3.934-26.189,2.849-36.92-4.25c-4.292-2.839-5.98-7.44-6.607-12.324C250.698,110.351,252.329,110.002,252.895,110.823z"/>
	<path fill="#5E3E22" d="M262.418,106.95c-4.518-7.745-23.233-7.1-28.397,1.936c-9.681,19.362,26.461,16.135,34.206,6.454"/>
	<path fill="#FFEBC2" d="M299.385,264.516c8.712,7.476,19.063,10.962,30.255,12.749c10.841,1.731,22.486,1.486,33.225-1.009
		c1.289,0.476,2.691,0.743,4.03,1.053c3.611,0.833,8.181-0.22,11.453-1.768c5.728-2.709,11.735-9.699,8.775-16.513
		c-2.606-6.003-8.087-6.393-13.817-4.744c0.803-4.078-3.693-8.449-8.105-5.409c-3.292,2.269-8.812,8.087-10.787,13.66
		c-7.108,0.994-14.271,1.127-21.482,0.655c-5.23-0.342-10.244-1.374-15.389-2.261c-4.668-0.806-9.199-1.996-13.383-4.244
		C299.388,254.123,295.536,261.214,299.385,264.516z"/>
	<path fill="#F8C036" d="M368.55,226.9v31.408c0.187-0.241,0.398-0.475,0.646-0.696c0.835-0.749,1.751-1.407,2.581-2.151
		c0.888-0.795,1.844-1.222,2.796-1.377V226.9c2.537-2.737,4.304-8.819,4.304-15.89c0-6.492-1.49-12.151-3.698-15.152
		c0.953-0.94,1.546-2.248,1.546-3.696c0-2.863-2.311-5.185-5.163-5.185c-2.852,0-5.163,2.321-5.163,5.185
		c0,1.448,0.594,2.756,1.547,3.696c-2.208,3.001-3.698,8.66-3.698,15.152C364.246,218.081,366.013,224.163,368.55,226.9z"/>
	<path fill="#F8C036" d="M368.55,276.729V404.69h6.022V276.637C372.668,277.179,370.641,277.259,368.55,276.729z"/>
	<g>
		<path fill="#FFF7D8" d="M306.59,339.237c-1.042-20.96-2.659-42.11-2.34-63.107c0.078-5.158,3.401-27.229-2.481-30.614
			c-3.244,2.095-16.977,11.595-26.872,13.746c-10.033,2.182-23.228,6.352-34.036,5.423c-16.305,1.031-39.061-11.468-44.702-15.749
			c-4.886-3.708-5.804-0.563-8.526,5.233c-0.818,1.745-0.271,4.691-0.334,6.612c-0.087,2.644-0.279,5.283-0.529,7.915
			c-1.079,11.331-3.77,22.364-4.141,33.78c-0.438,13.488,1.098,26.957,1.125,40.443c0.028,14.11-3.203,27.722-5.375,41.583
			c-0.118,0.752,0.18,1.653,1.035,1.825c2.906,0.585,5.814,0.418,8.668,0.814c1.428-5.816,4.02-11.885,4.635-17.734
			c0.861-10.757,3.873-21.083,5.594-31.409c2.582-13.338,1.291-30.548,7.314-42.596c9.83,31.066-1.178,65.007-2.816,96.896
			c6.514,0.318,10.953-4.494,17.118-5.792c4.35-0.916,8.539,1.142,12.714,3.163c-0.889-10.754,0.091-22.236,0.091-32.739
			c0-6.884-1.721-30.549,2.581-34.421c0.861,16.78,6.454,33.561,9.466,50.341c0.848,5.93,1.513,12.597,2.719,18.914
			c1.621-0.642,3.21-1.459,4.786-2.177c1.723-0.194,3.425-0.17,5.133,0.011c-0.948-5.663-2.228-11.268-2.741-17.178
			c-0.86-9.036,0-18.502-0.86-27.968c-1.291-14.198-3.442-32.699-0.86-46.897c-0.431,21.082,4.302,42.165,10.326,61.957
			c3.58,10.738,5.711,22.098,7.686,33.36c2.932,0.573,5.808,0.636,9.03-0.393c3.732-1.192,7.264-3.172,11.162-3.332
			c-0.447-14.533-2.584-28.798-3.354-43.404c-0.43-8.605-4.303-29.688,1.291-36.572c4.52,27.528,7.478,55.839,13.354,83.063
			c1.799,0.617,3.633,1.089,5.578,1.128c0.81,0.015,1.648-0.733,1.58-1.581C308.191,374.297,307.461,356.757,306.59,339.237z"/>
		<path fill="#FFFFFF" d="M205.624,295.403c-6.023,12.048-4.732,29.258-7.314,42.596c-1.721,10.326-4.732,20.652-5.594,31.409
			c-0.615,5.85-3.207,11.918-4.635,17.734c1.368,0.191,2.726,0.51,4.062,1.106c3.309,1.476,6.104,3.567,9.824,3.996
			c0.286,0.032,0.562,0.041,0.84,0.054C204.446,360.41,215.454,326.47,205.624,295.403z"/>
		<path fill="#FFFFFF" d="M235.312,322.51c-4.302,3.872-2.581,27.537-2.581,34.421c0,10.503-0.979,21.985-0.091,32.739
			c2.861,1.386,5.717,2.755,8.611,3.137c2.155,0.285,4.225-0.241,6.245-1.042c-1.206-6.317-1.871-12.984-2.719-18.914
			C241.766,356.07,236.173,339.29,235.312,322.51z"/>
		<path fill="#FFFFFF" d="M287.804,345.744c0.77,14.606,2.906,28.871,3.354,43.404c0.848-0.035,1.71,0.012,2.598,0.176
			c3.012,0.557,5.808,1.921,8.693,2.911c-5.876-27.225-8.834-55.535-13.354-83.063C283.501,316.056,287.374,337.139,287.804,345.744
			z"/>
		<path fill="#FFFFFF" d="M252.953,297.556c-2.582,14.198-0.431,32.699,0.86,46.897c0.86,9.466,0,18.932,0.86,27.968
			c0.514,5.91,1.793,11.515,2.741,17.178c2.668,0.282,5.354,0.954,8.169,1.829c1.87,0.581,3.636,1.104,5.381,1.445
			c-1.975-11.263-4.105-22.622-7.686-33.36C257.255,339.721,252.522,318.638,252.953,297.556z"/>
	</g>
	<g>
		<path fill="#F8C036" d="M306.069,251.753c-0.446-0.427-1.002-1.089-1.144-1.422c-0.146-0.348-0.257-0.704-0.327-1.074
			c0.053,0.363,0.063,0.37,0.035,0.021c-0.015-0.263,0.006-0.511-0.027-0.772c-1.154,1.154-2.31,2.31-3.465,3.465
			c-1.271-0.166,1.154,0.548-0.188-0.044c0.24,0.106,0.808,0.548-0.037-0.12c0.16,0.127,0.295,0.284,0.428,0.438
			c-0.682-0.791-0.271-0.331-0.127-0.063c-0.486-0.903-0.164-0.392-0.074-0.076c0.075,0.26,0.13,1.032,0.02-0.07
			c0.025,0.257,0.021,0.516,0.017,0.772c1.278-1.277,2.556-2.556,3.834-3.834c-0.348,0.04-1.769-0.053-0.502,0.131
			c-0.289-0.041-0.993-0.333,0.116,0.141c-0.289-0.123-0.78-0.568,0.134,0.182c-0.246-0.202-0.575-0.753,0.103,0.203
			c-0.166-0.234-0.446-0.922,0.022,0.207c-0.381-0.917-0.582-1.854-1.407-2.521c-1.097-0.889-2.307-1.382-3.738-0.988
			c-1.409,0.387-2.159,1.398-2.684,2.684c-0.99,2.43,1.066,5.25,2.936,6.597c1.77,1.273,3.992,1.261,6.04,0.897
			c1.6-0.283,2.892-2.122,2.814-3.697c-0.107-2.194-0.72-3.967-2.098-5.679c-1.271-1.578-3.67-2.252-5.608-2.089
			c-2.793,0.234-4.084,2.723-2.992,5.215c0.455,1.038,1.506,1.921,2.361,2.646c0.928,0.786,1.979,1.514,3.014,2.15
			C305.562,256.305,307.794,253.404,306.069,251.753L306.069,251.753z"/>
	</g>
	<g>
		<path fill="#F8C036" d="M192.381,250.751c0.326-0.3,0.585-0.65,0.778-1.047c-0.419,0.321-0.837,0.643-1.256,0.965
			c0.927-0.222,1.591-0.708,2.074-1.532c1.931-3.297-3.242-6.306-5.104-2.983c-0.285,0.51-0.514,1.047-0.808,1.552
			c-0.469,0.806,0.433-0.489-0.13,0.212c-0.172,0.214-0.358,0.407-0.556,0.598c0.589-0.569,0.064-0.055-0.14,0.066
			c-0.76,0.456,0.735-0.237-0.11,0.041c-0.216,0.07-1.063,0.18-0.103,0.081c-0.398,0.041-0.801-0.004-1.195-0.057
			c1.074,1.871,2.148,3.743,3.222,5.614c0.147-0.325,0.306-0.635,0.485-0.943c0.248-0.364,0.249-0.379,0.003-0.043
			c0.139-0.159,0.287-0.31,0.443-0.452c-0.375,0.264-0.389,0.278-0.045,0.045c0.381-0.201,0.335-0.2-0.136,0.003
			c0.341-0.14,0.711-0.184,1.068-0.261c4.229-0.919,3.234-7.544-1.011-7.462c-3.771,0.073-6.306,3.003-7.628,6.238
			c-1,2.445,1.454,4.516,3.598,4.724c5.115,0.494,9.38-4.234,8.443-9.25c-1.801,0.759-3.602,1.519-5.402,2.277
			c0.343,0.602,0.789,1.025,1.411,1.32c-0.347-0.604-0.693-1.209-1.04-1.813c0.02-0.089,0.04-0.178,0.06-0.266
			C188.276,250.365,190.72,252.277,192.381,250.751L192.381,250.751z"/>
	</g>
	<g>
		<path fill="#77421B" d="M235.871,107.813c-3.288,5.696-9.992,5.598-15.739,4.627c-5.884-0.992-11.574-2.815-17.512-3.552
			c-5.992-0.742-13.043,0.903-16.742,5.974c-2.903,3.979-3.647,9.673-4.958,14.328c-0.792,2.81-1.71,5.69-4.667,6.853
			c-3.277,1.288-7.03,1.141-10.487,1.175c-3.258,0.033-6.431-0.039-9.66,0.487c-3.462,0.564-6.841,2.136-9.829,3.952
			c-6.561,3.988-9.754,11.418-7.702,18.845c1.575,5.708,6.117,10.582,9.206,15.525c1.079,1.729-0.833,4.714-1.943,5.972
			c-1.715,1.939-3.859,3.474-5.942,4.984c-4.02,2.916-8.074,5.783-10.534,10.216c-2.873,5.177-1.232,11.241,0.98,16.315
			c2.747,6.297,11.246,7.57,13.623,14.163c1.362,3.778-1.605,6.972-4.07,10.112c-3.361,4.283-5.973,8.183-6.443,13.735
			c-0.494,5.833,3.356,10.306,7.481,13.823c1.831,1.561,3.642,3.094,4.834,5.214c1.854,3.294,0.38,7.348-1.098,10.471
			c-0.796,1.681-1.748,3.189-2.431,4.94c-0.547,1.401,1.516,2.496,2.478,1.442c2.536-2.777,5.462-5.648,7.069-9.08
			c1.326-2.831,0.826-6.685-0.32-9.499c-2.066-5.076-6.932-7.315-10.093-11.481c-3.345-4.407-1.234-9.052,2.222-12.558
			c3.54-3.588,7.405-6.694,9.14-11.607c2.129-6.032-2.108-13.086-6.592-16.733c-2.703-2.2-5.752-3.833-8.593-5.825
			c-2.928-2.052-4.399-4.084-4.482-7.788c-0.112-4.951,4.834-8.193,8.4-10.725c4.051-2.876,8.221-5.755,10.885-10.06
			c1.518-2.453,1.44-5.011,1.801-7.758c0.424-3.223-1.482-6.361-3.03-9.047c-1.35-2.341-3.195-4.524-4.144-7.07
			c-1.221-3.278,0.062-6.278,1.896-9.05c1.768-2.671,4.792-5.267,7.842-6.313c3.283-1.126,7.327-0.688,10.735-0.566
			c6.375,0.225,13.693-0.441,18.056-5.729c2.012-2.437,3.555-4.45,4.454-7.573c0.72-2.497,1.094-5.077,1.875-7.559
			c1.519-4.819,7.77-4.794,11.973-4.812c5.979-0.024,11.9,0.88,17.895,0.59c5.077-0.245,10.703-1.173,14.033-5.393
			c0.785-0.993,1.271-2.125,1.684-3.314C237.739,107.542,236.343,106.996,235.871,107.813L235.871,107.813z"/>
	</g>
	<g>
		<path fill="#77421B" d="M265.899,112.073c1.436,3.114,2.895,5.205,6.005,6.796c3.252,1.663,6.917,2.242,10.521,2.342
			c5.219,0.145,11.5-1.255,16.174-0.627c4.314,0.58,6.61,3.609,9.028,7.678c3.442,5.793,5.563,12.006,12.329,14.586
			c2.24,0.854,5.105,0.857,7.464,0.656c3.786-0.321,7.366-0.363,11.067,0.609c6.856,1.803,9.209,9.085,6.159,14.946
			c-3.011,5.786-6.647,11.227-6.102,18.062c0.693,8.68,10.165,11.16,12.797,18.736c0.909,2.615,1.71,5.563,1.166,8.334
			c-0.521,2.66-2.011,4.804-3.6,6.93c-3.931,5.258-8.099,10.766-10.385,16.972c-1.901,5.163-1.496,9.902,0.948,14.759
			c0.845,1.677,1.822,3.229,2.324,5.051c0.596,2.166,0.053,4.008,0.24,6.196c0.124,1.469,1.41,2.736,2.971,2.263
			c7.771-2.355,5.891-11.389,2.82-16.854c-1.364-2.429-2.17-4.334-1.479-7.146c1.137-4.62,4.058-8.585,6.313-12.712
			c3.513-6.428,5.876-13.862,4.641-21.188c-0.648-3.854-2.304-7.061-4.42-10.28c-2.142-3.26-4.575-5.877-5.243-9.847
			c-1.068-6.351,3.02-10.952,5.327-16.526c2.688-6.488,1.776-13.621-4.073-18.027c-5.773-4.349-13.164-4.796-19.853-6.86
			c-2.067-0.639-4.525-1.008-6.31-1.949c-2.113-1.116-3.643-4.253-4.825-6.395c-4.604-8.341-9.329-15.957-19.656-16.66
			c-4.369-0.298-8.888,0.658-13.214,1.15c-5.226,0.596-13.51,2.342-17.252-2.446C266.885,109.469,265.374,110.932,265.899,112.073
			L265.899,112.073z"/>
	</g>
	<g>
		<path fill="#77421B" d="M338.905,286.452c-1.279,2.684-2.662,5.124-4.41,7.582c-0.945,1.33-1.796,2.74-2.994,3.855
			c-1.519,1.414-3.215,2.444-4.449,4.158c-2.284,3.172-2.533,7.167-0.929,10.657c0.634,1.38,1.923,2.538,2.963,3.618
			c1.072,1.113,1.366,2.299,1.702,3.795c0.246,1.103,0.231,2.131,0.219,3.251c0.006-0.428-0.219,0.855-0.211,0.827
			c0.014-0.044-1.311,1.903-0.323,0.757c-1.4,1.627-3.68,2.768-5.554,3.734c-3.603,1.859-9.518,6.072-8.205,10.936
			c0.26,0.963,1.398,1.153,2.094,0.553c0.993-0.856,1.503-2.106,2.437-3.039c0.88-0.88,1.999-1.424,3.066-2.031
			c2.125-1.208,4.428-1.8,6.671-2.717c5.504-2.249,9.57-6.317,8.736-12.726c-0.518-3.978-1.98-7.187-4.81-10.037
			c-2.558-2.577-0.113-4.21,1.964-6.365c2.152-2.234,9.984-16.792,2.993-17.359C339.509,285.873,339.06,286.128,338.905,286.452
			L338.905,286.452z"/>
	</g>
	<path fill="#F8C036" d="M274.035,118.33c-2.581-2.653-3.227-5.639-3.227-8.624h-0.646c-3.873,1.659-6.454,4.312-9.035,6.303
		c-2.17-6.134-11.632-12.735-14.596-18.821l-0.007-0.086h-1.13l-0.006,0.086c-2.965,6.086-12.426,12.688-14.596,18.821
		c-2.582-1.99-5.163-4.644-9.035-6.303h-0.646c0,2.985-0.646,5.971-3.228,8.624c-5.162-2.984-14.844-6.965-21.942-8.292
		c3.227,4.312,8.39,7.629,12.907,11.278l37.11-0.938l37.109,0.938c4.519-3.649,9.681-6.966,12.908-11.278
		C288.879,111.365,279.198,115.346,274.035,118.33z"/>
	<g>
		<path fill="none" d="M241.082,224.569c1.209,0.463,2.382,1.027,3.566,1.484c-0.34-0.251-0.611-0.634-0.745-1.178
			c-0.646-2.622-3.334-2.583-5.477-2.586c-1.233-0.002-2.334-0.01-3.439-0.166c1.566,1.249,2.986,2.685,4.713,3.63
			C239.694,225.017,240.337,224.284,241.082,224.569z"/>
		<path fill="none" d="M245.672,226.417c0.122,0.038,0.246,0.072,0.369,0.107c0.139-0.034,0.275-0.072,0.413-0.111
			c-0.094-0.003-0.186-0.009-0.277-0.022C246.009,226.417,245.84,226.428,245.672,226.417z"/>
		<path fill="none" d="M253.338,222.297c-2.021,0.021-4.3,0.183-4.89,2.579c-0.12,0.487-0.353,0.843-0.645,1.093
			c1.122-0.418,2.249-0.933,3.467-1.399c0.711-0.272,1.329,0.383,1.379,1.083c1.705-0.972,3.11-2.312,4.69-3.531
			C256.044,222.301,254.755,222.283,253.338,222.297z"/>
		<path fill="#C9483A" d="M259.313,219.672c-4.173-0.034-9.902-1.834-13.137,1.274c-3.235-3.108-8.965-1.309-13.139-1.274
			c-0.961,0.008-1.173,1.301-0.479,1.795c-0.094,0.183-0.128,0.396-0.095,0.621c1.708,11.298,21.935,15.947,27.423,0
			c0.075-0.214,0-0.438-0.094-0.621C260.486,220.973,260.275,219.68,259.313,219.672z M246.041,226.524
			c-0.123-0.035-0.247-0.069-0.369-0.107c0.168,0.011,0.337,0,0.505-0.026c0.092,0.014,0.184,0.02,0.277,0.022
			C246.316,226.452,246.18,226.49,246.041,226.524z M234.987,222.124c1.105,0.156,2.206,0.164,3.439,0.166
			c2.143,0.003,4.831-0.036,5.477,2.586c0.134,0.544,0.405,0.927,0.745,1.178c-1.185-0.457-2.357-1.021-3.566-1.484
			c-0.745-0.285-1.388,0.447-1.382,1.185C237.974,224.809,236.554,223.373,234.987,222.124z M252.649,225.652
			c-0.05-0.7-0.668-1.355-1.379-1.083c-1.218,0.467-2.345,0.981-3.467,1.399c0.292-0.25,0.524-0.605,0.645-1.093
			c0.59-2.396,2.868-2.558,4.89-2.579c1.417-0.014,2.706,0.004,4.002-0.176C255.76,223.341,254.354,224.681,252.649,225.652z"/>
	</g>
</g>
<g>
</g>
<g>
</g>
<g>
</g>
<g>
</g>
<g>
</g>
<g>
</g>
</svg>
