<?xml version="1.0" encoding="utf-8"?>
<!-- Generator: Adobe Illustrator 16.0.4, SVG Export Plug-In . SVG Version: 6.00 Build 0)  -->
<!DOCTYPE svg PUBLIC "-//W3C//DTD SVG 1.1//EN" "http://www.w3.org/Graphics/SVG/1.1/DTD/svg11.dtd">
<svg version="1.1" id="Ebene_1" xmlns="http://www.w3.org/2000/svg" xmlns:xlink="http://www.w3.org/1999/xlink" x="0px" y="0px"
	 width="500px" height="500px" viewBox="390 0 500 500" enable-background="new 390 0 500 500" xml:space="preserve">
<g>
	<path fill="#61DAFB" d="M846.072,249.034c0-27.297-34.185-53.167-86.595-69.209c12.095-53.418,6.72-95.918-16.966-109.524
		c-5.46-3.192-11.843-4.704-18.814-4.704v18.73c3.863,0,6.972,0.756,9.575,2.184c11.423,6.551,16.378,31.497,12.515,63.581
		c-0.924,7.896-2.436,16.21-4.283,24.693c-16.463-4.031-34.437-7.139-53.335-9.155c-11.339-15.539-23.098-29.649-34.94-41.996
		c27.381-25.45,53.083-39.392,70.553-39.392v-18.73c-23.098,0-53.334,16.462-83.907,45.02
		c-30.573-28.389-60.81-44.684-83.907-44.684v18.73c17.387,0,43.172,13.859,70.553,39.14
		c-11.759,12.347-23.518,26.373-34.688,41.912c-18.982,2.016-36.956,5.124-53.419,9.239c-1.932-8.399-3.359-16.546-4.367-24.357
		c-3.947-32.084,0.924-57.03,12.263-63.665c2.52-1.512,5.796-2.184,9.659-2.184v-18.73c-7.056,0-13.438,1.512-18.982,4.704
		c-23.602,13.606-28.893,56.022-16.714,109.272c-52.242,16.126-86.259,41.912-86.259,69.125c0,27.297,34.185,53.166,86.595,69.209
		c-12.095,53.418-6.72,95.918,16.966,109.524c5.46,3.191,11.844,4.703,18.898,4.703c23.098,0,53.334-16.462,83.907-45.02
		c30.573,28.39,60.81,44.684,83.907,44.684c7.056,0,13.438-1.512,18.982-4.703c23.602-13.606,28.893-56.022,16.714-109.272
		C812.057,302.116,846.072,276.247,846.072,249.034L846.072,249.034z M736.716,193.012c-3.107,10.835-6.972,22.006-11.339,33.177
		c-3.443-6.719-7.055-13.438-11.003-20.158c-3.863-6.719-7.979-13.271-12.095-19.654
		C714.206,188.141,725.713,190.324,736.716,193.012L736.716,193.012z M698.248,282.463c-6.552,11.338-13.271,22.09-20.242,32.084
		c-12.515,1.092-25.197,1.681-37.964,1.681c-12.683,0-25.365-0.589-37.796-1.597c-6.972-9.994-13.774-20.662-20.326-31.916
		c-6.383-11.003-12.179-22.174-17.47-33.429c5.207-11.255,11.087-22.51,17.386-33.513c6.552-11.339,13.271-22.089,20.242-32.084
		c12.515-1.092,25.197-1.68,37.964-1.68c12.683,0,25.365,0.588,37.796,1.596c6.972,9.995,13.774,20.662,20.326,31.917
		c6.383,11.003,12.179,22.174,17.47,33.429C710.343,260.205,704.547,271.46,698.248,282.463L698.248,282.463z M725.377,271.544
		c4.535,11.255,8.399,22.509,11.591,33.429c-11.003,2.688-22.594,4.955-34.604,6.719c4.115-6.467,8.231-13.103,12.095-19.906
		C718.322,285.066,721.934,278.264,725.377,271.544L725.377,271.544z M640.21,361.162c-7.812-8.062-15.622-17.05-23.35-26.877
		c7.56,0.336,15.286,0.588,23.098,0.588c7.896,0,15.706-0.168,23.35-0.588C655.748,344.112,647.938,353.1,640.21,361.162z
		 M577.721,311.691c-11.927-1.764-23.434-3.947-34.437-6.635c3.107-10.836,6.971-22.006,11.339-33.177
		c3.443,6.72,7.055,13.438,11.003,20.157C569.573,298.757,573.604,305.309,577.721,311.691z M639.79,136.906
		c7.812,8.063,15.622,17.05,23.35,26.877c-7.56-0.336-15.286-0.588-23.098-0.588c-7.896,0-15.706,0.168-23.35,0.588
		C624.252,153.956,632.062,144.969,639.79,136.906z M577.637,186.376c-4.116,6.467-8.231,13.103-12.095,19.906
		c-3.864,6.719-7.476,13.438-10.919,20.158c-4.536-11.255-8.399-22.51-11.591-33.429
		C554.035,190.408,565.626,188.141,577.637,186.376L577.637,186.376z M501.624,291.533c-29.732-12.682-48.967-29.312-48.967-42.499
		s19.234-29.901,48.967-42.5c7.224-3.108,15.119-5.879,23.266-8.483c4.788,16.462,11.087,33.597,18.898,51.151
		c-7.728,17.47-13.942,34.521-18.646,50.898C516.827,297.497,508.932,294.641,501.624,291.533L501.624,291.533z M546.812,411.558
		c-11.423-6.552-16.378-31.497-12.515-63.582c0.924-7.895,2.436-16.21,4.283-24.693c16.463,4.031,34.437,7.14,53.335,9.155
		c11.339,15.538,23.098,29.648,34.94,41.995c-27.381,25.45-53.083,39.393-70.553,39.393
		C552.523,413.741,549.331,412.985,546.812,411.558L546.812,411.558z M746.039,347.556c3.947,32.085-0.924,57.03-12.263,63.666
		c-2.52,1.512-5.796,2.184-9.659,2.184c-17.386,0-43.172-13.858-70.553-39.141c11.759-12.347,23.518-26.373,34.688-41.911
		c18.982-2.016,36.956-5.124,53.419-9.239C743.604,331.598,745.115,339.744,746.039,347.556z M778.376,291.533
		c-7.224,3.108-15.119,5.88-23.266,8.483c-4.788-16.462-11.087-33.597-18.898-51.15c7.728-17.47,13.942-34.521,18.646-50.899
		c8.314,2.604,16.21,5.459,23.602,8.567c29.732,12.683,48.967,29.313,48.967,42.5C827.343,262.221,808.108,278.936,778.376,291.533
		L778.376,291.533z"/>
	<circle fill="#61DAFB" cx="639.958" cy="249.034" r="38.384"/>
	<path fill="#61DAFB" d="M723.613,65.597"/>
</g>
</svg>
